<?xml version="1.0" encoding="UTF-8" standalone="no"?>
<svg
   xmlns:dc="http://purl.org/dc/elements/1.1/"
   xmlns:cc="http://creativecommons.org/ns#"
   xmlns:rdf="http://www.w3.org/1999/02/22-rdf-syntax-ns#"
   xmlns:svg="http://www.w3.org/2000/svg"
   xmlns="http://www.w3.org/2000/svg"
   id="svg422"
   xml:space="preserve"
   viewBox="0 0 1677.573 1677.573"
   version="1.1"
   enable-background="new 0 0 1677.573 1677.573"><metadata
   id="metadata428"><rdf:RDF><cc:Work
       rdf:about=""><dc:format>image/svg+xml</dc:format><dc:type
         rdf:resource="http://purl.org/dc/dcmitype/StillImage" /><dc:title></dc:title></cc:Work></rdf:RDF></metadata><defs
   id="defs426" />
	<path
   id="path2"
   d="m 1377.6,299.95 c 0,-0.114 0,-0.228 0,-0.342 -8.378,0.028 -16.762,-0.057 -25.135,0.04 -2.861,0.539 -5.637,1.43 -8.458,2.106 -2.571,0.732 -5.347,1.067 -7.589,2.634 -4.49,2.986 -8.35,6.806 -12.176,10.581 -6.25,-6.244 -12.499,-12.488 -18.721,-18.755 6.857,-6.692 14.634,-12.613 23.546,-16.297 6.67,-2.662 13.6,-4.768 20.713,-5.864 7.867,-1.447 15.905,-1.061 23.863,-1.124 h 30.635 v 0.341 h 0.341 v 30.635 c -0.063,7.958 0.323,15.996 -1.124,23.863 -1.095,7.112 -3.201,14.043 -5.864,20.713 -3.684,8.912 -9.604,16.688 -16.297,23.545 -6.267,-6.221 -12.511,-12.471 -18.755,-18.721 3.775,-3.826 7.595,-7.686 10.581,-12.176 1.567,-2.242 1.902,-5.018 2.634,-7.589 0.676,-2.821 1.567,-5.597 2.106,-8.458 0.097,-8.373 0.011,-16.757 0.04,-25.135 -0.113,0 -0.227,0 -0.341,0 z" />
	<path
   id="path4"
   d="m 1600.8,838.79 c 0.081,-0.08 0.161,-0.161 0.242,-0.241 -5.944,-5.904 -11.813,-11.893 -17.801,-17.745 -2.404,-1.642 -4.997,-2.974 -7.47,-4.491 -2.336,-1.3 -4.536,-3.026 -7.229,-3.504 -5.286,-1.064 -10.717,-1.092 -16.091,-1.128 0,-8.834 -0.01,-17.669 0.024,-26.499 9.581,0.116 19.266,1.429 28.173,5.126 6.599,2.834 12.989,6.245 18.792,10.5 6.587,4.54 11.997,10.496 17.669,16.079 l 21.662,21.662 -0.241,0.241 0.241,0.241 -21.662,21.662 c -5.672,5.583 -11.082,11.54 -17.669,16.079 -5.804,4.255 -12.194,7.666 -18.792,10.5 -8.907,3.697 -18.592,5.009 -28.173,5.126 -0.032,-8.83 -0.028,-17.665 -0.024,-26.499 5.374,-0.036 10.805,-0.064 16.091,-1.128 2.693,-0.478 4.893,-2.204 7.229,-3.504 2.473,-1.517 5.065,-2.85 7.47,-4.491 5.989,-5.852 11.857,-11.841 17.801,-17.745 -0.08,-0.08 -0.161,-0.161 -0.242,-0.241 z" />
	<path
   id="path6"
   d="m 1377.6,1377.6 c 0.114,0 0.228,0 0.342,0 -0.028,-8.378 0.057,-16.762 -0.04,-25.135 -0.539,-2.861 -1.43,-5.637 -2.106,-8.458 -0.732,-2.571 -1.067,-5.347 -2.634,-7.589 -2.986,-4.49 -6.806,-8.35 -10.581,-12.176 6.244,-6.25 12.488,-12.499 18.755,-18.721 6.692,6.857 12.613,14.634 16.297,23.546 2.662,6.67 4.768,13.6 5.864,20.713 1.448,7.867 1.062,15.905 1.124,23.863 v 30.635 h -0.341 v 0.341 h -30.635 c -7.958,-0.063 -15.996,0.323 -23.863,-1.124 -7.112,-1.095 -14.043,-3.201 -20.713,-5.864 -8.912,-3.684 -16.688,-9.604 -23.546,-16.297 6.221,-6.267 12.471,-12.511 18.721,-18.755 3.826,3.775 7.686,7.595 12.176,10.581 2.242,1.567 5.018,1.902 7.589,2.634 2.821,0.676 5.597,1.567 8.458,2.106 8.373,0.097 16.757,0.011 25.135,0.04 -10e-4,-0.113 0,-0.227 0,-0.341 z" />
	<path
   id="path8"
   d="m 838.79,1600.8 c 0.08,0.081 0.161,0.161 0.241,0.242 5.904,-5.944 11.893,-11.813 17.745,-17.801 1.642,-2.404 2.974,-4.997 4.491,-7.47 1.3,-2.336 3.026,-4.536 3.504,-7.229 1.064,-5.286 1.092,-10.717 1.128,-16.091 8.834,0 17.669,-0.01 26.499,0.024 -0.116,9.581 -1.429,19.266 -5.126,28.173 -2.834,6.599 -6.245,12.989 -10.5,18.792 -4.54,6.587 -10.496,11.997 -16.079,17.669 l -21.662,21.662 -0.241,-0.241 -0.241,0.241 -21.662,-21.662 c -5.583,-5.672 -11.54,-11.082 -16.079,-17.669 -4.255,-5.804 -7.666,-12.194 -10.5,-18.792 -3.697,-8.907 -5.009,-18.592 -5.126,-28.173 8.83,-0.032 17.665,-0.028 26.499,-0.024 0.036,5.374 0.064,10.805 1.128,16.091 0.478,2.693 2.204,4.893 3.504,7.229 1.517,2.473 2.85,5.065 4.491,7.47 5.852,5.989 11.841,11.857 17.745,17.801 0.08,-0.08 0.16,-0.161 0.241,-0.242 z" />
	<path
   id="path10"
   d="m 299.95,1377.6 c 0,0.114 0,0.228 -10e-4,0.342 8.378,-0.028 16.762,0.057 25.135,-0.04 2.861,-0.539 5.637,-1.43 8.458,-2.106 2.571,-0.732 5.347,-1.067 7.589,-2.634 4.49,-2.986 8.35,-6.806 12.176,-10.581 6.25,6.244 12.499,12.488 18.721,18.755 -6.857,6.692 -14.634,12.613 -23.545,16.297 -6.67,2.662 -13.6,4.768 -20.713,5.864 -7.867,1.448 -15.905,1.062 -23.863,1.124 h -30.635 v -0.341 h -0.341 v -30.635 c 0.062,-7.958 -0.324,-15.996 1.124,-23.863 1.096,-7.112 3.201,-14.043 5.864,-20.713 3.684,-8.912 9.604,-16.688 16.297,-23.546 6.267,6.221 12.511,12.471 18.755,18.721 -3.775,3.826 -7.595,7.686 -10.581,12.176 -1.567,2.242 -1.902,5.018 -2.634,7.589 -0.675,2.821 -1.567,5.597 -2.106,8.458 -0.096,8.373 -0.011,16.757 -0.04,25.135 0.113,-10e-4 0.226,0 0.34,0 z" />
	<path
   id="path12"
   d="m 76.758,838.79 c -0.081,0.08 -0.161,0.161 -0.242,0.241 5.944,5.904 11.813,11.893 17.801,17.745 2.404,1.642 4.997,2.974 7.47,4.491 2.336,1.3 4.536,3.026 7.229,3.504 5.286,1.064 10.717,1.092 16.091,1.128 0,8.834 0.01,17.669 -0.024,26.499 -9.581,-0.116 -19.266,-1.429 -28.173,-5.126 -6.599,-2.834 -12.989,-6.245 -18.793,-10.5 -6.587,-4.54 -11.997,-10.496 -17.669,-16.079 l -21.662,-21.662 0.241,-0.241 -0.241,-0.241 21.662,-21.662 c 5.671,-5.583 11.082,-11.54 17.669,-16.079 5.804,-4.255 12.194,-7.666 18.793,-10.5 8.907,-3.697 18.592,-5.009 28.173,-5.126 0.032,8.83 0.028,17.665 0.024,26.499 -5.374,0.036 -10.805,0.064 -16.091,1.128 -2.693,0.478 -4.893,2.204 -7.229,3.504 -2.473,1.517 -5.065,2.85 -7.47,4.491 -5.989,5.852 -11.857,11.841 -17.801,17.745 0.081,0.08 0.162,0.16 0.242,0.241 z" />
	<path
   id="path14"
   d="m 299.95,299.95 c -0.114,0 -0.228,0 -0.342,-10e-4 0.028,8.378 -0.057,16.762 0.04,25.135 0.539,2.861 1.43,5.637 2.106,8.458 0.732,2.571 1.067,5.347 2.634,7.589 2.986,4.49 6.806,8.35 10.581,12.176 -6.244,6.25 -12.488,12.499 -18.755,18.721 -6.692,-6.857 -12.613,-14.634 -16.297,-23.545 -2.662,-6.67 -4.768,-13.6 -5.864,-20.713 -1.447,-7.867 -1.061,-15.905 -1.124,-23.863 v -30.635 h 0.341 v -0.341 h 30.635 c 7.958,0.062 15.996,-0.324 23.863,1.124 7.112,1.096 14.043,3.201 20.713,5.864 8.912,3.684 16.688,9.604 23.545,16.297 -6.221,6.267 -12.471,12.511 -18.721,18.755 -3.826,-3.775 -7.686,-7.595 -12.176,-10.581 -2.242,-1.567 -5.018,-1.902 -7.589,-2.634 -2.821,-0.675 -5.597,-1.567 -8.458,-2.106 -8.373,-0.096 -16.757,-0.011 -25.135,-0.04 0,0.113 0,0.226 0,0.34 z" />
	<path
   id="path16"
   d="m 838.79,76.758 c -0.08,-0.081 -0.161,-0.161 -0.241,-0.242 -5.904,5.944 -11.893,11.813 -17.745,17.801 -1.642,2.404 -2.974,4.997 -4.491,7.47 -1.3,2.336 -3.026,4.536 -3.504,7.229 -1.064,5.286 -1.092,10.717 -1.128,16.091 -8.834,0 -17.669,0.01 -26.499,-0.024 0.116,-9.581 1.429,-19.266 5.126,-28.173 2.834,-6.599 6.245,-12.989 10.5,-18.793 4.54,-6.587 10.496,-11.997 16.079,-17.669 l 21.662,-21.662 0.241,0.241 0.241,-0.241 21.662,21.662 c 5.583,5.671 11.54,11.082 16.079,17.669 4.255,5.804 7.666,12.194 10.5,18.793 3.697,8.907 5.009,18.592 5.126,28.173 -8.83,0.032 -17.665,0.028 -26.499,0.024 -0.036,-5.374 -0.064,-10.805 -1.128,-16.091 -0.478,-2.693 -2.204,-4.893 -3.504,-7.229 -1.517,-2.473 -2.85,-5.065 -4.491,-7.47 -5.852,-5.989 -11.841,-11.857 -17.745,-17.801 -0.08,0.081 -0.161,0.162 -0.241,0.242 z" />
	<path
   id="path18"
   d="m 1065.6,291.25 c 2.812,2.168 5.488,4.519 8.055,6.954 18.255,18.249 36.493,36.516 54.777,54.737 -6.238,6.267 -12.471,12.539 -18.76,18.755 -14.009,-14.026 -27.962,-28.109 -42.101,-41.999 -4.202,-4.103 -8.504,-8.105 -12.946,-11.949 -5.859,-0.423 -11.731,-0.635 -17.603,-0.705 -19.82,-0.177 -39.644,-0.084 -59.468,-0.072 -0.052,-8.842 -0.024,-17.685 -0.004,-26.527 25.813,0.044 51.625,0.024 77.438,0.028 3.536,0.093 7.091,0.323 10.612,0.778 z" />
	<path
   id="path20"
   d="m 1386.3,611.99 c 0.455,3.521 0.685,7.076 0.779,10.613 0,25.813 -0.016,51.625 0.028,77.438 -8.842,0.02 -17.685,0.048 -26.527,-0.004 0.012,-19.824 0.104,-39.648 -0.072,-59.468 -0.07,-5.872 -0.282,-11.744 -0.705,-17.603 -3.844,-4.442 -7.846,-8.744 -11.949,-12.946 -13.89,-14.14 -27.973,-28.092 -41.999,-42.101 6.216,-6.289 12.488,-12.522 18.755,-18.76 18.221,18.283 36.488,36.522 54.737,54.777 2.433,2.567 4.785,5.242 6.953,8.054 z" />
	<path
   id="path22"
   d="m 1386.3,1065.6 c -2.168,2.812 -4.519,5.488 -6.954,8.055 -18.249,18.255 -36.516,36.493 -54.737,54.777 -6.267,-6.238 -12.539,-12.471 -18.755,-18.76 14.026,-14.009 28.109,-27.962 41.999,-42.101 4.103,-4.202 8.104,-8.504 11.949,-12.946 0.423,-5.859 0.635,-11.731 0.705,-17.603 0.177,-19.82 0.084,-39.644 0.072,-59.468 8.842,-0.052 17.685,-0.024 26.527,-0.004 -0.044,25.813 -0.024,51.625 -0.028,77.438 -0.094,3.536 -0.323,7.091 -0.778,10.612 z" />
	<path
   id="path24"
   d="m 1065.6,1386.3 c -3.521,0.455 -7.076,0.685 -10.613,0.779 -25.813,0 -51.625,-0.016 -77.438,0.028 -0.02,-8.842 -0.048,-17.685 0.004,-26.527 19.824,0.012 39.648,0.104 59.468,-0.072 5.872,-0.07 11.744,-0.282 17.603,-0.705 4.442,-3.844 8.744,-7.846 12.946,-11.949 14.14,-13.89 28.092,-27.973 42.101,-41.999 6.289,6.216 12.522,12.488 18.76,18.755 -18.284,18.221 -36.522,36.488 -54.777,54.737 -2.566,2.433 -5.242,4.785 -8.054,6.953 z" />
	<path
   id="path26"
   d="m 611.99,1386.3 c -2.812,-2.168 -5.488,-4.519 -8.055,-6.954 -18.255,-18.249 -36.493,-36.516 -54.777,-54.737 6.238,-6.267 12.471,-12.539 18.76,-18.755 14.009,14.026 27.962,28.109 42.101,41.999 4.202,4.103 8.504,8.104 12.946,11.949 5.859,0.423 11.731,0.635 17.603,0.705 19.82,0.177 39.644,0.084 59.468,0.072 0.052,8.842 0.024,17.685 0.004,26.527 -25.813,-0.044 -51.625,-0.024 -77.438,-0.028 -3.536,-0.094 -7.091,-0.323 -10.612,-0.778 z" />
	<path
   id="path28"
   d="m 291.25,1065.6 c -0.455,-3.521 -0.685,-7.076 -0.779,-10.613 0,-25.813 0.016,-51.625 -0.028,-77.438 8.842,-0.02 17.685,-0.048 26.527,0.004 -0.012,19.824 -0.104,39.648 0.072,59.468 0.07,5.872 0.282,11.744 0.705,17.603 3.844,4.442 7.846,8.744 11.949,12.946 13.89,14.14 27.973,28.092 41.999,42.101 -6.216,6.289 -12.488,12.522 -18.755,18.76 -18.221,-18.284 -36.488,-36.522 -54.737,-54.777 -2.434,-2.566 -4.785,-5.242 -6.953,-8.054 z" />
	<path
   id="path30"
   d="m 291.25,611.99 c 2.168,-2.812 4.519,-5.488 6.954,-8.055 18.249,-18.255 36.516,-36.493 54.737,-54.777 6.267,6.238 12.539,12.471 18.755,18.76 -14.026,14.009 -28.109,27.962 -41.999,42.101 -4.103,4.202 -8.105,8.504 -11.949,12.946 -0.423,5.859 -0.635,11.731 -0.705,17.603 -0.177,19.82 -0.084,39.644 -0.072,59.468 -8.842,0.052 -17.685,0.024 -26.527,0.004 0.044,-25.813 0.024,-51.625 0.028,-77.438 0.093,-3.536 0.323,-7.091 0.778,-10.612 z" />
	<path
   id="path32"
   d="m 611.99,291.25 c 3.521,-0.455 7.076,-0.685 10.613,-0.779 25.813,0 51.625,0.016 77.438,-0.028 0.02,8.842 0.048,17.685 -0.004,26.527 -19.824,-0.012 -39.648,-0.104 -59.468,0.072 -5.872,0.07 -11.744,0.282 -17.603,0.705 -4.442,3.844 -8.744,7.846 -12.946,11.949 -14.14,13.89 -28.092,27.973 -42.101,41.999 -6.289,-6.216 -12.522,-12.488 -18.76,-18.755 18.283,-18.221 36.522,-36.488 54.777,-54.737 2.567,-2.434 5.242,-4.785 8.054,-6.953 z" />
	<path
   id="path34"
   d="m 1105,280.84 c 12.795,-2.191 25.822,-4.371 38.826,-2.884 10.933,1.152 22.007,3.945 31.123,10.337 8.577,5.603 15.445,13.283 22.688,20.423 14.747,14.747 29.494,29.506 44.264,44.224 -6.238,6.267 -12.471,12.539 -18.76,18.755 -14.571,-14.577 -29.057,-29.239 -43.793,-43.651 -5.12,-4.848 -10.257,-9.701 -15.82,-14.049 -6.857,-5.461 -15.775,-7.294 -24.306,-8.06 -8.895,-0.539 -17.892,-0.397 -26.696,1.044 -5.591,1.606 -10.49,4.91 -15.377,7.964 -6.238,-6.233 -12.477,-12.465 -18.692,-18.726 7.113,-7.516 16.246,-13.498 26.543,-15.377 z" />
	<path
   id="path36"
   d="m 632.53,255.99 c 7.498,-10.596 15.168,-21.349 25.415,-29.493 8.545,-6.916 18.351,-12.772 29.317,-14.698 10.026,-2.103 20.314,-1.529 30.485,-1.601 20.856,0 41.719,0.01 62.571,-0.028 0.02,8.842 0.048,17.685 -0.004,26.527 -20.611,0 -41.221,-0.128 -61.832,0.1 -7.048,0.193 -14.112,0.393 -21.12,1.252 -8.71,0.987 -16.312,5.997 -22.887,11.487 -6.671,5.908 -12.932,12.37 -18.138,19.615 -2.818,5.089 -3.945,10.889 -5.242,16.505 -8.818,0 -17.637,0.01 -26.459,-0.024 -0.286,-10.343 1.942,-21.032 7.894,-29.642 z" />
	<path
   id="path38"
   d="m 280.84,572.53 c -2.191,-12.794 -4.371,-25.822 -2.884,-38.826 1.152,-10.933 3.945,-22.007 10.337,-31.123 5.603,-8.577 13.283,-15.445 20.423,-22.688 14.747,-14.747 29.506,-29.494 44.224,-44.264 6.267,6.238 12.539,12.471 18.755,18.76 -14.577,14.571 -29.239,29.057 -43.651,43.793 -4.848,5.12 -9.701,10.257 -14.049,15.82 -5.461,6.857 -7.294,15.775 -8.06,24.306 -0.539,8.895 -0.397,17.892 1.044,26.696 1.606,5.591 4.91,10.49 7.964,15.377 -6.233,6.238 -12.465,12.477 -18.726,18.692 -7.516,-7.113 -13.498,-16.246 -15.377,-26.543 z" />
	<path
   id="path40"
   d="m 255.99,1045 c -10.596,-7.498 -21.349,-15.168 -29.493,-25.415 -6.916,-8.545 -12.772,-18.351 -14.698,-29.317 -2.103,-10.026 -1.529,-20.314 -1.601,-30.485 0,-20.856 0.01,-41.719 -0.028,-62.571 8.842,-0.02 17.685,-0.048 26.527,0.004 0,20.611 -0.128,41.221 0.1,61.832 0.193,7.048 0.393,14.112 1.252,21.12 0.987,8.71 5.997,16.312 11.487,22.887 5.908,6.671 12.37,12.932 19.615,18.138 5.089,2.818 10.889,3.946 16.505,5.242 0,8.818 0.01,17.637 -0.024,26.459 -10.343,0.286 -21.032,-1.941 -29.642,-7.894 z" />
	<path
   id="path42"
   d="m 572.53,1396.7 c -12.794,2.191 -25.822,4.371 -38.826,2.884 -10.933,-1.152 -22.007,-3.945 -31.123,-10.337 -8.577,-5.603 -15.445,-13.283 -22.688,-20.423 -14.747,-14.747 -29.494,-29.506 -44.264,-44.224 6.238,-6.267 12.471,-12.539 18.76,-18.755 14.571,14.577 29.057,29.239 43.793,43.651 5.12,4.848 10.257,9.701 15.82,14.049 6.857,5.461 15.775,7.294 24.306,8.06 8.895,0.539 17.892,0.397 26.696,-1.045 5.591,-1.606 10.49,-4.91 15.377,-7.964 6.238,6.233 12.477,12.465 18.692,18.726 -7.113,7.516 -16.246,13.499 -26.543,15.378 z" />
	<path
   id="path44"
   d="m 1045,1421.6 c -7.498,10.596 -15.168,21.349 -25.415,29.493 -8.545,6.916 -18.351,12.772 -29.317,14.698 -10.026,2.103 -20.314,1.529 -30.485,1.602 -20.856,0 -41.719,-0.01 -62.571,0.028 -0.02,-8.842 -0.048,-17.685 0.004,-26.527 20.611,0 41.221,0.128 61.832,-0.1 7.048,-0.193 14.112,-0.393 21.12,-1.252 8.71,-0.987 16.312,-5.997 22.887,-11.487 6.671,-5.908 12.932,-12.37 18.138,-19.615 2.818,-5.089 3.946,-10.889 5.242,-16.505 8.818,0 17.637,-0.01 26.459,0.024 0.286,10.343 -1.941,21.031 -7.894,29.641 z" />
	<path
   id="path46"
   d="m 1396.7,1105 c 2.191,12.795 4.371,25.822 2.884,38.826 -1.152,10.933 -3.945,22.007 -10.337,31.123 -5.603,8.577 -13.283,15.445 -20.423,22.688 -14.747,14.747 -29.506,29.494 -44.224,44.264 -6.267,-6.238 -12.539,-12.471 -18.755,-18.76 14.577,-14.571 29.239,-29.057 43.651,-43.793 4.848,-5.12 9.701,-10.257 14.049,-15.82 5.461,-6.857 7.294,-15.775 8.06,-24.306 0.539,-8.895 0.397,-17.892 -1.045,-26.696 -1.606,-5.591 -4.91,-10.49 -7.964,-15.377 6.233,-6.238 12.465,-12.477 18.726,-18.692 7.516,7.113 13.499,16.246 15.378,26.543 z" />
	<path
   id="path48"
   d="m 1421.6,632.53 c 10.596,7.498 21.349,15.168 29.493,25.415 6.916,8.545 12.772,18.351 14.698,29.317 2.103,10.026 1.529,20.314 1.602,30.485 0,20.856 -0.01,41.719 0.028,62.571 -8.842,0.02 -17.685,0.048 -26.527,-0.004 0,-20.611 0.128,-41.221 -0.1,-61.832 -0.193,-7.048 -0.393,-14.112 -1.252,-21.12 -0.987,-8.71 -5.997,-16.312 -11.487,-22.887 -5.908,-6.671 -12.37,-12.932 -19.615,-18.138 -5.089,-2.818 -10.889,-3.945 -16.505,-5.242 0,-8.818 -0.01,-17.637 0.024,-26.459 10.343,-0.286 21.031,1.942 29.641,7.894 z" />
	<path
   id="path50"
   d="m 1396.7,572.53 c 2.191,-12.794 4.371,-25.822 2.884,-38.826 -1.152,-10.933 -3.945,-22.007 -10.337,-31.123 -5.603,-8.577 -13.283,-15.445 -20.423,-22.688 -14.747,-14.747 -29.506,-29.494 -44.224,-44.264 -6.267,6.238 -12.539,12.471 -18.755,18.76 14.577,14.571 29.239,29.057 43.651,43.793 4.848,5.12 9.701,10.257 14.049,15.82 5.461,6.857 7.294,15.775 8.06,24.306 0.539,8.895 0.397,17.892 -1.045,26.696 -1.606,5.591 -4.91,10.49 -7.964,15.377 6.233,6.238 12.465,12.477 18.726,18.692 7.516,-7.113 13.499,-16.246 15.378,-26.543 z" />
	<path
   id="path52"
   d="m 1045,255.99 c -7.498,-10.596 -15.168,-21.349 -25.415,-29.493 -8.545,-6.916 -18.351,-12.772 -29.317,-14.698 -10.026,-2.103 -20.314,-1.529 -30.485,-1.601 -20.856,0 -41.719,0.01 -62.571,-0.028 -0.02,8.842 -0.048,17.685 0.004,26.527 20.611,0 41.221,-0.128 61.832,0.1 7.048,0.193 14.112,0.393 21.12,1.252 8.71,0.987 16.312,5.997 22.887,11.487 6.671,5.908 12.932,12.37 18.138,19.615 2.818,5.089 3.946,10.889 5.242,16.505 8.818,0 17.637,0.01 26.459,-0.024 0.286,-10.343 -1.941,-21.032 -7.894,-29.642 z" />
	<path
   id="path54"
   d="m 572.53,280.84 c -12.794,-2.191 -25.822,-4.371 -38.826,-2.884 -10.933,1.152 -22.007,3.945 -31.123,10.337 -8.577,5.603 -15.445,13.283 -22.688,20.423 -14.747,14.747 -29.494,29.506 -44.264,44.224 6.238,6.267 12.471,12.539 18.76,18.755 14.571,-14.577 29.057,-29.239 43.793,-43.651 5.12,-4.848 10.257,-9.701 15.82,-14.049 6.857,-5.461 15.775,-7.294 24.306,-8.06 8.895,-0.539 17.892,-0.397 26.696,1.044 5.591,1.606 10.49,4.91 15.377,7.964 6.238,-6.233 12.477,-12.465 18.692,-18.726 -7.113,-7.516 -16.246,-13.498 -26.543,-15.377 z" />
	<path
   id="path56"
   d="m 255.99,632.53 c -10.596,7.498 -21.349,15.168 -29.493,25.415 -6.916,8.545 -12.772,18.351 -14.698,29.317 -2.103,10.026 -1.529,20.314 -1.601,30.485 0,20.856 0.01,41.719 -0.028,62.571 8.842,0.02 17.685,0.048 26.527,-0.004 0,-20.611 -0.128,-41.221 0.1,-61.832 0.193,-7.048 0.393,-14.112 1.252,-21.12 0.987,-8.71 5.997,-16.312 11.487,-22.887 5.908,-6.671 12.37,-12.932 19.615,-18.138 5.089,-2.818 10.889,-3.945 16.505,-5.242 0,-8.818 0.01,-17.637 -0.024,-26.459 -10.343,-0.286 -21.032,1.942 -29.642,7.894 z" />
	<path
   id="path58"
   d="m 280.84,1105 c -2.191,12.795 -4.371,25.822 -2.884,38.826 1.152,10.933 3.945,22.007 10.337,31.123 5.603,8.577 13.283,15.445 20.423,22.688 14.747,14.747 29.506,29.494 44.224,44.264 6.267,-6.238 12.539,-12.471 18.755,-18.76 -14.577,-14.571 -29.239,-29.057 -43.651,-43.793 -4.848,-5.12 -9.701,-10.257 -14.049,-15.82 -5.461,-6.857 -7.294,-15.775 -8.06,-24.306 -0.539,-8.895 -0.397,-17.892 1.044,-26.696 1.606,-5.591 4.91,-10.49 7.964,-15.377 -6.233,-6.238 -12.465,-12.477 -18.726,-18.692 -7.516,7.113 -13.498,16.246 -15.377,26.543 z" />
	<path
   id="path60"
   d="m 632.53,1421.6 c 7.498,10.596 15.168,21.349 25.415,29.493 8.545,6.916 18.351,12.772 29.317,14.698 10.026,2.103 20.314,1.529 30.485,1.602 20.856,0 41.719,-0.01 62.571,0.028 0.02,-8.842 0.048,-17.685 -0.004,-26.527 -20.611,0 -41.221,0.128 -61.832,-0.1 -7.048,-0.193 -14.112,-0.393 -21.12,-1.252 -8.71,-0.987 -16.312,-5.997 -22.887,-11.487 -6.671,-5.908 -12.932,-12.37 -18.138,-19.615 -2.818,-5.089 -3.945,-10.889 -5.242,-16.505 -8.818,0 -17.637,-0.01 -26.459,0.024 -0.286,10.343 1.942,21.031 7.894,29.641 z" />
	<path
   id="path62"
   d="m 1105,1396.7 c 12.795,2.191 25.822,4.371 38.826,2.884 10.933,-1.152 22.007,-3.945 31.123,-10.337 8.577,-5.603 15.445,-13.283 22.688,-20.423 14.747,-14.747 29.494,-29.506 44.264,-44.224 -6.238,-6.267 -12.471,-12.539 -18.76,-18.755 -14.571,14.577 -29.057,29.239 -43.793,43.651 -5.12,4.848 -10.257,9.701 -15.82,14.049 -6.857,5.461 -15.775,7.294 -24.306,8.06 -8.895,0.539 -17.892,0.397 -26.696,-1.045 -5.591,-1.606 -10.49,-4.91 -15.377,-7.964 -6.238,6.233 -12.477,12.465 -18.692,18.726 7.113,7.516 16.246,13.499 26.543,15.378 z" />
	<path
   id="path64"
   d="m 1421.6,1045 c 10.596,-7.498 21.349,-15.168 29.493,-25.415 6.916,-8.545 12.772,-18.351 14.698,-29.317 2.103,-10.026 1.529,-20.314 1.602,-30.485 0,-20.856 -0.01,-41.719 0.028,-62.571 -8.842,-0.02 -17.685,-0.048 -26.527,0.004 0,20.611 0.128,41.221 -0.1,61.832 -0.193,7.048 -0.393,14.112 -1.252,21.12 -0.987,8.71 -5.997,16.312 -11.487,22.887 -5.908,6.671 -12.37,12.932 -19.615,18.138 -5.089,2.818 -10.889,3.946 -16.505,5.242 0,8.818 -0.01,17.637 0.024,26.459 10.343,0.286 21.031,-1.941 29.641,-7.894 z" />
	<path
   id="path66"
   d="m 1321.3,356.26 c -5.369,-5.36 -10.742,-10.716 -16.094,-16.091 -8.923,-8.861 -17.778,-17.846 -27.576,-25.759 -7.901,-6.471 -18.442,-8.214 -28.353,-8.668 -7.742,-0.233 -15.547,-0.051 -23.193,1.237 -5.591,1.612 -10.49,4.91 -15.377,7.964 -6.238,-6.233 -12.482,-12.465 -18.692,-18.726 7.118,-7.515 16.257,-13.51 26.565,-15.383 12.397,-2.123 24.993,-4.223 37.606,-3.003 9.667,0.971 19.447,3.003 28.007,7.788 7.311,4.166 13.771,9.673 19.606,15.701 12.076,12.072 24.143,24.152 36.223,36.219 12.067,12.08 24.147,24.148 36.219,36.223 6.028,5.835 11.534,12.295 15.701,19.606 4.785,8.56 6.817,18.34 7.788,28.007 1.22,12.613 -0.88,25.209 -3.003,37.606 -1.873,10.308 -7.867,19.447 -15.383,26.565 -6.261,-6.21 -12.494,-12.454 -18.726,-18.692 3.054,-4.887 6.352,-9.786 7.964,-15.377 1.289,-7.646 1.47,-15.451 1.238,-23.194 -0.454,-9.911 -2.197,-20.452 -8.668,-28.353 -7.913,-9.797 -16.898,-18.652 -25.759,-27.576 -5.376,-5.352 -10.732,-10.725 -16.093,-16.094 z" />
	<path
   id="path68"
   d="m 1521.2,838.79 c -0.01,-7.587 -0.018,-15.173 0,-22.758 -0.044,-12.575 0.048,-25.19 -1.284,-37.714 -1.011,-10.163 -7.233,-18.849 -13.92,-26.178 -5.31,-5.639 -10.958,-11.03 -17.275,-15.525 -5.094,-2.814 -10.889,-3.946 -16.505,-5.242 0,-8.818 -0.012,-17.641 0.024,-26.459 10.348,-0.281 21.048,1.943 29.662,7.907 10.267,7.265 20.659,14.686 28.715,24.468 6.149,7.522 11.628,15.875 14.297,25.311 2.224,8.116 2.898,16.577 2.762,24.966 0,17.075 -0.01,34.149 0,51.224 -0.01,17.075 0,34.149 0,51.224 0.136,8.389 -0.538,16.85 -2.762,24.966 -2.669,9.436 -8.148,17.789 -14.297,25.311 -8.056,9.782 -18.447,17.203 -28.715,24.468 -8.614,5.964 -19.314,8.188 -29.662,7.907 -0.036,-8.818 -0.028,-17.641 -0.024,-26.459 5.615,-1.296 11.411,-2.428 16.505,-5.242 6.318,-4.495 11.965,-9.886 17.275,-15.525 6.687,-7.329 12.908,-16.015 13.92,-26.178 1.333,-12.523 1.24,-25.138 1.284,-37.713 -0.016,-7.586 -0.01,-15.172 0,-22.759 z" />
	<path
   id="path70"
   d="m 1321.3,1321.3 c 5.36,-5.369 10.716,-10.742 16.091,-16.094 8.861,-8.923 17.846,-17.778 25.759,-27.576 6.471,-7.901 8.214,-18.442 8.668,-28.353 0.233,-7.742 0.051,-15.547 -1.238,-23.193 -1.612,-5.591 -4.91,-10.49 -7.964,-15.377 6.233,-6.238 12.465,-12.482 18.726,-18.692 7.515,7.118 13.51,16.257 15.383,26.565 2.123,12.397 4.223,24.993 3.003,37.606 -0.971,9.667 -3.003,19.447 -7.788,28.007 -4.166,7.311 -9.672,13.771 -15.701,19.606 -12.072,12.076 -24.152,24.143 -36.219,36.223 -12.08,12.067 -24.148,24.147 -36.223,36.219 -5.835,6.028 -12.295,11.534 -19.606,15.701 -8.56,4.785 -18.34,6.817 -28.007,7.788 -12.613,1.22 -25.209,-0.88 -37.606,-3.003 -10.308,-1.873 -19.447,-7.867 -26.565,-15.383 6.21,-6.261 12.454,-12.494 18.692,-18.726 4.887,3.054 9.786,6.352 15.377,7.964 7.646,1.289 15.451,1.47 23.193,1.238 9.911,-0.454 20.452,-2.197 28.353,-8.668 9.797,-7.913 18.652,-16.898 27.576,-25.759 5.355,-5.376 10.727,-10.732 16.096,-16.093 z" />
	<path
   id="path72"
   d="m 838.79,1521.2 c 7.587,-0.01 15.173,-0.018 22.758,0 12.575,-0.044 25.19,0.048 37.713,-1.284 10.163,-1.011 18.849,-7.233 26.178,-13.92 5.639,-5.31 11.03,-10.958 15.525,-17.275 2.814,-5.094 3.946,-10.889 5.242,-16.505 8.818,0 17.641,-0.012 26.459,0.024 0.281,10.348 -1.943,21.048 -7.907,29.662 -7.265,10.267 -14.686,20.659 -24.468,28.715 -7.522,6.149 -15.875,11.628 -25.311,14.297 -8.116,2.224 -16.577,2.898 -24.966,2.762 -17.075,0 -34.149,-0.01 -51.224,0 -17.075,-0.01 -34.149,0 -51.224,0 -8.389,0.136 -16.85,-0.538 -24.966,-2.762 -9.436,-2.669 -17.789,-8.148 -25.311,-14.297 -9.782,-8.056 -17.203,-18.447 -24.468,-28.715 -5.964,-8.614 -8.188,-19.314 -7.907,-29.662 8.818,-0.036 17.641,-0.028 26.459,-0.024 1.296,5.615 2.428,11.411 5.242,16.505 4.495,6.318 9.886,11.965 15.525,17.275 7.329,6.687 16.015,12.908 26.178,13.92 12.523,1.333 25.138,1.24 37.714,1.284 7.586,-0.016 15.172,-0.01 22.759,0 z" />
	<path
   id="path74"
   d="m 356.26,1321.3 c 5.369,5.36 10.742,10.716 16.094,16.091 8.923,8.861 17.778,17.846 27.576,25.759 7.901,6.471 18.442,8.214 28.353,8.668 7.743,0.233 15.547,0.051 23.194,-1.238 5.591,-1.612 10.49,-4.91 15.377,-7.964 6.238,6.233 12.482,12.465 18.692,18.726 -7.118,7.515 -16.257,13.51 -26.565,15.383 -12.397,2.123 -24.993,4.223 -37.606,3.003 -9.667,-0.971 -19.447,-3.003 -28.007,-7.788 -7.311,-4.166 -13.771,-9.672 -19.606,-15.701 -12.076,-12.072 -24.143,-24.152 -36.223,-36.219 -12.067,-12.08 -24.147,-24.148 -36.219,-36.223 -6.028,-5.835 -11.534,-12.295 -15.701,-19.606 -4.785,-8.56 -6.817,-18.34 -7.788,-28.007 -1.22,-12.613 0.88,-25.209 3.003,-37.606 1.873,-10.308 7.867,-19.447 15.383,-26.565 6.261,6.21 12.494,12.454 18.726,18.692 -3.054,4.887 -6.352,9.786 -7.964,15.377 -1.289,7.646 -1.47,15.451 -1.237,23.193 0.454,9.911 2.197,20.452 8.668,28.353 7.913,9.797 16.898,18.652 25.759,27.576 5.375,5.355 10.731,10.727 16.091,16.096 z" />
	<path
   id="path76"
   d="m 156.4,838.79 c 0.01,7.587 0.018,15.173 0,22.758 0.044,12.575 -0.048,25.19 1.284,37.713 1.011,10.163 7.233,18.849 13.92,26.178 5.31,5.639 10.958,11.03 17.275,15.525 5.093,2.814 10.889,3.946 16.505,5.242 0,8.818 0.012,17.641 -0.024,26.459 -10.348,0.281 -21.048,-1.943 -29.662,-7.907 -10.267,-7.265 -20.659,-14.686 -28.715,-24.468 -6.149,-7.522 -11.628,-15.875 -14.297,-25.311 -2.224,-8.116 -2.898,-16.577 -2.761,-24.966 0,-17.075 0.01,-34.149 0,-51.224 0.01,-17.075 10e-4,-34.149 0,-51.224 -0.136,-8.389 0.538,-16.85 2.761,-24.966 2.669,-9.436 8.148,-17.789 14.297,-25.311 8.056,-9.782 18.447,-17.203 28.715,-24.468 8.614,-5.964 19.314,-8.188 29.662,-7.907 0.036,8.818 0.028,17.641 0.024,26.459 -5.615,1.296 -11.411,2.428 -16.505,5.242 -6.318,4.495 -11.965,9.886 -17.275,15.525 -6.687,7.329 -12.908,16.015 -13.92,26.178 -1.333,12.523 -1.24,25.138 -1.284,37.714 0.016,7.586 0,15.172 0,22.759 z" />
	<path
   id="path78"
   d="m 356.26,356.26 c -5.36,5.369 -10.716,10.742 -16.091,16.094 -8.861,8.923 -17.846,17.778 -25.759,27.576 -6.471,7.901 -8.214,18.442 -8.668,28.353 -0.233,7.743 -0.051,15.547 1.237,23.194 1.612,5.591 4.91,10.49 7.964,15.377 -6.233,6.238 -12.465,12.482 -18.726,18.692 -7.515,-7.118 -13.51,-16.257 -15.383,-26.565 -2.123,-12.397 -4.223,-24.993 -3.003,-37.606 0.971,-9.667 3.003,-19.447 7.788,-28.007 4.166,-7.311 9.673,-13.771 15.701,-19.606 12.072,-12.076 24.152,-24.143 36.219,-36.223 12.08,-12.067 24.148,-24.147 36.223,-36.219 5.835,-6.028 12.295,-11.534 19.606,-15.701 8.56,-4.785 18.34,-6.817 28.007,-7.788 12.613,-1.22 25.209,0.88 37.606,3.003 10.308,1.873 19.447,7.867 26.565,15.383 -6.21,6.261 -12.454,12.494 -18.692,18.726 -4.887,-3.054 -9.786,-6.352 -15.377,-7.964 -7.646,-1.289 -15.451,-1.47 -23.194,-1.237 -9.911,0.454 -20.452,2.197 -28.353,8.668 -9.797,7.913 -18.652,16.898 -27.576,25.759 -5.352,5.375 -10.725,10.731 -16.094,16.091 z" />
	<path
   id="path80"
   d="m 838.79,156.4 c -7.587,0.01 -15.173,0.018 -22.758,0 -12.575,0.044 -25.19,-0.048 -37.714,1.284 -10.163,1.011 -18.849,7.233 -26.178,13.92 -5.639,5.31 -11.03,10.958 -15.525,17.275 -2.814,5.093 -3.946,10.889 -5.242,16.505 -8.818,0 -17.641,0.012 -26.459,-0.024 -0.281,-10.348 1.943,-21.048 7.907,-29.662 7.265,-10.267 14.686,-20.659 24.468,-28.715 7.522,-6.149 15.875,-11.628 25.311,-14.297 8.116,-2.224 16.577,-2.898 24.966,-2.761 17.075,0 34.149,0.01 51.224,0 17.075,0.01 34.149,10e-4 51.224,0 8.389,-0.136 16.85,0.538 24.966,2.761 9.436,2.669 17.789,8.148 25.311,14.297 9.782,8.056 17.203,18.447 24.468,28.715 5.964,8.614 8.188,19.314 7.907,29.662 -8.818,0.036 -17.641,0.028 -26.459,0.024 -1.296,-5.615 -2.428,-11.411 -5.242,-16.505 -4.495,-6.318 -9.886,-11.965 -15.525,-17.275 -7.329,-6.687 -16.015,-12.908 -26.178,-13.92 -12.523,-1.333 -25.138,-1.24 -37.713,-1.284 -7.586,0.016 -15.172,0 -22.759,0 z" />
	<path
   id="path82"
   d="m 1052.9,321.93 c 6.263,6.172 12.514,12.35 18.777,18.522 -15.047,15.081 -30.108,30.146 -45.174,45.206 0,-21.303 0,-42.605 0.023,-63.909 8.792,0.065 17.581,0.117 26.374,0.181 z" />
	<path
   id="path84"
   d="m 1355.6,624.7 c 0.064,8.793 0.116,17.582 0.18,26.374 -21.304,0.025 -42.606,0.027 -63.909,0.023 15.06,-15.066 30.125,-30.128 45.206,-45.174 6.173,6.262 12.351,12.514 18.523,18.777 z" />
	<path
   id="path86"
   d="m 1355.6,1052.9 c -6.172,6.263 -12.35,12.514 -18.522,18.777 -15.081,-15.047 -30.146,-30.108 -45.206,-45.174 21.302,0 42.605,0 63.909,0.023 -0.065,8.792 -0.117,17.581 -0.181,26.374 z" />
	<path
   id="path88"
   d="m 1052.9,1355.6 c -8.793,0.064 -17.582,0.116 -26.375,0.18 -0.025,-21.304 -0.027,-42.606 -0.023,-63.909 15.066,15.06 30.128,30.125 45.174,45.206 -6.262,6.173 -12.513,12.351 -18.776,18.523 z" />
	<path
   id="path90"
   d="m 624.7,1355.6 c -6.263,-6.172 -12.514,-12.35 -18.777,-18.522 15.046,-15.081 30.108,-30.146 45.174,-45.206 0.01,21.302 0,42.605 -0.023,63.909 -8.793,-0.065 -17.582,-0.117 -26.374,-0.181 z" />
	<path
   id="path92"
   d="m 321.93,1052.9 c -0.064,-8.793 -0.116,-17.582 -0.18,-26.375 21.304,-0.025 42.606,-0.027 63.909,-0.023 -15.06,15.066 -30.125,30.128 -45.206,45.174 -6.173,-6.262 -12.35,-12.513 -18.523,-18.776 z" />
	<path
   id="path94"
   d="m 321.93,624.7 c 6.172,-6.263 12.35,-12.514 18.522,-18.777 15.081,15.046 30.146,30.108 45.206,45.174 -21.303,0.01 -42.605,0 -63.909,-0.023 0.065,-8.793 0.117,-17.582 0.181,-26.374 z" />
	<path
   id="path96"
   d="m 624.7,321.93 c 8.793,-0.064 17.582,-0.116 26.374,-0.18 0.025,21.304 0.027,42.606 0.023,63.909 -15.066,-15.06 -30.128,-30.125 -45.174,-45.206 6.262,-6.173 12.514,-12.35 18.777,-18.523 z" />
	<path
   id="path98"
   d="m 1078.5,409.71 c 29.307,-29.262 58.603,-58.534 87.893,-87.819 6.278,6.187 12.545,12.38 18.823,18.567 -29.301,29.369 -58.665,58.676 -88,88.006 -6.24,-6.249 -12.512,-12.47 -18.716,-18.754 z" />
	<path
   id="path100"
   d="m 704.86,365.91 c 0.032,-41.414 0.048,-82.828 0.052,-124.25 8.814,-0.064 17.625,-0.116 26.439,-0.181 0.048,41.486 0.008,82.973 0.004,124.46 -8.831,-0.01 -17.665,0.029 -26.495,-0.027 z" />
	<path
   id="path102"
   d="m 409.71,599.11 c -29.262,-29.307 -58.534,-58.603 -87.819,-87.892 6.187,-6.278 12.38,-12.545 18.567,-18.823 29.369,29.301 58.676,58.665 88.006,88 -6.249,6.238 -12.47,12.511 -18.754,18.715 z" />
	<path
   id="path104"
   d="m 365.91,972.72 c -41.414,-0.032 -82.828,-0.048 -124.25,-0.052 -0.064,-8.814 -0.116,-17.625 -0.181,-26.439 41.486,-0.048 82.973,-0.008 124.46,-0.004 -0.01,8.83 0.029,17.665 -0.027,26.495 z" />
	<path
   id="path106"
   d="m 599.11,1267.9 c -29.307,29.262 -58.603,58.534 -87.892,87.819 -6.278,-6.187 -12.545,-12.38 -18.823,-18.567 29.301,-29.369 58.665,-58.676 88,-88.006 6.238,6.249 12.511,12.471 18.715,18.754 z" />
	<path
   id="path108"
   d="m 972.72,1311.7 c -0.032,41.414 -0.048,82.828 -0.052,124.25 -8.814,0.064 -17.625,0.116 -26.439,0.181 -0.048,-41.486 -0.008,-82.973 -0.004,-124.46 8.83,0.01 17.665,-0.03 26.495,0.027 z" />
	<path
   id="path110"
   d="m 1267.9,1078.5 c 29.262,29.307 58.534,58.603 87.819,87.893 -6.187,6.278 -12.38,12.545 -18.567,18.823 -29.369,-29.301 -58.676,-58.665 -88.006,-88 6.249,-6.24 12.471,-12.512 18.754,-18.716 z" />
	<path
   id="path112"
   d="m 1311.7,704.86 c 41.414,0.032 82.828,0.048 124.25,0.052 0.064,8.814 0.116,17.625 0.181,26.439 -41.486,0.048 -82.973,0.008 -124.46,0.004 0.01,-8.831 -0.03,-17.665 0.027,-26.495 z" />
	<path
   id="path114"
   d="m 1267.9,599.11 c 29.262,-29.307 58.534,-58.603 87.819,-87.892 -6.187,-6.278 -12.38,-12.545 -18.567,-18.823 -29.369,29.301 -58.676,58.665 -88.006,88 6.249,6.238 12.471,12.511 18.754,18.715 z" />
	<path
   id="path116"
   d="m 972.72,365.91 c -0.032,-41.414 -0.048,-82.828 -0.052,-124.25 -8.814,-0.064 -17.625,-0.116 -26.439,-0.181 -0.048,41.486 -0.008,82.973 -0.004,124.46 8.83,-0.01 17.665,0.029 26.495,-0.027 z" />
	<path
   id="path118"
   d="m 599.11,409.71 c -29.307,-29.262 -58.603,-58.534 -87.892,-87.819 -6.278,6.187 -12.545,12.38 -18.823,18.567 29.301,29.369 58.665,58.676 88,88.006 6.238,-6.249 12.511,-12.47 18.715,-18.754 z" />
	<path
   id="path120"
   d="m 365.91,704.86 c -41.414,0.032 -82.828,0.048 -124.25,0.052 -0.064,8.814 -0.116,17.625 -0.181,26.439 41.486,0.048 82.973,0.008 124.46,0.004 -0.01,-8.831 0.029,-17.665 -0.027,-26.495 z" />
	<path
   id="path122"
   d="m 409.71,1078.5 c -29.262,29.307 -58.534,58.603 -87.819,87.893 6.187,6.278 12.38,12.545 18.567,18.823 29.369,-29.301 58.676,-58.665 88.006,-88 -6.249,-6.24 -12.47,-12.512 -18.754,-18.716 z" />
	<path
   id="path124"
   d="m 704.86,1311.7 c 0.032,41.414 0.048,82.828 0.052,124.25 8.814,0.064 17.625,0.116 26.439,0.181 0.048,-41.486 0.008,-82.973 0.004,-124.46 -8.831,0.01 -17.665,-0.03 -26.495,0.027 z" />
	<path
   id="path126"
   d="m 1078.5,1267.9 c 29.307,29.262 58.603,58.534 87.893,87.819 6.278,-6.187 12.545,-12.38 18.823,-18.567 -29.301,-29.369 -58.665,-58.676 -88,-88.006 -6.24,6.249 -12.512,12.471 -18.716,18.754 z" />
	<path
   id="path128"
   d="m 1311.7,972.72 c 41.414,-0.032 82.828,-0.048 124.25,-0.052 0.064,-8.814 0.116,-17.625 0.181,-26.439 -41.486,-0.048 -82.973,-0.008 -124.46,-0.004 0.01,8.83 -0.03,17.665 0.027,26.495 z" />
	<path
   id="path130"
   d="m 1192,409.71 c 29.307,-29.262 58.603,-58.534 87.893,-87.819 6.278,6.187 12.545,12.38 18.823,18.567 -29.301,29.369 -58.659,58.676 -88,88.006 -6.239,-6.249 -12.511,-12.47 -18.716,-18.754 z" />
	<path
   id="path132"
   d="m 785.13,285.63 c 0.032,-41.414 0.048,-82.828 0.052,-124.25 8.814,-0.064 17.625,-0.116 26.439,-0.181 0.048,41.486 0.012,82.969 0.004,124.46 -8.83,-0.01 -17.664,0.029 -26.495,-0.027 z" />
	<path
   id="path134"
   d="m 409.71,485.58 c -29.262,-29.307 -58.534,-58.603 -87.819,-87.893 6.187,-6.278 12.38,-12.545 18.567,-18.823 29.369,29.301 58.676,58.659 88.006,88 -6.249,6.239 -12.47,12.512 -18.754,18.716 z" />
	<path
   id="path136"
   d="m 285.63,892.44 c -41.414,-0.032 -82.828,-0.048 -124.25,-0.052 -0.064,-8.814 -0.116,-17.625 -0.181,-26.439 41.486,-0.048 82.969,-0.012 124.46,-0.004 -0.01,8.831 0.029,17.665 -0.027,26.495 z" />
	<path
   id="path138"
   d="m 485.58,1267.9 c -29.307,29.262 -58.603,58.534 -87.893,87.819 -6.278,-6.187 -12.545,-12.38 -18.823,-18.567 29.301,-29.369 58.659,-58.676 88,-88.006 6.239,6.249 12.512,12.471 18.716,18.754 z" />
	<path
   id="path140"
   d="m 892.44,1391.9 c -0.032,41.414 -0.048,82.828 -0.052,124.25 -8.814,0.064 -17.625,0.116 -26.439,0.181 -0.048,-41.486 -0.012,-82.969 -0.004,-124.46 8.831,0.01 17.665,-0.029 26.495,0.027 z" />
	<path
   id="path142"
   d="m 1267.9,1192 c 29.262,29.307 58.534,58.603 87.819,87.893 -6.187,6.278 -12.38,12.545 -18.567,18.823 -29.369,-29.301 -58.676,-58.659 -88.006,-88 6.249,-6.239 12.471,-12.511 18.754,-18.716 z" />
	<path
   id="path144"
   d="m 1391.9,785.13 c 41.414,0.032 82.828,0.048 124.25,0.052 0.064,8.814 0.116,17.625 0.181,26.439 -41.486,0.048 -82.969,0.012 -124.46,0.004 0.01,-8.83 -0.029,-17.664 0.027,-26.495 z" />
	<path
   id="path146"
   d="m 1267.9,485.58 c 29.262,-29.307 58.534,-58.603 87.819,-87.893 -6.187,-6.278 -12.38,-12.545 -18.567,-18.823 -29.369,29.301 -58.676,58.659 -88.006,88 6.249,6.239 12.471,12.512 18.754,18.716 z" />
	<path
   id="path148"
   d="m 892.44,285.63 c -0.032,-41.414 -0.048,-82.828 -0.052,-124.25 -8.814,-0.064 -17.625,-0.116 -26.439,-0.181 -0.048,41.486 -0.012,82.969 -0.004,124.46 8.831,-0.01 17.665,0.029 26.495,-0.027 z" />
	<path
   id="path150"
   d="m 485.58,409.71 c -29.307,-29.262 -58.603,-58.534 -87.893,-87.819 -6.278,6.187 -12.545,12.38 -18.823,18.567 29.301,29.369 58.659,58.676 88,88.006 6.239,-6.249 12.512,-12.47 18.716,-18.754 z" />
	<path
   id="path152"
   d="m 285.63,785.13 c -41.414,0.032 -82.828,0.048 -124.25,0.052 -0.064,8.814 -0.116,17.625 -0.181,26.439 41.486,0.048 82.969,0.012 124.46,0.004 -0.01,-8.83 0.029,-17.664 -0.027,-26.495 z" />
	<path
   id="path154"
   d="m 409.71,1192 c -29.262,29.307 -58.534,58.603 -87.819,87.893 6.187,6.278 12.38,12.545 18.567,18.823 29.369,-29.301 58.676,-58.659 88.006,-88 -6.249,-6.239 -12.47,-12.511 -18.754,-18.716 z" />
	<path
   id="path156"
   d="m 785.13,1391.9 c 0.032,41.414 0.048,82.828 0.052,124.25 8.814,0.064 17.625,0.116 26.439,0.181 0.048,-41.486 0.012,-82.969 0.004,-124.46 -8.83,0.01 -17.664,-0.029 -26.495,0.027 z" />
	<path
   id="path158"
   d="m 1192,1267.9 c 29.307,29.262 58.603,58.534 87.893,87.819 6.278,-6.187 12.545,-12.38 18.823,-18.567 -29.301,-29.369 -58.659,-58.676 -88,-88.006 -6.239,6.249 -12.511,12.471 -18.716,18.754 z" />
	<path
   id="path160"
   d="m 1391.9,892.44 c 41.414,-0.032 82.828,-0.048 124.25,-0.052 0.064,-8.814 0.116,-17.625 0.181,-26.439 -41.486,-0.048 -82.969,-0.012 -124.46,-0.004 0.01,8.831 -0.029,17.665 0.027,26.495 z" />
	<path
   id="path162"
   d="m 999.4,451.03 c 5.16,5.161 10.32,10.322 15.481,15.482 -6.255,6.233 -12.477,12.499 -18.749,18.715 -2.567,-2.571 -5.134,-5.142 -7.702,-7.713 -3.633,0 -7.266,0 -10.9,0.01 -0.04,-8.83 -0.008,-17.661 -0.024,-26.491 7.298,10e-4 14.596,0 21.894,-0.001 z" />
	<path
   id="path164"
   d="m 1226.5,678.17 c -10e-4,7.298 0,14.596 -10e-4,21.894 -8.83,-0.016 -17.661,0.016 -26.491,-0.024 0,-3.633 0.01,-7.266 0.01,-10.9 -2.571,-2.568 -5.141,-5.135 -7.713,-7.702 6.216,-6.272 12.482,-12.494 18.715,-18.749 5.16,5.162 10.321,10.322 15.482,15.481 z" />
	<path
   id="path166"
   d="m 1226.5,999.4 c -5.161,5.16 -10.322,10.32 -15.482,15.481 -6.233,-6.255 -12.499,-12.477 -18.715,-18.749 2.571,-2.567 5.142,-5.134 7.713,-7.702 0,-3.633 -0.01,-7.266 -0.01,-10.9 8.83,-0.04 17.661,-0.008 26.491,-0.024 0,7.298 0,14.596 10e-4,21.894 z" />
	<path
   id="path168"
   d="m 999.4,1226.5 c -7.298,-10e-4 -14.596,0 -21.894,-10e-4 0.016,-8.83 -0.016,-17.661 0.024,-26.491 3.633,0 7.266,0.01 10.9,0.01 2.568,-2.571 5.135,-5.141 7.702,-7.713 6.272,6.216 12.494,12.482 18.749,18.715 -5.161,5.16 -10.321,10.321 -15.481,15.482 z" />
	<path
   id="path170"
   d="m 678.17,1226.5 c -5.16,-5.161 -10.32,-10.322 -15.481,-15.482 6.255,-6.233 12.477,-12.499 18.749,-18.715 2.567,2.571 5.134,5.142 7.702,7.713 3.633,0 7.266,-0.01 10.9,-0.01 0.04,8.83 0.008,17.661 0.024,26.491 -7.298,0 -14.596,0 -21.894,10e-4 z" />
	<path
   id="path172"
   d="m 451.03,999.4 c 0.001,-7.298 0,-14.596 0.001,-21.894 8.83,0.016 17.661,-0.016 26.491,0.024 0,3.633 -0.01,7.266 -0.01,10.9 2.57,2.568 5.141,5.135 7.713,7.702 -6.216,6.272 -12.482,12.494 -18.715,18.749 -5.16,-5.161 -10.321,-10.321 -15.482,-15.481 z" />
	<path
   id="path174"
   d="m 451.03,678.17 c 5.161,-5.16 10.322,-10.32 15.482,-15.481 6.233,6.255 12.499,12.477 18.715,18.749 -2.571,2.567 -5.142,5.134 -7.713,7.702 0,3.633 0,7.266 0.01,10.9 -8.83,0.04 -17.661,0.008 -26.491,0.024 10e-4,-7.298 0,-14.596 -0.001,-21.894 z" />
	<path
   id="path176"
   d="m 678.17,451.03 c 7.298,0.001 14.596,0 21.894,0.001 -0.016,8.83 0.016,17.661 -0.024,26.491 -3.633,0 -7.266,-0.01 -10.9,-0.01 -2.568,2.57 -5.135,5.141 -7.702,7.713 -6.272,-6.216 -12.494,-12.482 -18.749,-18.715 5.162,-5.16 10.322,-10.321 15.481,-15.482 z" />
	<path
   id="path178"
   d="m 1021.7,397.26 c 6.221,-6.267 12.494,-12.488 18.715,-18.755 29.352,29.313 58.659,58.671 87.995,88 -6.255,6.233 -12.477,12.499 -18.749,18.715 -29.296,-29.346 -58.648,-58.636 -87.961,-87.96 z" />
	<path
   id="path180"
   d="m 655.92,397.24 c -0.032,-8.83 0,-17.665 -0.028,-26.495 41.482,-0.028 82.965,0.01 124.45,0 -0.016,8.83 0.016,17.661 -0.024,26.491 -41.467,-0.036 -82.933,0.01 -124.4,0 z" />
	<path
   id="path182"
   d="m 397.26,655.87 c -6.267,-6.221 -12.488,-12.494 -18.755,-18.715 29.313,-29.352 58.671,-58.659 88,-87.995 6.233,6.255 12.499,12.477 18.715,18.749 -29.346,29.296 -58.636,58.649 -87.96,87.961 z" />
	<path
   id="path184"
   d="m 397.24,1021.7 c -8.83,0.032 -17.665,0 -26.495,0.028 -0.028,-41.482 0.01,-82.965 0,-124.45 8.83,0.016 17.661,-0.016 26.491,0.024 -0.036,41.466 0.01,82.932 0,124.4 z" />
	<path
   id="path186"
   d="m 655.87,1280.3 c -6.221,6.267 -12.494,12.488 -18.715,18.755 -29.352,-29.313 -58.659,-58.671 -87.995,-88 6.255,-6.233 12.477,-12.499 18.749,-18.715 29.296,29.346 58.649,58.636 87.961,87.96 z" />
	<path
   id="path188"
   d="m 1021.7,1280.3 c 0.032,8.83 0,17.665 0.028,26.495 -41.482,0.028 -82.965,-0.01 -124.45,0 0.016,-8.83 -0.016,-17.661 0.024,-26.491 41.466,0.036 82.932,-0.01 124.4,0 z" />
	<path
   id="path190"
   d="m 1280.3,1021.7 c 6.267,6.221 12.488,12.494 18.755,18.715 -29.313,29.352 -58.671,58.659 -88,87.995 -6.233,-6.255 -12.499,-12.477 -18.715,-18.749 29.346,-29.296 58.636,-58.648 87.96,-87.961 z" />
	<path
   id="path192"
   d="m 1280.3,655.92 c 8.83,-0.032 17.665,0 26.495,-0.028 0.028,41.482 -0.01,82.965 0,124.45 -8.83,-0.016 -17.661,0.016 -26.491,-0.024 0.036,-41.467 -0.01,-82.933 0,-124.4 z" />
	<path
   id="path194"
   d="m 1280.3,655.87 c 6.267,-6.221 12.488,-12.494 18.755,-18.715 -29.313,-29.352 -58.671,-58.659 -88,-87.995 -6.233,6.255 -12.499,12.477 -18.715,18.749 29.346,29.296 58.636,58.649 87.96,87.961 z" />
	<path
   id="path196"
   d="m 1021.7,397.24 c 0.032,-8.83 0,-17.665 0.028,-26.495 -41.482,-0.028 -82.965,0.01 -124.45,0 0.016,8.83 -0.016,17.661 0.024,26.491 41.466,-0.036 82.932,0.01 124.4,0 z" />
	<path
   id="path198"
   d="m 655.87,397.26 c -6.221,-6.267 -12.494,-12.488 -18.715,-18.755 -29.352,29.313 -58.659,58.671 -87.995,88 6.255,6.233 12.477,12.499 18.749,18.715 29.296,-29.346 58.649,-58.636 87.961,-87.96 z" />
	<path
   id="path200"
   d="m 397.24,655.92 c -8.83,-0.032 -17.665,0 -26.495,-0.028 -0.028,41.482 0.01,82.965 0,124.45 8.83,-0.016 17.661,0.016 26.491,-0.024 -0.036,-41.467 0.01,-82.933 0,-124.4 z" />
	<path
   id="path202"
   d="m 397.26,1021.7 c -6.267,6.221 -12.488,12.494 -18.755,18.715 29.313,29.352 58.671,58.659 88,87.995 6.233,-6.255 12.499,-12.477 18.715,-18.749 -29.346,-29.296 -58.636,-58.648 -87.96,-87.961 z" />
	<path
   id="path204"
   d="m 655.92,1280.3 c -0.032,8.83 0,17.665 -0.028,26.495 41.482,0.028 82.965,-0.01 124.45,0 -0.016,-8.83 0.016,-17.661 -0.024,-26.491 -41.467,0.036 -82.933,-0.01 -124.4,0 z" />
	<path
   id="path206"
   d="m 1021.7,1280.3 c 6.221,6.267 12.494,12.488 18.715,18.755 29.352,-29.313 58.659,-58.671 87.995,-88 -6.255,-6.233 -12.477,-12.499 -18.749,-18.715 -29.296,29.346 -58.648,58.636 -87.961,87.96 z" />
	<path
   id="path208"
   d="m 1280.3,1021.7 c 8.83,0.032 17.665,0 26.495,0.028 0.028,-41.482 -0.01,-82.965 0,-124.45 -8.83,0.016 -17.661,-0.016 -26.491,0.024 0.036,41.466 -0.01,82.932 0,124.4 z" />
	<path
   id="path210"
   d="m 1207.8,469.8 c -24.173,-24.188 -48.371,-48.349 -72.55,-72.532 6.221,-6.267 12.494,-12.488 18.715,-18.755 24.203,24.171 48.376,48.372 72.559,72.563 24.191,24.183 48.392,48.355 72.563,72.559 -6.267,6.221 -12.488,12.494 -18.755,18.715 -24.183,-24.179 -48.344,-48.378 -72.532,-72.55 z" />
	<path
   id="path212"
   d="m 1360.6,838.79 c 0.011,-34.196 -0.016,-68.391 -0.013,-102.59 8.83,-0.032 17.665,0.004 26.495,-0.028 0.023,34.206 0,68.411 0,102.62 0.01,34.206 0.026,68.411 0,102.62 -8.83,-0.032 -17.665,0.004 -26.495,-0.028 0,-34.198 0.024,-68.393 0.013,-102.59 z" />
	<path
   id="path214"
   d="m 1207.8,1207.8 c 24.188,-24.173 48.349,-48.371 72.532,-72.55 6.267,6.221 12.488,12.494 18.755,18.715 -24.171,24.203 -48.372,48.376 -72.563,72.559 -24.183,24.191 -48.355,48.392 -72.559,72.563 -6.221,-6.267 -12.494,-12.488 -18.715,-18.755 24.179,-24.183 48.377,-48.344 72.55,-72.532 z" />
	<path
   id="path216"
   d="m 838.79,1360.6 c 34.196,0.011 68.391,-0.016 102.59,-0.013 0.032,8.83 -0.004,17.665 0.028,26.495 -34.206,0.023 -68.411,0 -102.62,0 -34.206,0.01 -68.411,0.026 -102.62,0 0.032,-8.83 -0.004,-17.665 0.028,-26.495 34.198,0 68.392,0.024 102.59,0.013 z" />
	<path
   id="path218"
   d="m 469.8,1207.8 c 24.173,24.188 48.371,48.349 72.55,72.532 -6.221,6.267 -12.494,12.488 -18.715,18.755 -24.203,-24.171 -48.376,-48.372 -72.559,-72.563 -24.191,-24.183 -48.392,-48.355 -72.563,-72.559 6.267,-6.221 12.488,-12.494 18.755,-18.715 24.183,24.179 48.343,48.377 72.532,72.55 z" />
	<path
   id="path220"
   d="m 316.96,838.79 c -0.011,34.196 0.016,68.391 0.013,102.59 -8.83,0.032 -17.665,-0.004 -26.495,0.028 -0.023,-34.206 0,-68.411 0,-102.62 -0.01,-34.206 -0.026,-68.411 0,-102.62 8.83,0.032 17.665,-0.004 26.495,0.028 0,34.198 -0.024,68.392 -0.013,102.59 z" />
	<path
   id="path222"
   d="m 469.8,469.8 c -24.188,24.173 -48.349,48.371 -72.532,72.55 -6.267,-6.221 -12.488,-12.494 -18.755,-18.715 24.171,-24.203 48.372,-48.376 72.563,-72.559 24.183,-24.191 48.355,-48.392 72.559,-72.563 6.221,6.267 12.494,12.488 18.715,18.755 -24.179,24.183 -48.378,48.343 -72.55,72.532 z" />
	<path
   id="path224"
   d="m 838.79,316.96 c -34.196,-0.011 -68.391,0.016 -102.59,0.013 -0.032,-8.83 0.004,-17.665 -0.028,-26.495 34.206,-0.023 68.411,0 102.62,0 34.206,-0.01 68.411,-0.026 102.62,0 -0.032,8.83 0.004,17.665 -0.028,26.495 -34.198,0 -68.393,-0.024 -102.59,-0.013 z" />
	<path
   id="path226"
   d="m 1264.5,413.04 c -5.26,-5.258 -10.52,-10.517 -15.779,-15.777 6.221,-6.267 12.494,-12.488 18.715,-18.755 5.269,5.263 10.536,10.527 15.803,15.792 5.265,5.267 10.529,10.535 15.792,15.803 -6.267,6.221 -12.488,12.494 -18.755,18.715 -5.259,-5.258 -10.517,-10.518 -15.776,-15.778 z" />
	<path
   id="path228"
   d="m 1440.9,838.79 c 0,-7.438 0,-14.875 0,-22.313 8.83,-0.032 17.665,0.004 26.495,-0.028 0,7.447 0.01,14.894 0.01,22.341 -10e-4,7.447 0,14.894 -0.01,22.341 -8.83,-0.032 -17.665,0.004 -26.495,-0.028 0,-7.438 0,-14.876 0,-22.313 z" />
	<path
   id="path230"
   d="m 1264.5,1264.5 c 5.258,-5.26 10.517,-10.52 15.776,-15.779 6.267,6.221 12.488,12.494 18.755,18.715 -5.263,5.269 -10.527,10.536 -15.792,15.803 -5.267,5.265 -10.535,10.529 -15.803,15.792 -6.221,-6.267 -12.494,-12.488 -18.715,-18.755 5.26,-5.259 10.519,-10.517 15.779,-15.776 z" />
	<path
   id="path232"
   d="m 838.79,1440.9 c 7.438,0 14.875,0 22.313,0 0.032,8.83 -0.004,17.665 0.028,26.495 -7.447,0 -14.894,0.01 -22.341,0.01 -7.447,-10e-4 -14.894,0 -22.341,-0.01 0.032,-8.83 -0.004,-17.665 0.028,-26.495 7.438,0 14.875,0 22.313,0 z" />
	<path
   id="path234"
   d="m 413.04,1264.5 c 5.26,5.258 10.52,10.517 15.779,15.776 -6.221,6.267 -12.494,12.488 -18.715,18.755 -5.269,-5.263 -10.536,-10.527 -15.803,-15.792 -5.265,-5.267 -10.529,-10.535 -15.792,-15.803 6.267,-6.221 12.488,-12.494 18.755,-18.715 5.259,5.26 10.518,10.519 15.776,15.779 z" />
	<path
   id="path236"
   d="m 236.69,838.79 c 0.001,7.438 0,14.875 0.001,22.313 -8.83,0.032 -17.665,-0.004 -26.495,0.028 0,-7.447 -0.01,-14.894 -0.01,-22.341 0.001,-7.447 0,-14.894 0.01,-22.341 8.83,0.032 17.665,-0.004 26.495,0.028 0.001,7.438 0,14.875 -0.001,22.313 z" />
	<path
   id="path238"
   d="m 413.04,413.04 c -5.258,5.26 -10.517,10.52 -15.777,15.779 -6.267,-6.221 -12.488,-12.494 -18.755,-18.715 5.263,-5.269 10.527,-10.536 15.792,-15.803 5.267,-5.265 10.535,-10.529 15.803,-15.792 6.221,6.267 12.494,12.488 18.715,18.755 -5.258,5.259 -10.518,10.518 -15.778,15.776 z" />
	<path
   id="path240"
   d="m 838.79,236.69 c -7.438,0.001 -14.875,0 -22.313,0.001 -0.032,-8.83 0.004,-17.665 -0.028,-26.495 7.447,0 14.894,-0.01 22.341,-0.01 7.447,0.001 14.894,0 22.341,0.01 -0.032,8.83 0.004,17.665 -0.028,26.495 -7.438,0.001 -14.876,0 -22.313,-0.001 z" />
	<path
   id="path242"
   d="m 972.7,515.48 c 26.754,-26.713 53.466,-53.464 80.197,-80.206 6.25,6.233 12.465,12.505 18.749,18.709 -29.307,29.364 -58.659,58.676 -88,88.006 -5.163,-5.173 -10.35,-10.326 -15.502,-15.511 -7.309,0.024 -14.621,0 -21.929,0.01 -0.008,-41.486 -0.036,-82.969 0.004,-124.46 8.83,0.056 17.661,0.016 26.487,0.028 -0.008,37.811 -0.035,75.615 -0.006,113.42 z" />
	<path
   id="path244"
   d="m 1162.1,704.87 c 37.807,0.029 75.611,10e-4 113.42,-0.006 0.012,8.826 -0.028,17.657 0.028,26.487 -41.486,0.04 -82.969,0.012 -124.46,0.004 0.01,-7.308 -0.017,-14.62 0.01,-21.929 -5.185,-5.152 -10.338,-10.338 -15.511,-15.502 29.33,-29.341 58.642,-58.693 88.006,-88 6.204,6.284 12.477,12.499 18.709,18.749 -26.741,26.731 -53.492,53.443 -80.205,80.197 z" />
	<path
   id="path246"
   d="m 1162.1,972.7 c 26.713,26.754 53.464,53.466 80.206,80.197 -6.233,6.25 -12.505,12.465 -18.709,18.749 -29.364,-29.307 -58.676,-58.659 -88.006,-88 5.173,-5.163 10.326,-10.35 15.511,-15.502 -0.023,-7.309 0,-14.621 -0.01,-21.929 41.486,-0.008 82.969,-0.036 124.46,0.004 -0.056,8.83 -0.016,17.661 -0.028,26.487 -37.812,-0.008 -75.617,-0.035 -113.42,-0.006 z" />
	<path
   id="path248"
   d="m 972.7,1162.1 c -0.029,37.807 -0.001,75.611 0.006,113.42 -8.826,0.012 -17.657,-0.028 -26.487,0.028 -0.04,-41.486 -0.012,-82.969 -0.004,-124.46 7.308,0.01 14.62,-0.017 21.929,0.01 5.152,-5.185 10.338,-10.338 15.502,-15.511 29.341,29.33 58.693,58.642 88,88.006 -6.284,6.204 -12.499,12.477 -18.749,18.709 -26.731,-26.741 -53.444,-53.492 -80.197,-80.205 z" />
	<path
   id="path250"
   d="m 704.87,1162.1 c -26.754,26.713 -53.466,53.464 -80.197,80.206 -6.25,-6.233 -12.465,-12.505 -18.749,-18.709 29.307,-29.364 58.659,-58.676 88,-88.006 5.163,5.173 10.35,10.326 15.502,15.511 7.309,-0.023 14.621,0 21.929,-0.01 0.008,41.486 0.036,82.969 -0.004,124.46 -8.83,-0.056 -17.661,-0.016 -26.487,-0.028 0.007,-37.812 0.034,-75.617 0.006,-113.42 z" />
	<path
   id="path252"
   d="m 515.48,972.7 c -37.807,-0.029 -75.611,-0.001 -113.42,0.006 -0.012,-8.826 0.028,-17.657 -0.028,-26.487 41.486,-0.04 82.969,-0.012 124.46,-0.004 -0.01,7.308 0.017,14.62 -0.01,21.929 5.185,5.152 10.338,10.338 15.511,15.502 -29.33,29.341 -58.642,58.693 -88.006,88 -6.204,-6.284 -12.477,-12.499 -18.709,-18.749 26.742,-26.731 53.493,-53.444 80.206,-80.197 z" />
	<path
   id="path254"
   d="m 515.48,704.87 c -26.713,-26.754 -53.464,-53.466 -80.206,-80.197 6.233,-6.25 12.505,-12.465 18.709,-18.749 29.364,29.307 58.676,58.659 88.006,88 -5.173,5.163 -10.326,10.35 -15.511,15.502 0.024,7.309 0,14.621 0.01,21.929 -41.486,0.008 -82.969,0.036 -124.46,-0.004 0.056,-8.83 0.016,-17.661 0.028,-26.487 37.811,0.007 75.615,0.034 113.42,0.006 z" />
	<path
   id="path256"
   d="m 704.87,515.48 c 0.029,-37.807 10e-4,-75.611 -0.006,-113.42 8.826,-0.012 17.657,0.028 26.487,-0.028 0.04,41.486 0.012,82.969 0.004,124.46 -7.308,-0.01 -14.62,0.017 -21.929,-0.01 -5.152,5.185 -10.338,10.338 -15.502,15.511 -29.341,-29.33 -58.693,-58.642 -88,-88.006 6.284,-6.204 12.499,-12.477 18.749,-18.709 26.731,26.742 53.443,53.493 80.197,80.206 z" />
	<path
   id="path258"
   d="m 1096.9,580.7 c -1.165,-2.778 -2.038,-5.677 -2.551,-8.678 -2.185,-12.59 -4.286,-25.419 -2.912,-38.23 1.146,-10.774 3.735,-21.746 9.928,-30.817 5.801,-9.111 13.89,-16.371 21.411,-24.005 14.571,-14.554 29.114,-29.131 43.679,-43.697 6.25,6.233 12.465,12.505 18.749,18.709 -15.877,16.098 -32.179,31.77 -47.704,48.209 -3.463,3.746 -6.931,7.515 -10.013,11.585 -5.676,7.152 -7.442,16.49 -8.1,25.373 -0.321,6.257 -0.314,12.557 0.259,18.802 6.246,0.573 12.546,0.58 18.802,0.259 8.884,-0.658 18.221,-2.424 25.373,-8.1 4.07,-3.082 7.839,-6.551 11.585,-10.013 16.439,-15.525 32.111,-31.827 48.209,-47.704 6.204,6.284 12.477,12.499 18.709,18.749 -14.565,14.565 -29.142,29.108 -43.696,43.679 -7.635,7.521 -14.895,15.61 -24.005,21.411 -9.071,6.193 -20.043,8.781 -30.817,9.928 -12.812,1.374 -25.64,-0.727 -38.23,-2.912 -2.999,-0.51 -5.898,-1.383 -8.676,-2.548 z" />
	<path
   id="path260"
   d="m 1203.8,838.79 c 1.141,-2.788 2.573,-5.455 4.333,-7.94 7.357,-10.448 14.943,-21.004 24.974,-29.092 8.429,-6.807 18.018,-12.736 28.811,-14.771 10.544,-2.34 21.397,-1.754 32.114,-1.834 20.595,0.012 41.185,-0.012 61.784,-0.012 0.012,8.826 -0.028,17.657 0.028,26.487 -22.61,0.157 -45.219,-0.289 -67.821,0.357 -5.098,0.201 -10.215,0.413 -15.272,1.112 -9.071,1.044 -16.922,6.398 -23.669,12.214 -4.651,4.197 -9.101,8.657 -13.112,13.479 4.011,4.822 8.461,9.281 13.112,13.479 6.747,5.816 14.598,11.17 23.669,12.214 5.057,0.698 10.175,0.911 15.272,1.112 22.602,0.646 45.211,0.201 67.821,0.357 -0.056,8.83 -0.016,17.661 -0.028,26.487 -20.599,0 -41.189,-0.024 -61.784,-0.012 -10.717,-0.08 -21.57,0.506 -32.114,-1.834 -10.793,-2.035 -20.382,-7.963 -28.811,-14.771 -10.031,-8.088 -17.617,-18.644 -24.974,-29.092 -1.761,-2.485 -3.193,-5.152 -4.333,-7.94 z" />
	<path
   id="path262"
   d="m 1096.9,1096.9 c 2.778,-1.165 5.677,-2.038 8.678,-2.551 12.59,-2.185 25.419,-4.286 38.23,-2.912 10.774,1.146 21.746,3.735 30.817,9.928 9.11,5.801 16.37,13.89 24.005,21.411 14.554,14.571 29.131,29.114 43.696,43.679 -6.233,6.25 -12.505,12.465 -18.709,18.749 -16.098,-15.877 -31.77,-32.179 -48.209,-47.704 -3.746,-3.463 -7.516,-6.931 -11.585,-10.013 -7.152,-5.676 -16.49,-7.442 -25.373,-8.1 -6.257,-0.321 -12.557,-0.314 -18.802,0.259 -0.573,6.246 -0.58,12.546 -0.259,18.802 0.658,8.884 2.424,18.221 8.1,25.373 3.082,4.07 6.55,7.839 10.013,11.585 15.525,16.439 31.827,32.111 47.704,48.209 -6.284,6.204 -12.499,12.477 -18.749,18.709 -14.565,-14.565 -29.108,-29.142 -43.679,-43.696 -7.521,-7.635 -15.61,-14.895 -21.411,-24.005 -6.193,-9.071 -8.781,-20.043 -9.928,-30.817 -1.374,-12.812 0.726,-25.64 2.912,-38.23 0.51,-2.999 1.384,-5.898 2.549,-8.676 z" />
	<path
   id="path264"
   d="m 838.79,1203.8 c 2.788,1.141 5.455,2.573 7.94,4.333 10.448,7.357 21.004,14.943 29.092,24.974 6.807,8.429 12.736,18.018 14.771,28.811 2.34,10.544 1.754,21.397 1.834,32.114 -0.012,20.595 0.012,41.185 0.012,61.784 -8.826,0.012 -17.657,-0.028 -26.487,0.028 -0.157,-22.61 0.289,-45.219 -0.357,-67.821 -0.201,-5.098 -0.413,-10.215 -1.112,-15.272 -1.044,-9.071 -6.398,-16.922 -12.214,-23.669 -4.197,-4.651 -8.656,-9.101 -13.479,-13.112 -4.822,4.011 -9.281,8.461 -13.479,13.112 -5.816,6.747 -11.17,14.598 -12.214,23.669 -0.698,5.057 -0.911,10.175 -1.112,15.272 -0.646,22.602 -0.201,45.211 -0.357,67.821 -8.83,-0.056 -17.661,-0.016 -26.487,-0.028 0,-20.599 0.024,-41.189 0.012,-61.784 0.08,-10.717 -0.506,-21.57 1.834,-32.114 2.035,-10.793 7.963,-20.382 14.771,-28.811 8.088,-10.031 18.644,-17.617 29.092,-24.974 2.484,-1.761 5.152,-3.193 7.94,-4.333 z" />
	<path
   id="path266"
   d="m 580.7,1096.9 c 1.165,2.778 2.038,5.677 2.55,8.678 2.185,12.59 4.286,25.419 2.912,38.23 -1.147,10.774 -3.735,21.746 -9.928,30.817 -5.801,9.11 -13.89,16.37 -21.411,24.005 -14.571,14.554 -29.114,29.131 -43.679,43.696 -6.25,-6.233 -12.465,-12.505 -18.749,-18.709 15.877,-16.098 32.179,-31.77 47.704,-48.209 3.463,-3.746 6.931,-7.516 10.013,-11.585 5.676,-7.152 7.442,-16.49 8.1,-25.373 0.321,-6.257 0.314,-12.557 -0.259,-18.802 -6.246,-0.573 -12.546,-0.58 -18.802,-0.259 -8.883,0.658 -18.221,2.424 -25.373,8.1 -4.07,3.082 -7.839,6.55 -11.585,10.013 -16.439,15.525 -32.111,31.827 -48.209,47.704 -6.204,-6.284 -12.477,-12.499 -18.709,-18.749 14.565,-14.565 29.142,-29.108 43.697,-43.679 7.635,-7.521 14.895,-15.61 24.005,-21.411 9.071,-6.193 20.043,-8.781 30.817,-9.928 12.812,-1.374 25.64,0.726 38.23,2.912 2.999,0.51 5.898,1.384 8.676,2.549 z" />
	<path
   id="path268"
   d="m 473.8,838.79 c -1.141,2.788 -2.573,5.455 -4.333,7.94 -7.357,10.448 -14.943,21.004 -24.974,29.092 -8.429,6.807 -18.018,12.736 -28.811,14.771 -10.544,2.34 -21.397,1.754 -32.114,1.834 -20.595,-0.012 -41.185,0.012 -61.784,0.012 -0.012,-8.826 0.028,-17.657 -0.028,-26.487 22.61,-0.157 45.219,0.289 67.821,-0.357 5.097,-0.201 10.215,-0.413 15.272,-1.112 9.071,-1.044 16.922,-6.398 23.669,-12.214 4.651,-4.197 9.101,-8.656 13.112,-13.479 -4.011,-4.822 -8.461,-9.281 -13.112,-13.479 -6.747,-5.816 -14.598,-11.17 -23.669,-12.214 -5.057,-0.698 -10.175,-0.911 -15.272,-1.112 -22.602,-0.646 -45.211,-0.201 -67.821,-0.357 0.056,-8.83 0.016,-17.661 0.028,-26.487 20.599,0 41.189,0.024 61.784,0.012 10.717,0.08 21.57,-0.506 32.114,1.834 10.793,2.035 20.382,7.963 28.811,14.771 10.03,8.088 17.617,18.644 24.974,29.092 1.76,2.484 3.192,5.152 4.333,7.94 z" />
	<path
   id="path270"
   d="m 580.7,580.7 c -2.778,1.165 -5.677,2.038 -8.678,2.55 -12.59,2.185 -25.419,4.286 -38.23,2.912 -10.774,-1.147 -21.746,-3.735 -30.817,-9.928 -9.111,-5.801 -16.371,-13.89 -24.005,-21.411 -14.554,-14.571 -29.131,-29.114 -43.697,-43.679 6.233,-6.25 12.505,-12.465 18.709,-18.749 16.098,15.877 31.77,32.179 48.209,47.704 3.746,3.463 7.515,6.931 11.585,10.013 7.152,5.676 16.49,7.442 25.373,8.1 6.257,0.321 12.557,0.314 18.802,-0.259 0.573,-6.246 0.58,-12.546 0.259,-18.802 -0.658,-8.883 -2.424,-18.221 -8.1,-25.373 -3.082,-4.07 -6.551,-7.839 -10.013,-11.585 -15.525,-16.439 -31.827,-32.111 -47.704,-48.209 6.284,-6.204 12.499,-12.477 18.749,-18.709 14.565,14.565 29.108,29.142 43.679,43.697 7.521,7.635 15.61,14.895 21.411,24.005 6.193,9.071 8.781,20.043 9.928,30.817 1.374,12.812 -0.727,25.64 -2.912,38.23 -0.51,2.999 -1.383,5.898 -2.548,8.676 z" />
	<path
   id="path272"
   d="m 838.79,473.8 c -2.788,-1.141 -5.455,-2.573 -7.94,-4.333 -10.448,-7.357 -21.004,-14.943 -29.092,-24.974 -6.807,-8.429 -12.736,-18.018 -14.771,-28.811 -2.34,-10.544 -1.754,-21.397 -1.834,-32.114 0.012,-20.595 -0.012,-41.185 -0.012,-61.784 8.826,-0.012 17.657,0.028 26.487,-0.028 0.157,22.61 -0.289,45.219 0.357,67.821 0.201,5.097 0.413,10.215 1.112,15.272 1.044,9.071 6.398,16.922 12.214,23.669 4.197,4.651 8.657,9.101 13.479,13.112 4.822,-4.011 9.281,-8.461 13.479,-13.112 5.816,-6.747 11.17,-14.598 12.214,-23.669 0.698,-5.057 0.911,-10.175 1.112,-15.272 0.646,-22.602 0.201,-45.211 0.357,-67.821 8.83,0.056 17.661,0.016 26.487,0.028 0,20.599 -0.024,41.189 -0.012,61.784 -0.08,10.717 0.506,21.57 -1.834,32.114 -2.035,10.793 -7.963,20.382 -14.771,28.811 -8.088,10.03 -18.644,17.617 -29.092,24.974 -2.485,1.76 -5.152,3.192 -7.94,4.333 z" />
	<path
   id="path274"
   d="m 966.16,531.29 c 16.225,16.23 32.447,32.464 48.676,48.693 -6.301,6.187 -12.414,12.562 -18.698,18.766 -13.642,-13.666 -27.295,-27.319 -40.951,-40.969 -19.308,0 -38.617,0 -57.926,0.013 -0.056,-8.83 0.128,-17.661 0.048,-26.491 22.951,0 45.902,-0.01 68.851,-0.012 z" />
	<path
   id="path276"
   d="m 1146.3,711.42 c 0,22.949 -0.012,45.899 -0.012,68.851 -8.83,-0.08 -17.661,0.104 -26.491,0.048 0.017,-19.309 0.017,-38.618 0.013,-57.926 -13.65,-13.656 -27.304,-27.309 -40.969,-40.951 6.204,-6.284 12.579,-12.397 18.766,-18.698 16.229,16.229 32.463,32.451 48.693,48.676 z" />
	<path
   id="path278"
   d="m 1146.3,966.16 c -16.23,16.225 -32.464,32.447 -48.693,48.676 -6.187,-6.301 -12.562,-12.414 -18.766,-18.698 13.666,-13.642 27.319,-27.295 40.969,-40.951 0,-19.308 0,-38.617 -0.013,-57.926 8.83,-0.056 17.661,0.128 26.491,0.048 0,22.951 0.01,45.902 0.012,68.851 z" />
	<path
   id="path280"
   d="m 966.16,1146.3 c -22.949,0 -45.899,-0.012 -68.851,-0.012 0.08,-8.83 -0.104,-17.661 -0.048,-26.491 19.309,0.017 38.618,0.017 57.926,0.013 13.656,-13.65 27.309,-27.304 40.951,-40.969 6.284,6.204 12.397,12.579 18.698,18.766 -16.229,16.229 -32.452,32.463 -48.676,48.693 z" />
	<path
   id="path282"
   d="m 711.42,1146.3 c -16.225,-16.23 -32.447,-32.464 -48.676,-48.693 6.301,-6.187 12.414,-12.562 18.698,-18.766 13.642,13.666 27.295,27.319 40.951,40.969 19.308,0 38.617,0 57.926,-0.013 0.056,8.83 -0.128,17.661 -0.048,26.491 -22.952,0 -45.902,0.01 -68.851,0.012 z" />
	<path
   id="path284"
   d="m 531.29,966.16 c 0,-22.949 0.012,-45.899 0.012,-68.851 8.83,0.08 17.661,-0.104 26.491,-0.048 -0.017,19.309 -0.017,38.618 -0.013,57.926 13.65,13.656 27.304,27.309 40.969,40.951 -6.204,6.284 -12.579,12.397 -18.766,18.698 -16.229,-16.229 -32.464,-32.452 -48.693,-48.676 z" />
	<path
   id="path286"
   d="m 531.29,711.42 c 16.23,-16.225 32.464,-32.447 48.693,-48.676 6.187,6.301 12.562,12.414 18.766,18.698 -13.666,13.642 -27.319,27.295 -40.969,40.951 0,19.308 0,38.617 0.013,57.926 -8.83,0.056 -17.661,-0.128 -26.491,-0.048 0,-22.952 -0.01,-45.902 -0.012,-68.851 z" />
	<path
   id="path288"
   d="m 711.42,531.29 c 22.949,0 45.899,0.012 68.851,0.012 -0.08,8.83 0.104,17.661 0.048,26.491 -19.309,-0.017 -38.618,-0.017 -57.926,-0.013 -13.656,13.65 -27.309,27.304 -40.951,40.969 -6.284,-6.204 -12.397,-12.579 -18.698,-18.766 16.229,-16.229 32.451,-32.464 48.676,-48.693 z" />
	<path
   id="path290"
   d="m 1021.7,510.77 c 6.221,-6.255 12.482,-12.471 18.698,-18.732 7.419,7.056 13.442,16.013 15.315,26.219 2.231,12.318 4.24,24.857 3.184,37.413 -1.033,10.586 -3.287,21.383 -9.014,30.51 -4.655,7.726 -10.95,14.242 -17.381,20.492 -16.285,16.285 -32.577,32.565 -48.868,48.845 -6.238,-6.25 -12.511,-12.471 -18.715,-18.755 7.777,-7.737 15.519,-15.508 23.284,-23.25 11.472,-11.608 23.409,-22.83 33.74,-35.494 6.426,-7.623 8.412,-17.846 8.929,-27.542 0.289,-8.134 0.21,-16.354 -1.226,-24.386 -1.583,-5.58 -4.869,-10.473 -7.946,-15.32 z" />
	<path
   id="path292"
   d="m 736.19,477.49 c -0.024,-8.822 0.008,-17.645 -0.024,-26.467 10.235,-0.257 20.828,1.818 29.369,7.71 10.287,7.133 20.575,14.578 28.707,24.203 6.755,8.216 12.796,17.444 15.2,27.948 2.172,8.754 2.328,17.813 2.2,26.78 0,23.031 -0.008,46.062 -0.016,69.093 -8.83,-0.01 -17.665,0.028 -26.495,-0.028 0.028,-10.97 0.008,-21.939 0.024,-32.905 -0.096,-16.32 0.409,-32.696 -1.24,-48.956 -0.847,-9.934 -6.671,-18.568 -13.161,-25.789 -5.547,-5.956 -11.415,-11.712 -18.11,-16.376 -5.067,-2.825 -10.851,-3.961 -16.454,-5.213 z" />
	<path
   id="path294"
   d="m 510.77,655.86 c -6.255,-6.221 -12.471,-12.482 -18.732,-18.698 7.056,-7.419 16.013,-13.442 26.219,-15.315 12.318,-2.231 24.857,-4.24 37.413,-3.184 10.586,1.033 21.383,3.287 30.51,9.014 7.726,4.655 14.242,10.95 20.492,17.381 16.285,16.285 32.565,32.577 48.845,48.868 -6.25,6.238 -12.471,12.511 -18.755,18.715 -7.737,-7.777 -15.508,-15.519 -23.25,-23.284 -11.608,-11.472 -22.83,-23.409 -35.494,-33.74 -7.623,-6.426 -17.846,-8.412 -27.542,-8.929 -8.134,-0.289 -16.354,-0.21 -24.386,1.226 -5.58,1.583 -10.473,4.87 -15.32,7.946 z" />
	<path
   id="path296"
   d="m 477.49,941.38 c -8.822,0.024 -17.645,-0.008 -26.467,0.024 -0.257,-10.235 1.818,-20.828 7.71,-29.369 7.133,-10.287 14.578,-20.575 24.203,-28.707 8.216,-6.755 17.444,-12.796 27.948,-15.2 8.754,-2.171 17.813,-2.328 26.78,-2.2 23.031,0 46.062,0.008 69.093,0.016 -0.01,8.83 0.028,17.665 -0.028,26.495 -10.97,-0.028 -21.939,-0.008 -32.905,-0.024 -16.32,0.096 -32.696,-0.409 -48.956,1.24 -9.934,0.847 -18.568,6.671 -25.789,13.161 -5.956,5.547 -11.712,11.415 -16.376,18.11 -2.825,5.067 -3.961,10.851 -5.213,16.454 z" />
	<path
   id="path298"
   d="m 655.86,1166.8 c -6.221,6.255 -12.482,12.471 -18.698,18.732 -7.419,-7.056 -13.442,-16.013 -15.315,-26.219 -2.231,-12.318 -4.24,-24.857 -3.184,-37.413 1.033,-10.586 3.287,-21.383 9.014,-30.51 4.655,-7.726 10.95,-14.242 17.381,-20.492 16.285,-16.286 32.577,-32.565 48.868,-48.845 6.238,6.25 12.511,12.471 18.715,18.755 -7.777,7.737 -15.519,15.508 -23.284,23.25 -11.472,11.608 -23.409,22.83 -33.74,35.494 -6.426,7.623 -8.412,17.846 -8.929,27.542 -0.289,8.134 -0.21,16.354 1.226,24.385 1.583,5.58 4.87,10.473 7.946,15.321 z" />
	<path
   id="path300"
   d="m 941.38,1200.1 c 0.024,8.822 -0.008,17.645 0.024,26.467 -10.235,0.257 -20.828,-1.818 -29.369,-7.71 -10.287,-7.132 -20.575,-14.578 -28.707,-24.203 -6.755,-8.216 -12.796,-17.444 -15.2,-27.948 -2.171,-8.754 -2.328,-17.813 -2.2,-26.78 0,-23.031 0.008,-46.062 0.016,-69.093 8.83,0.01 17.665,-0.028 26.495,0.028 -0.028,10.97 -0.008,21.939 -0.024,32.905 0.096,16.32 -0.409,32.696 1.24,48.956 0.847,9.934 6.671,18.568 13.161,25.788 5.547,5.957 11.415,11.712 18.11,16.376 5.067,2.825 10.851,3.961 16.454,5.214 z" />
	<path
   id="path302"
   d="m 1166.8,1021.7 c 6.255,6.221 12.471,12.482 18.732,18.698 -7.056,7.419 -16.013,13.442 -26.219,15.315 -12.318,2.231 -24.857,4.24 -37.413,3.184 -10.586,-1.033 -21.383,-3.287 -30.51,-9.014 -7.726,-4.655 -14.242,-10.95 -20.492,-17.381 -16.286,-16.285 -32.565,-32.577 -48.845,-48.868 6.25,-6.238 12.471,-12.511 18.755,-18.715 7.737,7.777 15.508,15.519 23.25,23.284 11.608,11.472 22.83,23.409 35.494,33.74 7.623,6.426 17.846,8.412 27.542,8.929 8.134,0.289 16.354,0.21 24.385,-1.226 5.58,-1.583 10.473,-4.869 15.321,-7.946 z" />
	<path
   id="path304"
   d="m 1200.1,736.19 c 8.822,-0.024 17.645,0.008 26.467,-0.024 0.257,10.235 -1.818,20.828 -7.71,29.369 -7.132,10.287 -14.578,20.575 -24.203,28.707 -8.216,6.755 -17.444,12.796 -27.948,15.2 -8.754,2.172 -17.813,2.328 -26.78,2.2 -23.031,0 -46.062,-0.008 -69.093,-0.016 0.01,-8.83 -0.028,-17.665 0.028,-26.495 10.97,0.028 21.939,0.008 32.905,0.024 16.32,-0.096 32.696,0.409 48.956,-1.24 9.934,-0.847 18.568,-6.671 25.788,-13.161 5.957,-5.547 11.712,-11.415 16.376,-18.11 2.825,-5.067 3.961,-10.851 5.214,-16.454 z" />
	<path
   id="path306"
   d="m 1166.8,655.86 c 6.255,-6.221 12.471,-12.482 18.732,-18.698 -7.056,-7.419 -16.013,-13.442 -26.219,-15.315 -12.318,-2.231 -24.857,-4.24 -37.413,-3.184 -10.586,1.033 -21.383,3.287 -30.51,9.014 -7.726,4.655 -14.242,10.95 -20.492,17.381 -16.286,16.285 -32.565,32.577 -48.845,48.868 6.25,6.238 12.471,12.511 18.755,18.715 7.737,-7.777 15.508,-15.519 23.25,-23.284 11.608,-11.472 22.83,-23.409 35.494,-33.74 7.623,-6.426 17.846,-8.412 27.542,-8.929 8.134,-0.289 16.354,-0.21 24.385,1.226 5.58,1.583 10.473,4.87 15.321,7.946 z" />
	<path
   id="path308"
   d="m 941.38,477.49 c 0.024,-8.822 -0.008,-17.645 0.024,-26.467 -10.235,-0.257 -20.828,1.818 -29.369,7.71 -10.287,7.133 -20.575,14.578 -28.707,24.203 -6.755,8.216 -12.796,17.444 -15.2,27.948 -2.171,8.754 -2.328,17.813 -2.2,26.78 0,23.031 0.008,46.062 0.016,69.093 8.83,-0.01 17.665,0.028 26.495,-0.028 -0.028,-10.97 -0.008,-21.939 -0.024,-32.905 0.096,-16.32 -0.409,-32.696 1.24,-48.956 0.847,-9.934 6.671,-18.568 13.161,-25.789 5.547,-5.956 11.415,-11.712 18.11,-16.376 5.067,-2.825 10.851,-3.961 16.454,-5.213 z" />
	<path
   id="path310"
   d="m 655.86,510.77 c -6.221,-6.255 -12.482,-12.471 -18.698,-18.732 -7.419,7.056 -13.442,16.013 -15.315,26.219 -2.231,12.318 -4.24,24.857 -3.184,37.413 1.033,10.586 3.287,21.383 9.014,30.51 4.655,7.726 10.95,14.242 17.381,20.492 16.285,16.285 32.577,32.565 48.868,48.845 6.238,-6.25 12.511,-12.471 18.715,-18.755 -7.777,-7.737 -15.519,-15.508 -23.284,-23.25 -11.472,-11.608 -23.409,-22.83 -33.74,-35.494 -6.426,-7.623 -8.412,-17.846 -8.929,-27.542 -0.289,-8.134 -0.21,-16.354 1.226,-24.386 1.583,-5.58 4.87,-10.473 7.946,-15.32 z" />
	<path
   id="path312"
   d="m 477.49,736.19 c -8.822,-0.024 -17.645,0.008 -26.467,-0.024 -0.257,10.235 1.818,20.828 7.71,29.369 7.133,10.287 14.578,20.575 24.203,28.707 8.216,6.755 17.444,12.796 27.948,15.2 8.754,2.172 17.813,2.328 26.78,2.2 23.031,0 46.062,-0.008 69.093,-0.016 -0.01,-8.83 0.028,-17.665 -0.028,-26.495 -10.97,0.028 -21.939,0.008 -32.905,0.024 -16.32,-0.096 -32.696,0.409 -48.956,-1.24 -9.934,-0.847 -18.568,-6.671 -25.789,-13.161 -5.956,-5.547 -11.712,-11.415 -16.376,-18.11 -2.825,-5.067 -3.961,-10.851 -5.213,-16.454 z" />
	<path
   id="path314"
   d="m 510.77,1021.7 c -6.255,6.221 -12.471,12.482 -18.732,18.698 7.056,7.419 16.013,13.442 26.219,15.315 12.318,2.231 24.857,4.24 37.413,3.184 10.586,-1.033 21.383,-3.287 30.51,-9.014 7.726,-4.655 14.242,-10.95 20.492,-17.381 16.285,-16.285 32.565,-32.577 48.845,-48.868 -6.25,-6.238 -12.471,-12.511 -18.755,-18.715 -7.737,7.777 -15.508,15.519 -23.25,23.284 -11.608,11.472 -22.83,23.409 -35.494,33.74 -7.623,6.426 -17.846,8.412 -27.542,8.929 -8.134,0.289 -16.354,0.21 -24.386,-1.226 -5.58,-1.583 -10.473,-4.869 -15.32,-7.946 z" />
	<path
   id="path316"
   d="m 736.19,1200.1 c -0.024,8.822 0.008,17.645 -0.024,26.467 10.235,0.257 20.828,-1.818 29.369,-7.71 10.287,-7.132 20.575,-14.578 28.707,-24.203 6.755,-8.216 12.796,-17.444 15.2,-27.948 2.172,-8.754 2.328,-17.813 2.2,-26.78 0,-23.031 -0.008,-46.062 -0.016,-69.093 -8.83,0.01 -17.665,-0.028 -26.495,0.028 0.028,10.97 0.008,21.939 0.024,32.905 -0.096,16.32 0.409,32.696 -1.24,48.956 -0.847,9.934 -6.671,18.568 -13.161,25.788 -5.547,5.957 -11.415,11.712 -18.11,16.376 -5.067,2.825 -10.851,3.961 -16.454,5.214 z" />
	<path
   id="path318"
   d="m 1021.7,1166.8 c 6.221,6.255 12.482,12.471 18.698,18.732 7.419,-7.056 13.442,-16.013 15.315,-26.219 2.231,-12.318 4.24,-24.857 3.184,-37.413 -1.033,-10.586 -3.287,-21.383 -9.014,-30.51 -4.655,-7.726 -10.95,-14.242 -17.381,-20.492 -16.285,-16.286 -32.577,-32.565 -48.868,-48.845 -6.238,6.25 -12.511,12.471 -18.715,18.755 7.777,7.737 15.519,15.508 23.284,23.25 11.472,11.608 23.409,22.83 33.74,35.494 6.426,7.623 8.412,17.846 8.929,27.542 0.289,8.134 0.21,16.354 -1.226,24.385 -1.583,5.58 -4.869,10.473 -7.946,15.321 z" />
	<path
   id="path320"
   d="m 1200.1,941.38 c 8.822,0.024 17.645,-0.008 26.467,0.024 0.257,-10.235 -1.818,-20.828 -7.71,-29.369 -7.132,-10.287 -14.578,-20.575 -24.203,-28.707 -8.216,-6.755 -17.444,-12.796 -27.948,-15.2 -8.754,-2.171 -17.813,-2.328 -26.78,-2.2 -23.031,0 -46.062,0.008 -69.093,0.016 0.01,8.83 -0.028,17.665 0.028,26.495 10.97,-0.028 21.939,-0.008 32.905,-0.024 16.32,0.096 32.696,-0.409 48.956,1.24 9.934,0.847 18.568,6.671 25.788,13.161 5.957,5.547 11.712,11.415 16.376,18.11 2.825,5.067 3.961,10.851 5.214,16.454 z" />
	<path
   id="path322"
   d="m 1151,526.57 c -5.236,-5.239 -10.47,-10.48 -15.701,-15.723 6.346,-6.13 12.38,-12.584 18.67,-18.772 5.257,5.252 10.513,10.505 15.768,15.758 5.254,5.255 10.506,10.511 15.758,15.768 -6.187,6.289 -12.641,12.323 -18.772,18.669 -5.244,-5.231 -10.484,-10.465 -15.723,-15.7 z" />
	<path
   id="path324"
   d="m 1280.3,838.79 c 0,-7.407 0.01,-14.813 0.016,-22.221 8.822,0.152 17.653,-0.145 26.475,-0.072 0,7.431 0.01,14.862 0.01,22.293 -10e-4,7.431 0,14.862 -0.01,22.293 -8.822,0.072 -17.653,-0.225 -26.475,-0.072 -0.01,-7.408 -0.014,-14.815 -0.016,-22.221 z" />
	<path
   id="path326"
   d="m 1151,1151 c 5.239,-5.236 10.48,-10.47 15.723,-15.701 6.13,6.346 12.584,12.38 18.772,18.67 -5.252,5.257 -10.505,10.513 -15.758,15.768 -5.255,5.254 -10.511,10.506 -15.768,15.758 -6.289,-6.187 -12.323,-12.641 -18.67,-18.772 5.231,-5.244 10.465,-10.484 15.701,-15.723 z" />
	<path
   id="path328"
   d="m 838.79,1280.3 c 7.407,0 14.813,0.01 22.221,0.016 -0.153,8.822 0.144,17.653 0.072,26.475 -7.431,0 -14.862,0.01 -22.293,0.01 -7.431,-10e-4 -14.862,0 -22.293,-0.01 -0.072,-8.822 0.225,-17.653 0.072,-26.475 7.407,-0.01 14.814,-0.014 22.221,-0.016 z" />
	<path
   id="path330"
   d="m 526.57,1151 c 5.236,5.239 10.47,10.48 15.701,15.723 -6.346,6.13 -12.38,12.584 -18.669,18.772 -5.257,-5.252 -10.513,-10.505 -15.768,-15.758 -5.254,-5.255 -10.507,-10.511 -15.758,-15.768 6.187,-6.289 12.641,-12.323 18.772,-18.67 5.242,5.231 10.483,10.465 15.722,15.701 z" />
	<path
   id="path332"
   d="m 397.24,838.79 c 0,7.407 -0.01,14.813 -0.016,22.221 -8.822,-0.153 -17.653,0.144 -26.475,0.072 0,-7.431 -0.01,-14.862 -0.01,-22.293 0.001,-7.431 0,-14.862 0.01,-22.293 8.822,-0.072 17.653,0.225 26.475,0.072 0.01,7.407 0.014,14.814 0.016,22.221 z" />
	<path
   id="path334"
   d="m 526.57,526.57 c -5.239,5.236 -10.48,10.47 -15.723,15.701 -6.13,-6.346 -12.584,-12.38 -18.772,-18.669 5.252,-5.257 10.505,-10.513 15.758,-15.768 5.255,-5.254 10.511,-10.507 15.768,-15.758 6.289,6.187 12.323,12.641 18.669,18.772 -5.231,5.242 -10.465,10.483 -15.7,15.722 z" />
	<path
   id="path336"
   d="m 838.79,397.24 c -7.407,0 -14.813,-0.01 -22.221,-0.016 0.152,-8.822 -0.145,-17.653 -0.072,-26.475 7.431,0 14.862,-0.01 22.293,-0.01 7.431,0.001 14.862,0 22.293,0.01 0.072,8.822 -0.225,17.653 -0.072,26.475 -7.408,0.01 -14.815,0.014 -22.221,0.016 z" />
	<path
   id="path338"
   d="m 953.18,562.61 c 1.643,1.637 3.29,3.272 4.94,4.902 -3.97,3.978 -7.941,7.955 -11.913,11.931 0.003,-5.62 0.007,-11.24 0.013,-16.86 2.32,0.015 4.64,0.023 6.96,0.027 z" />
	<path
   id="path340"
   d="m 1115,724.39 c 0,2.32 0.012,4.64 0.027,6.96 -5.62,0.005 -11.24,0.01 -16.86,0.013 3.976,-3.972 7.953,-7.943 11.931,-11.913 1.63,1.65 3.265,3.296 4.902,4.94 z" />
	<path
   id="path342"
   d="m 1115,953.18 c -1.637,1.643 -3.272,3.29 -4.902,4.94 -3.978,-3.97 -7.955,-7.941 -11.931,-11.913 5.62,0.003 11.24,0.007 16.86,0.013 -0.014,2.32 -0.023,4.64 -0.027,6.96 z" />
	<path
   id="path344"
   d="m 953.18,1115 c -2.32,0 -4.64,0.012 -6.96,0.027 -0.005,-5.62 -0.01,-11.24 -0.013,-16.86 3.972,3.976 7.943,7.953 11.913,11.931 -1.651,1.63 -3.297,3.265 -4.94,4.902 z" />
	<path
   id="path346"
   d="m 724.39,1115 c -1.643,-1.637 -3.29,-3.272 -4.94,-4.902 3.97,-3.978 7.941,-7.955 11.913,-11.931 -0.003,5.62 -0.007,11.24 -0.013,16.86 -2.32,-0.014 -4.64,-0.023 -6.96,-0.027 z" />
	<path
   id="path348"
   d="m 562.61,953.18 c 0,-2.32 -0.012,-4.64 -0.027,-6.96 5.62,-0.005 11.24,-0.01 16.86,-0.013 -3.976,3.972 -7.953,7.943 -11.931,11.913 -1.63,-1.651 -3.264,-3.297 -4.902,-4.94 z" />
	<path
   id="path350"
   d="m 562.61,724.39 c 1.637,-1.643 3.272,-3.29 4.902,-4.94 3.978,3.97 7.955,7.941 11.931,11.913 -5.62,-0.003 -11.24,-0.007 -16.86,-0.013 0.015,-2.32 0.023,-4.64 0.027,-6.96 z" />
	<path
   id="path352"
   d="m 724.39,562.61 c 2.32,0 4.64,-0.012 6.96,-0.027 0.005,5.62 0.01,11.24 0.013,16.86 -3.972,-3.976 -7.943,-7.953 -11.913,-11.931 1.65,-1.63 3.296,-3.264 4.94,-4.902 z" />
	<path
   id="path354"
   d="m 899.65,691.86 1.708,1.708 c -1.374,1.369 -2.747,2.74 -4.118,4.112 0,-1.94 -10e-4,-3.88 -0.005,-5.82 z" />
	<path
   id="path356"
   d="m 985.72,777.93 v 2.415 c -1.94,-0.004 -3.88,-0.005 -5.82,-0.005 1.372,-1.372 2.742,-2.744 4.112,-4.118 0.569,0.57 1.138,1.139 1.708,1.708 z" />
	<path
   id="path358"
   d="m 985.72,899.65 -1.708,1.708 c -1.369,-1.374 -2.74,-2.747 -4.112,-4.118 1.94,0 3.88,-10e-4 5.82,-0.005 z" />
	<path
   id="path360"
   d="m 899.65,985.72 h -2.415 c 0.004,-1.94 0.005,-3.88 0.005,-5.82 1.372,1.372 2.744,2.742 4.118,4.112 -0.569,0.569 -1.139,1.138 -1.708,1.708 z" />
	<path
   id="path362"
   d="m 777.93,985.72 -1.708,-1.708 c 1.374,-1.369 2.747,-2.74 4.118,-4.112 0,1.94 10e-4,3.88 0.005,5.82 z" />
	<path
   id="path364"
   d="m 691.86,899.65 v -2.415 c 1.94,0.004 3.88,0.005 5.82,0.005 -1.372,1.372 -2.742,2.744 -4.112,4.118 z" />
	<path
   id="path366"
   d="m 691.86,777.93 1.708,-1.708 c 1.369,1.374 2.74,2.747 4.112,4.118 -1.94,0 -3.88,10e-4 -5.82,0.005 z" />
	<path
   id="path368"
   d="m 777.93,691.86 h 2.415 c -0.004,1.94 -0.005,3.88 -0.005,5.82 -1.372,-1.372 -2.744,-2.742 -4.118,-4.112 0.57,-0.569 1.139,-1.139 1.708,-1.708 z" />
	<path
   id="path370"
   d="m 932.9,611.57 c 22.191,22.173 44.365,44.366 66.543,66.555 22.189,22.178 44.382,44.352 66.555,66.543 0.013,31.37 -10e-4,62.742 -0.01,94.115 0.01,31.373 0.021,62.745 0.01,94.115 -22.173,22.191 -44.366,44.365 -66.555,66.543 -22.178,22.189 -44.352,44.382 -66.543,66.555 -31.37,0.013 -62.742,0 -94.115,-0.01 -31.373,0.01 -62.745,0.021 -94.115,0.01 -22.191,-22.173 -44.365,-44.366 -66.543,-66.555 -22.189,-22.178 -44.383,-44.352 -66.555,-66.543 -0.013,-31.37 10e-4,-62.742 0.01,-94.115 -0.01,-31.373 -0.021,-62.745 -0.01,-94.115 22.173,-22.191 44.366,-44.365 66.555,-66.543 22.178,-22.189 44.352,-44.383 66.543,-66.555 31.37,-0.013 62.742,10e-4 94.115,0.01 31.372,-0.01 62.745,-0.021 94.115,-0.01 z m 47.82,85.278 c -19.59,-19.602 -39.197,-39.187 -58.796,-58.78 -27.713,0 -55.426,-0.02 -83.139,-0.012 -27.713,-0.01 -55.426,0.01 -83.139,0.012 -19.6,19.593 -39.206,39.177 -58.796,58.78 -19.602,19.59 -39.187,39.197 -58.78,58.796 0,27.713 -0.02,55.426 -0.012,83.139 -0.01,27.713 0.01,55.426 0.012,83.139 19.593,19.6 39.177,39.206 58.78,58.796 19.59,19.602 39.197,39.187 58.796,58.78 27.713,0 55.426,0.021 83.139,0.012 27.713,0.01 55.426,-0.01 83.139,-0.012 19.6,-19.593 39.206,-39.177 58.796,-58.78 19.602,-19.59 39.187,-39.197 58.78,-58.796 0.01,-27.713 0.021,-55.426 0.012,-83.139 0.01,-27.713 -0.01,-55.426 -0.012,-83.139 -19.593,-19.599 -39.177,-39.206 -58.78,-58.796 z" />
	<path
   id="path372"
   d="m 1030.6,646.95 c -0.209,-2.441 -0.515,-4.873 -0.949,-7.288 -1.572,-5.597 -4.876,-10.501 -7.958,-15.366 6.221,-6.255 12.482,-12.471 18.698,-18.732 5.495,5.221 10.218,11.487 13.064,18.531 7.043,2.846 13.309,7.57 18.531,13.064 -6.261,6.216 -12.477,12.477 -18.732,18.698 -4.865,-3.082 -9.769,-6.386 -15.366,-7.958 -2.415,-0.434 -4.847,-0.74 -7.288,-0.949 z" />
	<path
   id="path374"
   d="m 1110.1,838.79 c 1.578,-1.874 3.081,-3.81 4.482,-5.824 2.846,-5.069 3.978,-10.873 5.238,-16.493 8.822,-0.024 17.645,0.008 26.467,-0.024 0.193,7.577 -0.898,15.348 -3.866,22.341 2.968,6.993 4.059,14.764 3.866,22.341 -8.822,-0.032 -17.645,0 -26.467,-0.024 -1.26,-5.619 -2.392,-11.423 -5.238,-16.493 -1.401,-2.015 -2.904,-3.95 -4.482,-5.824 z" />
	<path
   id="path376"
   d="m 1030.6,1030.6 c 2.441,-0.209 4.873,-0.515 7.288,-0.949 5.597,-1.572 10.501,-4.876 15.366,-7.958 6.255,6.221 12.471,12.482 18.732,18.698 -5.221,5.495 -11.487,10.218 -18.531,13.064 -2.846,7.043 -7.57,13.309 -13.064,18.531 -6.216,-6.261 -12.477,-12.477 -18.698,-18.732 3.082,-4.865 6.386,-9.769 7.958,-15.366 0.434,-2.415 0.74,-4.847 0.949,-7.288 z" />
	<path
   id="path378"
   d="m 838.79,1110.1 c 1.874,1.578 3.81,3.081 5.824,4.482 5.069,2.846 10.873,3.978 16.493,5.238 0.024,8.822 -0.008,17.645 0.024,26.467 -7.577,0.193 -15.348,-0.898 -22.341,-3.866 -6.993,2.968 -14.764,4.059 -22.341,3.866 0.032,-8.822 0,-17.645 0.024,-26.467 5.619,-1.26 11.423,-2.392 16.493,-5.238 2.014,-1.401 3.95,-2.904 5.824,-4.482 z" />
	<path
   id="path380"
   d="m 646.95,1030.6 c 0.209,2.441 0.515,4.873 0.949,7.288 1.572,5.597 4.876,10.501 7.958,15.366 -6.221,6.255 -12.482,12.471 -18.698,18.732 -5.494,-5.221 -10.218,-11.487 -13.064,-18.531 -7.044,-2.846 -13.309,-7.57 -18.531,-13.064 6.261,-6.216 12.477,-12.477 18.732,-18.698 4.865,3.082 9.769,6.386 15.366,7.958 2.415,0.434 4.847,0.74 7.288,0.949 z" />
	<path
   id="path382"
   d="m 567.49,838.79 c -1.578,1.874 -3.081,3.81 -4.482,5.824 -2.846,5.069 -3.978,10.873 -5.238,16.493 -8.822,0.024 -17.645,-0.008 -26.467,0.024 -0.193,-7.577 0.898,-15.348 3.866,-22.341 -2.968,-6.993 -4.059,-14.764 -3.866,-22.341 8.822,0.032 17.645,0 26.467,0.024 1.26,5.619 2.392,11.423 5.238,16.493 1.401,2.014 2.904,3.95 4.482,5.824 z" />
	<path
   id="path384"
   d="m 646.95,646.95 c -2.441,0.209 -4.873,0.515 -7.288,0.949 -5.597,1.572 -10.501,4.876 -15.366,7.958 -6.255,-6.221 -12.471,-12.482 -18.732,-18.698 5.221,-5.494 11.487,-10.218 18.531,-13.064 2.846,-7.044 7.57,-13.309 13.064,-18.531 6.216,6.261 12.477,12.477 18.698,18.732 -3.082,4.865 -6.386,9.769 -7.958,15.366 -0.434,2.415 -0.74,4.847 -0.949,7.288 z" />
	<path
   id="path386"
   d="m 838.79,567.49 c -1.874,-1.578 -3.81,-3.081 -5.824,-4.482 -5.069,-2.846 -10.873,-3.978 -16.493,-5.238 -0.024,-8.822 0.008,-17.645 -0.024,-26.467 7.577,-0.193 15.348,0.898 22.341,3.866 6.993,-2.968 14.764,-4.059 22.341,-3.866 -0.032,8.822 0,17.645 -0.024,26.467 -5.619,1.26 -11.423,2.392 -16.493,5.238 -2.015,1.401 -3.95,2.904 -5.824,4.482 z" />
	<path
   id="path388"
   d="m 892.42,709.31 c 15.654,-15.658 31.303,-31.323 46.958,-46.984 6.25,6.233 12.465,12.505 18.749,18.709 -29.307,29.364 -58.659,58.676 -88,88.006 -0.577,-0.578 -1.154,-1.155 -1.731,-1.732 -0.816,0 -1.633,0 -2.449,10e-4 -0.008,-41.486 -0.036,-82.969 0.004,-124.46 8.83,0.056 17.661,0.016 26.487,0.028 -0.004,22.144 -0.015,44.286 -0.018,66.427 z" />
	<path
   id="path390"
   d="m 968.26,785.16 c 22.141,-0.003 44.283,-0.014 66.427,-0.018 0.012,8.826 -0.028,17.657 0.028,26.487 -41.486,0.04 -82.969,0.012 -124.46,0.004 10e-4,-0.816 10e-4,-1.633 10e-4,-2.449 -0.577,-0.577 -1.155,-1.154 -1.732,-1.731 29.33,-29.341 58.642,-58.693 88.006,-88 6.204,6.284 12.477,12.499 18.709,18.749 -15.662,15.656 -31.326,31.304 -46.984,46.958 z" />
	<path
   id="path392"
   d="m 968.26,892.42 c 15.658,15.654 31.323,31.303 46.984,46.958 -6.233,6.25 -12.505,12.465 -18.709,18.749 -29.364,-29.307 -58.676,-58.659 -88.006,-88 0.578,-0.577 1.155,-1.154 1.732,-1.731 0,-0.816 0,-1.633 -10e-4,-2.449 41.486,-0.008 82.969,-0.036 124.46,0.004 -0.056,8.83 -0.016,17.661 -0.028,26.487 -22.144,-0.004 -44.286,-0.015 -66.427,-0.018 z" />
	<path
   id="path394"
   d="m 892.42,968.26 c 0.003,22.141 0.014,44.283 0.018,66.427 -8.826,0.012 -17.657,-0.028 -26.487,0.028 -0.04,-41.486 -0.012,-82.969 -0.004,-124.46 0.816,10e-4 1.633,10e-4 2.449,10e-4 0.577,-0.577 1.154,-1.155 1.731,-1.732 29.341,29.33 58.693,58.642 88,88.006 -6.284,6.204 -12.499,12.477 -18.749,18.709 -15.655,-15.662 -31.304,-31.326 -46.958,-46.984 z" />
	<path
   id="path396"
   d="m 785.16,968.26 c -15.654,15.658 -31.303,31.323 -46.958,46.984 -6.25,-6.233 -12.465,-12.505 -18.749,-18.709 29.307,-29.364 58.659,-58.676 88,-88.006 0.577,0.578 1.154,1.155 1.731,1.732 0.816,0 1.633,0 2.449,-10e-4 0.008,41.486 0.036,82.969 -0.004,124.46 -8.83,-0.056 -17.661,-0.016 -26.487,-0.028 0.005,-22.144 0.016,-44.286 0.018,-66.427 z" />
	<path
   id="path398"
   d="m 709.31,892.42 c -22.141,0.003 -44.283,0.014 -66.427,0.018 -0.012,-8.826 0.028,-17.657 -0.028,-26.487 41.486,-0.04 82.969,-0.012 124.46,-0.004 -0.001,0.816 -0.001,1.633 -0.001,2.449 0.577,0.577 1.155,1.154 1.732,1.731 -29.33,29.341 -58.642,58.693 -88.006,88 -6.204,-6.284 -12.477,-12.499 -18.709,-18.749 15.661,-15.655 31.326,-31.304 46.984,-46.958 z" />
	<path
   id="path400"
   d="m 709.31,785.16 c -15.658,-15.654 -31.323,-31.303 -46.984,-46.958 6.233,-6.25 12.505,-12.465 18.709,-18.749 29.364,29.307 58.676,58.659 88.006,88 -0.578,0.577 -1.155,1.154 -1.732,1.731 0,0.816 0,1.633 10e-4,2.449 -41.486,0.008 -82.969,0.036 -124.46,-0.004 0.056,-8.83 0.016,-17.661 0.028,-26.487 22.144,0.005 44.286,0.016 66.427,0.018 z" />
	<path
   id="path402"
   d="m 785.16,709.31 c -0.003,-22.141 -0.014,-44.283 -0.018,-66.427 8.826,-0.012 17.657,0.028 26.487,-0.028 0.04,41.486 0.012,82.969 0.004,124.46 -0.816,-0.001 -1.633,-0.001 -2.449,-0.001 -0.577,0.577 -1.154,1.155 -1.731,1.732 -29.341,-29.33 -58.693,-58.642 -88,-88.006 6.284,-6.204 12.499,-12.477 18.749,-18.709 15.656,15.661 31.304,31.326 46.958,46.984 z" />
	<path
   id="path404"
   d="m 866.4,772.12 c 6.507,6.51 13.013,13.02 19.521,19.529 6.51,6.507 13.02,13.014 19.529,19.521 l -0.006,27.612 c 0.002,9.204 0.004,18.409 0.006,27.612 -6.51,6.507 -13.02,13.013 -19.529,19.521 -6.507,6.51 -13.014,13.02 -19.521,19.529 l -27.612,-0.006 c -9.204,0.002 -18.409,0.004 -27.612,0.006 -6.507,-6.51 -13.013,-13.02 -19.521,-19.529 -6.51,-6.507 -13.02,-13.014 -19.529,-19.521 l 0.006,-27.612 c -0.002,-9.204 -0.004,-18.409 -0.006,-27.612 6.51,-6.507 13.02,-13.013 19.529,-19.521 6.507,-6.51 13.014,-13.02 19.521,-19.529 l 27.612,0.006 c 9.204,-10e-4 18.408,-0.004 27.612,-0.006 z m 0.798,38.252 c -3.922,-3.924 -7.844,-7.847 -11.768,-11.769 -5.548,-10e-4 -11.095,0 -16.643,0.001 -5.548,-0.002 -11.095,-0.002 -16.643,-0.001 -3.923,3.922 -7.846,7.845 -11.768,11.769 -3.924,3.922 -7.847,7.844 -11.769,11.768 -10e-4,5.548 0,11.095 10e-4,16.643 -0.002,5.548 -0.002,11.095 -10e-4,16.643 3.922,3.923 7.845,7.846 11.769,11.768 3.922,3.924 7.844,7.847 11.768,11.769 5.548,0.001 11.095,0 16.643,-10e-4 5.548,0.002 11.095,0.002 16.643,10e-4 3.923,-3.922 7.846,-7.845 11.768,-11.769 3.924,-3.922 7.847,-7.844 11.769,-11.768 10e-4,-5.548 0,-11.095 -10e-4,-16.643 0.002,-5.548 0.002,-11.095 10e-4,-16.643 -3.922,-3.923 -7.845,-7.846 -11.769,-11.768 z" />
	<path
   id="path406"
   d="m 923.95,753.62 c -5.26,-5.258 -10.519,-10.518 -15.778,-15.778 6.227,-6.267 12.494,-12.488 18.715,-18.755 5.269,5.262 10.537,10.526 15.804,15.791 5.265,5.267 10.528,10.535 15.791,15.804 -6.267,6.221 -12.488,12.488 -18.755,18.715 -5.26,-5.258 -10.519,-10.517 -15.777,-15.777 z" />
	<path
   id="path408"
   d="m 959.23,838.79 c -10e-4,-7.438 -10e-4,-14.875 0,-22.313 8.834,-0.028 17.665,0.004 26.495,-0.028 0.005,7.447 0.008,14.894 0.01,22.341 -0.002,7.447 -0.005,14.894 -0.01,22.341 -8.83,-0.032 -17.661,0 -26.495,-0.028 -0.002,-7.438 -0.002,-14.876 0,-22.313 z" />
	<path
   id="path410"
   d="m 923.95,923.95 c 5.258,-5.26 10.518,-10.519 15.778,-15.778 6.267,6.227 12.488,12.494 18.755,18.715 -5.262,5.269 -10.526,10.537 -15.791,15.804 -5.267,5.265 -10.535,10.528 -15.804,15.791 -6.221,-6.267 -12.488,-12.488 -18.715,-18.755 5.257,-5.26 10.517,-10.519 15.777,-15.777 z" />
	<path
   id="path412"
   d="m 838.79,959.23 c 7.438,-10e-4 14.875,-10e-4 22.313,0 0.028,8.834 -0.004,17.665 0.028,26.495 -7.447,0.005 -14.894,0.008 -22.341,0.01 -7.447,-0.002 -14.894,-0.005 -22.341,-0.01 0.032,-8.83 0,-17.661 0.028,-26.495 7.437,-0.002 14.875,-0.002 22.313,0 z" />
	<path
   id="path414"
   d="m 753.62,923.95 c 5.26,5.258 10.519,10.518 15.778,15.778 -6.227,6.267 -12.494,12.488 -18.715,18.755 -5.269,-5.262 -10.537,-10.526 -15.804,-15.791 -5.265,-5.267 -10.528,-10.535 -15.791,-15.804 6.267,-6.221 12.488,-12.488 18.755,-18.715 5.259,5.257 10.518,10.517 15.777,15.777 z" />
	<path
   id="path416"
   d="m 718.35,838.79 c 10e-4,7.438 10e-4,14.875 0,22.313 -8.834,0.028 -17.665,-0.004 -26.495,0.028 -0.005,-7.447 -0.008,-14.894 -0.01,-22.341 0.002,-7.447 0.005,-14.894 0.01,-22.341 8.83,0.032 17.661,0 26.495,0.028 10e-4,7.437 10e-4,14.875 0,22.313 z" />
	<path
   id="path418"
   d="m 753.62,753.62 c -5.258,5.26 -10.518,10.519 -15.778,15.778 -6.267,-6.227 -12.488,-12.494 -18.755,-18.715 5.262,-5.269 10.526,-10.537 15.791,-15.804 5.267,-5.265 10.535,-10.528 15.804,-15.791 6.221,6.267 12.488,12.488 18.715,18.755 -5.258,5.259 -10.517,10.518 -15.777,15.777 z" />
	<path
   id="path420"
   d="m 838.79,718.35 c -7.438,10e-4 -14.875,10e-4 -22.313,0 -0.028,-8.834 0.004,-17.665 -0.028,-26.495 7.447,-0.005 14.894,-0.008 22.341,-0.01 7.447,0.002 14.894,0.005 22.341,0.01 -0.032,8.83 0,17.661 -0.028,26.495 -7.438,10e-4 -14.876,10e-4 -22.313,0 z" />
</svg>