<?xml version="1.0" encoding="UTF-8"?>
<svg enable-background="new 0 0 1644.099 1644.099" version="1.1" viewBox="0 0 1644.099 1644.099" xmlns="http://www.w3.org/2000/svg">
 <path d="m1387.7 256.36h-327.32c-1.362 0-2.719 0.018-4.072 0.053-0.932-0.982-1.879-1.955-2.842-2.917l-231.45-231.45-231.45 231.45c-0.963 0.963-1.91 1.935-2.842 2.917-1.353-0.036-2.711-0.053-4.072-0.053h-327.32v327.32c0 1.362 0.018 2.719 0.053 4.072-0.982 0.932-1.955 1.879-2.917 2.842l-231.45 231.45 231.45 231.45c0.963 0.963 1.935 1.91 2.917 2.842-0.036 1.353-0.053 2.711-0.053 4.072v327.32h327.32c1.362 0 2.719-0.018 4.072-0.053 0.932 0.982 1.879 1.955 2.842 2.917l231.45 231.45 231.45-231.45c0.963-0.963 1.91-1.935 2.842-2.917 1.353 0.036 2.711 0.053 4.072 0.053h327.32v-327.32c0-1.362-0.018-2.719-0.053-4.072 0.982-0.932 1.955-1.879 2.917-2.842l231.45-231.45-231.45-231.45c-0.963-0.963-1.935-1.91-2.917-2.842 0.036-1.353 0.053-2.711 0.053-4.072v-327.32zm-338.66 17.598h321.06v321.06l227.02 227.02-227.02 227.02v321.06h-321.06l-227.02 227.02-227.02-227.02h-321.06v-321.06l-227.02-227.02 227.02-227.02v-321.06h321.06l227.02-227.02 227.03 227.02z"/>
 <path d="m1369.6 274.54h-203.48c-58.123 0-109.01 32.558-135.33 80.333h126.79c28.138-29.276 67.633-47.567 111.2-47.567h68.061v68.061c0 43.563-18.291 83.058-47.567 111.2v126.79c47.775-26.322 80.333-77.205 80.333-135.33v-203.48z"/>
 <path d="m1596.3 822.05l-143.88-143.88c-41.099-41.099-100.1-54.057-152.5-38.888l89.654 89.654c40.598-0.805 81.459 14.189 112.26 44.992l48.127 48.127-48.127 48.127c-30.803 30.803-71.664 45.797-112.26 44.992l-89.654 89.654c52.395 15.17 111.4 2.212 152.5-38.888l143.88-143.89z"/>
 <path d="m1369.6 1369.6v-203.48c0-58.123-32.558-109.01-80.333-135.33v126.79c29.276 28.138 47.567 67.633 47.567 111.2v68.061h-68.061c-43.563 0-83.058-18.291-111.2-47.567h-126.79c26.322 47.775 77.205 80.333 135.33 80.333h203.48z"/>
 <path d="m822.05 1596.3l143.88-143.88c41.099-41.099 54.057-100.1 38.888-152.5l-89.654 89.654c0.805 40.598-14.189 81.459-44.992 112.26l-48.127 48.127-48.127-48.127c-30.803-30.803-45.797-71.664-44.992-112.26l-89.654-89.654c-15.17 52.395-2.212 111.4 38.888 152.5l143.88 143.88z"/>
 <path d="m274.54 1369.6h203.48c58.123 0 109.01-32.558 135.33-80.333h-126.79c-28.138 29.276-67.633 47.567-111.2 47.567h-68.061v-68.061c0-43.563 18.291-83.058 47.567-111.2v-126.79c-47.775 26.322-80.333 77.205-80.333 135.33v203.48z"/>
 <path d="m47.754 822.05l143.88 143.88c41.099 41.099 100.1 54.057 152.5 38.888l-89.654-89.654c-40.598 0.805-81.459-14.189-112.26-44.992l-48.127-48.127 48.127-48.127c30.803-30.803 71.664-45.797 112.26-44.992l89.654-89.654c-52.395-15.17-111.4-2.212-152.5 38.888l-143.88 143.88z"/>
 <path d="m274.54 274.54v203.48c0 58.123 32.558 109.01 80.333 135.33v-126.79c-29.276-28.138-47.567-67.633-47.567-111.2v-68.061h68.061c43.563 0 83.058 18.291 111.2 47.567h126.79c-26.322-47.775-77.205-80.333-135.33-80.333h-203.48z"/>
 <path d="m822.05 47.754l-143.88 143.88c-41.099 41.099-54.057 100.1-38.888 152.5l89.654-89.654c-0.805-40.598 14.189-81.459 44.992-112.26l48.127-48.127 48.127 48.127c30.803 30.803 45.797 71.664 44.992 112.26l89.654 89.654c15.17-52.395 2.212-111.4-38.888-152.5l-143.89-143.88z"/>
 <path d="m1013.6 359.52h14.654c0.794-1.565 1.613-3.116 2.459-4.65h-15.186l-10.738-10.738c-0.487 1.683-1.004 3.358-1.549 5.027l10.36 10.361z"/>
 <path d="m1284.6 630.46l10.362 10.362c1.668-0.545 3.344-1.062 5.027-1.549l-10.738-10.738v-15.186c-1.534 0.845-3.085 1.665-4.65 2.459v14.652z"/>
 <path d="m1284.6 1013.6v14.654c1.565 0.794 3.116 1.613 4.65 2.459v-15.186l10.738-10.738c-1.683-0.487-3.358-1.004-5.027-1.549l-10.361 10.36z"/>
 <path d="m1013.6 1284.6l-10.362 10.362c0.545 1.668 1.062 3.344 1.549 5.027l10.738-10.738h15.186c-0.845-1.534-1.665-3.085-2.459-4.65h-14.652z"/>
 <path d="m630.46 1284.6h-14.654c-0.794 1.565-1.613 3.116-2.459 4.65h15.186l10.738 10.738c0.487-1.683 1.004-3.358 1.549-5.027l-10.36-10.361z"/>
 <path d="m359.52 1013.6l-10.362-10.362c-1.668 0.545-3.344 1.062-5.027 1.549l10.738 10.738v15.186c1.534-0.845 3.085-1.665 4.65-2.459v-14.652z"/>
 <path d="m359.52 630.46v-14.654c-1.565-0.794-3.116-1.613-4.65-2.459v15.186l-10.738 10.738c1.683 0.487 3.358 1.004 5.027 1.549l10.361-10.36z"/>
 <path d="m630.46 359.52l10.362-10.362c-0.545-1.668-1.062-3.344-1.549-5.027l-10.738 10.738h-15.186c0.845 1.534 1.665 3.085 2.459 4.65h14.652z"/>
 <path d="m1289.2 354.87h-131.69c-1.461 1.52-2.887 3.072-4.285 4.65h131.32v131.32c1.578-1.398 3.13-2.825 4.65-4.285v-131.69z"/>
 <path d="m1482.7 822.05l-93.119-93.119c-2.107 0.042-4.214 0.131-6.318 0.258l92.861 92.861-92.861 92.861c2.104 0.127 4.211 0.216 6.318 0.258l93.119-93.119z"/>
 <path d="m1289.2 1289.2v-131.69c-1.52-1.461-3.072-2.887-4.65-4.285v131.32h-131.32c1.398 1.578 2.824 3.13 4.285 4.65h131.69z"/>
 <path d="m822.05 1482.7l93.119-93.119c-0.042-2.107-0.131-4.214-0.258-6.318l-92.861 92.861-92.861-92.861c-0.127 2.104-0.216 4.211-0.258 6.318l93.119 93.119z"/>
 <path d="m354.87 1289.2h131.69c1.461-1.52 2.887-3.072 4.285-4.65h-131.32v-131.32c-1.578 1.398-3.13 2.824-4.65 4.285v131.69z"/>
 <path d="m161.36 822.05l93.119 93.119c2.107-0.042 4.214-0.131 6.318-0.258l-92.861-92.861 92.861-92.861c-2.105-0.127-4.211-0.216-6.318-0.258l-93.119 93.119z"/>
 <path d="m354.87 354.87v131.69c1.52 1.461 3.072 2.887 4.65 4.285v-131.32h131.32c-1.398-1.578-2.825-3.13-4.285-4.65h-131.69z"/>
 <path d="m822.05 161.36l-93.119 93.119c0.042 2.107 0.131 4.214 0.258 6.318l92.861-92.861 92.861 92.861c0.127-2.105 0.216-4.211 0.258-6.318l-93.119-93.119z"/>
 <path d="m1139.7 377.2c4.094-6.219 8.624-12.127 13.547-17.682h-124.96c-5.028 9.91-9.019 20.425-11.824 31.403 19.379-8.808 40.864-13.721 63.442-13.721h59.798z"/>
 <path d="m732.11 282.88c-1.502-7.292-2.477-14.673-2.924-22.082l-88.362 88.362c3.452 10.563 8.065 20.82 13.845 30.566 7.474-19.931 19.193-38.598 35.158-54.563l42.283-42.283z"/>
 <path d="m377.2 504.4c-6.219-4.094-12.127-8.624-17.682-13.547v124.96c9.91 5.028 20.425 9.019 31.403 11.824-8.808-19.379-13.721-40.864-13.721-63.442v-59.798z"/>
 <path d="m282.88 911.99c-7.292 1.502-14.673 2.477-22.082 2.924l88.362 88.362c10.563-3.452 20.82-8.065 30.566-13.845-19.931-7.474-38.598-19.193-54.563-35.158l-42.283-42.283z"/>
 <path d="m504.4 1266.9c-4.094 6.219-8.624 12.127-13.547 17.682h124.96c5.028-9.91 9.019-20.425 11.824-31.403-19.379 8.808-40.864 13.721-63.442 13.721h-59.798z"/>
 <path d="m911.99 1361.2c1.502 7.292 2.477 14.673 2.924 22.082l88.362-88.362c-3.452-10.563-8.065-20.82-13.845-30.566-7.474 19.931-19.193 38.598-35.158 54.563l-42.283 42.283z"/>
 <path d="m1266.9 1139.7c6.219 4.094 12.127 8.624 17.682 13.547v-124.96c-9.91-5.028-20.425-9.019-31.403-11.824 8.808 19.379 13.721 40.864 13.721 63.442v59.798z"/>
 <path d="m1361.2 732.11c7.292-1.502 14.673-2.477 22.082-2.924l-88.362-88.362c-10.563 3.452-20.82 8.065-30.566 13.845 19.931 7.474 38.598 19.193 54.563 35.158l42.283 42.283z"/>
 <path d="m1266.9 504.4c6.219-4.094 12.127-8.624 17.682-13.547v124.96c-9.91 5.028-20.425 9.019-31.403 11.824 8.808-19.379 13.721-40.864 13.721-63.442v-59.798z"/>
 <path d="m911.99 282.88c1.502-7.292 2.477-14.673 2.924-22.082l88.362 88.362c-3.452 10.563-8.065 20.82-13.845 30.566-7.474-19.931-19.193-38.598-35.158-54.563l-42.283-42.283z"/>
 <path d="m504.4 377.2c-4.094-6.219-8.624-12.127-13.547-17.682h124.96c5.028 9.91 9.019 20.425 11.824 31.403-19.379-8.808-40.864-13.721-63.442-13.721h-59.798z"/>
 <path d="m282.88 732.11c-7.292-1.502-14.673-2.477-22.082-2.924l88.362-88.362c10.563 3.452 20.82 8.065 30.566 13.845-19.931 7.474-38.598 19.193-54.563 35.158l-42.283 42.283z"/>
 <path d="m377.2 1139.7c-6.219 4.094-12.127 8.624-17.682 13.547v-124.96c9.91-5.028 20.425-9.019 31.403-11.824-8.808 19.379-13.721 40.864-13.721 63.442v59.798z"/>
 <path d="m732.11 1361.2c-1.502 7.292-2.477 14.673-2.924 22.082l-88.362-88.362c3.452-10.563 8.065-20.82 13.845-30.566 7.474 19.931 19.193 38.598 35.158 54.563l42.283 42.283z"/>
 <path d="m1139.7 1266.9c4.094 6.219 8.624 12.127 13.547 17.682h-124.96c-5.028-9.91-9.019-20.425-11.824-31.403 19.379 8.808 40.864 13.721 63.442 13.721h59.798z"/>
 <path d="m1361.2 911.99c7.292 1.502 14.673 2.477 22.082 2.924l-88.362 88.362c-10.563-3.452-20.82-8.065-30.566-13.845 19.931-7.474 38.598-19.193 54.563-35.158l42.283-42.283z"/>
 <path d="m988.54 420.1h23.417c0.57-10.004 2.101-19.761 4.507-29.179-7.138 3.245-13.99 7.018-20.505 11.269-1.601-7.613-3.778-15.126-6.531-22.468-4.958 8.361-10.775 16.342-17.446 23.819l16.558 16.559z"/>
 <path d="m1224 655.56l16.558 16.558c7.477-6.671 15.458-12.488 23.819-17.446-7.342-2.753-14.855-4.93-22.468-6.531 4.251-6.515 8.025-13.367 11.269-20.505-9.418 2.406-19.175 3.937-29.179 4.507v23.417z"/>
 <path d="m1224 988.54v23.417c10.004 0.57 19.761 2.101 29.179 4.507-3.245-7.138-7.018-13.99-11.269-20.505 7.613-1.601 15.126-3.778 22.468-6.531-8.361-4.958-16.342-10.775-23.819-17.446l-16.559 16.558z"/>
 <path d="m988.54 1224l-16.558 16.558c6.671 7.477 12.488 15.458 17.446 23.819 2.753-7.342 4.93-14.855 6.531-22.468 6.515 4.251 13.367 8.025 20.505 11.269-2.406-9.418-3.937-19.175-4.507-29.179h-23.417z"/>
 <path d="m655.56 1224h-23.417c-0.57 10.004-2.101 19.761-4.507 29.179 7.138-3.245 13.99-7.018 20.505-11.269 1.601 7.613 3.778 15.126 6.531 22.468 4.958-8.361 10.775-16.342 17.446-23.819l-16.558-16.559z"/>
 <path d="m420.1 988.54l-16.558-16.558c-7.477 6.671-15.458 12.488-23.819 17.446 7.342 2.753 14.855 4.93 22.468 6.531-4.251 6.515-8.025 13.367-11.269 20.505 9.418-2.406 19.175-3.937 29.179-4.507v-23.417z"/>
 <path d="m420.1 655.56v-23.417c-10.004-0.57-19.761-2.101-29.179-4.507 3.245 7.138 7.018 13.99 11.269 20.505-7.613 1.601-15.126 3.778-22.468 6.531 8.361 4.958 16.342 10.775 23.819 17.446l16.559-16.558z"/>
 <path d="m655.56 420.1l16.558-16.558c-6.671-7.477-12.488-15.458-17.446-23.819-2.753 7.342-4.93 14.855-6.531 22.468-6.515-4.251-13.367-8.025-20.505-11.269 2.406 9.418 3.937 19.175 4.507 29.179h23.417z"/>
 <path d="m1266.9 377.2h-127.19c-6.641 10.087-12.133 20.986-16.287 32.513 14.557-4.583 30.026-7.059 46.045-7.059h71.977v71.978c0 16.019-2.476 31.488-7.059 46.045 11.527-4.154 22.426-9.646 32.513-16.287v-127.19z"/>
 <path d="m1451.2 822.05l-89.937-89.937c-11.828 2.437-23.419 6.26-34.506 11.473 13.534 7.053 26.223 16.24 37.55 27.568l50.896 50.896-50.896 50.896c-11.327 11.327-24.016 20.515-37.55 27.568 11.088 5.214 22.678 9.037 34.506 11.473l89.937-89.937z"/>
 <path d="m1266.9 1266.9v-127.19c-10.087-6.641-20.986-12.133-32.513-16.287 4.583 14.557 7.059 30.026 7.059 46.045v71.977h-71.977c-16.019 0-31.488-2.476-46.045-7.059 4.154 11.527 9.646 22.426 16.287 32.513h127.19z"/>
 <path d="m822.05 1451.2l89.937-89.937c-2.437-11.828-6.26-23.419-11.473-34.506-7.053 13.534-16.24 26.223-27.568 37.55l-50.896 50.896-50.896-50.896c-11.327-11.327-20.515-24.016-27.568-37.55-5.214 11.088-9.037 22.678-11.473 34.506l89.937 89.937z"/>
 <path d="m377.2 1266.9h127.19c6.641-10.087 12.133-20.986 16.287-32.513-14.557 4.583-30.026 7.059-46.045 7.059h-71.978v-71.977c0-16.019 2.476-31.488 7.059-46.045-11.527 4.154-22.426 9.646-32.513 16.287v127.19z"/>
 <path d="m192.94 822.05l89.937 89.937c11.828-2.437 23.419-6.26 34.507-11.473-13.534-7.053-26.223-16.24-37.55-27.568l-50.896-50.896 50.896-50.896c11.327-11.327 24.016-20.515 37.55-27.568-11.088-5.214-22.678-9.037-34.507-11.473l-89.937 89.937z"/>
 <path d="m377.2 377.2v127.19c10.087 6.641 20.986 12.133 32.513 16.287-4.583-14.557-7.059-30.026-7.059-46.045v-71.978h71.978c16.019 0 31.488 2.476 46.045 7.059-4.154-11.527-9.646-22.426-16.287-32.513h-127.19z"/>
 <path d="m822.05 192.94l-89.937 89.937c2.437 11.828 6.26 23.419 11.473 34.507 7.053-13.534 16.24-26.223 27.568-37.55l50.896-50.896 50.896 50.896c11.327 11.327 20.515 24.016 27.568 37.55 5.214-11.088 9.037-22.678 11.473-34.507l-89.937-89.937z"/>
 <path d="m1123.4 409.72c-8.688 2.735-17.047 6.226-25.008 10.387h21.675c0.99-3.514 2.104-6.977 3.333-10.387z"/>
 <path d="m743.59 317.39c-4.209 8.077-7.651 16.457-10.338 25.028l15.327-15.327c-1.786-3.184-3.447-6.421-4.989-9.701z"/>
 <path d="m409.72 520.68c2.735 8.688 6.226 17.047 10.387 25.008v-21.675c-3.514-0.989-6.977-2.104-10.387-3.333z"/>
 <path d="m317.39 900.51c8.077 4.209 16.457 7.651 25.028 10.338l-15.327-15.327c-3.184 1.786-6.421 3.447-9.701 4.989z"/>
 <path d="m520.68 1234.4c8.688-2.735 17.047-6.226 25.008-10.387h-21.675c-0.989 3.515-2.104 6.978-3.333 10.387z"/>
 <path d="m900.51 1326.7c4.209-8.077 7.651-16.457 10.338-25.028l-15.327 15.327c1.786 3.185 3.447 6.421 4.989 9.701z"/>
 <path d="m1234.4 1123.4c-2.735-8.688-6.226-17.047-10.387-25.008v21.675c3.515 0.99 6.978 2.104 10.387 3.333z"/>
 <path d="m1326.7 743.59c-8.077-4.209-16.457-7.651-25.028-10.338l15.327 15.327c3.185-1.786 6.421-3.447 9.701-4.989z"/>
 <path d="m1234.4 520.68c-2.735 8.688-6.226 17.047-10.387 25.008v-21.675c3.515-0.989 6.978-2.104 10.387-3.333z"/>
 <path d="m900.51 317.39c4.209 8.077 7.651 16.457 10.338 25.028l-15.327-15.327c1.786-3.184 3.447-6.421 4.989-9.701z"/>
 <path d="m520.68 409.72c8.688 2.735 17.047 6.226 25.008 10.387h-21.675c-0.989-3.514-2.104-6.977-3.333-10.387z"/>
 <path d="m317.39 743.59c8.077-4.209 16.457-7.651 25.028-10.338l-15.327 15.327c-3.184-1.786-6.421-3.447-9.701-4.989z"/>
 <path d="m409.72 1123.4c2.735-8.688 6.226-17.047 10.387-25.008v21.675c-3.514 0.99-6.977 2.104-10.387 3.333z"/>
 <path d="m743.59 1326.7c-4.209-8.077-7.651-16.457-10.338-25.028l15.327 15.327c-1.786 3.185-3.447 6.421-4.989 9.701z"/>
 <path d="m1123.4 1234.4c-8.688-2.735-17.047-6.226-25.008-10.387h21.675c0.99 3.515 2.104 6.978 3.333 10.387z"/>
 <path d="m1326.7 900.51c-8.077 4.209-16.457 7.651-25.028 10.338l15.327-15.327c3.185 1.786 6.421 3.447 9.701 4.989z"/>
 <path d="m1098.4 420.1h-86.452c-0.166 2.918-0.259 5.855-0.259 8.813v23.494h44.514c12.061-13.041 26.329-24.013 42.197-32.307z"/>
 <path d="m733.25 342.42l-61.131 61.131c1.946 2.181 3.957 4.323 6.048 6.415l16.613 16.613 31.476-31.476c-0.692-17.751 1.639-35.598 6.994-52.683z"/>
 <path d="m420.1 545.69v86.452c2.918 0.166 5.855 0.259 8.813 0.259h23.494v-44.514c-13.041-12.061-24.013-26.329-32.307-42.197z"/>
 <path d="m342.42 910.85l61.131 61.131c2.181-1.946 4.323-3.957 6.415-6.048l16.613-16.613-31.476-31.476c-17.751 0.693-35.598-1.638-52.683-6.994z"/>
 <path d="m545.69 1224h86.452c0.166-2.918 0.259-5.855 0.259-8.813v-23.494h-44.514c-12.061 13.042-26.329 24.014-42.197 32.307z"/>
 <path d="m910.85 1301.7l61.131-61.131c-1.946-2.181-3.957-4.323-6.048-6.415l-16.613-16.613-31.476 31.476c0.693 17.751-1.638 35.598-6.994 52.683z"/>
 <path d="m1224 1098.4v-86.452c-2.918-0.166-5.855-0.259-8.813-0.259h-23.494v44.514c13.042 12.061 24.014 26.329 32.307 42.197z"/>
 <path d="m1301.7 733.25l-61.131-61.131c-2.181 1.946-4.323 3.957-6.415 6.048l-16.613 16.613 31.476 31.476c17.751-0.692 35.598 1.639 52.683 6.994z"/>
 <path d="m1224 545.69v86.452c-2.918 0.166-5.855 0.259-8.813 0.259h-23.494v-44.514c13.042-12.061 24.014-26.329 32.307-42.197z"/>
 <path d="m910.85 342.42l61.131 61.131c-1.946 2.181-3.957 4.323-6.048 6.415l-16.613 16.613-31.476-31.476c0.693-17.751-1.638-35.598-6.994-52.683z"/>
 <path d="m545.69 420.1h86.452c0.166 2.918 0.259 5.855 0.259 8.813v23.494h-44.514c-12.061-13.041-26.329-24.013-42.197-32.307z"/>
 <path d="m342.42 733.25l61.131-61.131c2.181 1.946 4.323 3.957 6.415 6.048l16.613 16.613-31.476 31.476c-17.751-0.692-35.598 1.639-52.683 6.994z"/>
 <path d="m420.1 1098.4v-86.452c2.918-0.166 5.855-0.259 8.813-0.259h23.494v44.514c-13.041 12.061-24.013 26.329-32.307 42.197z"/>
 <path d="m733.25 1301.7l-61.131-61.131c1.946-2.181 3.957-4.323 6.048-6.415l16.613-16.613 31.476 31.476c-0.692 17.751 1.639 35.598 6.994 52.683z"/>
 <path d="m1098.4 1224h-86.452c-0.166-2.918-0.259-5.855-0.259-8.813v-23.494h44.514c12.061 13.042 26.329 24.014 42.197 32.307z"/>
 <path d="m1301.7 910.85l-61.131 61.131c-2.181-1.946-4.323-3.957-6.415-6.048l-16.613-16.613 31.476-31.476c17.751 0.693 35.598-1.638 52.683-6.994z"/>
 <path d="m1224 420.1h-103.91c-2.922 10.377-4.774 21.189-5.441 32.307h56.723c13.25-10.277 28.2-18.455 44.339-24.018-5.564 16.139-13.741 31.089-24.018 44.339v56.723c11.118-0.667 21.93-2.519 32.307-5.441v-103.91z"/>
 <path d="m1390.5 822.05l-73.475-73.475c-9.404 5.272-18.359 11.607-26.692 18.997l40.109 40.109c16.637 2.102 32.99 6.891 48.336 14.369-15.346 7.478-31.699 12.267-48.336 14.369l-40.109 40.109c8.333 7.39 17.288 13.725 26.692 18.997l73.475-73.475z"/>
 <path d="m1224 1224v-103.91c-10.377-2.922-21.189-4.774-32.307-5.441v56.723c10.277 13.25 18.454 28.2 24.018 44.339-16.139-5.564-31.089-13.741-44.339-24.018h-56.723c0.667 11.118 2.519 21.93 5.441 32.307h103.91z"/>
 <path d="m822.05 1390.5l73.475-73.475c-5.272-9.404-11.607-18.359-18.997-26.692l-40.109 40.109c-2.102 16.637-6.891 32.99-14.369 48.336-7.478-15.346-12.267-31.699-14.369-48.336l-40.109-40.109c-7.39 8.333-13.725 17.288-18.997 26.692l73.475 73.475z"/>
 <path d="m420.1 1224h103.91c2.922-10.377 4.774-21.189 5.441-32.307h-56.723c-13.25 10.277-28.2 18.454-44.339 24.018 5.564-16.139 13.741-31.089 24.018-44.339v-56.723c-11.118 0.667-21.93 2.519-32.307 5.441v103.91z"/>
 <path d="m253.61 822.05l73.475 73.475c9.404-5.272 18.359-11.607 26.692-18.997l-40.109-40.109c-16.637-2.102-32.99-6.891-48.336-14.369 15.346-7.478 31.7-12.267 48.336-14.369l40.109-40.109c-8.333-7.39-17.288-13.725-26.692-18.997l-73.475 73.475z"/>
 <path d="m420.1 420.1v103.91c10.377 2.922 21.189 4.774 32.307 5.441v-56.723c-10.277-13.25-18.455-28.2-24.018-44.339 16.139 5.564 31.089 13.741 44.339 24.018h56.723c-0.667-11.118-2.519-21.93-5.441-32.307h-103.91z"/>
 <path d="m822.05 253.61l-73.475 73.475c5.272 9.404 11.607 18.359 18.997 26.692l40.109-40.109c2.102-16.637 6.891-32.99 14.369-48.336 7.478 15.346 12.267 31.7 14.369 48.336l40.109 40.109c7.39-8.333 13.725-17.288 18.997-26.692l-73.475-73.475z"/>
 <path d="m953.48 504.76h50.136c2.663-0.898 5.361-1.719 8.086-2.473v-49.873h-36.54l-25.837-25.837-35.266 35.266c1.394 2.46 2.72 4.948 3.969 7.466l35.452 35.451z"/>
 <path d="m1139.3 690.62l35.452 35.452c2.518 1.248 5.007 2.575 7.466 3.969l35.266-35.266-25.837-25.837v-36.54h-49.873c-0.754 2.725-1.575 5.422-2.473 8.086v50.136z"/>
 <path d="m1139.3 953.48v50.136c0.898 2.663 1.719 5.361 2.473 8.086h49.873v-36.54l25.837-25.837-35.266-35.266c-2.46 1.394-4.948 2.72-7.466 3.969l-35.451 35.452z"/>
 <path d="m953.48 1139.3l-35.452 35.452c-1.248 2.518-2.575 5.007-3.969 7.466l35.266 35.266 25.837-25.837h36.54v-49.873c-2.725-0.754-5.422-1.575-8.086-2.473h-50.136z"/>
 <path d="m690.62 1139.3h-50.136c-2.663 0.898-5.361 1.719-8.086 2.473v49.873h36.54l25.837 25.837 35.266-35.266c-1.394-2.46-2.72-4.948-3.969-7.466l-35.452-35.451z"/>
 <path d="m504.76 953.48l-35.452-35.452c-2.518-1.248-5.007-2.575-7.466-3.969l-35.266 35.266 25.837 25.837v36.54h49.873c0.754-2.725 1.575-5.422 2.473-8.086v-50.136z"/>
 <path d="m504.76 690.62v-50.136c-0.898-2.663-1.719-5.361-2.473-8.086h-49.873v36.54l-25.837 25.837 35.266 35.266c2.46-1.394 4.948-2.72 7.466-3.969l35.451-35.452z"/>
 <path d="m690.62 504.76l35.452-35.452c1.248-2.518 2.575-5.007 3.969-7.466l-35.266-35.266-25.837 25.837h-36.54v49.873c2.725 0.754 5.422 1.575 8.086 2.473h50.136z"/>
 <path d="m1114.4 496.74v-35.057c0-3.113 0.104-6.203 0.289-9.271h-58.431c-12.508 13.524-22.639 29.27-29.716 46.561 8.491-1.462 17.21-2.233 26.101-2.233h61.757z"/>
 <path d="m798.71 385.33l-24.789-24.789c-2.201-2.201-4.312-4.46-6.352-6.76l-41.317 41.317c0.718 18.407 4.689 36.705 11.911 53.936 4.97-7.037 10.59-13.748 16.877-20.035l43.67-43.669z"/>
 <path d="m496.74 529.74h-35.057c-3.113 0-6.203-0.105-9.271-0.289v58.431c13.524 12.508 29.27 22.639 46.561 29.716-1.462-8.491-2.233-17.21-2.233-26.101v-61.757z"/>
 <path d="m385.33 845.39l-24.789 24.789c-2.201 2.201-4.46 4.312-6.76 6.352l41.317 41.317c18.407-0.718 36.705-4.689 53.936-11.911-7.037-4.97-13.748-10.59-20.035-16.877l-43.669-43.67z"/>
 <path d="m529.74 1147.4v35.057c0 3.113-0.105 6.203-0.289 9.271h58.431c12.508-13.524 22.639-29.27 29.716-46.561-8.491 1.462-17.21 2.233-26.101 2.233h-61.757z"/>
 <path d="m845.39 1258.8l24.789 24.789c2.201 2.201 4.312 4.46 6.352 6.76l41.317-41.317c-0.718-18.407-4.689-36.705-11.911-53.936-4.97 7.037-10.59 13.748-16.877 20.035l-43.67 43.669z"/>
 <path d="m1147.4 1114.4h35.057c3.113 0 6.203 0.104 9.271 0.289v-58.431c-13.524-12.508-29.27-22.639-46.561-29.716 1.462 8.491 2.233 17.21 2.233 26.101v61.757z"/>
 <path d="m1258.8 798.71l24.789-24.789c2.201-2.201 4.46-4.312 6.76-6.352l-41.317-41.317c-18.407 0.718-36.705 4.689-53.936 11.911 7.037 4.97 13.748 10.59 20.035 16.877l43.669 43.67z"/>
 <path d="m1147.4 529.74h35.057c3.113 0 6.203-0.105 9.271-0.289v58.431c-13.524 12.508-29.27 22.639-46.561 29.716 1.462-8.491 2.233-17.21 2.233-26.101v-61.757z"/>
 <path d="m845.39 385.33l24.789-24.789c2.201-2.201 4.312-4.46 6.352-6.76l41.317 41.317c-0.718 18.407-4.689 36.705-11.911 53.936-4.97-7.037-10.59-13.748-16.877-20.035l-43.67-43.669z"/>
 <path d="m529.74 496.74v-35.057c0-3.113-0.105-6.203-0.289-9.271h58.431c12.508 13.524 22.639 29.27 29.716 46.561-8.491-1.462-17.21-2.233-26.101-2.233h-61.757z"/>
 <path d="m385.33 798.71l-24.789-24.789c-2.201-2.201-4.46-4.312-6.76-6.352l41.317-41.317c18.407 0.718 36.705 4.689 53.936 11.911-7.037 4.97-13.748 10.59-20.035 16.877l-43.669 43.67z"/>
 <path d="m496.74 1114.4h-35.057c-3.113 0-6.203 0.104-9.271 0.289v-58.431c13.524-12.508 29.27-22.639 46.561-29.716-1.462 8.491-2.233 17.21-2.233 26.101v61.757z"/>
 <path d="m798.71 1258.8l-24.789 24.789c-2.201 2.201-4.312 4.46-6.352 6.76l-41.317-41.317c0.718-18.407 4.689-36.705 11.911-53.936 4.97 7.037 10.59 13.748 16.877 20.035l43.67 43.669z"/>
 <path d="m1114.4 1147.4v35.057c0 3.113 0.104 6.203 0.289 9.271h-58.431c-12.508-13.524-22.639-29.27-29.716-46.561 8.491 1.462 17.21 2.233 26.101 2.233h61.757z"/>
 <path d="m1258.8 845.39l24.789 24.789c2.201 2.201 4.46 4.312 6.76 6.352l-41.317 41.317c-18.407-0.718-36.705-4.689-53.936-11.911 7.037-4.97 13.748-10.59 20.035-16.877l43.669-43.67z"/>
 <path d="m1191.7 452.41h-20.321c-15.639 12.13-28.907 27.186-38.966 44.328h14.958v14.958c17.143-10.059 32.198-23.326 44.328-38.966v-20.32z"/>
 <path d="m1344.8 822.05l-14.369-14.369c-19.636-2.481-39.663-1.217-58.898 3.792l10.577 10.577-10.577 10.577c19.234 5.009 39.262 6.273 58.898 3.792l14.369-14.369z"/>
 <path d="m1191.7 1191.7v-20.321c-12.13-15.639-27.186-28.907-44.328-38.966v14.958h-14.958c10.059 17.143 23.326 32.198 38.966 44.328h20.32z"/>
 <path d="m822.05 1344.8l14.369-14.369c2.481-19.636 1.217-39.663-3.792-58.898l-10.577 10.577-10.577-10.577c-5.009 19.234-6.273 39.262-3.792 58.898l14.369 14.369z"/>
 <path d="m452.41 1191.7h20.321c15.639-12.13 28.907-27.186 38.966-44.328h-14.958v-14.958c-17.143 10.059-32.198 23.326-44.328 38.966v20.32z"/>
 <path d="m299.3 822.05l14.369 14.369c19.636 2.481 39.663 1.217 58.898-3.792l-10.577-10.577 10.577-10.577c-19.234-5.009-39.262-6.273-58.898-3.792l-14.369 14.369z"/>
 <path d="m452.41 452.41v20.321c12.13 15.639 27.186 28.907 44.328 38.966v-14.958h14.958c-10.059-17.143-23.326-32.198-38.966-44.328h-20.32z"/>
 <path d="m822.05 299.3l-14.369 14.369c-2.481 19.636-1.217 39.663 3.792 58.898l10.577-10.577 10.577 10.577c5.009-19.234 6.273-39.262 3.792-58.898l-14.369-14.369z"/>
 <path d="m1024.3 504.76c0.706-1.947 1.455-3.874 2.237-5.785-5.018 0.864-9.954 1.972-14.798 3.312v2.473h12.561z"/>
 <path d="m740.67 454.71c-0.877-1.876-1.711-3.768-2.509-5.672-2.937 4.159-5.644 8.433-8.122 12.805l1.749 1.749 8.882-8.882z"/>
 <path d="m504.76 619.84c-1.947-0.706-3.874-1.455-5.785-2.237 0.864 5.018 1.972 9.954 3.312 14.798h2.473v-12.561z"/>
 <path d="m454.71 903.42c-1.876 0.877-3.768 1.711-5.672 2.509 4.159 2.937 8.433 5.644 12.805 8.122l1.749-1.749-8.882-8.882z"/>
 <path d="m619.84 1139.3c-0.706 1.947-1.455 3.875-2.237 5.785 5.018-0.864 9.954-1.972 14.798-3.312v-2.473h-12.561z"/>
 <path d="m903.42 1189.4c0.877 1.876 1.711 3.769 2.509 5.672 2.937-4.159 5.644-8.433 8.122-12.805l-1.749-1.749-8.882 8.882z"/>
 <path d="m1139.3 1024.3c1.947 0.706 3.875 1.455 5.785 2.237-0.864-5.018-1.972-9.954-3.312-14.798h-2.473v12.561z"/>
 <path d="m1189.4 740.67c1.876-0.877 3.769-1.711 5.672-2.509-4.159-2.937-8.433-5.644-12.805-8.122l-1.749 1.749 8.882 8.882z"/>
 <path d="m1139.3 619.84c1.947-0.706 3.875-1.455 5.785-2.237-0.864 5.018-1.972 9.954-3.312 14.798h-2.473v-12.561z"/>
 <path d="m903.42 454.71c0.877-1.876 1.711-3.768 2.509-5.672 2.937 4.159 5.644 8.433 8.122 12.805l-1.749 1.749-8.882-8.882z"/>
 <path d="m619.84 504.76c-0.706-1.947-1.455-3.874-2.237-5.785 5.018 0.864 9.954 1.972 14.798 3.312v2.473h-12.561z"/>
 <path d="m454.71 740.67c-1.876-0.877-3.768-1.711-5.672-2.509 4.159-2.937 8.433-5.644 12.805-8.122l1.749 1.749-8.882 8.882z"/>
 <path d="m504.76 1024.3c-1.947 0.706-3.874 1.455-5.785 2.237 0.864-5.018 1.972-9.954 3.312-14.798h2.473v12.561z"/>
 <path d="m740.67 1189.4c-0.877 1.876-1.711 3.769-2.509 5.672-2.937-4.159-5.644-8.433-8.122-12.805l1.749-1.749 8.882 8.882z"/>
 <path d="m1024.3 1139.3c0.706 1.947 1.455 3.875 2.237 5.785-5.018-0.864-9.954-1.972-14.798-3.312v-2.473h12.561z"/>
 <path d="m1189.4 903.42c1.876 0.877 3.769 1.711 5.672 2.509-4.159 2.937-8.433 5.644-12.805 8.122l-1.749-1.749 8.882-8.882z"/>
 <path d="m1132.4 496.74h-18.046v8.018h13.65c1.387-2.72 2.856-5.392 4.396-8.018z"/>
 <path d="m811.47 372.57l-12.761 12.761 5.67 5.67 9.652-9.652c-0.943-2.905-1.793-5.833-2.561-8.779z"/>
 <path d="m496.74 511.7v18.046h8.018v-13.65c-2.72-1.387-5.392-2.856-8.018-4.396z"/>
 <path d="m372.57 832.63l12.761 12.761 5.67-5.67-9.652-9.652c-2.905 0.943-5.833 1.794-8.779 2.561z"/>
 <path d="m511.7 1147.4h18.046v-8.018h-13.65c-1.387 2.721-2.856 5.393-4.396 8.018z"/>
 <path d="m832.63 1271.5l12.761-12.761-5.67-5.67-9.652 9.652c0.943 2.905 1.794 5.833 2.561 8.779z"/>
 <path d="m1147.4 1132.4v-18.046h-8.018v13.65c2.721 1.387 5.393 2.856 8.018 4.396z"/>
 <path d="m1271.5 811.47l-12.761-12.761-5.67 5.67 9.652 9.652c2.905-0.943 5.833-1.793 8.779-2.561z"/>
 <path d="m1147.4 511.7v18.046h-8.018v-13.65c2.721-1.387 5.393-2.856 8.018-4.396z"/>
 <path d="m832.63 372.57l12.761 12.761-5.67 5.67-9.652-9.652c0.943-2.905 1.794-5.833 2.561-8.779z"/>
 <path d="m511.7 496.74h18.046v8.018h-13.65c-1.387-2.72-2.856-5.392-4.396-8.018z"/>
 <path d="m372.57 811.47l12.761-12.761 5.67 5.67-9.652 9.652c-2.905-0.943-5.833-1.793-8.779-2.561z"/>
 <path d="m496.74 1132.4v-18.046h8.018v13.65c-2.72 1.387-5.392 2.856-8.018 4.396z"/>
 <path d="m811.47 1271.5l-12.761-12.761 5.67-5.67 9.652 9.652c-0.943 2.905-1.793 5.833-2.561 8.779z"/>
 <path d="m1132.4 1147.4h-18.046v-8.018h13.65c1.387 2.721 2.856 5.393 4.396 8.018z"/>
 <path d="m1271.5 832.63l-12.761 12.761-5.67-5.67 9.652-9.652c2.905 0.943 5.833 1.794 8.779 2.561z"/>
 <polygon points="828.36 815.74 824.66 815.74 822.05 813.13 819.44 815.74 815.74 815.74 815.74 819.44 813.13 822.05 815.74 824.66 815.74 828.36 819.44 828.36 822.05 830.97 824.66 828.36 828.36 828.36 828.36 824.66 830.97 822.05 828.36 819.44"/>
 <path d="m933.33 553.39c8.697-10.587 18.766-20.009 29.934-27.982h-18.343l-12.971-12.971c2.259 13.535 2.717 27.317 1.38 40.953z"/>
 <path d="m1090.7 710.76c13.636-1.337 27.418-0.879 40.952 1.38l-12.971-12.971v-18.343c-7.973 11.169-17.394 21.238-27.981 29.934z"/>
 <path d="m1090.7 933.33c10.587 8.697 20.009 18.766 27.982 29.934v-18.343l12.971-12.971c-13.536 2.259-27.318 2.717-40.953 1.38z"/>
 <path d="m933.33 1090.7c1.337 13.636 0.879 27.418-1.38 40.952l12.971-12.971h18.343c-11.168-7.973-21.237-17.394-29.934-27.981z"/>
 <path d="m710.76 1090.7c-8.697 10.587-18.766 20.009-29.934 27.982h18.343l12.971 12.971c-2.259-13.536-2.716-27.318-1.38-40.953z"/>
 <path d="m553.39 933.33c-13.636 1.337-27.418 0.879-40.952-1.38l12.971 12.971v18.343c7.972-11.168 17.394-21.237 27.981-29.934z"/>
 <path d="m553.39 710.76c-10.587-8.697-20.009-18.766-27.982-29.934v18.343l-12.971 12.971c13.535-2.259 27.317-2.716 40.953-1.38z"/>
 <path d="m710.76 553.39c-1.337-13.636-0.879-27.418 1.38-40.952l-12.971 12.971h-18.343c11.169 7.972 21.238 17.394 29.934 27.981z"/>
 <path d="m864.7 719.08h33.52v-32.152c-9.888 5.043-19.167 11.121-27.695 18.09-1.103-10.958-3.366-21.818-6.792-32.375l-22.735 22.735 23.702 23.702z"/>
 <path d="m925.02 779.4l23.702 23.702 22.735-22.735c-10.557-3.426-21.417-5.689-32.375-6.792 6.968-8.528 13.047-17.808 18.09-27.695h-32.152v33.52z"/>
 <path d="m925.02 864.7v33.52h32.152c-5.043-9.888-11.121-19.167-18.09-27.695 10.958-1.103 21.818-3.366 32.375-6.792l-22.735-22.735-23.702 23.702z"/>
 <path d="m864.7 925.02l-23.702 23.702 22.735 22.735c3.426-10.557 5.689-21.417 6.792-32.375 8.528 6.968 17.808 13.047 27.695 18.09v-32.152h-33.52z"/>
 <path d="m779.4 925.02h-33.52v32.152c9.888-5.043 19.167-11.121 27.695-18.09 1.103 10.958 3.366 21.818 6.792 32.375l22.735-22.735-23.702-23.702z"/>
 <path d="m719.08 864.7l-23.702-23.702-22.735 22.735c10.557 3.426 21.417 5.689 32.375 6.792-6.968 8.528-13.047 17.808-18.09 27.695h32.152v-33.52z"/>
 <path d="m719.08 779.4v-33.52h-32.152c5.043 9.888 11.121 19.167 18.09 27.695-10.958 1.103-21.818 3.366-32.375 6.792l22.735 22.735 23.702-23.702z"/>
 <path d="m779.4 719.08l23.702-23.702-22.735-22.735c-3.426 10.557-5.689 21.417-6.792 32.375-8.528-6.968-17.808-13.047-27.695-18.09v32.152h33.52z"/>
 <path d="m1011.7 504.76h-8.086c-14.52 4.896-28.092 11.899-40.345 20.647h48.431v-20.647z"/>
 <path d="m731.79 463.59l-5.718 5.717c-6.805 13.729-11.45 28.278-13.929 43.128l34.246-34.246-14.599-14.599z"/>
 <path d="m504.76 632.4v8.086c4.896 14.52 11.899 28.092 20.647 40.345v-48.431h-20.647z"/>
 <path d="m463.59 912.31l5.717 5.718c13.729 6.805 28.278 11.45 43.128 13.929l-34.246-34.246-14.599 14.599z"/>
 <path d="m632.4 1139.3h8.086c14.52-4.896 28.092-11.899 40.345-20.647h-48.431v20.647z"/>
 <path d="m912.31 1180.5l5.718-5.718c6.805-13.729 11.45-28.278 13.929-43.128l-34.246 34.246 14.599 14.6z"/>
 <path d="m1139.3 1011.7v-8.086c-4.896-14.52-11.899-28.092-20.647-40.345v48.431h20.647z"/>
 <path d="m1180.5 731.79l-5.718-5.718c-13.729-6.805-28.278-11.45-43.128-13.929l34.246 34.246 14.6-14.599z"/>
 <path d="m1139.3 632.4v8.086c-4.896 14.52-11.899 28.092-20.647 40.345v-48.431h20.647z"/>
 <path d="m912.31 463.59l5.718 5.717c6.805 13.729 11.45 28.278 13.929 43.128l-34.246-34.246 14.599-14.599z"/>
 <path d="m632.4 504.76h8.086c14.52 4.896 28.092 11.899 40.345 20.647h-48.431v-20.647z"/>
 <path d="m463.59 731.79l5.717-5.718c13.729-6.805 28.278-11.45 43.128-13.929l-34.246 34.246-14.599-14.599z"/>
 <path d="m504.76 1011.7v-8.086c4.896-14.52 11.899-28.092 20.647-40.345v48.431h-20.647z"/>
 <path d="m731.79 1180.5l-5.718-5.718c-6.805-13.729-11.45-28.278-13.929-43.128l34.246 34.246-14.599 14.6z"/>
 <path d="m1011.7 1139.3h-8.086c-14.52-4.896-28.092-11.899-40.345-20.647h48.431v20.647z"/>
 <path d="m1180.5 912.31l-5.718 5.718c-13.729 6.805-28.278 11.45-43.128 13.929l34.246-34.246 14.6 14.599z"/>
 <path d="m1015.1 557.04c0-10.833 1.137-21.413 3.287-31.631h-6.674v40.405h3.387v-8.774z"/>
 <path d="m771.15 498.16c-7.66-7.66-14.337-15.945-20.042-24.691l-4.719 4.719 28.571 28.571 2.395-2.395-6.205-6.204z"/>
 <path d="m557.04 629.01c-10.833 0-21.413-1.137-31.631-3.287v6.674h40.405v-3.387h-8.774z"/>
 <path d="m498.16 872.94c-7.66 7.66-15.945 14.337-24.691 20.042l4.719 4.719 28.571-28.571-2.395-2.395-6.204 6.205z"/>
 <path d="m629.01 1087.1c0 10.833-1.137 21.413-3.287 31.631h6.674v-40.405h-3.387v8.774z"/>
 <path d="m872.94 1145.9c7.66 7.66 14.337 15.945 20.042 24.691l4.719-4.719-28.571-28.571-2.395 2.395 6.205 6.204z"/>
 <path d="m1087.1 1015.1c10.833 0 21.413 1.137 31.631 3.287v-6.674h-40.405v3.387h8.774z"/>
 <path d="m1145.9 771.15c7.66-7.66 15.945-14.337 24.691-20.042l-4.719-4.719-28.571 28.571 2.395 2.395 6.204-6.205z"/>
 <path d="m1087.1 629.01c10.833 0 21.413-1.137 31.631-3.287v6.674h-40.405v-3.387h8.774z"/>
 <path d="m872.94 498.16c7.66-7.66 14.337-15.945 20.042-24.691l4.719 4.719-28.571 28.571-2.395-2.395 6.205-6.204z"/>
 <path d="m629.01 557.04c0-10.833-1.137-21.413-3.287-31.631h6.674v40.405h-3.387v-8.774z"/>
 <path d="m498.16 771.15c-7.66-7.66-15.945-14.337-24.691-20.042l4.719-4.719 28.571 28.571-2.395 2.395-6.204-6.205z"/>
 <path d="m557.04 1015.1c-10.833 0-21.413 1.137-31.631 3.287v-6.674h40.405v3.387h-8.774z"/>
 <path d="m771.15 1145.9c-7.66 7.66-14.337 15.945-20.042 24.691l-4.719-4.719 28.571-28.571 2.395 2.395-6.205 6.204z"/>
 <path d="m1015.1 1087.1c0 10.833 1.137 21.413 3.287 31.631h-6.674v-40.405h3.387v8.774z"/>
 <path d="m1145.9 872.94c7.66 7.66 15.945 14.337 24.691 20.042l-4.719 4.719-28.571-28.571 2.395-2.395 6.204 6.205z"/>
 <path d="m1108 525.4c2.104-0.726 4.23-1.404 6.374-2.041v-18.606h-90.096c-2.425 6.684-4.399 13.578-5.887 20.647h89.609z"/>
 <path d="m814.47 410.1c0.974-2.002 1.998-3.984 3.064-5.95l-13.157-13.157-63.708 63.707c3.012 6.441 6.49 12.712 10.437 18.762l63.364-63.362z"/>
 <path d="m525.4 536.12c-0.726-2.104-1.404-4.23-2.041-6.373h-18.606v90.096c6.684 2.425 13.578 4.4 20.647 5.887v-89.61z"/>
 <path d="m410.1 829.62c-2.002-0.974-3.984-1.998-5.95-3.064l-13.157 13.157 63.707 63.708c6.441-3.012 12.712-6.49 18.762-10.437l-63.362-63.364z"/>
 <path d="m536.12 1118.7c-2.104 0.726-4.23 1.404-6.373 2.041v18.606h90.096c2.425-6.684 4.4-13.578 5.887-20.647h-89.61z"/>
 <path d="m829.62 1234c-0.974 2.002-1.998 3.984-3.064 5.95l13.157 13.157 63.708-63.708c-3.012-6.441-6.49-12.712-10.437-18.762l-63.364 63.363z"/>
 <path d="m1118.7 1108c0.726 2.104 1.404 4.23 2.041 6.374h18.606v-90.096c-6.684-2.425-13.578-4.399-20.647-5.887v89.609z"/>
 <path d="m1234 814.47c2.002 0.974 3.984 1.998 5.95 3.064l13.157-13.157-63.708-63.708c-6.441 3.012-12.712 6.49-18.762 10.437l63.363 63.364z"/>
 <path d="m1118.7 536.12c0.726-2.104 1.404-4.23 2.041-6.373h18.606v90.096c-6.684 2.425-13.578 4.4-20.647 5.887v-89.61z"/>
 <path d="m829.62 410.1c-0.974-2.002-1.998-3.984-3.064-5.95l13.157-13.157 63.708 63.707c-3.012 6.441-6.49 12.712-10.437 18.762l-63.364-63.362z"/>
 <path d="m536.12 525.4c-2.104-0.726-4.23-1.404-6.373-2.041v-18.606h90.096c2.425 6.684 4.4 13.578 5.887 20.647h-89.61z"/>
 <path d="m410.1 814.47c-2.002 0.974-3.984 1.998-5.95 3.064l-13.157-13.157 63.707-63.708c6.441 3.012 12.712 6.49 18.762 10.437l-63.362 63.364z"/>
 <path d="m525.4 1108c-0.726 2.104-1.404 4.23-2.041 6.374h-18.606v-90.096c6.684-2.425 13.578-4.399 20.647-5.887v89.609z"/>
 <path d="m814.47 1234c0.974 2.002 1.998 3.984 3.064 5.95l-13.157 13.157-63.708-63.708c3.012-6.441 6.49-12.712 10.437-18.762l63.364 63.363z"/>
 <path d="m1108 1118.7c2.104 0.726 4.23 1.404 6.374 2.041v18.606h-90.096c-2.425-6.684-4.399-13.578-5.887-20.647h89.609z"/>
 <path d="m1234 829.62c2.002-0.974 3.984-1.998 5.95-3.064l13.157 13.157-63.708 63.708c-6.441-3.012-12.712-6.49-18.762-10.437l63.363-63.364z"/>
 <path d="m1139.3 504.76h-11.336c-2.78 5.453-5.248 11.088-7.374 16.886 0.8-0.201 1.603-0.396 2.408-0.584-0.188 0.805-0.383 1.608-0.584 2.409 5.797-2.126 11.433-4.594 16.886-7.374v-11.337z"/>
 <path d="m1270.8 822.05l-8.016-8.016c-5.821 1.89-11.552 4.13-17.154 6.726 0.708 0.424 1.413 0.854 2.116 1.29-0.703 0.436-1.408 0.866-2.116 1.29 5.603 2.596 11.333 4.836 17.154 6.726l8.016-8.016z"/>
 <path d="m1139.3 1139.3v-11.336c-5.453-2.78-11.088-5.248-16.886-7.374 0.201 0.8 0.396 1.603 0.584 2.408-0.805-0.188-1.608-0.383-2.408-0.584 2.126 5.797 4.594 11.433 7.374 16.886h11.336z"/>
 <path d="m822.05 1270.8l8.016-8.016c-1.89-5.821-4.13-11.552-6.726-17.154-0.424 0.708-0.854 1.413-1.29 2.116-0.436-0.703-0.866-1.408-1.29-2.116-2.596 5.603-4.836 11.333-6.726 17.154l8.016 8.016z"/>
 <path d="m504.76 1139.3h11.336c2.78-5.453 5.248-11.088 7.374-16.886-0.8 0.201-1.603 0.396-2.409 0.584 0.188-0.805 0.383-1.608 0.584-2.408-5.797 2.126-11.433 4.594-16.886 7.374v11.336z"/>
 <path d="m373.33 822.05l8.016 8.016c5.821-1.89 11.551-4.13 17.154-6.726-0.708-0.424-1.414-0.854-2.116-1.29 0.703-0.436 1.408-0.866 2.116-1.29-5.603-2.596-11.333-4.836-17.154-6.726l-8.016 8.016z"/>
 <path d="m504.76 504.76v11.336c5.453 2.78 11.088 5.248 16.886 7.374-0.201-0.8-0.396-1.603-0.584-2.409 0.805 0.188 1.608 0.383 2.409 0.584-2.126-5.797-4.594-11.433-7.374-16.886h-11.337z"/>
 <path d="m822.05 373.33l-8.016 8.016c1.89 5.821 4.13 11.551 6.726 17.154 0.424-0.708 0.854-1.414 1.29-2.116 0.436 0.703 0.866 1.408 1.29 2.116 2.596-5.603 4.836-11.333 6.726-17.154l-8.016-8.016z"/>
 <path d="m1114.4 529.74v-4.339h-6.374c-23.953 8.27-45.282 22.297-62.317 40.405h32.625v32.625c18.109-17.036 32.135-38.364 40.405-62.317v-6.373h-4.339z"/>
 <path d="m1235.4 822.05l3.068-3.068-4.507-4.507c-22.785-11.09-47.785-16.253-72.636-15.494l23.069 23.069-23.069 23.069c24.851 0.759 49.85-4.404 72.636-15.494l4.507-4.507-3.068-3.068z"/>
 <path d="m1114.4 1114.4h4.339v-6.374c-8.27-23.953-22.297-45.282-40.405-62.317v32.625h-32.625c17.036 18.109 38.364 32.135 62.317 40.405h6.374v-4.339z"/>
 <path d="m822.05 1235.4l3.068 3.068 4.507-4.507c11.09-22.785 16.253-47.785 15.494-72.636l-23.069 23.069-23.069-23.069c-0.759 24.851 4.404 49.85 15.494 72.636l4.507 4.507 3.068-3.068z"/>
 <path d="m529.74 1114.4v4.339h6.373c23.953-8.27 45.282-22.297 62.317-40.405h-32.624v-32.625c-18.109 17.036-32.135 38.364-40.405 62.317v6.374h4.339z"/>
 <path d="m408.67 822.05l-3.068 3.068 4.507 4.507c22.785 11.09 47.785 16.253 72.636 15.494l-23.069-23.069 23.069-23.069c-24.851-0.759-49.85 4.404-72.636 15.494l-4.507 4.507 3.068 3.068z"/>
 <path d="m529.74 529.74h-4.339v6.373c8.27 23.953 22.297 45.282 40.405 62.317v-32.624h32.625c-17.036-18.109-38.364-32.135-62.317-40.405h-6.373v4.339z"/>
 <path d="m822.05 408.67l-3.068-3.068-4.507 4.507c-11.09 22.785-16.253 47.785-15.494 72.636l23.069-23.069 23.069 23.069c0.759-24.851-4.404-49.85-15.494-72.636l-4.507-4.507-3.068 3.068z"/>
 <path d="m1119.6 524.47c0.326-0.947 0.66-1.89 1.004-2.828-2.11 0.53-4.202 1.104-6.276 1.721v2.041h4.339v4.339h2.041c0.616-2.075 1.191-4.167 1.721-6.276-0.939 0.344-1.882 0.678-2.829 1.003z"/>
 <path d="m1242.9 822.05c0.9-0.439 1.803-0.87 2.71-1.29-1.866-1.117-3.752-2.19-5.655-3.221l-1.443 1.443 3.068 3.068-3.068 3.068 1.443 1.443c1.903-1.031 3.788-2.104 5.655-3.221-0.907-0.42-1.81-0.85-2.71-1.29z"/>
 <path d="m1119.6 1119.6c0.947 0.326 1.89 0.66 2.828 1.004-0.53-2.11-1.104-4.202-1.721-6.276h-2.041v4.339h-4.339v2.041c2.075 0.616 4.167 1.191 6.276 1.721-0.343-0.939-0.677-1.882-1.003-2.829z"/>
 <path d="m822.05 1242.9c0.439 0.9 0.87 1.803 1.29 2.71 1.117-1.866 2.19-3.752 3.221-5.655l-1.443-1.443-3.068 3.068-3.068-3.068-1.443 1.443c1.031 1.903 2.104 3.788 3.221 5.655 0.421-0.907 0.851-1.81 1.29-2.71z"/>
 <path d="m524.47 1119.6c-0.326 0.947-0.66 1.89-1.004 2.828 2.11-0.53 4.202-1.104 6.276-1.721v-2.041h-4.339v-4.339h-2.041c-0.616 2.075-1.191 4.167-1.721 6.276 0.94-0.343 1.883-0.677 2.829-1.003z"/>
 <path d="m401.21 822.05c-0.9 0.439-1.803 0.87-2.71 1.29 1.866 1.117 3.752 2.19 5.655 3.221l1.443-1.443-3.068-3.068 3.068-3.068-1.443-1.443c-1.903 1.031-3.788 2.104-5.655 3.221 0.907 0.421 1.81 0.851 2.71 1.29z"/>
 <path d="m524.47 524.47c-0.947-0.326-1.89-0.66-2.828-1.004 0.53 2.11 1.104 4.202 1.721 6.276h2.041v-4.339h4.339v-2.041c-2.075-0.616-4.167-1.191-6.276-1.721 0.344 0.94 0.678 1.883 1.003 2.829z"/>
 <path d="m822.05 401.21c-0.439-0.9-0.87-1.803-1.29-2.71-1.117 1.866-2.19 3.752-3.221 5.655l1.443 1.443 3.068-3.068 3.068 3.068 1.443-1.443c-1.031-1.903-2.104-3.788-3.221-5.655-0.42 0.907-0.85 1.81-1.29 2.71z"/>
 <path d="m925.53 572.23v44.852h86.169v-51.269h-51.407c-11.545 0-22.805 1.284-33.644 3.718-5.944-9.384-12.997-18.255-21.161-26.418l-36.35-36.35-36.253 36.253 60.931 60.93 31.715-31.716z"/>
 <path d="m1071.9 718.57l-31.715 31.715 60.931 60.931 36.253-36.253-36.35-36.35c-8.164-8.164-17.034-15.217-26.418-21.161 2.433-10.839 3.718-22.098 3.718-33.644v-51.407h-51.269v86.169h44.85z"/>
 <path d="m1071.9 925.53h-44.852v86.169h51.269v-51.407c0-11.545-1.285-22.805-3.718-33.644 9.384-5.944 18.255-12.997 26.418-21.161l36.35-36.35-36.253-36.253-60.931 60.931 31.717 31.715z"/>
 <path d="m925.53 1071.9l-31.715-31.715-60.931 60.931 36.253 36.253 36.35-36.35c8.164-8.164 15.217-17.034 21.161-26.418 10.839 2.433 22.098 3.718 33.644 3.718h51.407v-51.269h-86.169v44.85z"/>
 <path d="m718.57 1071.9v-44.852h-86.169v51.269h51.407c11.545 0 22.805-1.285 33.644-3.718 5.944 9.384 12.997 18.255 21.161 26.418l36.35 36.35 36.253-36.253-60.931-60.931-31.715 31.717z"/>
 <path d="m572.23 925.53l31.715-31.715-60.93-60.931-36.253 36.253 36.35 36.35c8.164 8.164 17.034 15.217 26.418 21.161-2.433 10.839-3.718 22.098-3.718 33.644v51.407h51.269v-86.169h-44.851z"/>
 <path d="m572.23 718.57h44.852v-86.169h-51.269v51.407c0 11.545 1.284 22.805 3.718 33.644-9.384 5.944-18.255 12.997-26.418 21.161l-36.35 36.35 36.253 36.253 60.93-60.931-31.716-31.715z"/>
 <path d="m718.57 572.23l31.715 31.715 60.931-60.93-36.253-36.253-36.35 36.35c-8.164 8.164-15.217 17.034-21.161 26.418-10.839-2.433-22.098-3.718-33.644-3.718h-51.407v51.269h86.169v-44.851z"/>
 <path d="m1015.1 565.81v47.431c7.246-17.667 17.678-33.719 30.578-47.431h-30.578z"/>
 <path d="m777.36 504.36l33.539 33.539c-7.369-17.616-11.342-36.343-11.917-55.161l-21.622 21.622z"/>
 <path d="m565.81 629.01h47.431c-17.667-7.246-33.719-17.678-47.431-30.578v30.578z"/>
 <path d="m504.36 866.74l33.539-33.539c-17.616 7.369-36.343 11.342-55.161 11.917l21.622 21.622z"/>
 <path d="m629.01 1078.3v-47.431c-7.246 17.666-17.678 33.719-30.578 47.431h30.578z"/>
 <path d="m866.74 1139.7l-33.539-33.539c7.369 17.616 11.342 36.343 11.917 55.161l21.622-21.622z"/>
 <path d="m1078.3 1015.1h-47.431c17.666 7.246 33.719 17.678 47.431 30.578v-30.578z"/>
 <path d="m1139.7 777.36l-33.539 33.539c17.616-7.369 36.343-11.342 55.161-11.917l-21.622-21.622z"/>
 <path d="m1078.3 629.01h-47.431c17.666-7.246 33.719-17.678 47.431-30.578v30.578z"/>
 <path d="m866.74 504.36l-33.539 33.539c7.369-17.616 11.342-36.343 11.917-55.161l21.622 21.622z"/>
 <path d="m629.01 565.81v47.431c-7.246-17.667-17.678-33.719-30.578-47.431h30.578z"/>
 <path d="m504.36 777.36l33.539 33.539c-17.616-7.369-36.343-11.342-55.161-11.917l21.622-21.622z"/>
 <path d="m565.81 1015.1h47.431c-17.667 7.246-33.719 17.678-47.431 30.578v-30.578z"/>
 <path d="m777.36 1139.7l33.539-33.539c-7.369 17.616-11.342 36.343-11.917 55.161l-21.622-21.622z"/>
 <path d="m1015.1 1078.3v-47.431c7.246 17.666 17.678 33.719 30.578 47.431h-30.578z"/>
 <path d="m1139.7 866.74l-33.539-33.539c17.616 7.369 36.343 11.342 55.161 11.917l-21.622 21.622z"/>
 <path d="m1015.1 613.24c-0.521 1.271-1.026 2.55-1.514 3.838h1.514v-3.838z"/>
 <path d="m810.9 537.9c0.53 1.267 1.078 2.529 1.643 3.785l1.071-1.071-2.714-2.714z"/>
 <path d="m613.24 629.01c1.271 0.521 2.55 1.026 3.838 1.515v-1.515h-3.838z"/>
 <path d="m537.9 833.2c1.267-0.53 2.529-1.078 3.785-1.643l-1.071-1.071-2.714 2.714z"/>
 <path d="m629.01 1030.9c0.521-1.271 1.026-2.55 1.515-3.838h-1.515v3.838z"/>
 <path d="m833.2 1106.2c-0.53-1.267-1.078-2.529-1.643-3.785l-1.071 1.071 2.714 2.714z"/>
 <path d="m1030.9 1015.1c-1.271-0.521-2.55-1.026-3.838-1.514v1.514h3.838z"/>
 <path d="m1106.2 810.9c-1.267 0.53-2.529 1.078-3.785 1.643l1.071 1.071 2.714-2.714z"/>
 <path d="m1030.9 629.01c-1.271 0.521-2.55 1.026-3.838 1.515v-1.515h3.838z"/>
 <path d="m833.2 537.9c-0.53 1.267-1.078 2.529-1.643 3.785l-1.071-1.071 2.714-2.714z"/>
 <path d="m629.01 613.24c0.521 1.271 1.026 2.55 1.515 3.838h-1.515v-3.838z"/>
 <path d="m537.9 810.9c1.267 0.53 2.529 1.078 3.785 1.643l-1.071 1.071-2.714-2.714z"/>
 <path d="m613.24 1015.1c1.271-0.521 2.55-1.026 3.838-1.514v1.514h-3.838z"/>
 <path d="m810.9 1106.2c0.53-1.267 1.078-2.529 1.643-3.785l1.071 1.071-2.714 2.714z"/>
 <path d="m1015.1 1030.9c-0.521-1.271-1.026-2.55-1.514-3.838h1.514v3.838z"/>
 <path d="m1106.2 833.2c-1.267-0.53-2.529-1.078-3.785-1.643l1.071-1.071 2.714 2.714z"/>
 <path d="m898.92 636.46c-0.463 4.825-0.702 9.713-0.702 14.654v35.813c2.565-1.308 5.173-2.541 7.817-3.707v-57.468h-2.68l-1.895-1.895-40.636 40.636c1.045 2.694 2.018 5.411 2.906 8.149l25.324-25.324c3.495-3.493 6.782-7.119 9.866-10.858z"/>
 <path d="m1007.6 745.18c-3.739 3.084-7.365 6.371-10.859 9.866l-25.324 25.324c2.739 0.889 5.455 1.861 8.149 2.906l40.636-40.636-1.895-1.895v-2.68h-57.468c-1.166 2.644-2.399 5.253-3.707 7.817h35.813c4.942 0 9.83-0.239 14.655-0.702z"/>
 <path d="m1007.6 898.92c-4.825-0.463-9.713-0.702-14.654-0.702h-35.813c1.308 2.565 2.541 5.173 3.707 7.817h57.468v-2.68l1.895-1.895-40.636-40.636c-2.694 1.045-5.411 2.018-8.149 2.906l25.324 25.324c3.493 3.495 7.118 6.782 10.858 9.866z"/>
 <path d="m898.92 1007.6c-3.084-3.739-6.372-7.365-9.866-10.859l-25.324-25.324c-0.889 2.739-1.861 5.455-2.906 8.149l40.636 40.636 1.895-1.895h2.68v-57.468c-2.644-1.166-5.253-2.399-7.817-3.707v35.813c0 4.942 0.239 9.83 0.702 14.655z"/>
 <path d="m745.18 1007.6c0.463-4.825 0.702-9.713 0.702-14.654v-35.813c-2.565 1.308-5.173 2.541-7.817 3.707v57.468h2.68l1.895 1.895 40.636-40.636c-1.045-2.694-2.018-5.411-2.906-8.149l-25.324 25.324c-3.495 3.493-6.782 7.118-9.866 10.858z"/>
 <path d="m636.46 898.92c3.739-3.084 7.365-6.372 10.859-9.866l25.324-25.324c-2.739-0.889-5.455-1.861-8.149-2.906l-40.636 40.636 1.895 1.895v2.68h57.468c1.166-2.644 2.399-5.253 3.707-7.817h-35.813c-4.942 0-9.83 0.239-14.655 0.702z"/>
 <path d="m636.46 745.18c4.825 0.463 9.713 0.702 14.654 0.702h35.813c-1.308-2.565-2.541-5.173-3.707-7.817h-57.468v2.68l-1.895 1.895 40.636 40.636c2.694-1.045 5.411-2.018 8.149-2.906l-25.324-25.324c-3.493-3.495-7.119-6.782-10.858-9.866z"/>
 <path d="m745.18 636.46c3.084 3.739 6.371 7.365 9.866 10.859l25.324 25.324c0.889-2.739 1.861-5.455 2.906-8.149l-40.636-40.636-1.895 1.895h-2.68v57.468c2.644 1.166 5.253 2.399 7.817 3.707v-35.813c0-4.942-0.239-9.83-0.702-14.655z"/>
 <polygon points="906.04 619.28 906.04 625.76 925.53 625.76 925.53 617.08 906.95 617.08 893.81 603.94 887.68 610.08 901.46 623.86"/>
 <polygon points="1024.8 738.06 1020.2 742.64 1034 756.42 1040.2 750.28 1027 737.15 1027 718.57 1018.3 718.57 1018.3 738.06"/>
 <polygon points="1024.8 906.04 1018.3 906.04 1018.3 925.53 1027 925.53 1027 906.95 1040.2 893.81 1034 887.68 1020.2 901.46"/>
 <polygon points="906.04 1024.8 901.46 1020.2 887.68 1034 893.81 1040.2 906.95 1027 925.53 1027 925.53 1018.3 906.04 1018.3"/>
 <polygon points="738.06 1024.8 738.06 1018.3 718.57 1018.3 718.57 1027 737.15 1027 750.28 1040.2 756.42 1034 742.64 1020.2"/>
 <polygon points="619.28 906.04 623.86 901.46 610.08 887.68 603.94 893.81 617.08 906.95 617.08 925.53 625.76 925.53 625.76 906.04"/>
 <polygon points="619.28 738.06 625.76 738.06 625.76 718.57 617.08 718.57 617.08 737.15 603.94 750.28 610.08 756.42 623.86 742.64"/>
 <polygon points="738.06 619.28 742.64 623.86 756.42 610.08 750.28 603.94 737.15 617.08 718.57 617.08 718.57 625.76 738.06 625.76"/>
 <path d="m925.53 718.57v-42.421c-6.693 1.924-13.199 4.298-19.492 7.074v35.859h18.98v18.98h35.859c2.776-6.293 5.15-12.799 7.074-19.492h-42.421z"/>
 <path d="m968.39 822.05l29.996-29.996c-6.093-3.372-12.372-6.294-18.785-8.781l-25.356 25.356 13.421 13.421-13.421 13.421 25.356 25.356c6.413-2.487 12.692-5.409 18.785-8.781l-29.996-29.996z"/>
 <path d="m925.53 925.53h42.421c-1.924-6.693-4.298-13.199-7.074-19.492h-35.859v18.98h-18.98v35.859c6.293 2.776 12.799 5.15 19.492 7.074v-42.421z"/>
 <path d="m822.05 968.39l29.996 29.996c3.372-6.093 6.294-12.372 8.781-18.785l-25.356-25.356-13.421 13.421-13.421-13.421-25.356 25.356c2.487 6.413 5.409 12.692 8.781 18.785l29.996-29.996z"/>
 <path d="m718.57 925.53v42.421c6.693-1.924 13.199-4.298 19.492-7.074v-35.859h-18.98v-18.98h-35.859c-2.776 6.293-5.15 12.799-7.074 19.492h42.421z"/>
 <path d="m675.71 822.05l-29.996 29.996c6.093 3.372 12.372 6.294 18.785 8.781l25.356-25.356-13.421-13.421 13.421-13.421-25.356-25.356c-6.413 2.487-12.692 5.409-18.785 8.781l29.996 29.996z"/>
 <path d="m718.57 718.57h-42.421c1.924 6.693 4.298 13.199 7.074 19.492h35.859v-18.98h18.98v-35.859c-6.293-2.776-12.799-5.15-19.492-7.074v42.421z"/>
 <path d="m822.05 675.71l-29.996-29.996c-3.372 6.093-6.294 12.372-8.781 18.785l25.356 25.356 13.421-13.421 13.421 13.421 25.356-25.356c-2.487-6.413-5.409-12.692-8.781-18.785l-29.996 29.996z"/>
 <path d="m1010.2 627.04c0.129-0.427 0.251-0.858 0.384-1.283h-85.038v50.394c9.766-2.807 19.92-4.671 30.357-5.484 14.505-18.343 33.065-33.349 54.297-43.627z"/>
 <path d="m817.19 551.12c-0.211-0.393-0.429-0.784-0.636-1.179l-60.131 60.131 35.634 35.634c4.921-8.89 10.783-17.388 17.588-25.344-2.714-23.226-0.201-46.961 7.545-69.242z"/>
 <path d="m627.04 633.92c-0.427-0.129-0.858-0.251-1.283-0.384v85.038h50.394c-2.807-9.766-4.671-19.92-5.484-30.357-18.343-14.505-33.349-33.065-43.627-54.297z"/>
 <path d="m551.12 826.91c-0.393 0.211-0.784 0.429-1.179 0.636l60.131 60.131 35.634-35.634c-8.89-4.921-17.388-10.783-25.344-17.588-23.226 2.714-46.961 0.201-69.242-7.545z"/>
 <path d="m633.92 1017.1c-0.129 0.427-0.251 0.858-0.384 1.283h85.038v-50.394c-9.766 2.807-19.92 4.671-30.357 5.484-14.505 18.343-33.065 33.349-54.297 43.627z"/>
 <path d="m826.91 1093c0.211 0.394 0.429 0.784 0.636 1.179l60.131-60.131-35.634-35.634c-4.921 8.89-10.783 17.388-17.588 25.344 2.714 23.226 0.201 46.961-7.545 69.242z"/>
 <path d="m1017.1 1010.2c0.427 0.129 0.858 0.251 1.283 0.384v-85.038h-50.394c2.807 9.766 4.671 19.92 5.484 30.357 18.343 14.505 33.349 33.065 43.627 54.297z"/>
 <path d="m1093 817.19c0.394-0.211 0.784-0.429 1.179-0.636l-60.131-60.131-35.634 35.634c8.89 4.921 17.388 10.783 25.344 17.588 23.226-2.714 46.961-0.201 69.242 7.545z"/>
 <path d="m1017.1 633.92c0.427-0.129 0.858-0.251 1.283-0.384v85.038h-50.394c2.807-9.766 4.671-19.92 5.484-30.357 18.343-14.505 33.349-33.065 43.627-54.297z"/>
 <path d="m826.91 551.12c0.211-0.393 0.429-0.784 0.636-1.179l60.131 60.131-35.634 35.634c-4.921-8.89-10.783-17.388-17.588-25.344 2.714-23.226 0.201-46.961-7.545-69.242z"/>
 <path d="m633.92 627.04c-0.129-0.427-0.251-0.858-0.384-1.283h85.038v50.394c-9.766-2.807-19.92-4.671-30.357-5.484-14.505-18.343-33.065-33.349-54.297-43.627z"/>
 <path d="m551.12 817.19c-0.393-0.211-0.784-0.429-1.179-0.636l60.131-60.131 35.634 35.634c-8.89 4.921-17.388 10.783-25.344 17.588-23.226-2.714-46.961-0.201-69.242 7.545z"/>
 <path d="m627.04 1010.2c-0.427 0.129-0.858 0.251-1.283 0.384v-85.038h50.394c-2.807 9.766-4.671 19.92-5.484 30.357-18.343 14.505-33.349 33.065-43.627 54.297z"/>
 <path d="m817.19 1093c-0.211 0.394-0.429 0.784-0.636 1.179l-60.131-60.131 35.634-35.634c4.921 8.89 10.783 17.388 17.588 25.344-2.714 23.226-0.201 46.961 7.545 69.242z"/>
 <path d="m1010.2 1017.1c0.129 0.427 0.251 0.858 0.384 1.283h-85.038v-50.394c9.766 2.807 19.92 4.671 30.357 5.484 14.505 18.343 33.065 33.349 54.297 43.627z"/>
 <path d="m1093 826.91c0.394 0.211 0.784 0.429 1.179 0.636l-60.131 60.131-35.634-35.634c8.89-4.921 17.388-10.783 25.344-17.588 23.226 2.714 46.961 0.201 69.242-7.545z"/>
 <path d="m1013.6 617.08h-1.873v5.2c0.592-1.749 1.221-3.48 1.873-5.2z"/>
 <path d="m812.54 541.69l-1.324 1.324 3.677 3.677c-0.818-1.654-1.597-3.323-2.353-5.001z"/>
 <path d="m617.08 630.53v1.873h5.2c-1.749-0.592-3.48-1.221-5.2-1.873z"/>
 <path d="m541.69 831.56l1.324 1.324 3.677-3.677c-1.654 0.819-3.323 1.598-5.001 2.353z"/>
 <path d="m630.53 1027h1.873v-5.2c-0.592 1.748-1.221 3.48-1.873 5.2z"/>
 <path d="m831.56 1102.4l1.324-1.324-3.677-3.677c0.819 1.654 1.598 3.323 2.353 5.001z"/>
 <path d="m1027 1013.6v-1.873h-5.2c1.748 0.592 3.48 1.221 5.2 1.873z"/>
 <path d="m1102.4 812.54l-1.324-1.324-3.677 3.677c1.654-0.818 3.323-1.597 5.001-2.353z"/>
 <path d="m1027 630.53v1.873h-5.2c1.748-0.592 3.48-1.221 5.2-1.873z"/>
 <path d="m831.56 541.69l1.324 1.324-3.677 3.677c0.819-1.654 1.598-3.323 2.353-5.001z"/>
 <path d="m630.53 617.08h1.873v5.2c-0.592-1.749-1.221-3.48-1.873-5.2z"/>
 <path d="m541.69 812.54l1.324-1.324 3.677 3.677c-1.654-0.818-3.323-1.597-5.001-2.353z"/>
 <path d="m617.08 1013.6v-1.873h5.2c-1.749 0.592-3.48 1.221-5.2 1.873z"/>
 <path d="m812.54 1102.4l-1.324-1.324 3.677-3.677c-0.818 1.654-1.597 3.323-2.353 5.001z"/>
 <path d="m1013.6 1027h-1.873v-5.2c0.592 1.748 1.221 3.48 1.873 5.2z"/>
 <path d="m1102.4 831.56l-1.324 1.324-3.677-3.677c1.654 0.819 3.323 1.598 5.001 2.353z"/>
 <path d="m1011.7 622.28c-0.39 1.153-0.768 2.311-1.131 3.476h1.131v-3.476z"/>
 <path d="m814.89 546.69c0.539 1.091 1.091 2.177 1.658 3.258l0.8-0.8-2.458-2.458z"/>
 <path d="m622.28 632.4c1.153 0.39 2.311 0.768 3.476 1.131v-1.131h-3.476z"/>
 <path d="m546.69 829.21c1.091-0.539 2.177-1.091 3.258-1.658l-0.8-0.8-2.458 2.458z"/>
 <path d="m632.4 1021.8c0.39-1.153 0.768-2.311 1.131-3.476h-1.131v3.476z"/>
 <path d="m829.21 1097.4c-0.539-1.091-1.091-2.177-1.658-3.258l-0.8 0.8 2.458 2.458z"/>
 <path d="m1021.8 1011.7c-1.153-0.39-2.311-0.768-3.476-1.131v1.131h3.476z"/>
 <path d="m1097.4 814.89c-1.091 0.539-2.177 1.091-3.258 1.658l0.8 0.8 2.458-2.458z"/>
 <path d="m1021.8 632.4c-1.153 0.39-2.311 0.768-3.476 1.131v-1.131h3.476z"/>
 <path d="m829.21 546.69c-0.539 1.091-1.091 2.177-1.658 3.258l-0.8-0.8 2.458-2.458z"/>
 <path d="m632.4 622.28c0.39 1.153 0.768 2.311 1.131 3.476h-1.131v-3.476z"/>
 <path d="m546.69 814.89c1.091 0.539 2.177 1.091 3.258 1.658l-0.8 0.8-2.458-2.458z"/>
 <path d="m622.28 1011.7c1.153-0.39 2.311-0.768 3.476-1.131v1.131h-3.476z"/>
 <path d="m814.89 1097.4c0.539-1.091 1.091-2.177 1.658-3.258l0.8 0.8-2.458 2.458z"/>
 <path d="m1011.7 1021.8c-0.39-1.153-0.768-2.311-1.131-3.476h1.131v3.476z"/>
 <path d="m1097.4 829.21c-1.091-0.539-2.177-1.091-3.258-1.658l0.8-0.8 2.458 2.458z"/>
 <path d="m1012.9 625.76h-1.22v0.572c0.406-0.192 0.812-0.384 1.22-0.572z"/>
 <path d="m818.21 548.28l-0.863 0.863 0.404 0.404c0.152-0.422 0.303-0.845 0.459-1.267z"/>
 <path d="m625.76 631.18v1.22h0.572c-0.192-0.407-0.384-0.812-0.572-1.22z"/>
 <path d="m548.28 825.89l0.863 0.863 0.404-0.404c-0.422-0.153-0.845-0.303-1.267-0.459z"/>
 <path d="m631.18 1018.3h1.22v-0.572c-0.407 0.191-0.812 0.384-1.22 0.572z"/>
 <path d="m825.89 1095.8l0.863-0.863-0.404-0.404c-0.153 0.423-0.303 0.846-0.459 1.267z"/>
 <path d="m1018.3 1012.9v-1.22h-0.572c0.191 0.406 0.384 0.812 0.572 1.22z"/>
 <path d="m1095.8 818.21l-0.863-0.863-0.404 0.404c0.423 0.152 0.846 0.303 1.267 0.459z"/>
 <path d="m1018.3 631.18v1.22h-0.572c0.191-0.407 0.384-0.812 0.572-1.22z"/>
 <path d="m825.89 548.28l0.863 0.863-0.404 0.404c-0.153-0.422-0.303-0.845-0.459-1.267z"/>
 <path d="m631.18 625.76h1.22v0.572c-0.407-0.192-0.812-0.384-1.22-0.572z"/>
 <path d="m548.28 818.21l0.863-0.863 0.404 0.404c-0.422 0.152-0.845 0.303-1.267 0.459z"/>
 <path d="m625.76 1012.9v-1.22h0.572c-0.192 0.406-0.384 0.812-0.572 1.22z"/>
 <path d="m818.21 1095.8l-0.863-0.863 0.404-0.404c0.152 0.423 0.303 0.846 0.459 1.267z"/>
 <path d="m1012.9 1018.3h-1.22v-0.572c0.406 0.191 0.812 0.384 1.22 0.572z"/>
 <path d="m1095.8 825.89l-0.863 0.863-0.404-0.404c0.423-0.153 0.846-0.303 1.267-0.459z"/>
 <path d="m1027 617.08h-11.935v7.703c2.367-1.045 4.764-2.032 7.19-2.959-0.927 2.426-1.914 4.823-2.959 7.19h7.703v-11.934z"/>
 <path d="m1111.9 822.05l-8.439-8.439-5.447 5.447c2.412 0.935 4.805 1.932 7.176 2.992-2.371 1.06-4.764 2.057-7.176 2.992l5.447 5.447 8.439-8.439z"/>
 <path d="m1027 1027v-11.935h-7.703c1.045 2.367 2.032 4.764 2.959 7.19-2.426-0.927-4.823-1.914-7.19-2.959v7.703h11.934z"/>
 <path d="m822.05 1111.9l8.439-8.439-5.447-5.447c-0.935 2.412-1.932 4.805-2.992 7.176-1.06-2.371-2.057-4.764-2.992-7.176l-5.447 5.447 8.439 8.439z"/>
 <path d="m617.08 1027h11.935v-7.703c-2.367 1.045-4.764 2.032-7.19 2.959 0.927-2.426 1.914-4.823 2.959-7.19h-7.703v11.934z"/>
 <path d="m532.18 822.05l8.439 8.439 5.447-5.447c-2.412-0.935-4.805-1.932-7.176-2.992 2.371-1.06 4.764-2.057 7.176-2.992l-5.447-5.447-8.439 8.439z"/>
 <path d="m617.08 617.08v11.935h7.703c-1.045-2.367-2.032-4.764-2.959-7.19 2.426 0.927 4.823 1.914 7.19 2.959v-7.703h-11.934z"/>
 <path d="m822.05 532.18l-8.439 8.439 5.447 5.447c0.935-2.412 1.932-4.805 2.992-7.176 1.06 2.371 2.057 4.764 2.992 7.176l5.447-5.447-8.439-8.439z"/>
 <path d="m898.22 745.88v-17.658h-23.197c-4.85 0-9.649 0.229-14.388 0.675-3.036-3.666-6.267-7.221-9.697-10.651l-16.403-16.403-12.486 12.486-12.486-12.486-16.403 16.403c-3.43 3.43-6.661 6.985-9.697 10.651-4.739-0.446-9.538-0.675-14.388-0.675h-23.197v17.658h-17.658v23.197c0 4.85 0.229 9.649 0.675 14.388-3.666 3.036-7.221 6.267-10.651 9.697l-16.403 16.403 12.486 12.486-12.486 12.486 16.403 16.403c3.43 3.43 6.985 6.661 10.651 9.697-0.446 4.739-0.675 9.538-0.675 14.388v23.197h17.658v17.658h23.197c4.85 0 9.649-0.229 14.388-0.675 3.036 3.666 6.267 7.221 9.697 10.651l16.403 16.403 12.486-12.486 12.486 12.486 16.403-16.403c3.43-3.43 6.661-6.985 9.697-10.651 4.739 0.446 9.538 0.675 14.388 0.675h23.197v-17.659h17.658v-23.197c0-4.85-0.229-9.649-0.675-14.388 3.666-3.036 7.221-6.267 10.651-9.697l16.403-16.403-12.486-12.486 12.486-12.486-16.403-16.403c-3.43-3.43-6.985-6.661-10.651-9.697 0.446-4.739 0.675-9.538 0.675-14.388v-23.197h-17.658zm-68.487 57.621v10.866h10.866l-7.683 7.683 7.683 7.683h-10.866v10.866l-7.683-7.683-7.683 7.683v-10.866h-10.867l7.683-7.683-7.683-7.683h10.866v-10.866l7.683 7.683 7.684-7.683z"/>
 <rect x="898.22" y="719.08" width="7.817" height="9.139"/>
 <rect transform="matrix(.7071 -.7071 .7071 .7071 -255.06 775.93)" x="805.19" y="691.28" width="7.817" height="9.139"/>
 <rect x="719.08" y="738.06" width="9.139" height="7.817"/>
 <rect transform="matrix(.7071 -.7071 .7071 .7071 -386.63 736.6)" x="691.28" y="831.09" width="9.139" height="7.817"/>
 <rect x="738.06" y="915.88" width="7.817" height="9.139"/>
 <rect transform="matrix(.7071 -.7071 .7071 .7071 -425.95 868.17)" x="831.09" y="943.68" width="7.817" height="9.139"/>
 <rect x="915.88" y="898.22" width="9.139" height="7.817"/>
 <rect transform="matrix(.7071 -.7071 .7071 .7071 -294.38 907.49)" x="943.68" y="805.19" width="9.139" height="7.817"/>
 <rect x="915.88" y="738.06" width="9.139" height="7.817"/>
 <rect transform="matrix(.7071 -.7071 .7071 .7071 -247.47 794.24)" x="830.43" y="691.94" width="9.139" height="7.817"/>
 <rect x="738.06" y="719.08" width="7.817" height="9.139"/>
 <rect transform="matrix(.7071 -.7071 .7071 .7071 -368.31 729.02)" x="691.94" y="804.53" width="7.817" height="9.139"/>
 <rect x="719.08" y="898.22" width="9.139" height="7.817"/>
 <rect transform="matrix(.7071 -.7071 .7071 .7071 -433.54 849.85)" x="804.53" y="944.34" width="9.139" height="7.817"/>
 <rect x="898.22" y="915.88" width="7.817" height="9.139"/>
 <rect transform="matrix(.7071 -.7071 .7071 .7071 -312.7 915.08)" x="944.34" y="830.43" width="7.817" height="9.139"/>
 <rect x="906.04" y="728.22" width="9.841" height="9.841"/>
 <rect transform="matrix(.7071 -.7071 .7071 .7071 -303.68 910.96)" x="942.86" y="817.13" width="9.841" height="9.841"/>
 <rect x="906.04" y="906.04" width="9.841" height="9.841"/>
 <rect transform="matrix(.7071 -.7071 .7071 .7071 -429.41 858.88)" x="817.13" y="942.86" width="9.841" height="9.841"/>
 <rect x="728.22" y="906.04" width="9.841" height="9.841"/>
 <rect transform="matrix(.7071 -.7071 .7071 .7071 -377.33 733.14)" x="691.39" y="817.13" width="9.841" height="9.841"/>
 <rect x="728.22" y="728.22" width="9.841" height="9.841"/>
 <rect transform="matrix(.7071 -.7071 .7071 .7071 -251.6 785.22)" x="817.13" y="691.39" width="9.841" height="9.841"/>
 <path d="m1011.7 632.4v-6.074c-0.505 0.238-1.013 0.468-1.515 0.711-0.935 3.092-1.774 6.224-2.515 9.393 3.169-0.741 6.301-1.581 9.393-2.515 0.243-0.502 0.474-1.01 0.711-1.515h-6.074z"/>
 <path d="m1090.3 822.05l4.295-4.295c-0.525-0.189-1.048-0.385-1.574-0.568-2.847 1.526-5.656 3.147-8.421 4.863 2.765 1.717 5.573 3.338 8.421 4.863 0.527-0.183 1.049-0.379 1.574-0.568l-4.295-4.295z"/>
 <path d="m1011.7 1011.7h6.074c-0.238-0.505-0.468-1.013-0.711-1.515-3.092-0.935-6.224-1.774-9.393-2.515 0.741 3.169 1.581 6.301 2.515 9.393 0.502 0.243 1.01 0.474 1.515 0.711v-6.074z"/>
 <path d="m822.05 1090.3l4.295 4.295c0.189-0.525 0.385-1.048 0.568-1.574-1.526-2.847-3.147-5.656-4.863-8.421-1.717 2.765-3.338 5.573-4.863 8.421 0.183 0.527 0.379 1.049 0.568 1.574l4.295-4.295z"/>
 <path d="m632.4 1011.7v6.074c0.505-0.238 1.013-0.468 1.515-0.711 0.935-3.092 1.774-6.224 2.515-9.393-3.169 0.741-6.301 1.581-9.393 2.515-0.243 0.502-0.474 1.01-0.711 1.515h6.074z"/>
 <path d="m553.85 822.05l-4.295 4.295c0.525 0.189 1.048 0.385 1.574 0.568 2.847-1.526 5.656-3.147 8.421-4.863-2.765-1.717-5.573-3.338-8.421-4.863-0.527 0.183-1.049 0.379-1.574 0.568l4.295 4.295z"/>
 <path d="m632.4 632.4h-6.074c0.238 0.505 0.468 1.013 0.711 1.515 3.092 0.935 6.224 1.774 9.393 2.515-0.741-3.169-1.581-6.301-2.515-9.393-0.502-0.243-1.01-0.474-1.515-0.711v6.074z"/>
 <path d="m822.05 553.85l-4.295-4.295c-0.189 0.525-0.385 1.048-0.568 1.574 1.526 2.847 3.147 5.656 4.863 8.421 1.717-2.765 3.338-5.573 4.863-8.421-0.183-0.527-0.379-1.049-0.568-1.574l-4.295 4.295z"/>
 <path d="m1015.1 624.78c-0.725 0.32-1.448 0.642-2.167 0.973h2.167v-0.973z"/>
 <path d="m819.06 546.06c-0.286 0.739-0.57 1.478-0.845 2.22l1.533-1.533-0.688-0.687z"/>
 <path d="m624.78 629.01c0.32 0.725 0.642 1.448 0.973 2.167v-2.167h-0.973z"/>
 <path d="m546.06 825.04c0.739 0.286 1.478 0.57 2.22 0.845l-1.533-1.533-0.687 0.688z"/>
 <path d="m629.01 1019.3c0.725-0.32 1.448-0.642 2.167-0.973h-2.167v0.973z"/>
 <path d="m825.04 1098c0.286-0.739 0.57-1.478 0.845-2.22l-1.533 1.533 0.688 0.687z"/>
 <path d="m1019.3 1015.1c-0.32-0.725-0.642-1.448-0.973-2.167v2.167h0.973z"/>
 <path d="m1098 819.06c-0.739-0.286-1.478-0.57-2.22-0.845l1.533 1.533 0.687-0.688z"/>
 <path d="m1019.3 629.01c-0.32 0.725-0.642 1.448-0.973 2.167v-2.167h0.973z"/>
 <path d="m825.04 546.06c0.286 0.739 0.57 1.478 0.845 2.22l-1.533-1.533 0.688-0.687z"/>
 <path d="m629.01 624.78c0.725 0.32 1.448 0.642 2.167 0.973h-2.167v-0.973z"/>
 <path d="m546.06 819.06c0.739-0.286 1.478-0.57 2.22-0.845l-1.533 1.533-0.687-0.688z"/>
 <path d="m624.78 1015.1c0.32-0.725 0.642-1.448 0.973-2.167v2.167h-0.973z"/>
 <path d="m819.06 1098c-0.286-0.739-0.57-1.478-0.845-2.22l1.533 1.533-0.688 0.687z"/>
 <path d="m1015.1 1019.3c-0.725-0.32-1.448-0.642-2.167-0.973h2.167v0.973z"/>
 <path d="m1098 825.04c-0.739 0.286-1.478 0.57-2.22 0.845l1.533-1.533 0.687 0.688z"/>
 <rect x="1015.1" y="625.76" width="3.259" height="3.259"/>
 <rect transform="matrix(.7071 -.7071 .7071 .7071 -259.87 1016.7)" x="1095.7" y="820.42" width="3.259" height="3.259"/>
 <rect x="1015.1" y="1015.1" width="3.259" height="3.259"/>
 <rect transform="matrix(.7071 -.7071 .7071 .7071 -535.17 902.68)" x="820.42" y="1095.7" width="3.259" height="3.259"/>
 <rect x="625.76" y="1015.1" width="3.259" height="3.259"/>
 <rect transform="matrix(.7071 -.7071 .7071 .7071 -421.14 627.38)" x="545.12" y="820.42" width="3.259" height="3.259"/>
 <rect x="625.76" y="625.76" width="3.259" height="3.259"/>
 <rect transform="matrix(.7071 -.7071 .7071 .7071 -145.84 741.42)" x="820.42" y="545.12" width="3.259" height="3.259"/>
 <path d="m973.9 670.2h-5.999c-4.043 0-8.051 0.16-12.018 0.469-9.67 12.229-17.532 25.944-23.181 40.729 14.785-5.649 28.5-13.51 40.729-23.181 0.309-3.967 0.469-7.975 0.469-12.018v-5.999z"/>
 <path d="m1036.8 822.05l-4.242-4.242c-2.859-2.859-5.806-5.58-8.829-8.166-15.486 1.809-30.742 5.948-45.191 12.409 14.449 6.46 29.706 10.599 45.191 12.408 3.024-2.587 5.971-5.307 8.829-8.166l4.242-4.243z"/>
 <path d="m973.9 973.9v-5.999c0-4.043-0.16-8.051-0.469-12.018-12.229-9.67-25.944-17.532-40.729-23.181 5.649 14.785 13.51 28.5 23.181 40.729 3.967 0.309 7.975 0.469 12.018 0.469h5.999z"/>
 <path d="m822.05 1036.8l4.242-4.242c2.859-2.859 5.58-5.806 8.166-8.829-1.809-15.486-5.948-30.742-12.408-45.191-6.461 14.449-10.599 29.706-12.409 45.191 2.587 3.024 5.307 5.971 8.166 8.829l4.243 4.242z"/>
 <path d="m670.2 973.9h5.999c4.043 0 8.051-0.16 12.018-0.469 9.67-12.229 17.532-25.944 23.181-40.729-14.785 5.649-28.5 13.51-40.729 23.181-0.309 3.967-0.469 7.975-0.469 12.018v5.999z"/>
 <path d="m607.3 822.05l4.242 4.242c2.859 2.859 5.805 5.58 8.829 8.166 15.486-1.809 30.742-5.948 45.191-12.408-14.449-6.461-29.706-10.599-45.191-12.409-3.024 2.587-5.971 5.307-8.829 8.166l-4.242 4.243z"/>
 <path d="m670.2 670.2v5.999c0 4.043 0.16 8.051 0.469 12.018 12.229 9.67 25.944 17.532 40.729 23.181-5.649-14.785-13.51-28.5-23.181-40.729-3.967-0.309-7.975-0.469-12.018-0.469h-5.999z"/>
 <path d="m822.05 607.3l-4.242 4.242c-2.859 2.859-5.58 5.805-8.166 8.829 1.809 15.486 5.948 30.742 12.409 45.191 6.46-14.449 10.599-29.706 12.408-45.191-2.587-3.024-5.307-5.971-8.166-8.829l-4.243-4.242z"/>
</svg>
