<?xml version="1.0" encoding="UTF-8" standalone="no"?>
<svg
   xmlns:dc="http://purl.org/dc/elements/1.1/"
   xmlns:cc="http://creativecommons.org/ns#"
   xmlns:rdf="http://www.w3.org/1999/02/22-rdf-syntax-ns#"
   xmlns:svg="http://www.w3.org/2000/svg"
   xmlns="http://www.w3.org/2000/svg"
   id="svg194"
   viewBox="0 0 1665.098 1654.304"
   version="1.1"
   enable-background="new 0 0 1665.098 1654.304">
  <metadata
     id="metadata200">
    <rdf:RDF>
      <cc:Work
         rdf:about="">
        <dc:format>image/svg+xml</dc:format>
        <dc:type
           rdf:resource="http://purl.org/dc/dcmitype/StillImage" />
        <dc:title></dc:title>
      </cc:Work>
    </rdf:RDF>
  </metadata>
  <defs
     id="defs198" />
  <path
     style="fill:#a21a5a"
     id="path2"
     d="m 1455.2,1055.3 c -15.425,-2.267 -20.874,29.785 -8.329,33.585 12.545,3.799 20.367,-9.652 24.901,3.106 3.051,8.586 -0.32,27.596 -5.665,43.223 10.425,1.148 20.217,0.936 25.854,-1.2 13.608,-5.156 1.701,-12.516 4.877,-24.368 3.177,-11.852 33.358,-5.511 31.507,9.912 -1.851,15.423 -17.883,7.629 -4.363,16.844 5.976,4.073 17.826,7.972 30.256,10.741 6.129,-14.603 15.522,-30.437 12.919,-38.466 -4.044,-12.476 -4.293,-3.144 -15.804,-5.13 -11.511,-1.986 -9.111,-32.7 4.679,-32.567 13.79,0.132 9.956,16.662 18.805,2.632 3.081,-4.886 3.447,-12.096 2.935,-19.867 -13.89,-2.435 -28.513,-7.044 -35.563,-12.169 -12.93,-9.4 -0.487,-5.216 0.767,-20.473 1.254,-15.258 -31.039,-11.927 -32.995,-0.414 -1.956,11.513 12.461,16.047 -0.119,20.311 -5.27,1.786 -16.049,1.017 -27.805,-1.148 -1.748,7.425 -4.139,14.071 -7.13,18.402 -9.265,13.412 -4.303,-0.687 -19.727,-2.954 z" />
  <path
     style="fill:#143a9e"
     id="path4"
     d="m 665.76997,1014.1 c 1.72,-15.496 -30.50497,-19.807 -33.85897,-7.135 -3.353,12.671 10.367,20.013 -2.222,24.995 -8.473,3.353 -27.591,0.656 -43.397,-4.132 -0.779,10.459 -0.22,20.237 2.114,25.795 5.635,13.417 12.569,1.257 24.525,4.012 11.957,2.756 6.688,33.142 -8.791,31.838 -15.479,-1.304 -8.257,-17.602 -16.988,-3.765 -3.859,6.117 -7.337,18.097 -9.664,30.617 14.811,5.608 30.967,14.435 38.899,11.55 12.325,-4.483 2.99,-4.401 4.567,-15.976 1.577,-11.574 32.357,-10.263 32.712,3.524 0.356,13.786 -16.3,10.54 -1.965,18.886 4.992,2.907 12.21,3.016 19.95897,2.23 1.942,-13.967 6.031,-28.745 10.903,-35.971 8.937,-13.255 5.195,-0.671 20.488,0.042 15.293,0.714 10.821,-31.442 -0.754,-32.989 -11.575,-1.547 -15.596,13.021 -20.302,0.6 -1.972,-5.203 -1.584,-16.003 0.163,-27.828 -7.482,-1.484 -14.209,-3.638 -18.64297,-6.474 -13.732,-8.783 0.535,-4.324 2.25497,-19.819 z" />
  <path
     style="fill:#1290c6"
     id="path6"
     d="m 194.18,344.24 c -15.511,1.579 -12.945,33.99 0.149,34.602 13.093,0.611 17.383,-14.346 24.903,-3.087 5.061,7.577 6.448,26.835 5.093,43.294 10.389,-1.44 19.83,-4.043 24.772,-7.495 11.931,-8.332 -1.416,-12.552 -1.239,-24.82 0.178,-12.269 30.993,-13.512 32.975,1.895 1.982,15.407 -15.47,11.776 -0.105,17.4 6.792,2.486 19.235,3.364 31.965,3.005 2.366,-15.659 7.596,-33.311 3.106,-40.459 -6.977,-11.106 -4.932,-1.997 -16.579,-1.103 -11.647,0.894 -16.841,-29.473 -3.439,-32.721 13.403,-3.249 13.734,13.717 18.877,-2.054 1.791,-5.492 0.38,-12.572 -2.02,-19.981 -14.063,1.04 -29.37,0.153 -37.46,-3.089 -14.839,-5.947 -1.749,-4.938 -4.27,-20.038 -2.52,-15.1 -33.014,-3.963 -32.092,7.679 0.923,11.642 16.011,12.506 4.859,19.721 -4.672,3.023 -15.311,4.916 -27.239,5.696 0.124,7.627 -0.567,14.656 -2.406,19.587 -5.697,15.274 -4.34,0.389 -19.85,1.968 z" />
  <path
     style="fill:#6684a6"
     id="path8"
     d="m 1036.2,636.86 c -4.985,14.773 25.579,25.857 31.558,14.192 5.978,-11.665 -5.861,-21.763 7.502,-23.946 8.993,-1.469 27.096,5.243 41.517,13.292 2.991,-10.052 4.531,-19.725 3.436,-25.652 -2.644,-14.31 -12.011,-3.908 -23.105,-9.15 -11.094,-5.242 0.534,-33.806 15.379,-29.231 14.844,4.575 4.313,18.958 15.795,7.301 5.075,-5.153 11.027,-16.116 15.971,-27.852 -13.274,-8.638 -27.176,-20.708 -35.541,-19.58 -12.998,1.752 -3.86,3.662 -7.869,14.634 -4.009,10.972 -33.801,3.126 -31.208,-10.419 2.593,-13.545 18.172,-6.821 5.947,-18.033 -4.257,-3.904 -11.286,-5.551 -19.024,-6.435 -4.876,13.232 -12.022,26.797 -18.323,32.818 -11.558,11.044 -5.219,-0.452 -20.007,-4.41 -14.789,-3.958 -17.277,28.41 -6.299,32.391 10.979,3.98 18.014,-9.395 19.963,3.744 0.817,5.504 -1.865,15.973 -6.094,27.153 6.994,3.045 13.106,6.585 16.833,10.301 11.541,11.51 -1.446,4.11 -6.431,18.882 z" />
  <path
     style="fill:#8052c6"
     id="path10"
     d="m 949.76997,639.35 c 15.933,-4.81 5.804,-0.373 15.73,11.637 9.925,12.01 29.967,-11.076 23.068,-20.611 -6.899,-9.535 -18.732,1.744 -13.389,-11.576 3.212,-8.008 15.598,-19.992 28.41503,-29.368 -6.87803,-7.57 -13.88003,-13.645 -19.19003,-15.786 -13.849,-5.585 -2.03,5.652 -13.378,12.344 -11.348,6.692 -33.691,-19.509 -23.048,-29.993 10.643,-10.485 19.443,2.468 16.593,-12.936 -1.669,-9.023 -10.518,-23.057 -20.277,-34.226 -14.507,7.893 -29.85,19.613 -33.412,28 -5.292,12.463 9.569,7.848 16.238,19.132 6.669,11.285 -19.027,31.204 -28.854,19.099 -9.826,-12.104 3.366,-19.131 -12.53,-15.521 -5.132,1.166 -11.389,4.443 -17.699,8.729 9.977,13.242 19.522,29.733 21.822,39.022 3.959,15.985 -0.905,1.332 -12.55,11.539 -11.645,10.207 5.544,33.853 17.37,26.893 11.826,-6.96 4.199,-18.004 17.186,-12.726 6.452,2.622 12.302,14.526 18.333,26.611 6.093,-9.324 12.486,-18.124 19.572,-20.263 z" />
  <path
     style="fill:#8004a2"
     id="path12"
     d="m 857.07997,1521.1 c -11.978,-11.555 -3.16,-4.883 2.474,-19.409 5.634,-14.526 -24.299,-20.742 -29.251,-10.066 -4.952,10.676 10.669,15.495 -3.564,17.337 -8.556,1.107 -25.063,-3.85 -39.504,-10.456 -3.248,9.699 -5.129,18.776 -4.405,24.455 1.889,14.813 5.924,-0.989 17.305,5.646 11.382,6.635 -0.572,38.928 -14.919,34.76 -14.347,-4.168 -7.34,-18.172 -19.392,-8.163 -7.059,5.863 -14.985,20.438 -19.966,34.408 13.972,8.806 31.692,16.472 40.75,15.484 13.46,-1.468 2.176,-12.182 8.767,-23.512 6.591,-11.33 36.522,1.367 30.757,15.853 -5.765,14.486 -18.339,6.405 -7.425,18.514 3.524,3.91 9.439,7.769 16.26,11.183 6.684,-15.173 16.414,-31.556 23.397,-38.099 12.017,-11.26 1.604,0.14 16.198,5.317 14.594,5.178 26.835,-21.369 14.986,-28.291 -11.849,-6.922 -17.762,5.128 -19.498,-8.783 -0.863,-6.911 6.669,-17.829 14.27,-28.993 -11.112,-0.765 -21.913,-2.046 -27.24,-7.185 z" />
  <path
     style="fill:#300a8e"
     id="path14"
     d="m 873.74997,1140.8 c 4.121,16.125 0.124,5.815 -12.302,15.215 -12.425,9.4 9.779,30.415 19.601,23.932 9.823,-6.483 -0.938,-18.79 12.141,-12.88 7.862,3.553 19.303,16.443 28.12,29.65 7.859,-6.546 14.229,-13.281 16.596,-18.494 6.174,-13.596 -5.56,-2.271 -11.758,-13.896 -6.199,-11.625 20.938,-32.822 30.956,-21.738 10.018,11.084 -3.301,19.319 12.211,17.133 9.087,-1.28 23.488,-9.518 35.06603,-18.788 -7.26303,-14.833 -18.31203,-30.665 -26.53903,-34.584 -12.224,-5.822 -8.251,9.223 -19.812,15.401 -11.561,6.178 -30.358,-20.35 -17.842,-29.648 12.515,-9.297 18.969,4.185 16.045,-11.852 -0.944,-5.178 -3.95,-11.57 -7.961,-18.058 -13.658,9.399 -30.544,18.227 -39.923,20.126 -16.141,3.268 -1.292,-0.962 -10.989,-13.034 -9.697,-12.072 -34.06,4.084 -27.615,16.199 6.445,12.114 17.807,4.968 11.976,17.717 -2.897,6.333 -15.042,11.667 -27.374,17.173 9.053,6.489 17.57,13.254 19.403,20.426 z" />
  <path
     style="fill:#f4f412"
     id="path16"
     d="m 1430.9,404.95 c 13.963,-9.057 5.471,-1.975 18.348,6.796 12.877,8.771 25.696,-18.984 16.415,-26.22 -9.281,-7.236 -17.505,6.892 -16.084,-7.389 0.855,-8.585 9.413,-23.545 19.111,-36.119 -8.714,-5.355 -17.131,-9.239 -22.828,-9.817 -14.856,-1.507 -0.375,5.994 -9.411,15.582 -9.035,9.588 -37.792,-9.353 -30.49,-22.388 7.302,-13.034 19.361,-3.045 12.334,-17.046 -4.116,-8.202 -16.524,-19.216 -29.007,-27.225 -11.735,11.621 -23.207,27.15 -24.292,36.198 -1.611,13.443 11.376,4.872 20.923,13.853 9.548,8.981 -9.584,35.269 -22.393,26.38 -12.808,-8.889 -2.095,-19.312 -16.357,-11.417 -4.605,2.549 -9.701,7.439 -14.568,13.313 13.27,9.939 27.031,23.12 31.827,31.4 8.254,14.25 -0.499,1.531 -8.84,14.577 -8.341,13.046 14.753,30.97 24.173,20.991 9.42,-9.978 -0.982,-18.461 12.961,-17.009 6.927,0.721 15.861,10.525 25.019,20.452 3.26,-10.651 6.948,-20.883 13.159,-24.912 z" />
  <path
     style="fill:#28d408"
     id="path18"
     d="m 728.57997,1165.5 c 1.105,16.551 -5.525,0.932 -16.751,8.941 -11.226,8.01 4.912,34.252 15.387,29.082 10.475,-5.17 5.182,-12.861 15.796,-5.156 6.83,4.959 8.556,23.288 12.198,38.701 14.742,-6.411 29.173,-14.822 33.552,-20.528 7.849,-10.227 -7.079,-6.169 -11.382,-18.45 -4.302,-12.281 25.628,-30.447 32.956,-16.693 7.328,13.755 -7.047,18.676 9.436,17.858 7.08,-0.351 17.233,-4.728 27.122,-10.454 -2.904,-14.197 -3.201,-31.326 -10.506,-36.315 -11.195,-7.646 -6.174,0.667 -17.511,5.12 -11.337,4.452 -30.302,-21.201 -18.116,-29.42 12.186,-8.219 19.643,6.551 19.266,-9.729 -0.136,-5.864 -2.755,-13.204 -6.551,-20.553 -12.717,7.889 -27.913,14.826 -37.326,16.067 -16.425,2.166 -5.407,-3.272 -13.627,-15.388 -8.22,-12.116 -30.697,-0.503 -26.188,10.714 4.509,11.218 13.881,11.24 6.229,22.166 -3.48,4.969 -12.742,11.069 -23.305,16.247 4.988,5.983 8.936,12.027 9.321,17.79 z" />
  <path
     style="fill:#e67052"
     id="path20"
     d="m 1095.9,1435 c -16.531,-1.376 -0.097,-5.602 -6.343,-17.897 -6.246,-12.295 -34.602,-0.252 -31.052,10.877 3.55,11.129 11.944,7.043 2.742,16.388 -5.922,6.014 -24.304,4.987 -40.087,6.289 4.14,15.534 10.305,31.057 15.294,36.239 8.942,9.287 7.156,-6.08 19.941,-8.502 12.785,-2.422 26.284,29.883 11.59,35.077 -14.694,5.195 -17.417,-9.754 -19.065,6.667 -0.708,7.053 2.105,17.745 6.292,28.377 14.471,-0.755 31.453,1.507 37.476,-4.972 9.23,-9.929 0.261,-6.204 -2.451,-18.079 -2.712,-11.875 25.483,-26.801 31.792,-13.526 6.309,13.276 -9.407,18.447 6.746,20.502 5.819,0.74 13.467,-0.755 21.3,-3.412 -5.904,-13.751 -10.496,-29.812 -10.319,-39.305 0.308,-16.565 4.042,-4.858 17.248,-11.179 13.206,-6.321 5.076,-30.278 -6.688,-27.493 -11.765,2.785 -13.184,12.049 -22.847,2.854 -4.395,-4.182 -9.045,-14.25 -12.589,-25.468 -6.658,4.039 -13.223,7.042 -18.98,6.563 z" />
  <path
     style="fill:#841624"
     id="path22"
     d="m 635.35,573.12 c 15.909,-4.698 2.117,5.188 12.388,14.39 10.271,9.203 32.34897,-12.284 25.01297,-21.375 -7.336,-9.09 -13.68297,-2.244 -8.48497,-14.286 3.34497,-7.75 20.85297,-13.442 35.09597,-20.366 -9.479,-12.984 -20.843,-25.225 -27.369,-28.251 -11.69597,-5.423 -4.471,8.257 -15.51397,15.141 -11.043,6.883 -35.315,-18.349 -23.496,-28.508 11.819,-10.159 19.765,2.792 15.362,-13.113 -1.891,-6.832 -8.383,-15.781 -16.132,-24.179 -13.218,5.939 -29.868,9.975 -33.139,18.194 -5.013,12.596 2.001,5.878 8.825,15.967 6.824,10.089 -14.061,34.205 -24.745,24.112 -10.685,-10.094 2.096,-20.6 -13.706,-16.672 -5.692,1.415 -12.281,5.576 -18.622,10.887 10.479,10.684 20.571,23.995 23.841,32.909 5.705,15.554 -2.01,5.992 -12.035,16.662 -10.025,10.671 6.222,30.064 16.182,23.211 9.96,-6.853 7.932,-16.003 20.267,-10.926 5.61,2.309 13.587,10.013 20.951,19.188 4.745,-6.174 9.778,-11.349 15.318,-12.985 z" />
  <path
     style="fill:#eaeae6"
     id="path24"
     d="m 1235.2,1004.9 c 14.482,8.089 -2.229,5.141 -1.627,18.918 0.602,13.778 31.399,14.54 32.77,2.94 1.371,-11.601 -7.962,-11.352 4.281,-16.055 7.879,-3.026 24.19,5.511 39.099,10.854 2.655,-15.855 3.463,-32.539 1.063,-39.32 -4.3,-12.154 -9.03,2.576 -21.672,-0.506 -12.642,-3.083 -11.571,-38.078 3.955,-36.73 15.527,1.348 11.823,16.084 20.116,1.816 3.562,-6.128 5.423,-17.027 6.009,-28.439 -13.487,-5.298 -28.014,-14.381 -36.177,-10.973 -12.511,5.223 -2.804,5.541 -5.246,17.474 -2.443,11.933 -34.286,13.862 -34.54,-0.835 -0.254,-14.696 16.194,-12.904 2.337,-21.456 -4.991,-3.081 -12.573,-4.883 -20.804,-5.703 -0.312,14.962 -2.773,31.484 -6.861,40.054 -7.132,14.954 -5.689,2.752 -20.328,3.045 -14.638,0.293 -17.145,25.468 -5.281,27.797 11.863,2.33 16.987,-5.517 21.982,6.851 2.272,5.625 2.341,16.715 0.929,28.394 7.733,-0.924 14.952,-0.943 19.995,1.874 z" />
  <path
     style="fill:#16a4fc"
     id="path26"
     d="m 1293.8,1133.3 c -11.175,9.549 10.579,32.884 21.338,27.173 10.759,-5.71 4.826,-13.4 16.817,-7.074 7.824,4.128 10.063,21.113 14.56,34.888 12.186,-9.045 23.639,-20.404 27.295,-26.985 6.41,-11.536 -1.562,-2.585 -7.303,-14.563 -5.742,-11.979 14.071,-28.849 23.166,-16.267 9.095,12.583 -6.007,18.37 10.177,14.586 10.105,-2.363 23.813,-17.912 36.236,-29.531 -5.815,-8.845 -12.797,-16.447 -18.948,-19.558 -12.634,-6.39 -9.677,3.58 -21.761,9.363 -12.084,5.782 -30.955,-18.599 -18.125,-27.445 12.83,-8.846 23.776,8.318 20.35,-7.968 -1.799,-8.549 -8.402,-21.934 -16.009,-33.639 -11.453,13.764 -24.126,30.878 -33.767,32.103 -16.03,2.036 1.361,-9.565 -8.185,-21.067 -9.545,-11.501 -33.552,5.918 -27.789,17.952 5.763,12.035 16.274,4.535 9.923,16.99 -2.711,5.317 -10.032,12.599 -18.777,19.512 4.605,6.871 8.041,13.866 8.841,19.676 2.221,16.133 -6.864,2.305 -18.039,11.854 z" />
  <path
     style="fill:#48d43a"
     id="path28"
     d="m 850.92997,1242.2 c -14.662,1.033 -11.047,32.729 0.998,34.536 12.046,1.806 11.848,-7.904 17.727,4.312 3.836,7.971 -4.463,22.959 -9.039,36.708 15.176,-0.027 31.138,-2.349 37.992,-5.466 12.013,-5.464 0.281,-3.007 2.788,-16.052 2.506,-13.045 28.467,-14.828 28.298,0.696 -0.169,15.525 -15.752,11.198 -0.491,17.778 9.529,4.109 29.797,-0.242 46.694,-2.197 0.584,-10.569 -0.509,-20.833 -3.605,-26.991 -6.358,-12.65 -9.909,-2.875 -23.064,-5.411 -13.154,-2.536 -13.829,-33.36 1.746,-32.844 15.576,0.517 14.171,20.825 21.099,5.694 3.637,-7.943 6.287,-22.631 7.13,-36.565 -17.393,4.256 -37.758,10.481 -46.238,5.733 -14.099,-7.895 6.781,-6.882 5.946,-21.805 -0.836,-14.923 -30.495,-15.192 -33.017,-2.09 -2.523,13.103 10.387,13.323 -2.124,19.561 -5.342,2.663 -15.557,4.165 -26.699,4.523 -0.383,8.263 -1.78,15.929 -4.592,21.077 -7.804,14.29 -6.886,-2.23 -21.549,-1.197 z" />
  <path
     style="fill:#6ea8d0"
     id="path30"
     d="m 860.50997,29.208 c -11.294,-9.407 -30.633,15.965 -23.192,25.609 7.441,9.644 14.021,2.501 9.805,15.385 -2.751,8.408 -19.117,13.475 -31.938,20.227 10.968,10.489 24.093,19.865 31.196,22.362 12.451,4.376 2.285,-1.975 13.126,-9.651 10.841,-7.677 30.807,9.012 19.935,20.096 -10.872,11.084 -19.119,-2.828 -12.664,12.487 4.031,9.563 21.666,20.457 35.211,30.746 7.739,-7.222 14.057,-15.384 16.088,-21.97 4.172,-13.529 -5.159,-8.936 -12.894,-19.874 -7.735,-10.938 13.121,-33.645 24.001,-22.488 10.88,11.158 -4.195,24.837 11.281,18.717 8.124,-3.213 20.206,-11.975 30.463,-21.445 -15.496,-8.972 -34.5,-18.582 -37.331,-27.879 -4.706,-15.458 9.658,-0.27 19.388,-11.616 9.73,-11.346 -11.483,-32.076 -22.375,-24.369 -10.893,7.707 -1.73,16.805 -15.077,12.642 -5.698,-1.777 -14.108,-7.767 -22.396,-15.223 -5.997,5.697 -12.314,10.261 -17.907,12.028 -15.526,4.908 -3.426,-6.376 -14.72,-15.784 z" />
  <path
     style="fill:#201c2c"
     id="path32"
     d="m 1282.7,783.3 c -8.282,-12.143 -33.836,6.955 -29.325,18.269 4.512,11.314 12.799,6.249 5.211,17.484 -4.951,7.331 -22.079,7.717 -36.26,10.696 7.672,13.094 17.724,25.709 23.87,30.058 10.774,7.622 2.739,-1.273 15.269,-5.683 12.53,-4.411 27.156,17.112 13.662,24.791 -13.494,7.679 -17.611,-7.961 -15.602,8.537 1.255,10.301 15.228,25.613 25.433,39.221 9.422,-4.823 17.736,-10.94 21.495,-16.718 7.721,-11.867 -2.511,-10.008 -6.951,-22.647 -4.44,-12.64 21.843,-28.759 29.247,-15.046 7.405,13.713 -10.844,22.736 5.717,21.093 8.694,-0.862 22.715,-5.977 35.175,-12.272 -12.442,-12.877 -28.084,-27.328 -28.257,-37.045 -0.288,-16.156 9.362,2.388 21.829,-5.855 12.467,-8.244 -2.249,-33.995 -14.837,-29.57 -12.588,4.426 -6.271,15.687 -17.965,8.025 -4.992,-3.271 -11.438,-11.337 -17.364,-20.78 -7.329,3.834 -14.655,6.492 -20.518,6.658 -16.277,0.461 -1.546,-7.073 -9.829,-19.216 z" />
  <path
     style="fill:#86c80e"
     id="path34"
     d="m 341.72,819.15 c -5.765,14.479 23.464,24.29 30.308,12.774 6.844,-11.516 -1.149,-18.17 12.908,-19.865 6.843,-0.825 16.87,1.625 26.615,5.756 2.338,-9.961 5.079,-18.481 9.403,-21.868 11.515,-9.019 7.499,0.413 18.528,4.438 11.029,4.025 24.94,-18.902 11.342,-25.796 -13.598,-6.894 -16.07,3.654 -17.569,-12.063 -0.751,-7.872 2.84,-20.585 8.053,-32.443 -8.083,-5.755 -15.801,-10.545 -22.005,-9.791 -14.775,1.793 -1.527,8.895 -6.63,19.532 -5.103,10.638 -36.583,-0.277 -32.208,-14.653 4.376,-14.376 20.378,-5.875 8.474,-17.506 -6.003,-5.865 -18.851,-6.834 -31.288,-7.847 -8.269,11.162 -16.048,22.189 -16.036,29.804 0.028,16.632 11.343,-0.238 23.533,6.888 12.19,7.126 -3.754,30.915 -14.856,26.98 -11.102,-3.934 -10.873,-15.405 -21.097,-6.853 -4.075,3.409 -5.7,13.69 -6.953,25.491 12.824,5.516 25.744,12.987 31.985,19.101 11.888,11.646 -6.743,3.442 -12.507,17.921 z" />
  <path
     style="fill:#e22ab4"
     id="path36"
     d="m 755.24997,311.96 c -15.28,3.065 -7.563,32.915 5.823,32.371 13.385,-0.544 14.604,-10.872 23.69,-0.015 4.423,5.286 7.838,15.026 9.691,25.448 9.624,-3.473 18.26,-5.822 23.458,-4.045 13.839,4.733 3.744,6.51 6.385,17.95 2.641,11.44 29.445,10.596 27.808,-4.562 -1.638,-15.158 -11.827,-11.477 0.529,-21.305 6.189,-4.923 18.803,-8.846 31.585,-10.944 0.416,-9.914 0.221,-18.995 -3.794,-23.785 -9.561,-11.406 -8.289,3.572 -19.988,5.095 -11.7,1.524 -19.72,-30.815 -5.284,-34.988 14.436,-4.173 16.038,13.876 19.295,-2.445 1.642,-8.231 -4.553,-19.527 -10.486,-30.505 -13.866,-0.844 -27.351,-1.35 -33.727,2.814 -13.926,9.095 6.386,9.377 7.061,23.481 0.676,14.104 -27.96,13.714 -30.717,2.262 -2.757,-11.451 6.982,-17.515 -5.762,-21.421 -5.08,-1.557 -14.583,2.689 -25.158,8.075 2.37,13.757 3.155,28.661 1.434,37.227 -3.279,16.318 -6.563,-3.773 -21.843,-0.708 z" />
  <path
     style="fill:#a4ee02"
     id="path38"
     d="m 705.68997,1330.9 c -10.74,11.292 12.735,31.279 23.375,23.138 10.639,-8.141 5.698,-17.292 19.375,-13.632 6.658,1.782 15.052,7.788 22.56,15.25 5.878,-8.375 11.593,-15.262 16.868,-16.796 14.045,-4.084 6.806,3.175 15.544,11.016 8.738,7.841 30.184,-8.259 20.13,-19.719 -10.054,-11.461 -16.275,-2.591 -11.816,-17.737 2.233,-7.586 10.299,-18.048 19.551,-27.113 -5.359,-8.351 -10.74,-15.669 -16.779,-17.279 -14.38,-3.836 -4.728,7.688 -13.425,15.66 -8.696,7.973 -33.851,-13.875 -24.438,-25.589 9.413,-11.714 21.1,2.133 14.382,-13.093 -3.388,-7.679 -14.952,-13.36 -26.118,-18.931 -11.83,7.281 -23.155,14.62 -25.978,21.693 -6.165,15.447 10.616,4.001 19.277,15.153 8.661,11.152 -14.993,27.295 -23.832,19.511 -8.839,-7.784 -4.357,-18.345 -17.03,-14.214 -5.052,1.647 -10.386,10.584 -15.942,21.07 9.849,9.894 19.06,21.637 22.576,29.635 6.698,15.235 -7.54,0.685 -18.28,11.977 z" />
  <path
     style="fill:#425ac6"
     id="path40"
     d="m 1165.9,774.39 c -1.721,-15.489 -32.13,-10.403 -32.755,2.979 -0.624,13.382 9.558,15.495 -2.05,23.601 -5.651,3.946 -15.652,6.499 -26.196,7.436 2.621,9.89 4.209,18.698 1.985,23.722 -5.921,13.374 -6.812,3.162 -18.438,4.796 -11.626,1.634 -13.122,28.41 2.121,28.099 15.243,-0.31 12.464,-10.782 21.178,2.384 4.365,6.594 7.173,19.502 8.15,32.418 9.84,1.278 18.903,1.875 24.025,-1.707 12.196,-8.53 -2.836,-8.568 -3.334,-20.356 -0.499,-11.788 32.416,-16.96 35.315,-2.215 2.899,14.745 -15.221,14.768 0.754,19.434 8.056,2.354 19.85,-2.834 31.303,-7.788 2.049,-13.739 3.728,-27.129 0.136,-33.844 -7.846,-14.665 -9.898,5.544 -24.007,4.988 -14.109,-0.556 -11.225,-29.049 0.423,-30.797 11.648,-1.749 16.84,8.482 21.841,-3.873 1.994,-4.925 -1.407,-14.762 -5.851,-25.766 -13.911,1.162 -28.827,0.645 -37.21,-1.816 -15.97,-4.686 4.331,-6.206 2.61,-21.695 z" />
  <path
     style="fill:#c61020"
     id="path42"
     d="m 369.46,1079.8 c 3.266,-12.341 35.833,-6.709 34.576,8.728 -1.257,15.437 -19.682,8.413 -5.622,17.062 7.574,4.659 21.211,7.673 34.386,8.579 -0.757,-15.791 -2.926,-33.733 2.19,-42.066 8.639,-14.074 3.092,-1.224 18.173,-0.72 15.081,0.504 18.373,-28.167 5.535,-31.705 -12.838,-3.538 -18.146,14.628 -23.465,1.548 -2.759,-6.784 -1.813,-21.12 0.913,-35.343 -8.774,0.749 -16.66,0.547 -21.242,-2.631 -13.061,-9.06 3.352,-5.708 3.17,-19.792 -0.182,-14.083 -28.716,-17.02 -32.329,-3.929 -3.614,13.092 5.993,17.223 -7.131,22.573 -6.561,2.674 -17.991,-3.129 -29.612,-8.901 -4.944,12.855 -9.887,25.289 -7.558,31.565 4.628,12.468 7.072,0.216 19.276,3.368 12.204,3.152 10.927,34.961 -4.545,33.509 -15.472,-1.452 -8.197,-12.164 -17.263,0.537 -5.286,7.405 -1.747,25.934 0.61,42.27 10.522,0.948 20.559,0.453 26.373,-1.933 13.345,-5.476 0.3,-10.378 3.565,-22.719 z" />
  <path
     style="fill:#a6f6dc"
     id="path44"
     d="m 1569.1,762.26 c 4.865,11.802 -24.474,27.019 -32.811,13.967 -8.338,-13.052 10.582,-18.605 -5.846,-16.987 -8.849,0.872 -21.531,6.723 -32.57,13.971 10.156,12.115 22.736,25.09 23.704,34.82 1.636,16.433 -1.721,2.846 -14.034,11.567 -12.313,8.722 2.41,33.543 14.773,28.594 12.363,-4.949 5.599,-22.625 17.747,-15.428 6.301,3.733 14.22,15.72 20.655,28.694 6.534,-5.904 12.935,-10.514 18.506,-10.755 15.88,-0.687 0.784,6.573 9.449,17.677 8.665,11.104 33.162,-3.819 28.119,-16.43 -5.042,-12.61 -15.191,-10.089 -7.977,-22.288 3.606,-6.098 16.219,-8.392 28.964,-10.827 -3.84,-13.226 -7.426,-26.118 -13.078,-29.706 -11.227,-7.128 -5.762,4.106 -17.386,8.979 -11.624,4.873 -29.85,-21.228 -16.653,-29.431 13.198,-8.204 13.885,4.727 13.421,-10.871 -0.271,-9.094 -14.298,-21.707 -26.057,-33.289 -8.952,5.61 -16.644,12.077 -19.831,17.494 -7.313,12.435 6.04,8.447 10.905,20.249 z" />
  <path
     style="fill:#fc4484"
     id="path46"
     d="m 683.33997,301.2 c -8.601,-9.433 13.783,-33.749 26.075,-24.326 12.291,9.423 -3.598,21.1 11.292,13.972 8.021,-3.84 17.945,-13.667 25.846,-24.247 -13.68,-7.922 -29.934,-15.824 -34.164,-24.64 -7.146,-14.888 0.647,-3.262 9.244,-15.662 8.597,-12.4 -13.712,-30.707 -23.644,-21.836 -9.932,8.871 2.458,23.177 -11.417,20.559 -7.196,-1.358 -18.731,-9.923 -29.20697,-19.923 -4.126,7.78 -8.57,14.297 -13.724,16.425 -14.692,6.065 -2.98,-5.911 -14.914,-13.391 -11.934,-7.48 -29.867,14.907 -20.824,25.04 9.043,10.133 17.722,4.299 15.105,18.228 -1.309,6.963 -12.381,13.423 -23.53,20.061 8.123,11.122 15.894,22.015 22.43,23.46 12.986,2.869 4.015,-5.826 13.278,-14.374 9.263,-8.548 35.30297,9.766 25.697,21.981 -9.605,12.215 -14.665,0.295 -8.905,14.799 3.358,8.456 20.84697,15.524 35.85297,22.398 6.5,-8.328 11.523,-17.032 12.67,-23.211 2.63,-14.186 -8.56,-5.88 -17.161,-15.313 z" />
  <path
     style="fill:#807c48"
     id="path48"
     d="m 403.49,265.38 c -12.493,-2.622 -8.556,-35.437 6.925,-34.981 15.481,0.456 9.421,19.22 17.331,4.731 4.261,-7.805 6.564,-21.58 6.786,-34.784 -15.73,1.574 -33.536,4.669 -42.123,-0.008 -14.503,-7.898 -1.383,-3.024 -1.661,-18.111 -0.277,-15.087 -29.08,-16.89 -31.949,-3.886 -2.869,13.004 15.548,17.364 2.762,23.353 -6.632,3.106 -20.997,2.904 -35.343,0.919 1.202,8.724 1.409,16.609 -1.528,21.35 -8.371,13.512 -5.874,-3.052 -19.929,-2.141 -14.055,0.911 -15.51,29.559 -2.249,32.489 13.261,2.931 16.89,-6.877 22.912,5.953 3.01,6.414 -2.194,18.129 -7.355,30.034 13.094,4.271 25.767,8.564 31.914,5.913 12.212,-5.267 -0.151,-7.074 2.365,-19.424 2.516,-12.351 34.348,-12.722 33.7,2.803 -0.648,15.526 -11.723,8.816 1.43,17.212 7.669,4.895 25.989,0.402 42.182,-2.798 0.402,-10.557 -0.613,-20.555 -3.296,-26.238 -6.16,-13.045 -10.381,0.236 -22.874,-2.386 z" />
  <path
     style="fill:#ea7498"
     id="path50"
     d="m 731.10997,751.11 c 7.203,9.666 -14.51,32.827 -25.544,22.307 -11.034,-10.52 4.368,-23.373 -11.325,-17.863 -9.676,3.397 -25.097,15.021 -36.62897,26.75 10.08297,12.268 22.74597,23.959 30.92197,26.715 13.6,4.584 1.672,-6.595 10.803,-14.02 9.131,-7.425 33.31,11.284 21.878,21.87 -11.432,10.586 -16.432,0.724 -10.732,16.36 2.535,6.955 11.681,12.841 21.333,18.4 11.875,-6.787 23.924,-13.77 26.661,-21.226 5.44,-14.818 0.389,0.129 -9.878,-11.596 -10.267,-11.725 13.392,-29.587 23.329,-21.225 9.937,8.362 0.205,17.261 15.231,13.729 8.495,-1.997 19.727,-12.456 29.3,-23.812 -13.683,-8.19 -30.908,-16.488 -33.507,-26.02 -4.247,-15.574 7.898,-3.096 16.792,-13.719 8.894,-10.624 -16.296,-29.512 -25.174,-21.907 -8.878,7.605 1,15.709 -12.546,11.137 -8.622,-2.91 -21.594,-13.289 -31.491,-24.412 -8.395,7.771 -15.226,15.776 -17.188,21.081 -4.637,12.537 10.561,7.785 17.765,17.451 z" />
  <path
     style="fill:#b440bc"
     id="path52"
     d="m 493.27,263.59 c 11.811,2.411 11.044,34.149 -4.193,33.653 -15.237,-0.497 -12.312,-20.342 -20.345,-5.779 -4.954,8.979 -8.713,27.921 -9.501,44.35 15.692,2.433 32.925,2.718 40.858,-0.673 13.197,-5.641 -3.146,-6.033 -1.282,-17.653 1.864,-11.62 32.36,-13.772 30.886,1.738 -1.475,15.511 -11.774,11.486 2.894,19.351 6.524,3.498 17.266,1.796 28.168,-0.487 4.336,-12.973 8.671,-26.206 5.746,-33.591 -5.813,-14.675 0.376,-0.163 -15.092,-2.069 -15.468,-1.906 -9.72,-30.988 3.262,-31.37 12.981,-0.383 11.651,12.738 20.505,0.094 5.005,-7.148 6.416,-22.431 5.992,-37.278 -15.661,3.006 -34.035,8.291 -42.324,2.913 -13.542,-8.787 3.829,-7.57 3.385,-21.418 -0.443,-13.848 -31.813,-11.157 -33.369,0.429 -1.556,11.586 11.21,11.05 -1.939,16.664 -8.369,3.573 -24.958,4.473 -39.749,2.77 -1.085,11.388 -0.848,21.909 1.222,27.173 4.895,12.44 13.065,-1.228 24.876,1.183 z" />
  <path
     style="fill:#328e9a"
     id="path54"
     d="m 1111.4,100.89 c -1.332,11.981 -33.009,14.09 -33.894,-1.129 -0.885,-15.219 19.144,-14.102 3.914,-20.785 -9.391,-4.12 -28.595,-6.149 -45.028,-5.447 -1.003,15.848 0.273,33.036 4.368,40.63 6.812,12.632 5.724,-3.679 17.465,-2.874 11.741,0.805 16.645,30.981 1.065,30.916 -15.58,-0.065 -12.505,-10.686 -19.01,4.633 -2.893,6.814 -0.226,17.358 3.035,28.008 13.312,3.144 26.883,6.263 33.973,2.682 14.089,-7.117 0.196,0.36 0.694,-15.217 0.498,-15.577 29.981,-12.485 31.537,0.409 1.556,12.893 -11.631,12.756 1.763,20.429 7.572,4.338 22.92,4.359 37.667,2.593 -4.411,-15.325 -11.338,-33.145 -6.732,-41.886 7.525,-14.281 7.885,3.128 21.636,1.433 13.751,-1.695 8.231,-32.692 -3.448,-33.193 -11.679,-0.5 -9.99,12.165 -16.771,-0.422 -4.316,-8.012 -6.714,-24.451 -6.356,-39.335 -11.44,-0.05 -21.895,1.139 -26.95,3.677 -11.948,5.998 2.404,12.897 1.072,24.878 z" />
  <path
     style="fill:#94d4be"
     id="path56"
     d="m 117.73,923.63 c 1.961,11.894 -27.963,22.499 -32.934,8.088 -4.972,-14.411 14.612,-18.758 -1.859,-21.068 -10.156,-1.424 -29.192,1.821 -44.821,6.945 3.325,15.528 9.206,31.728 15.204,37.93 9.977,10.317 4.514,-5.091 16.035,-7.495 11.52,-2.403 24.41,25.318 9.394,29.474 -15.016,4.156 -14.931,-6.902 -17.046,9.606 -0.941,7.342 4.481,16.771 10.503,26.141 13.666,-0.577 27.575,-1.248 33.431,-6.614 11.636,-10.666 0.286,0.293 -3.451,-14.837 -3.737,-15.13 25.481,-20.135 30.47,-8.144 4.988,11.991 -7.744,15.428 7.227,19.189 8.464,2.126 23.244,-2.008 36.962,-7.7 -8.395,-13.559 -19.887,-28.838 -17.82,-38.5 3.378,-15.785 8.438,0.876 21.216,-4.478 12.779,-5.354 -0.926,-33.7 -12.305,-31.02 -11.378,2.68 -6.324,14.415 -16.259,4.133 -6.323,-6.544 -13.082,-21.72 -16.767,-36.146 -11.026,3.048 -20.77,7.023 -24.949,10.835 -9.875,9.009 5.808,11.766 7.769,23.661 z" />
  <path
     style="fill:#ca36c8"
     id="path58"
     d="m 580.94,1495.7 c -9.812,-10.227 -10.11,0.227 -23.612,1.695 -13.502,1.469 -21.293,-26.137 -8.269,-31.5 13.024,-5.362 15.961,11.13 19.566,-4.351 1.265,-5.431 -1.455,-12.835 -5.387,-20.715 -13.202,2.516 -26.88,3.573 -34.772,2.338 -16.397,-2.565 -1.571,0 -5.925,-14.919 -4.354,-14.917 -36.21,-7.728 -34.414,4.35 1.796,12.078 18.925,9.293 8.847,18.857 -5.591,5.305 -20.63,12.122 -35.732,16.777 0.951,8.939 2.592,17.017 6.328,21.582 10.428,12.739 0.366,-0.196 15.526,-3.594 15.16,-3.397 21.76,23.991 10.509,27.143 -11.252,3.151 -19.092,-6.284 -22.917,8.468 -1.793,6.915 4.607,16.989 11.573,27.38 14.056,-7.671 28.359,-16.174 36.023,-14.119 14,3.753 1.255,8.698 5.941,20.406 4.685,11.708 30.017,8.19 27.166,-6.89 -2.85,-15.08 -15.407,-6.88 -2.012,-16.758 6.652,-4.905 20.62,-5.199 34.207,-5.342 1.08,-12.931 2.26,-25.695 -2.646,-30.808 z" />
  <path
     style="fill:#3230cc"
     id="path60"
     d="m 428.51,1295.3 c 10.491,9.529 10.071,-0.92 23.44,-3.311 13.369,-2.392 23.037,24.615 10.412,30.858 -12.625,6.244 -16.687,-10.008 -19.221,5.684 -0.889,5.505 2.333,12.705 6.796,20.297 12.998,-3.417 26.571,-5.409 34.529,-4.719 16.534,1.434 1.568,-0.106 6.935,14.478 5.367,14.583 36.655,5.225 34.035,-6.701 -2.62,-11.926 -19.518,-7.973 -10.12,-18.205 5.214,-5.676 19.75,-13.509 34.496,-19.19 -1.562,-8.853 -3.754,-16.799 -7.795,-21.097 -11.278,-11.994 -0.352,0.221 -15.243,4.651 -14.891,4.429 -23.355,-22.441 -12.347,-26.358 11.009,-3.916 19.478,4.959 22.282,-10.021 1.314,-7.022 -5.762,-16.633 -13.425,-26.521 -13.496,8.617 -27.183,18.082 -34.969,16.558 -14.225,-2.783 -1.849,-8.591 -7.327,-19.95 -5.478,-11.359 -30.508,-6.111 -26.629,8.738 3.879,14.849 15.843,5.807 3.158,16.58 -6.3,5.35 -20.215,6.602 -33.76,7.677 -0.19,12.973 -0.491,25.788 4.753,30.552 z" />
  <path
     style="fill:#fa1c8e"
     id="path62"
     d="m 972.77997,1373.2 c -13.771,-3.352 -8.405,5.624 -19.003,14.117 -10.598,8.493 -32.002,-10.602 -23.9,-22.123 8.102,-11.521 19.441,0.81 14.163,-14.183 -1.851,-5.26 -8.124,-10.043 -15.674,-14.576 -9.782,9.216 -20.75,17.456 -28.069,20.656 -15.207,6.647 -1.326,0.843 -13.014,-9.399 -11.688,-10.241 -34.691,12.939 -26.687,22.16 8.004,9.221 20.954,-2.331 17.593,11.149 -1.865,7.479 -10.886,21.308 -21.12,33.349 5.605,7.028 11.33,12.959 16.934,14.801 15.64,5.141 0.203,-0.362 11.164,-11.373 10.96,-11.011 31.243,8.541 23.447,17.245 -7.797,8.703 -19.478,4.959 -14.777,19.456 2.204,6.795 13.014,11.853 24.472,16.873 7.733,-14.022 15.227,-28.879 22.794,-31.264 13.824,-4.358 5.733,6.661 15.975,14.018 10.242,7.356 29.716,-9.222 19.209,-20.408 -10.507,-11.186 -16.691,2.476 -10.702,-13.052 2.975,-7.711 14.597,-15.464 25.979,-22.886 -6.037,-11.484 -11.9,-22.884 -18.784,-24.56 z" />
  <path
     style="fill:#64d8d2"
     id="path64"
     d="m 1492.6,928.83 c 7.465,12.047 9.936,1.886 23.447,3.264 13.511,1.378 15.378,30.001 1.522,32.532 -13.855,2.53 -13.29,-14.212 -20.043,0.178 -2.369,5.048 -1.252,12.857 0.951,21.383 13.437,0.291 27.034,2.108 34.495,4.961 15.502,5.926 1.536,0.329 2.685,15.827 1.149,15.497 33.804,15.105 34.565,2.919 0.761,-12.187 -16.572,-13.034 -4.722,-20.286 6.574,-4.023 22.704,-7.555 38.444,-8.961 0.933,-8.941 1.012,-17.184 -1.691,-22.427 -7.544,-14.633 -0.399,0.116 -15.934,0.278 -15.535,0.163 -16.282,-28 -4.62,-28.737 11.662,-0.737 17.363,10.125 24.179,-3.506 3.195,-6.389 -0.964,-17.576 -5.612,-29.191 -15.346,4.573 -31.108,9.907 -38.175,6.301 -12.911,-6.588 0.585,-8.769 -1.557,-21.196 -2.142,-12.427 -27.65,-14.266 -28.006,1.077 -0.355,15.343 13.635,9.941 -1.525,16.809 -7.529,3.411 -21.251,0.787 -34.569,-1.905 -3.751,12.419 -7.565,24.657 -3.834,30.68 z" />
  <path
     style="fill:#b89c02"
     id="path66"
     d="m 925.42997,219.8 c -12.521,5.426 -10.786,34.876 4.33,31.399 15.116,-3.476 12.682,-22.032 23.091,-9.138 5.389,6.676 4.112,22.81 3.095,38.322 13.393,0.699 26.461,1.529 31.492,-3.284 9.86,-9.432 -5.859,-10.042 -7.668,-22.327 -1.809,-12.285 31.90903,-24.184 36.65103,-9.456 4.742,14.728 -16.079,19.859 0.466,21.605 6.599,0.697 16.595,-0.487 26.876,-2.797 -5.282,-15.577 -8.719,-34.58 -7.398,-44.749 2.144,-16.493 6.688,3.045 21.049,-2.071 14.361,-5.116 3.454,-34.932 -8.42,-32.851 -11.874,2.081 -14.472,17.791 -23.58,8.006 -3.854,-4.14 -7.927,-13.843 -11.087,-24.838 -8.216,2.188 -16.19903,3.374 -22.20303,2.876 -16.518,-1.37 -2.436,-5.375 -6.571,-20.409 -4.135,-15.034 -33.766,-2.644 -31.234,8.844 2.532,11.489 19.437,8.054 9.457,17.776 -4.467,4.352 -13.678,8.676 -23.963,11.927 2.647,10.806 3.858,20.873 2.391,26.646 -3.64,14.32 -4.252,-0.907 -16.774,4.519 z" />
  <path
     style="fill:#9aaa24"
     id="path68"
     d="m 980.46997,1317.1 c -9.858,9.436 1.995,36.451 14.963,27.942 12.96903,-8.509 4.242,-25.065 18.48103,-16.587 7.372,4.39 11.777,19.963 16.209,34.863 12.803,-3.995 25.345,-7.754 28.392,-14.015 5.971,-12.269 -8.982,-7.383 -14.943,-18.276 -5.962,-10.893 21.526,-33.759 31.088,-21.594 9.561,12.165 -8.183,24.206 7.939,20.099 6.43,-1.638 15.394,-6.219 24.232,-11.955 -10.362,-12.774 -20.184,-29.4 -22.475,-39.396 -3.716,-16.211 7.329,0.534 19.02,-9.251 11.691,-9.785 -8.89,-33.958 -19.303,-27.883 -10.413,6.075 -7.394,21.71 -19.333,15.696 -5.052,-2.545 -12.241,-10.23 -19.021,-19.443 -6.946,4.905 -14.02,8.789 -19.823,10.407 -15.966,4.451 -4.151,-4.194 -13.249,-16.857 -9.098,-12.663 -32.58303,9.245 -26.22003,19.139 6.363,9.895 21.02403,0.804 15.04103,13.386 -2.67803,5.632 -9.81403,12.885 -18.33103,19.505 6.235,9.215 10.866,18.235 11.494,24.158 1.558,14.693 -4.303,0.626 -14.161,10.062 z" />
  <path
     style="fill:#f41cba"
     id="path70"
     d="m 1006.1,1492.6 c 3.426,-13.209 -20.85703,-29.961 -27.41703,-15.906 -6.56,14.055 9.566,23.553 -7.003,23.825 -8.579,0.141 -20.512,-10.793 -32.114,-21.138 -8.792,10.128 -17.486,19.919 -16.787,26.846 1.37,13.576 11.522,1.56 22.319,7.693 10.798,6.133 -0.568,40.034 -15.096,34.711 -14.528,-5.323 -5.763,-24.894 -17.318,-12.926 -4.609,4.774 -9.826,13.382 -14.331,22.908 15.529,5.42 32.625,14.402 39.828,21.701 11.683,11.838 -6.516,3.399 -11.318,17.867 -4.802,14.469 25.412,24.215 31.078,13.574 5.665,-10.641 -5.121,-22.355 8.197,-23.514 5.635,-0.491 15.79,2.268 26.401,6.542 3.331,-7.823 7.307,-14.846 11.39403,-19.273 11.243,-12.178 5.736,1.386 20.132,7.376 14.396,5.99 22.859,-24.991 12.246,-30.063 -10.614,-5.073 -18.308,10.367 -19.831,-3.482 -0.682,-6.199 1.576,-16.12 5.341,-26.229 -10.147,-4.562 -18.828,-9.801 -22.47703,-14.51 -9.05,-11.679 3.33003,-2.793 6.75603,-16.002 z" />
  <path
     style="fill:#129cb2"
     id="path72"
     d="m 372.52,1331.5 c 12.94,-4.332 13.738,-33.822 -1.62,-31.655 -15.358,2.167 -14.525,20.863 -23.789,7.123 -4.797,-7.114 -2.14,-23.079 0.204,-38.446 -13.284,-1.846 -26.232,-3.794 -31.658,0.57 -10.633,8.552 4.976,10.508 5.724,22.903 0.748,12.395 -33.866,21.357 -37.327,6.276 -3.461,-15.08 17.723,-18.406 1.39,-21.566 -6.515,-1.26 -16.576,-0.938 -27.017,0.481 3.926,15.973 5.721,35.2 3.531,45.219 -3.551,16.248 -6.402,-3.608 -21.149,0.258 -14.746,3.866 -6.438,34.507 5.571,33.452 12.009,-1.055 15.945,-16.484 24.18,-5.953 3.484,4.456 6.71,14.472 8.915,25.698 8.374,-1.475 16.429,-1.972 22.368,-0.96 16.34,2.782 1.966,5.564 4.796,20.897 2.83,15.333 33.414,5.531 31.877,-6.131 -1.537,-11.663 -18.674,-9.692 -7.897,-18.521 4.824,-3.953 14.372,-7.47 24.898,-9.827 -1.71,-10.994 -2.053,-21.127 -0.096,-26.753 4.855,-13.956 4.159,1.267 17.099,-3.065 z" />
  <path
     style="fill:#165c3e"
     id="path74"
     d="m 460.28,423.57 c -2.852,-16.363 -5.587,-1.114 -20.403,-4.979 -14.816,-3.865 -9.792,-31.013 1.762,-29.177 11.553,1.836 14.712,14.784 24.228,3.453 4.88,-5.81 2.159,-19.101 -0.466,-32.575 -13.766,0.698 -26.913,1.407 -31.983,-2.458 -10.433,-7.953 0.089,-5.413 1.19,-17.442 1.101,-12.029 -27.871,-19.462 -32.341,-6.024 -4.471,13.438 9.404,12.051 -6.065,16.548 -5.604,1.629 -13.404,-1.345 -21.734,-5.573 -1.484,12.423 -4.595,24.194 -9.13,29.583 -9.421,11.196 -10.207,-4.267 -23.912,-4.836 -13.706,-0.57 -20.726,25.832 -5.654,29.365 15.072,3.533 17.921,-8.109 21.687,8.028 1.309,5.607 -1.026,12.32 -4.453,19.233 11.319,1.563 22.018,4.352 27.818,8.426 13.504,9.486 -0.86,4.532 -3.535,19.886 -2.675,15.353 32.099,19.423 36.255,7.092 4.156,-12.331 -10.114,-18.307 2.364,-21.548 6.962,-1.809 23.515,0.427 39.084,4.433 3.657,-7.974 6.304,-15.603 5.288,-21.435 z" />
  <path
     style="fill:#c2cc50"
     id="path76"
     d="m 321.91,566.91 c 3.765,-16.178 -4.708,-3.207 -16.838,-12.552 -12.13,-9.344 3.097,-32.374 13.017,-26.172 9.919,6.202 7.77,19.355 20.956,12.641 6.762,-3.443 9.446,-16.741 12.293,-30.171 -12.946,-4.733 -25.325,-9.215 -28.484,-14.753 -6.499,-11.396 2.196,-4.948 7.907,-15.592 5.711,-10.644 -18.057,-28.801 -27.421,-18.175 -9.364,10.625 3.951,14.766 -12.046,12.866 -5.796,-0.689 -11.814,-6.473 -17.831,-13.618 -6.218,10.858 -13.678,20.478 -19.958,23.668 -13.045,6.627 -7.73,-7.914 -20.125,-13.791 -12.395,-5.877 -29.168,15.686 -16.673,24.825 12.495,9.138 19.664,-0.466 16.83,15.86 -0.985,5.673 -5.756,10.941 -11.61,15.967 9.81,5.859 18.57,12.605 22.319,18.621 8.727,14.007 -2.561,3.836 -11.02,16.926 -8.458,13.09 21.965,30.416 30.607,20.688 8.642,-9.729 -2.161,-20.803 10.591,-18.914 7.116,1.054 21.481,9.577 34.249,19.344 6.479,-5.912 11.896,-11.901 13.237,-17.668 z" />
  <path
     style="fill:#2a9e72"
     id="path78"
     d="m 614.69,906.07 c 8.078,14.514 5.642,-0.786 20.905,-2.011 15.262,-1.225 19.451,26.064 7.937,28.132 -11.514,2.068 -18.757,-9.12 -24.015,4.711 -2.697,7.093 4.247,18.747 11.159,30.608 12.77,-5.189 24.951,-10.184 31.011,-8.203 12.46897,4.077 1.697,5.141 4.61497,16.862 2.918,11.721 32.723,9.208 32.522,-4.954 -0.2,-14.161 -12.846,-8.285 0.282,-17.622 4.756,-3.383 13.1,-3.141 22.357,-1.888 -2.687,-12.22 -3.622,-24.358 -1.113,-30.94 5.213,-13.672 11.042,0.671 24.172,-3.301 13.13,-3.972 11.072,-31.213 -4.323,-29.59 -15.395,1.623 -14.255,13.554 -23.121,-0.445 -3.081,-4.865 -3.085,-11.971 -2.123,-19.627 -11.203,2.249 -22.224,3.136 -29.042,1.196 -15.873,-4.515 -0.679,-4.563 -3.205,-19.942 -2.526,-15.379 -36.70297,-7.779 -36.56997,5.232 0.133,13.012 15.574,13.96 4.858,21.126 -5.979,3.999 -22.346,7.334 -38.366,8.674 -0.83,8.733 -0.82,16.809 2.06,21.982 z" />
  <path
     style="fill:#dcd88e"
     id="path80"
     d="m 1282.9,1306.3 c 5.575,15.646 5.694,0.155 20.951,1.462 15.256,1.307 14.889,28.914 3.191,29.056 -11.698,0.142 -16.997,-12.086 -24.464,0.688 -3.829,6.551 1.098,19.191 5.961,32.029 13.451,-3.013 26.288,-5.932 31.939,-2.979 11.626,6.077 0.827,5.35 1.772,17.392 0.946,12.042 30.757,14.476 32.894,0.475 2.137,-14 -11.305,-10.289 3.183,-17.335 5.249,-2.553 13.438,-0.938 22.363,1.823 -0.636,-12.496 0.443,-24.622 4.003,-30.7 7.395,-12.626 10.781,2.482 24.386,0.729 13.605,-1.753 16.066,-28.961 0.614,-29.898 -15.452,-0.937 -16.294,11.019 -22.731,-4.25 -2.237,-5.306 -1.069,-12.316 1.141,-19.709 -11.421,0.371 -22.437,-0.571 -28.842,-3.607 -14.912,-7.069 0.082,-4.612 0.126,-20.197 0.044,-15.584 -34.918,-13.723 -36.932,-0.867 -2.014,12.856 13.06,16.336 1.309,21.638 -6.557,2.958 -23.249,3.55 -39.271,2.231 -2.26,8.476 -3.58,16.442 -1.593,22.019 z" />
  <path
     style="fill:#0486a6"
     id="path82"
     d="m 1414.7,1017.5 c 4.796,14.82 36.899,-1.853 34.106,-13.322 -2.793,-11.469 -14.05,-9.474 -4.558,-18.793 5.71,-5.605 20.215,-10.631 34.413,-13.248 -3.954,-12.027 -8.65,-22.614 -12.335,-26.677 -8.668,-9.557 -10.144,5.73 -21.323,9.076 -11.179,3.345 -18.339,-27.63 -4.931,-33.53 13.408,-5.899 15.977,14.803 17.688,-1.73 0.879,-8.499 -6.818,-21.687 -14.205,-34.255 -10.734,8.558 -21.259,17.117 -28.668,15.477 -14.447,-3.199 -4.427,-11.986 -8.142,-23.079 -3.715,-11.093 -30.109,-2.994 -26.685,11.93 3.424,14.924 18.209,10.297 5.02,20.393 -4.701,3.599 -12.69,4.78 -21.449,5.224 2.89,12.403 4.509,24.772 3.427,31.923 -2.448,16.178 -2.369,-1.648 -17.072,3.365 -14.703,5.013 -7.343,34.962 4.715,32.691 12.058,-2.271 13.533,-16.192 24.076,-6.161 4.367,4.155 8.8,12.888 12.282,22.782 7.969,-0.949 15.422,-1.136 20.703,-0.323 16.146,2.484 -1.857,3.437 2.938,18.257 z" />
  <path
     style="fill:#687a14"
     id="path84"
     d="m 1423.1,1281.9 c -2.412,15.389 33.761,15.006 36.447,3.511 2.686,-11.495 -8.26,-14.797 4.417,-18.827 7.625,-2.424 22.838,-0.359 36.688,3.715 1.901,-12.516 2.491,-24.084 1.038,-29.372 -3.42,-12.441 -11.639,0.533 -23.124,-1.529 -11.485,-2.062 -3.89,-32.934 10.738,-32.144 14.628,0.79 7.573,20.422 16.564,6.442 4.622,-7.186 3.708,-22.429 2.79,-36.978 -13.442,2.79 -26.697,5.675 -32.567,0.867 -11.446,-9.376 1.462,-12.694 3.155,-24.269 1.693,-11.576 -25.514,-16.265 -29.197,-1.403 -3.683,14.863 11.599,17.409 -4.728,20.463 -5.819,1.089 -13.481,-1.464 -21.498,-5.022 -3.021,12.371 -7.161,24.139 -11.355,30.031 -9.489,13.33 -1.37,-2.541 -16.752,-4.705 -15.383,-2.165 -22.336,27.881 -10.552,31.299 11.785,3.417 19.385,-8.338 24.264,5.373 2.021,5.679 2.034,15.473 0.673,25.873 7.539,2.751 14.274,5.949 18.619,9.058 13.286,9.506 -3.208,2.228 -5.62,17.617 z" />
  <path
     style="fill:#067844"
     id="path86"
     d="m 1329.1,426.86 c -2.022,-15.445 -36.621,-4.885 -35.959,6.901 0.662,11.786 12.094,11.87 1.067,19.308 -6.633,4.474 -21.811,6.78 -36.248,6.773 1.703,12.545 4.396,23.81 7.281,28.475 6.787,10.973 11.017,-3.791 22.618,-5.049 11.601,-1.258 13.012,30.503 -1.245,33.867 -14.257,3.364 -13.02,-17.461 -17.708,-1.513 -2.409,8.197 2.763,22.565 7.743,36.266 12.111,-6.464 24.016,-12.968 31.003,-10.008 13.625,5.771 2.174,12.591 3.812,24.174 1.637,11.584 29.063,8.416 28.409,-6.881 -0.655,-15.298 -16.035,-13.435 -1.23,-20.966 5.277,-2.684 13.347,-2.394 22.042,-1.239 -0.587,-12.722 0.069,-25.179 2.433,-32.014 5.348,-15.463 2.03,2.052 17.399,-0.206 15.369,-2.257 13.575,-33.045 1.305,-33.004 -12.27,0.042 -16.25,13.462 -24.794,1.682 -3.539,-4.88 -6.311,-14.273 -7.937,-24.634 -8.009,-0.515 -15.372,-1.686 -20.417,-3.445 -15.429,-5.377 2.448,-3.042 0.426,-18.487 z" />
  <path
     style="fill:#761434"
     id="path88"
     d="m 154.54,573.66 c 3.932,15.072 36.944,0.28 34.818,-11.331 -2.126,-11.612 -13.48,-10.269 -3.466,-19.025 6.024,-5.266 20.795,-9.447 35.12,-11.24 -3.254,-12.235 -7.33,-23.076 -10.774,-27.345 -8.102,-10.042 -10.458,5.135 -21.812,7.829 -11.353,2.695 -16.714,-28.643 -2.987,-33.758 13.727,-5.115 15.096,15.701 17.758,-0.706 1.368,-8.434 -5.555,-22.044 -12.204,-35.018 -11.21,7.924 -22.212,15.861 -29.513,13.796 -14.238,-4.027 -3.727,-12.222 -6.796,-23.511 -3.068,-11.289 -29.886,-4.727 -27.329,10.37 2.557,15.097 17.585,11.331 3.834,20.649 -4.901,3.321 -12.945,4.039 -21.715,3.977 2.169,12.549 3.071,24.991 1.578,32.067 -3.378,16.009 -2.27,-1.782 -17.238,2.374 -14.968,4.156 -9.349,34.48 2.82,32.909 12.169,-1.571 14.445,-15.383 24.391,-4.76 4.12,4.4 8.042,13.375 10.946,23.453 8.01,-0.487 15.462,-0.244 20.687,0.872 15.979,3.413 -2.05,3.325 1.882,18.398 z" />
  <path
     style="fill:#ceb676"
     id="path90"
     d="m 116.13,826.46 c -12.36,-1.28 -14.354,-34.924 0.808,-36.367 15.163,-1.442 12.657,18.73 19.364,3.718 2.673,-5.982 4.579,-15.08 5.509,-24.599 -17.11,0.651 -36.376,-0.728 -44.515,-4.836 -14.157,-7.146 1.386,-5.461 -0.618,-19.905 -2.004,-14.444 -28.896,-14.65 -30.638,-1.102 -1.743,13.548 14.175,18.04 1.073,25.623 -6.318,3.657 -19.619,-0.467 -33.387,-4.943 -3.816,12.294 -7.59,24.908 -4.693,32.494 5.915,15.489 4.772,-2.196 18.987,-0.542 14.215,1.654 15.639,27.71 3.757,28.824 -11.882,1.114 -17.497,-12.522 -23.377,-0.659 -3.817,7.701 3.499,26.145 7.154,42.027 14.465,0.699 28.792,-0.379 35.121,-4.064 12.202,-7.105 -6.53,-9.806 -4.831,-23.014 1.699,-13.208 30.548,-13.978 32.168,1.024 1.621,15.002 -11.881,11.316 3.268,17.891 8.969,3.893 26.429,-0.776 41.956,-3.745 -0.818,-11.279 -3.117,-22.006 -6.62,-28.075 -7.593,-13.155 -8.125,1.53 -20.486,0.25 z" />
  <path
     style="fill:#fe50b4"
     id="path92"
     d="m 785.32997,209.02 c 5.665,-11.06 37.752,-0.746 33.611,13.911 -4.141,14.658 -22.041,5.023 -10.472,16.707 4.61,4.656 12.402,9.725 20.939,14.035 5.583,-16.186 13.839,-33.648 20.613,-39.75 11.783,-10.612 4.59,3.268 18.78,6.625 14.19,3.357 24.112,-21.638 12.112,-28.163 -11.999,-6.526 -21.947,6.688 -24.276,-8.27 -1.123,-7.213 7.534,-18.121 16.687,-29.337 -10.08,-8.006 -20.475,-16.087 -28.595,-16.131 -16.58,-0.089 0.321,5.243 -6.365,17.897 -6.686,12.654 -31.491,4.554 -28.231,-6.926 3.261,-11.48 18.004,-11.781 9.072,-21.555 -5.798,-6.345 -25.64,-6.197 -41.768,-8.536 -5.885,13.233 -10.063,26.979 -8.917,34.212 2.209,13.946 11.504,-2.54 23.203,3.822 11.699,6.362 1.979,33.536 -12.593,29.619 -14.572,-3.917 -6.251,-15.171 -17.861,-3.427 -6.874,6.953 -8.839,24.919 -11.688,40.469 10.811,3.319 21.643,5.056 28.568,3.986 15.014,-2.319 1.516,-8.128 7.181,-19.188 z" />
  <path
     style="fill:#90e8ea"
     id="path94"
     d="m 195.08,722.94 c 5.274,-11.252 37.702,-2.071 34.078,12.723 -3.624,14.794 -21.851,5.793 -9.879,17.064 4.77,4.491 12.735,9.284 21.419,13.292 5.011,-16.372 12.649,-34.113 19.206,-40.448 11.404,-11.019 4.702,3.105 19.001,5.962 14.299,2.857 23.338,-22.471 11.116,-28.571 -12.221,-6.101 -21.699,7.454 -24.551,-7.413 -1.375,-7.169 6.893,-18.374 15.647,-29.905 -10.355,-7.647 -21.027,-15.359 -29.143,-15.117 -16.573,0.493 0.505,5.228 -5.733,18.109 -6.237,12.881 -31.312,5.657 -28.456,-5.931 2.856,-11.588 17.579,-12.406 8.31,-21.86 -6.018,-6.137 -25.842,-5.293 -42.042,-7.065 -5.417,13.431 -9.11,27.315 -7.711,34.504 2.697,13.859 11.408,-2.942 23.323,3.006 11.915,5.948 3.155,33.446 -11.545,30.043 -14.7,-3.403 -6.78,-14.942 -17.971,-2.798 -6.626,7.19 -7.959,25.214 -10.261,40.854 10.921,2.937 21.807,4.293 28.69,2.981 14.922,-2.847 1.228,-8.178 6.502,-19.43 z" />
  <path
     style="fill:#fc1cb6"
     id="path96"
     d="m 753.82997,650.1 c 1.517,-12.333 35.193,-13.682 36.345,1.505 1.152,15.188 -18.97,12.295 -4.089,19.289 5.93,2.787 14.99,4.867 24.489,5.979 -0.323,-17.119 1.425,-36.355 5.688,-44.414 7.416,-14.017 5.434,1.49 19.913,-0.236 14.479,-1.727 15.201,-28.609 1.689,-30.611 -13.512,-2.002 -18.309,13.827 -25.639,0.582 -3.535,-6.387 0.843,-19.606 5.582,-33.286 -12.219,-4.051 -24.758,-8.066 -32.398,-5.315 -15.599,5.617 2.104,4.813 0.177,18.994 -1.927,14.182 -28.005,15.105 -28.891,3.204 -0.886,-11.901 12.855,-17.253 1.107,-23.36 -7.627,-3.964 -26.208,2.998 -42.156,6.347 -0.976,14.449 -0.173,28.794 3.39,35.192 6.87,12.336 9.929,-6.341 23.103,-4.389 13.173,1.952 13.39,30.81 -1.64,32.143 -15.03,1.333 -11.087,-12.096 -17.95,2.924 -4.064,8.893 0.269,26.439 2.94,42.02 11.293,-0.601 22.061,-2.694 28.196,-6.081 13.3,-7.34 -1.373,-8.153 0.144,-20.487 z" />
  <path
     style="fill:#ac8654"
     id="path98"
     d="m 553.64,1118.6 c -13.499,-6.852 -8.59,8.942 -20.899,14.865 -12.308,5.923 -26.791,-16.736 -15.773,-26.288 11.018,-9.552 18.076,4.397 16.352,-11.367 -0.991,-9.063 -10.335,-25.968 -20.206,-39.958 -12.812,6.655 -25.214,15.703 -29.035,22.733 -6.352,11.687 3.83,6.487 9.855,16.638 6.025,10.151 -19.799,35.483 -28.719,22.713 -8.92,-12.77 8.018,-18.946 -8.151,-16.601 -5.288,0.767 -12.36,3.126 -19.703,6.363 8.799,11.939 16.454,26.659 17.37,35.789 1.563,15.588 -6.132,1.95 -17.608,11.516 -11.476,9.566 8.619,37.529 20.482,31.801 11.863,-5.728 1.017,-17.906 14.355,-11.193 5.114,2.574 11.589,9.208 17.815,17.323 8.991,-5.495 18.074,-9.832 24.547,-11.296 16.226,-3.67 -1.837,7.888 7.392,20.307 9.229,12.419 37.326,-9.695 31.66,-20.745 -5.665,-11.05 -20.744,-6.57 -14.444,-18.673 3.215,-6.176 15.855,-9.594 28.761,-13.242 -3.751,-13.982 -7.542,-27.381 -14.051,-30.685 z" />
  <path
     style="fill:#50ee80"
     id="path100"
     d="m 1181.6,1438.3 c 8.11,12.782 11.951,-3.305 25.559,-2.115 13.608,1.189 14.496,28.067 0.146,30.657 -14.35,2.59 -13.3,-13.008 -19.863,1.428 -3.774,8.299 -4.367,27.605 -3.02,44.674 14.414,0.817 29.697,-0.633 36.571,-4.728 11.427,-6.808 0.018,-7.533 0.018,-19.338 10e-4,-11.804 35.138,-20.406 36.29,-4.872 1.152,15.534 -16.566,12.199 -1.464,18.436 4.938,2.039 12.224,3.621 20.191,4.585 -1.472,-14.758 -0.542,-31.323 3.331,-39.642 6.612,-14.202 6.269,1.454 21.02,-0.915 14.751,-2.369 11.745,-36.672 -1.381,-37.801 -13.126,-1.13 -10.014,14.879 -18.057,2.298 -3.084,-4.824 -5.266,-13.834 -6.478,-23.99 -10.536,0.136 -20.561,-0.771 -26.874,-2.816 -15.826,-5.127 5.605,-5.845 4.009,-21.235 -1.597,-15.39 -37.046,-10.715 -37.814,1.679 -0.769,12.393 14.485,16.238 2.889,23.43 -5.917,3.67 -18.531,0.158 -31.491,-3.294 -3.914,13.938 -7.493,27.395 -3.582,33.559 z" />
  <path
     style="fill:#f62c3a"
     id="path102"
     d="m 1137.5,650.99 c 11.828,9.448 10.226,-7.014 23.48,-10.316 13.254,-3.303 22.839,21.823 10.112,28.942 -12.727,7.118 -16.808,-7.973 -18.318,7.813 -0.868,9.075 4.852,27.524 11.68,43.226 13.895,-3.917 27.875,-10.261 33.043,-16.37 8.591,-10.156 -2.435,-7.129 -6.275,-18.292 -3.84,-11.162 26.586,-30.729 32.73,-16.415 6.144,14.314 -11.695,16.926 4.613,17.909 5.333,0.322 12.737,-0.553 20.585,-2.234 -6.194,-13.476 -10.704,-29.442 -9.748,-38.569 1.632,-15.58 6.401,-0.665 19.578,-7.705 13.178,-7.039 -0.826,-38.497 -13.605,-35.295 -12.779,3.203 -4.628,17.328 -16.328,8.048 -4.485,-3.558 -9.48,-11.368 -13.931,-20.577 -9.918,3.557 -19.693,5.961 -26.328,6.081 -16.633,0.301 3.399,-7.351 -3.119,-21.384 -6.517,-14.033 -38.516,1.921 -35.21,13.891 3.305,11.969 18.98,10.641 10.355,21.215 -4.401,5.395 -17.472,6.179 -30.849,7.131 0.837,14.455 1.831,28.345 7.535,32.901 z" />
  <path
     style="fill:#500c44"
     id="path104"
     d="m 1365.2,567.04 c -9.44,11.834 7.021,10.221 10.332,23.473 3.312,13.252 -21.808,22.853 -28.935,10.131 -7.127,-12.722 7.962,-16.814 -7.825,-18.313 -9.076,-0.862 -27.521,4.87 -43.219,11.708 3.926,13.893 10.279,27.868 16.392,33.032 10.161,8.584 7.127,-2.439 18.287,-6.287 11.16,-3.847 30.746,26.566 16.436,32.719 -14.31,6.153 -16.933,-11.684 -17.906,4.625 -0.318,5.334 0.561,12.737 2.247,20.583 13.472,-6.203 29.435,-10.723 38.563,-9.773 15.582,1.622 0.669,6.4 7.718,19.573 7.048,13.173 38.497,-0.851 35.286,-13.628 -3.211,-12.777 -17.331,-4.617 -8.059,-16.322 3.555,-4.488 11.361,-9.487 20.567,-13.944 -3.563,-9.916 -5.974,-19.689 -6.098,-26.324 -0.313,-16.633 7.354,3.394 21.382,-3.133 14.029,-6.527 -1.947,-38.515 -13.914,-35.201 -11.967,3.313 -10.629,18.987 -21.208,10.369 -5.398,-4.397 -6.19,-17.468 -7.152,-30.844 -14.453,0.846 -28.342,1.85 -32.894,7.556 z" />
  <path
     style="fill:#40447c"
     id="path106"
     d="m 1493.1,689.23 c 15.716,1.514 5.829,-2.917 15.181,-14.958 9.351,-12.041 29.218,5.972 23.172,16.036 -6.047,10.064 -14.544,4.329 -7.877,17.347 2.504,4.89 10.348,9.199 19.684,13.386 6.227,-9.259 14.228,-17.857 21.422,-22.156 14.018,-8.378 3.082,0.348 16.411,8.071 13.33,7.723 29.438,-22.127 19.781,-28.687 -9.658,-6.56 -18.763,7.661 -17.747,-6.398 0.505,-6.995 10.673,-15.51 21.209,-24.298 -13.682,-4.441 -27.463,-8.488 -30.883,-14.596 -6.476,-11.565 4.087,-9.395 9.721,-21.374 5.635,-11.979 -18.24,-28.626 -27.699,-17.418 -9.459,11.208 4.017,20.105 -11.447,18.789 -5.83,-0.496 -12.325,-7.263 -18.903,-15.556 -6.863,9.994 -14.749,18.698 -21.003,21.973 -13.534,7.087 -0.289,-7.731 -12.294,-13.375 -12.005,-5.644 -35.318,17.974 -22.824,27.094 12.494,9.12 19.476,-2.916 17.006,13.367 -1.432,9.445 -13.305,19.232 -23.232,28.684 10.651,7.37 22.45,13.311 30.322,14.069 z" />
  <path
     style="fill:#6cf6e4"
     id="path108"
     d="m 695.61997,674.74 c -11.328,-10.998 -6.374,-1.363 -21.198,2.199 -14.82397,3.562 -19.08797,-22.914 -8.08,-26.996 11.008,-4.082 14.062,5.703 16.986,-8.628 1.098,-5.383 -2.336,-13.647 -7.011,-22.749 -10.646,3.342 -22.26497,5.058 -30.56797,3.922 -16.18,-2.213 -2.189,-2.197 -7.775,-16.553 -5.586,-14.357 -36.81,-1.107 -33.366,10.048 3.445,11.155 19.437,5.737 9.863,16.081 -4.764,5.147 -18.022,5.446 -31.74,5.728 7.911,12.014 16.145,23.782 15.001,30.688 -2.166,13.077 -9.06,4.784 -20.942,10.62 -11.883,5.835 -3.635,33.748 10.752,30.904 14.387,-2.844 9.42,-18.209 20.675,-7.523 4.243,4.029 5.089,13.37 5.046,23.955 11.602,-3.518 23.197,-5.39 30.126,-4.041 14.996,2.919 -4.603,6.219 1.247,18.123 5.85,11.906 38.80797,8.023 34.74697,-6.903 -4.061,-14.926 -17.03097,-9.887 -4.932,-21.061 7.018,-6.482 22.403,-6.708 36.059,-7.89 -3.713,-12.407 -9.217,-24.416 -14.89,-29.924 z" />
  <path
     style="fill:#aa22fe"
     id="path110"
     d="m 674.33997,442.35 c 11.503,10.814 6.396,1.26 21.16,-2.54 14.764,-3.8 19.454,22.604 8.513,26.863 -10.941,4.259 -14.152,-5.476 -16.845,8.9 -1.012,5.4 2.556,13.608 7.376,22.633 10.591,-3.512 22.181,-5.416 30.501,-4.414 16.214,1.953 2.224,2.161 8.04,16.426 5.816,14.265 36.823,0.515 33.2,-10.584 -3.624,-11.099 -19.527,-5.423 -10.121,-15.92 4.68,-5.223 17.932,-5.736 31.643,-6.238 -8.104,-11.885 -16.526,-23.519 -15.493,-30.443 1.955,-13.11 8.981,-4.93 20.768,-10.955 11.788,-6.025 3.091,-33.802 -11.248,-30.727 -14.34,3.076 -9.126,18.359 -20.552,7.855 -4.307,-3.96 -5.303,-13.286 -5.431,-23.871 -11.544,3.705 -23.107,5.762 -30.057,4.525 -15.041,-2.677 4.502,-6.292 -1.538,-18.101 -6.041,-11.81 -38.932,-7.397 -34.632,7.461 4.3,14.858 17.188,9.612 5.27,20.979 -6.913,6.594 -22.292,7.068 -35.92697,8.469 3.915,12.347 9.61097,24.265 15.37297,29.682 z" />
  <path
     style="fill:#c6aa2a"
     id="path112"
     d="m 671.32997,1486.1 c -11.61297,10.697 -1.716,6.288 1.014,21.288 2.73,14.999 -23.94297,17.78 -27.40497,6.561 -3.462,-11.219 6.479,-13.722 -7.667,-17.441 -5.313,-1.397 -13.756,1.571 -23.104,5.731 2.743,10.816 3.808,22.512 2.211,30.739 -3.112,16.031 -2.315,2.063 -16.961,6.84 -14.646,4.777 -3.159,36.691 8.172,33.874 11.33,-2.818 6.812,-19.087 16.606,-8.951 4.873,5.044 4.433,18.298 3.949,32.01 12.436,-7.229 24.646,-14.794 31.477,-13.267 12.93597,2.892 4.272,9.312 9.43497,21.502 5.163,12.19 33.493,5.512 31.455,-9.012 -2.038,-14.524 -17.656,-10.421 -6.358,-21.063 4.259,-4.012 13.633,-4.335 24.199,-3.702 -2.866,-11.781 -4.087,-23.462 -2.354,-30.305 3.751,-14.81 5.952,4.943 18.165,-0.234 12.213,-5.177 10.174,-38.3 -4.954,-35.078 -15.129,3.222 -10.822,16.453 -21.304,3.75 -6.08,-7.368 -5.448,-22.742 -5.866,-36.443 -12.597,3.018 -24.894,7.843 -30.71,13.201 z" />
  <path
     style="fill:#729c68"
     id="path114"
     d="m 1423,479.06 c -12.847,-0.38 -15.104,30.426 -0.661,34.365 14.443,3.939 16.723,-12.183 19.816,4.123 1.958,10.324 -8.157,24.834 -14.716,37.363 13.652,3.532 28.383,5.432 36.883,3.405 16.166,-3.856 -2.521,-6.864 0.629,-22.051 3.15,-15.188 35.476,-10.603 35.033,2.075 -0.443,12.677 -14.566,10.853 -2.71,20.319 4.836,3.861 14.679,4.411 25.569,4.334 1.443,-13.126 5.011,-26.629 9.976,-34.007 9.216,-13.695 1.446,4.427 16.819,6.314 15.372,1.886 22.329,-30.424 10.132,-34.191 -12.197,-3.766 -17.628,9.067 -22.554,-4.491 -2.146,-5.907 -2.232,-15.956 -0.854,-26.43 -11.743,1.207 -22.341,1.857 -26.775,-1.512 -10.633,-8.079 6.548,-5.655 6.86,-18.793 0.312,-13.138 -28.205,-23.469 -32.407,-10.234 -4.202,13.235 14.378,19.679 -1.822,23.442 -6.198,1.44 -15.902,-1.318 -26.216,-5.074 -2.15,9.989 -5.382,18.971 -9.109,23.657 -8.641,10.859 -11.046,-2.233 -23.893,-2.614 z" />
  <path
     style="fill:#9802dc"
     id="path116"
     d="m 1094.7,1356.8 c -11.184,6.334 2.852,33.848 17.245,29.732 14.393,-4.116 7.987,-19.086 19.083,-6.744 7.026,7.815 5.895,25.465 6.779,39.58 13.506,-4.055 27.089,-10.064 33.307,-16.204 11.826,-11.676 -5.713,-4.563 -10.891,-19.184 -5.178,-14.622 24.844,-27.454 31.036,-16.383 6.191,11.072 -6.833,16.831 8.214,18.781 6.137,0.796 14.84,-3.835 24.113,-9.545 -5.569,-11.974 -9.516,-25.371 -9.094,-34.253 0.784,-16.489 3.531,3.037 17.656,-3.317 14.124,-6.354 3.328,-37.592 -9.055,-34.491 -12.383,3.1 -10.376,16.891 -21.616,7.849 -4.897,-3.939 -10.178,-12.489 -14.429,-22.161 -9.417,7.119 -18.144,13.167 -23.682,12.584 -13.281,-1.399 2.669,-8.23 -3.874,-19.627 -6.543,-11.398 -36.285,-5.453 -33.019,8.044 3.266,13.496 22.495,9.378 10.591,20.992 -4.555,4.444 -14.283,7.115 -25.051,9.248 3.338,9.657 5.23,19.013 4.471,24.952 -1.758,13.765 -10.6,3.814 -21.784,10.147 z" />
  <path
     style="fill:#660e06"
     id="path118"
     d="m 599.19,152.11 c 12.75,-1.617 10.204,-32.4 -4.675,-34.052 -14.879,-1.652 -14.631,14.629 -20.215,-1.001 -3.535,-9.896 4.208,-25.798 8.745,-39.193 -14.035,-1.373 -28.882,-0.966 -36.965,2.355 -15.372,6.316 3.555,6.39 2.798,21.882 -0.757,15.493 -33.403,15.975 -34.931,3.382 -1.528,-12.593 12.708,-12.98 -0.474,-20.493 -5.377,-3.065 -15.186,-2.082 -25.932,-0.317 0.609,13.191 -0.822,27.084 -4.582,35.142 -6.982,14.958 -2.115,-4.15 -17.594,-3.63 -15.479,0.52 -17.342,33.518 -4.708,35.348 12.633,1.83 16.009,-11.691 22.978,0.94 3.036,5.503 4.678,15.417 4.942,25.978 11.414,-3.013 21.783,-5.298 26.686,-2.658 11.757,6.333 -5.592,6.602 -3.863,19.63 1.729,13.028 31.503,18.812 33.602,5.086 2.099,-13.726 -17.255,-17.212 -1.834,-23.441 5.9,-2.383 15.914,-1.164 26.686,0.948 0.575,-10.201 2.375,-19.576 5.33,-24.783 6.849,-12.068 11.255,0.493 24.006,-1.123 z" />
  <path
     style="fill:#a4d610"
     id="path120"
     d="m 935.21997,888.94 c -7.819,10.2 15.852,30.042 27.493,20.629 11.64,-9.413 -0.106,-20.69 14.931,-13.665 9.521,4.448 15.378,21.137 21.707,33.784 10.84803,-9.01 21.00203,-19.849 24.32703,-27.931 6.324,-15.369 -7.042,-1.968 -17.522,-13.403 -10.48003,-11.436 12.141,-34.979 22.166,-27.208 10.026,7.772 0.288,18.163 14.9,14.078 5.96,-1.666 12.161,-9.329 18.466,-18.209 -9.805,-8.846 -18.673,-19.635 -21.756,-27.976 -5.722,-15.484 4.438,1.415 14.956,-9.953 10.518,-11.368 -11.626,-35.903 -21.813,-28.211 -10.187,7.693 -2.951,19.603 -16.831,15.672 -6.047,-1.713 -14.249,-7.519 -21.94103,-14.76 -5.887,10.233 -11.556,19.211 -16.882,20.838 -12.772,3.902 -0.759,-8.619 -11.236,-16.553 -10.476,-7.935 -35.531,9.16 -27.25,20.307 8.281,11.147 24.371,-0.158 17.952,15.185 -2.456,5.87 -10.367,12.13 -19.445,18.301 6.846,7.584 12.244,15.458 13.866,21.221 3.76,13.358 -8.268,7.654 -16.088,17.854 z" />
  <path
     style="fill:#b4d83e"
     id="path122"
     d="m 407.21,608.74 c -15.27,-6.436 -7.525,2.711 -19.241,12.828 -11.716,10.118 -28.952,-11.078 -20.436,-21.832 8.516,-10.754 21.488,-2.303 17.966,-16.505 -1.695,-6.836 -9.39,-16.271 -18.57,-24.772 -14.639,7.489 -33.391,14.022 -36.155,22.985 -4.334,14.055 8.492,5.026 16.333,16.166 7.842,11.14 -16.067,30.238 -27.089,21.388 -11.022,-8.85 2.454,-16.276 -12.868,-9.845 -7.231,3.035 -14.173,13.886 -20.828,24.884 6.151,12.264 12.12,24.107 18.815,26.196 13.455,4.198 1.688,-7.912 10.28,-15.818 8.592,-7.905 33.976,14.592 23.415,25.807 -10.561,11.215 -16.56,-1.425 -11.604,14.135 2.544,7.985 9.088,17.738 16.681,25.914 10.321,-13.521 21.257,-31.131 30.829,-35.139 15.33,-6.419 1.399,1.796 12.458,12.693 11.058,10.897 27.794,-9.029 20.143,-19.888 -7.651,-10.859 -14.026,-0.708 -9.621,-13.148 2.513,-7.097 11.921,-20.2 22.435,-31.144 -3.578,-6.835 -7.637,-12.669 -12.943,-14.905 z" />
  <path
     style="fill:#d63eea"
     id="path124"
     d="m 189.44,1174 c -7.308,14.872 2.271,7.669 11.695,19.95 9.424,12.281 -12.733,28.263 -22.977,19.139 -10.244,-9.123 -1.057,-21.585 -15.438,-18.89 -6.923,1.297 -16.786,8.433 -25.805,17.106 6.63,15.048 12.068,34.146 20.856,37.423 13.781,5.139 5.508,-8.187 17.083,-15.371 11.575,-7.184 29.258,17.788 19.786,28.28 -9.472,10.492 -16.107,-3.391 -10.572,12.277 2.612,7.394 13.043,14.952 23.639,22.232 12.599,-5.432 24.767,-10.706 27.24,-17.269 4.969,-13.19 -7.801,-2.143 -15.197,-11.177 -7.395,-9.034 16.532,-33.076 27.118,-21.883 10.585,11.192 -2.38,16.45 13.441,12.402 8.119,-2.078 18.234,-8.047 26.835,-15.155 -12.901,-11.085 -29.85,-23.021 -33.298,-32.808 -5.522,-15.676 1.874,-1.293 13.392,-11.703 11.518,-10.41 -7.407,-28.269 -18.69,-21.259 -11.283,7.011 -1.517,13.961 -13.683,8.844 -6.94,-2.919 -19.477,-13.068 -29.795,-24.198 -7.032,3.178 -13.09,6.892 -15.63,12.06 z" />
  <path
     style="fill:#3c1afe"
     id="path126"
     d="m 401.83,532.2 c 11.525,11.907 7.985,0.456 22.73,-4.26 14.745,-4.716 22.292,21.54 10.243,28.095 -12.05,6.556 -20.671,-6.304 -22.998,8.141 -1.12,6.954 2.26,18.649 7.373,30.069 16.403,-1.151 36.215,0.189 42.271,-6.973 9.496,-11.231 -5.842,-7.952 -8.689,-21.274 -2.847,-13.322 26.634,-21.52 33.305,-9.058 6.671,12.462 -8.638,14.011 7.979,14.101 7.842,0.042 18.482,-7.219 28.916,-14.729 -0.851,-13.694 -1.701,-26.928 -7.041,-31.475 -10.733,-9.136 -4.655,6.617 -15.657,10.523 -11.003,3.905 -25.537,-26.742 -11.425,-32.92 14.112,-6.177 14.676,7.803 16.216,-8.456 0.79,-8.343 -1.407,-19.881 -5.188,-30.379 -14.795,8.393 -31.758,20.307 -42.135,20.242 -16.619,-0.104 -0.583,-2.201 -6.485,-16.561 -5.902,-14.36 -29.109,-2.588 -26.326,10.401 2.782,12.989 12.626,6.149 3.697,15.867 -5.094,5.544 -18.885,13.911 -32.847,19.857 0.609,7.694 2.057,14.651 6.061,18.789 z" />
  <path
     style="fill:#d21032"
     id="path128"
     d="m 1240.3,462.89 c -13.173,-10.052 -7.964,0.742 -21.839,7.606 -13.875,6.865 -25.259,-17.969 -14.323,-26.251 10.936,-8.281 21.38,3.147 21.524,-11.485 0.069,-7.043 -5.02,-18.103 -11.781,-28.631 -16.047,3.588 -35.837,5.221 -40.755,13.208 -7.713,12.523 6.964,6.991 11.769,19.738 4.805,12.748 -23.121,25.256 -31.578,13.93 -8.457,-11.326 6.448,-15.144 -9.995,-12.751 -7.76,1.129 -17.197,9.898 -26.392,18.882 2.887,13.413 5.703,26.372 11.663,30.07 11.977,7.431 3.614,-7.238 13.91,-12.743 10.296,-5.504 29.245,22.629 16.213,30.845 -13.031,8.215 -15.677,-5.523 -14.771,10.782 0.465,8.368 4.36,19.448 9.667,29.264 13.375,-10.508 28.37,-24.822 38.64,-26.308 16.448,-2.379 0.905,2.089 8.885,15.406 7.98,13.318 29.169,-1.788 24.478,-14.216 -4.691,-12.428 -13.402,-4.194 -6.025,-15.137 4.209,-6.242 16.595,-16.575 29.514,-24.54 -1.756,-7.512 -4.226,-14.176 -8.804,-17.669 z" />
  <path
     style="fill:#9ab874"
     id="path130"
     d="m 973.45997,459.12 c 11.18,10.764 6.32,-4.635 20.727,-7.379 14.40703,-2.744 22.46003,25.226 10.53703,30.978 -11.92303,5.752 -18.75803,-2.588 -21.01503,10.474 -1.192,6.898 6.96,18.723 14.788,30.792 13.85303,-0.188 28.17303,-0.356 34.72703,-5.533 13.044,-10.304 -6.692,-3.372 -9.638,-17.949 -2.946,-14.577 27.453,-20.813 32.233,-9.661 4.781,11.152 -10.544,12.844 3.717,15.859 8.219,1.738 22.676,-1.526 35.88,-6.66 -9.36,-12.645 -20.772,-25.814 -19.016,-34.556 3.016,-15.016 10.334,-5.559 21.401,-10.03 11.067,-4.471 4.091,-32.874 -9.619,-30.593 -13.71,2.281 -11.582,17.127 -22.097,4.227 -4.745,-5.821 -10.53,-16.133 -15.177,-27.007 -7.62,4.267 -14.75,7.462 -20.227,6.306 -14.389,-3.036 -2.337,-6.214 -7.935,-17.932 -5.599,-11.718 -31.34503,-1.59 -27.82803,13.278 3.516,14.867 18.54903,3.845 6.98303,15.104 -6.22203,6.056 -19.78203,12.291 -33.31703,16.292 -0.119,10.585 0.661,19.931 4.876,23.99 z" />
  <path
     style="fill:#380ee2"
     id="path132"
     d="m 392.88,1364.1 c -8.21,13.171 5.845,5.221 11.52,18.745 5.674,13.524 -20.016,27.206 -28.117,16.736 -8.101,-10.469 -1.361,-18.887 -14.607,-18.384 -6.995,0.266 -16.872,10.694 -27.053,20.856 3.059,13.512 6.195,27.486 12.619,32.822 12.787,10.622 1.91,-7.246 15.558,-13.153 13.648,-5.907 26.057,22.536 16.14,29.527 -9.917,6.991 -14.752,-7.65 -14.743,6.927 0.01,8.401 6.199,21.866 13.96,33.717 10.428,-11.78 20.942,-25.677 29.858,-25.773 15.315,-0.166 7.582,8.955 14.253,18.854 6.671,9.899 33.008,-2.82 27.931,-15.758 -5.076,-12.938 -19.158,-7.776 -8.721,-20.739 4.71,-5.849 13.596,-13.648 23.27,-20.451 -5.755,-6.568 -10.36,-12.881 -10.367,-18.478 -0.016,-14.705 5.594,-3.575 15.895,-11.484 10.301,-7.909 -4.95,-30.992 -18.764,-24.467 -13.814,6.525 0.088,18.944 -13.327,9.965 -7.216,-4.83 -16.129,-16.801 -22.852,-29.211 -10.377,2.08 -19.358,4.783 -22.453,9.749 z" />
  <path
     style="fill:#542e66"
     id="path134"
     d="m 931.27997,678.88 c -15.449,1.487 -0.593,7.815 -7.882,20.541 -7.289,12.726 -33.77,0.644 -30.38,-12.153 3.389,-12.797 14.17,-12.561 5.719,-22.773 -4.463,-5.393 -18.747,-6.897 -33.005,-8.805 -8.87,10.642 -18.06,21.626 -18.392,29.971 -0.662,16.61 6.915,-2.888 19.901,4.359 12.987,7.247 -2.056,34.389 -13.635,30.764 -11.58,-3.625 -2.893,-16.364 -14.462,-7.496 -6.667,5.111 -13.595,18.213 -18.287,31.58 15.693,1.12 33.118,1.021 38.614,8.042 9.441,12.06 -2.502,11.464 -6.307,22.778 -3.805,11.314 22.303,24.496 29.491,12.6 7.188,-11.896 -5.471,-19.939 11.167,-19.531 7.507,0.184 19.102,2.5 30.384,6.046 1.717,-8.562 3.931,-16.056 8.372,-19.464 11.667,-8.951 6.239,2.268 18.78,5.641 12.542,3.372 21.601,-22.769 8.023,-29.772 -13.578,-7.003 -14.989,11.584 -16.013,-4.525 -0.551,-8.665 3.537,-23.02 9.305,-35.901 -7.963,-6.974 -15.569,-12.462 -21.393,-11.902 z" />
  <path
     style="fill:#f2ce06"
     id="path136"
     d="m 589.58,977.69 c -8.03,-13.281 -7.301,2.85 -21.928,1.791 -14.628,-1.059 -15.205,-30.16 -2.202,-32.647 13.002,-2.487 17.459,7.332 23.004,-4.707 2.928,-6.358 -1.902,-19.884 -6.357,-33.562 -13.434,-3.386 -27.314,-6.913 -34.98,-3.599 -15.258,6.596 5.598,4.982 4.69,19.826 -0.908,14.844 -31.887,13.04 -33.634,1.032 -1.747,-12.007 13.497,-9.694 0.493,-16.282 -7.494,-3.796 -22.304,-4.366 -36.385,-2.807 5.787,14.63 13.422,30.294 9.474,38.288 -6.782,13.733 -11.417,2.709 -23.262,4.179 -11.846,1.47 -12.421,30.711 1.414,32.039 13.835,1.328 15.603,-13.566 22.44,1.607 3.085,6.846 6.019,18.3 7.708,30.005 8.462,-2.16 16.175,-3.411 21.169,-0.883 13.121,6.64 0.657,6.606 3.049,19.371 2.392,12.765 29.878,9.61 30.309,-5.662 0.431,-15.272 -16.933,-8.494 -2.857,-16.393 7.572,-4.249 22.281,-6.781 36.39,-7.161 2.839,-10.196 4.493,-19.428 1.465,-24.435 z" />
  <path
     style="fill:#4ac082"
     id="path138"
     d="m 1403.6,834.61 c 12.944,-4.285 1.591,-5.942 4.066,-17.394 2.475,-11.452 35.804,-7.558 35.252,6.466 -0.551,14.024 -20.175,11.325 -5.99,20.022 6.91,4.237 19.86,1.744 32.643,-0.836 -0.837,-14.554 -1.667,-29.802 2.994,-36.962 9.068,-13.93 1.905,5.663 16.528,6.533 14.623,0.87 22.389,-29.959 10.915,-32.084 -11.474,-2.125 -19.764,10.803 -23.115,-1.657 -1.424,-5.297 -0.77,-16.86 1.2,-29.366 -9.16,-2.75 -17.719,-6.377 -23.072,-10.155 -13.435,-9.48 5.875,-3.125 7.387,-18.281 1.512,-15.156 -31.884,-19.696 -35.526,-7.815 -3.642,11.881 10.664,15.238 -3.711,20.149 -6.631,2.266 -17.6,2.45 -28.825,1.075 -0.058,10.89 -0.731,20.725 -4.652,25.513 -9.613,11.738 -7.613,-2.361 -20.284,-2.962 -12.671,-0.601 -17.658,31.665 -2.51,35.004 15.147,3.339 18.387,-15.309 22.042,0.903 1.922,8.525 -0.161,23.231 -3.863,36.838 7.211,3.889 13.773,6.581 18.521,5.009 z" />
  <path
     style="fill:#d8fe26"
     id="path140"
     d="m 186.14,1057.6 c -13.509,1.845 -2.65,5.551 -7.178,16.357 -4.528,10.807 -36.582,0.883 -33.475,-12.803 3.107,-13.687 21.906,-7.445 9.55,-18.589 -6.019,-5.429 -19.206,-5.346 -32.245,-5.148 -1.838,14.462 -3.811,29.604 -9.703,35.792 -11.463,12.037 -0.837,-5.916 -15.055,-9.445 -14.217,-3.53 -27.49,25.359 -16.599,29.547 10.891,4.188 21.406,-7.007 22.422,5.856 0.432,5.468 -2.326,16.717 -6.55,28.652 8.503,4.379 16.254,9.51 20.826,14.203 11.475,11.776 -6.347,1.998 -10.606,16.622 -4.258,14.624 27.744,25.194 33.498,14.18 5.754,-11.015 -7.697,-16.931 7.333,-19.131 6.934,-1.015 17.751,0.81 28.535,4.215 2.049,-10.695 4.509,-20.242 9.239,-24.232 11.597,-9.782 7.052,3.714 19.4,6.622 12.347,2.908 23.151,-27.902 8.869,-33.955 -14.281,-6.052 -20.877,11.688 -21.505,-4.919 -0.33,-8.733 4.407,-22.809 10.535,-35.51 -6.376,-5.144 -12.336,-8.991 -17.291,-8.314 z" />
  <path
     style="fill:#c424a8"
     id="path142"
     d="m 1343.3,725.48 c -9.711,-9.571 -6.014,1.291 -17.337,4.305 -11.323,3.014 -23.039,-28.429 -10.304,-34.327 12.735,-5.898 19.273,12.8 20.552,-3.789 0.623,-8.082 -7.495,-18.474 -15.615,-28.678 -12.574,7.376 -25.77,15.061 -34.268,14.174 -16.532,-1.726 4.173,-4.276 -1.714,-17.69 -5.887,-13.414 -36.869,-6.282 -33.534,4.9 3.335,11.182 18.621,12.672 9.056,21.332 -4.066,3.681 -14.658,8.367 -26.688,12.31 1.725,9.407 2.395,18.679 1.471,25.165 -2.318,16.278 -5.458,-3.806 -19.639,1.753 -14.181,5.558 -3.007,37.356 9.228,35.186 12.236,-2.17 8.707,-16.435 19.628,-5.876 5.038,4.871 10.199,14.551 14.089,25.17 9.721,-4.909 18.782,-8.791 24.831,-7.482 14.829,3.21 1.366,7.853 6.604,19.406 5.238,11.553 36.233,1.293 32.304,-13.712 -3.929,-15.005 -22.005,-9.394 -9.238,-20.033 6.714,-5.595 20.753,-10.44 34.553,-13.344 0.176,-8.19 -0.417,-15.259 -3.979,-18.77 z" />
  <path
     style="fill:#9eac64"
     id="path144"
     d="m 364.5,842.55 c -4.556,12.851 3.717,4.901 11.244,13.881 7.527,8.98 -15.992,32.913 -26.729,23.876 -10.738,-9.037 3.43,-22.881 -12.139,-17.012 -7.585,2.859 -13.559,14.616 -19.362,26.294 12.008,8.266 24.56,16.963 27.356,25.036 5.44,15.707 -5.641,-1.969 -15.298,9.046 -9.657,11.015 9.928,36.059 18.645,28.301 8.716,-7.758 3.591,-22.236 15.487,-17.24 5.057,2.124 13.789,9.733 22.457,18.96 7.791,-5.548 15.905,-10.082 22.172,-11.993 15.727,-4.796 -1.135,6.556 9.907,17.048 11.042,10.491 35.112,-13.1 27.964,-23.265 -7.149,-10.164 -18.576,-0.924 -13.637,-15.29 2.278,-6.627 8.86,-15.403 16.832,-23.424 -8.565,-6.726 -15.92,-13.289 -17.296,-19.323 -3.374,-14.792 6.534,-4.564 14.781,-14.203 8.246,-9.639 -14.178,-33.369 -26.106,-23.454 -11.928,9.915 0.813,23.912 -14.233,16.854 -7.912,-3.711 -18.248,-14.377 -26.725,-25.647 -7.497,3.309 -13.649,6.841 -15.32,11.555 z" />
  <path
     style="fill:#5e74f0"
     id="path146"
     d="m 1051.5,1181.1 c 13.101,6.392 -2.176,4.307 -0.249,16.287 1.927,11.98 32.929,13.319 33.615,-1.537 0.686,-14.856 -20.144,-12.929 -4.986,-19.753 7.615,-3.429 21.547,-0.111 35.03,3.074 -4.164,-12.162 -8.03,-24.45 -5.717,-31.943 4.901,-15.877 1.948,-0.777 15.808,-3.55 13.86,-2.773 14.558,-33.365 0.982,-34.5 -13.575,-1.135 -14.882,14.495 -22.879,2.151 -5.1,-7.871 1.924,-26.445 5.576,-42.478 -13.373,1.707 -27.021,5.431 -33.938,9.7 -13.336,8.231 3.907,1.381 4.769,16.949 0.862,15.568 -34.875,13.21 -36.832,1.21 -1.956,-12 14.92,-12.625 2.939,-17.407 -6.805,-2.716 -21.28,3.729 -35.398,8.811 -3.239,12.778 -5.803,24.66 -2.253,30.135 7.945,12.252 10.612,-2.678 22.269,-3.264 11.657,-0.586 19.245,31.734 5.217,34.478 -14.028,2.744 -19.13,-12.205 -25.412,2.766 -2.625,6.255 0.726,16.174 5.036,26.61 14.056,-1.77 28.872,-1.422 36.423,2.261 z" />
  <path
     style="fill:#0c0e3a"
     id="path148"
     d="m 519.44,841.9 c 8.59,11.777 -3.938,2.789 -7.838,14.279 -3.9,11.49 22.876,27.174 30.431,14.364 7.554,-12.81 -11.758,-20.849 4.831,-19.792 8.335,0.531 19.097,9.98 29.525,19.101 2.008,-12.698 4.338,-25.366 9.887,-30.908 11.758,-11.742 2.085,0.224 15.633,4.256 13.548,4.031 28.472,-22.682 17.004,-30.035 -11.468,-7.353 -19.934,5.851 -21.229,-8.799 -0.826,-9.343 14.069,-22.474 24.796,-34.937 -12.618,-4.746 -26.424,-7.838 -34.534,-7.299 -15.637,1.038 2.808,3.048 -3.711,17.211 -6.519,14.163 -37.004,-4.636 -33.121,-16.157 3.883,-11.522 19.092,-4.181 10.739,-14.011 -4.745,-5.583 -20.553,-6.657 -35.409,-8.768 -8.839,9.779 -16.663,19.082 -16.086,25.583 1.292,14.545 10.632,2.596 21.21,7.53 10.578,4.935 2.168,37.05 -11.514,32.914 -13.682,-4.136 -11.2,-19.735 -23.755,-9.441 -5.246,4.301 -6.923,14.635 -7.995,25.876 13.251,5.009 26.185,12.246 31.136,19.033 z" />
  <path
     style="fill:#103e6a"
     id="path150"
     d="m 1162.4,1109 c 6.793,12.897 -4.3,2.189 -9.824,12.993 -5.523,10.803 18.698,30.202 28.028,18.621 9.331,-11.581 -8.613,-22.333 7.648,-18.883 8.17,1.733 17.45,12.641 26.446,23.177 3.826,-12.273 7.967,-24.47 14.26,-29.149 13.335,-9.914 2.031,0.524 14.851,6.476 12.821,5.952 31.458,-18.317 21.176,-27.255 -10.282,-8.937 -20.571,2.901 -19.73,-11.782 0.536,-9.364 17.177,-20.199 29.596,-30.976 -11.797,-6.524 -25.01,-11.583 -33.112,-12.226 -15.622,-1.238 2.337,3.422 -6.166,16.492 -8.502,13.069 -35.942,-9.948 -30.431,-20.785 5.512,-10.838 19.496,-1.371 12.656,-12.307 -3.886,-6.212 -19.372,-9.564 -33.765,-13.805 -10.163,8.395 -19.252,16.467 -19.622,22.983 -0.829,14.579 10.144,4.109 19.895,10.524 9.751,6.415 -3.223,36.973 -16.161,30.899 -12.938,-6.074 -8.223,-21.149 -22.137,-12.783 -5.814,3.496 -8.97,13.478 -11.659,24.445 12.387,6.873 24.136,15.908 28.051,23.341 z" />
  <path
     style="fill:#e2d2d0"
     id="path152"
     d="m 1217.4,204.5 c -4.162,13.97 -4.605,-1.442 -16.109,2.419 -11.503,3.861 -7.752,34.665 7.016,32.911 14.768,-1.754 9.459,-21.988 18.671,-8.151 4.629,6.952 3.635,21.239 2.699,35.061 11.317,-6.098 22.806,-11.922 30.577,-10.866 16.465,2.237 1.085,1.795 6.089,15.014 5.004,13.219 35.297,8.903 34.196,-4.676 -1.101,-13.578 -16.734,-12.31 -5.866,-22.219 6.931,-6.319 26.403,-2.429 42.818,-1.449 -3.872,-12.913 -9.779,-25.769 -15.122,-31.893 -10.302,-11.809 -0.723,4.081 -15.94,7.478 -15.217,3.398 -18.738,-32.244 -7.22,-36.138 11.518,-3.893 14.896,12.653 17.653,0.052 1.566,-7.158 -7.16,-20.383 -14.484,-33.479 -13.135,-1.105 -25.277,-1.69 -30.098,2.709 -10.787,9.843 4.378,10.031 6.864,21.435 2.485,11.404 -28.157,24.177 -33.159,10.788 -5.002,-13.39 8.911,-20.869 -6.887,-24.617 -6.601,-1.566 -15.837,3.362 -25.428,9.322 4.047,13.573 6.128,28.247 3.73,36.299 z" />
  <path
     style="fill:#747a44"
     id="path154"
     d="m 536.56,432.49 c 6.008,11.415 -7.234,0.934 -13.536,11.332 -6.302,10.398 19.35,35.392 28.801,22.991 9.451,-12.401 -8.112,-18.384 7.375,-15.988 8.032,1.243 20.832,7.271 32.111,14.654 7.491,-5.581 13.623,-11.245 14.655,-16.99 2.849,-15.856 -2.077,-2.81 -12.126,-12.79 -10.05,-9.979 9.489,-32.625 19.774,-26.291 10.285,6.335 3.331,14.63 15.094,8.821 5.717,-2.823 10.927,-14.914 16.422,-27.556 -12.574,-3.458 -25.257,-7.069 -29.517,-13.965 -8.743,-14.156 7.558,-2.903 14.371,-15.174 6.812,-12.27 -21.184,-30.767 -28.555,-21.659 -7.371,9.108 2.017,15.704 -11.469,13.695 -4.947,-0.737 -9.592,-6.098 -14.276,-12.82 -8.51,9.45 -17.793,17.51 -23.885,20.195 -12.848,5.663 -4.706,-0.65 -16.437,-7.082 -11.731,-6.432 -28.929,14.188 -16.9,23.987 12.029,9.799 19.523,-5.906 15.813,10.219 -2.052,8.918 -17.044,18.716 -30.359,28.141 14.037,5.301 29.231,9.796 32.644,16.28 z" />
  <path
     style="fill:#7ebc1a"
     id="path156"
     d="m 888.07997,853.05 c -4.021,-12.256 7.288,0.284 15.235,-8.917 7.947,-9.202 -13.18,-38.122 -24.566,-27.469 -11.386,10.652 4.934,19.479 -9.937,14.535 -7.713,-2.564 -19.328,-10.641 -29.22,-19.801 -8.317,4.255 -15.307,8.817 -17.282,14.309 -5.452,15.159 1.579,3.117 9.825,14.632 8.246,11.515 -14.794,30.587 -23.88,22.628 -9.085,-7.96 -0.846,-14.981 -13.412,-11.213 -6.107,1.831 -13.259,12.884 -20.785,24.433 11.821,5.505 23.726,11.18 26.776,18.689 6.262,15.415 -7.936,1.603 -16.699,12.566 -8.762,10.963 15.76,33.867 24.546,26.115 8.786,-7.752 0.629,-15.82 13.591,-11.592 4.755,1.551 8.442,7.611 11.939,15.02 9.966,-7.899 20.462,-14.299 26.917,-15.931 13.612,-3.443 4.532,1.425 15.027,9.722 10.495,8.297 30.889,-9.168 20.662,-20.835 -10.227,-11.667 -20.234,2.569 -13.888,-12.711 3.509,-8.452 19.925,-15.613 34.624,-22.688 -12.956,-7.566 -27.188,-14.53 -29.473,-21.492 z" />
  <path
     style="fill:#e47eba"
     id="path158"
     d="m 104.11,599.85 c -12.118,-4.421 4.732,-5.551 2.417,-17.487 -2.315,-11.936 -38.107,-13.224 -36.779,2.312 1.328,15.535 18.358,8.172 5.275,16.798 -6.786,4.474 -20.317,8.605 -33.632,10.711 -1.801,9.166 -2.54,17.481 0.554,22.43 8.539,13.66 3.426,0.687 17.574,1.33 14.148,0.643 14.883,30.544 3.009,32.76 -11.874,2.215 -12.295,-8.601 -17.107,3.603 -2.339,5.932 1.922,18.388 6.342,31.445 11.638,-5.883 23.46,-11.728 31.248,-9.479 15.986,4.615 -3.649,7.227 -0.455,20.894 3.194,13.666 36.359,8.565 35.703,-3.133 -0.657,-11.699 -12.042,-10.28 -0.702,-17.849 4.16,-2.777 11.202,-1.925 19.187,-0.091 -0.042,-12.717 1.421,-24.923 4.131,-31.004 5.715,-12.825 3.923,-2.679 16.934,-5.794 13.011,-3.114 11.903,-29.942 -3.591,-29.122 -15.493,0.82 -10.497,17.488 -18.579,3.05 -4.47,-7.985 0.056,-25.313 3.59,-41.239 -13.961,5.501 -28.236,12.376 -35.119,9.865 z" />
  <path
     style="fill:#0ac0dc"
     id="path160"
     d="m 664.28,121.71 c 5.71797,11.563 -7.255,0.751 -13.818,10.986 -6.563,10.235 18.44897,35.869 28.20997,23.711 9.761,-12.158 -7.644,-18.584 7.777,-15.796 7.998,1.446 20.641,7.795 31.731,15.461 7.63,-5.39 13.903,-10.897 15.08,-16.614 3.249,-15.779 -2.005,-2.862 -11.799,-13.092 -9.795,-10.23 10.311,-32.375 20.432,-25.783 10.121,6.593 2.961,14.71 14.866,9.199 5.786,-2.678 11.3,-14.633 17.113,-27.132 -12.482,-3.775 -25.071,-7.705 -29.154,-14.707 -8.383,-14.372 7.629,-2.711 14.749,-14.806 7.12,-12.094 -20.4,-31.292 -27.999,-22.374 -7.599,8.919 1.619,15.75 -11.811,13.401 -4.927,-0.862 -9.435,-6.338 -13.947,-13.176 -8.746,9.232 -18.23,17.054 -24.388,19.585 -12.987,5.337 -4.688,-0.769 -16.25297,-7.495 -11.565,-6.727 -29.278,13.452 -17.501,23.553 11.777,10.1 19.66597,-5.41 15.55,10.615 -2.276,8.864 -17.511,18.279 -31.06,27.365 13.899,5.654 28.974,10.531 32.222,17.099 z" />
  <path
     style="fill:#06e02c"
     id="path162"
     d="m 1102,286.16 c 10.165,6.766 -5.861,35.221 -19.848,28.449 -13.987,-6.772 -2.144,-16.053 -15.042,-5.608 -6.208,5.027 -14.595,15.883 -21.58,27.365 15.697,4.38 35.395,6.767 40.336,13.8 7.611,10.834 -7.051,9.25 -11.751,20.22 -4.7,10.97 18.868,22.171 27.115,10.475 8.247,-11.697 -7.834,-19.144 8.598,-16.938 8.048,1.08 17.325,10.423 26.301,19.651 11.286,-10.69 23.186,-21.659 23.769,-30.219 1.125,-16.533 -9.698,-1.265 -23.15,-8.986 -13.452,-7.721 5.286,-30.507 18.159,-25.979 12.873,4.528 2.976,16.115 15.376,8.082 5,-3.239 10.952,-11.447 16.352,-21.174 -12.038,-5.681 -24.166,-13.675 -29.993,-20.767 -10.549,-12.839 1.996,-3.855 8.5,-17.886 6.505,-14.03 -24.209,-28.212 -31.691,-17.719 -7.482,10.493 7.872,16.78 -5,16.211 -8.26,-0.365 -21.843,-13.344 -34.863,-22.816 -6.672,14.326 -11.698,30.054 -11.511,37.759 0.339,13.889 9.758,-0.686 19.923,6.08 z" />
  <path
     style="fill:#ea246c"
     id="path164"
     d="m 662.26,1237.3 c -11.879,2.825 -21.775,-28.297 -7.286,-33.914 14.48897,-5.617 13.20697,9.373 14.35597,-7.183 0.553,-7.969 -1.673,-21.505 -5.31297,-34.443 -13.904,8.5 -29.078,21.286 -37.592,20.106 -13.115,-1.817 -1.962,-11.464 -6.785,-22.38 -4.823,-10.916 -29.084,-1.308 -26.147,12.699 2.937,14.007 19.347,7.317 6.532,17.837 -6.276,5.152 -19.436,5.572 -32.306,5.849 0.128,15.544 0.043,31.729 5.909,37.99 11.33,12.093 7.536,-6.234 22.355,-10.814 14.819,-4.58 18.718,24.662 6.631,30.995 -12.088,6.333 -13.82,-8.807 -16.395,5.742 -1.038,5.866 0.911,15.816 4.346,26.398 12.362,-4.935 26.478,-8.36 35.639,-7.79 16.585,1.033 1.461,4.088 7.292,18.411 5.832,14.323 37.14397,1.517 34.56597,-11.11 -2.578,-12.627 -17.64297,-5.679 -8.45297,-14.709 5.89697,-5.795 24.65297,-6.886 40.45797,-9.956 -5.934,-14.646 -14.016,-29.045 -19.781,-34.161 -10.39,-9.22 -6.147,7.608 -18.02597,10.433 z" />
  <path
     style="fill:#785886"
     id="path166"
     d="m 598.87,1364 c 10.82,5.659 -2.121,35.642 -16.743,30.38 -14.622,-5.262 -3.822,-15.738 -15.548,-3.993 -5.644,5.653 -12.842,17.331 -18.58,29.484 16.071,2.703 35.911,3.004 41.565,9.478 8.709,9.973 -6.038,9.941 -9.557,21.344 -3.519,11.403 21.097,20.062 28.067,7.563 6.97,-12.5 -9.806,-18.213 6.768,-17.749 8.117,0.227 18.326,8.542 28.223,16.773 10.098,-11.818 20.778,-23.979 20.456,-32.553 -0.622,-16.559 -9.777,-0.237 -23.967,-6.499 -14.19,-6.262 2.046,-30.893 15.324,-27.746 13.27797,3.147 4.656,15.712 16.14197,6.419 4.631,-3.747 9.686,-12.536 14.033,-22.778 -12.569,-4.382 -25.47097,-11.055 -32.01197,-17.495 -11.842,-11.658 1.579,-4.044 6.571,-18.681 4.992,-14.637 -27.044,-25.507 -33.38,-14.285 -6.336,11.223 9.594,15.859 -3.266,16.647 -8.253,0.506 -23.127,-10.971 -37.07,-19.02 -5.127,14.948 -8.47,31.118 -7.473,38.761 1.793,13.777 9.627,-1.708 20.447,3.95 z" />
  <path
     style="fill:#ba1ee6"
     id="path168"
     d="m 515.38,691.26 c -9.607,-7.536 8.583,-34.658 22,-26.819 13.418,7.839 0.889,16.171 14.56,6.761 6.58,-4.529 15.786,-14.7 23.643,-25.604 -15.309,-5.587 -34.762,-9.499 -39.141,-16.895 -6.745,-11.393 7.748,-8.674 13.287,-19.245 5.539,-10.571 -17.086,-23.572 -26.218,-12.552 -9.132,11.02 6.322,19.695 -9.889,16.218 -7.94,-1.703 -16.462,-11.739 -24.693,-21.637 -12.083,9.779 -24.801,19.79 -26.047,28.279 -2.407,16.395 9.57,2.015 22.381,10.759 12.811,8.744 -7.642,30.003 -20.124,24.488 -12.482,-5.515 -1.714,-16.297 -14.701,-9.253 -5.236,2.84 -11.809,10.561 -17.95,19.838 11.559,6.6 23.029,15.513 28.287,23.037 9.519,13.621 -2.289,3.688 -9.866,17.17 -7.576,13.482 21.941,30.009 30.217,20.13 8.276,-9.88 -6.543,-17.342 6.246,-15.773 8.207,1.006 20.739,15.003 32.983,25.458 7.766,-13.763 14,-29.053 14.413,-36.749 0.744,-13.873 -9.781,-0.075 -19.388,-7.611 z" />
  <path
     style="fill:#7cfa56"
     id="path170"
     d="m 277.88,837.77 c -10.561,5.365 -26.77,-19.884 -15.307,-28.77 11.463,-8.886 22.455,7.156 20.111,-9.311 -1.013,-7.113 -8.554,-15.08 -16.89,-22.871 -15.901,3.645 -33.494,6.996 -38.787,14.461 -9.57,13.497 3.339,1.829 10.73,15.47 7.391,13.641 -16.363,26.159 -24.761,15.745 -8.398,-10.414 1.535,-13.151 -12.502,-12.807 -6.656,0.163 -18.308,4.081 -29.776,9.578 3.057,13.808 4.671,31.421 12.822,38.055 12.872,10.477 4.227,-3.322 17.81,-9.615 13.583,-6.294 31.707,18.718 21.638,26.706 -10.069,7.987 -20.345,-0.475 -19.953,13.396 0.169,5.985 3.486,14.936 8.278,23.96 16.634,-6.089 36.162,-11.211 40.636,-17.797 7.246,-10.667 -3.948,-0.939 -8.993,-13.177 -5.046,-12.239 18.991,-29.378 27.695,-16.783 8.703,12.596 -6.601,17.261 9.115,16.557 9.137,-0.409 23.456,-15.016 36.373,-27.405 -6.822,-10.578 -15.174,-20.114 -21.542,-23.853 -11.953,-7.015 -6.136,3.095 -16.697,8.461 z" />
  <path
     style="fill:#00c05a"
     id="path172"
     d="m 1127.1,993.13 c -11.756,-1.45 -11.095,-31.447 3.377,-32.413 14.472,-0.966 14.626,18.48 21.881,3.513 3.134,-6.465 1.329,-17.286 -1.232,-28.405 -15.224,-5.86 -31.688,-12.909 -40.249,-9.675 -15.478,5.848 1.748,3.383 0.257,18.826 -1.491,15.443 -28.186,12.555 -29.333,-0.774 -1.147,-13.329 8.62,-10.05 -3.214,-17.607 -5.611,-3.583 -17.465,-6.843 -30.047,-8.69 -5.178,13.16 -13.679,28.67 -10.625,38.725 4.823,15.881 5.362,-0.393 20.143,1.975 14.782,2.368 15.841,33.238 3.027,34.238 -12.814,0.999 -16.609,-11.76 -24.032,-0.036 -3.203,5.058 -5.453,14.336 -6.52,24.497 17.198,4.243 36.256,10.904 43.645,7.941 11.969,-4.799 -2.75,-2.984 -0.098,-15.953 2.652,-12.97 32.164,-13.757 32.345,1.552 0.182,15.31 -15.118,10.628 -1.69,18.825 7.807,4.765 27.844,0.65 45.477,-2.409 0.251,-12.584 -1.349,-25.159 -4.542,-31.818 -5.99,-12.497 -6.814,-0.862 -18.57,-2.312 z" />
  <path
     style="fill:#c29668"
     id="path174"
     d="m 983.74997,320.24 c -5.502,10.49 -33.339,-0.706 -29.14,-14.589 4.199,-13.883 22.451,-7.171 11.003,-19.237 -4.945,-5.212 -15.707,-7.339 -27.015,-8.863 -10.852,12.181 -23.254,25.101 -23.246,34.252 0.015,16.546 3.782,-0.443 17.707,6.397 13.926,6.84 1.81,30.802 -11.068,27.176 -12.878,-3.626 -6.365,-11.61 -17.609,-3.2 -5.332,3.988 -12.562,13.93 -18.727,25.053 10.489,9.486 22.006,22.91 32.492,23.598 16.561,1.086 1.522,-5.156 8.951,-18.153 7.428,-12.997 36.689,-3.103 33.106,9.24 -3.583,12.343 -16.861,11.395 -8.508,22.476 3.604,4.781 11.492,10.158 20.625,14.739 10.034,-14.597 22.988,-30.082 22.821,-38.042 -0.271,-12.892 -3.762,1.521 -14.963,-5.534 -11.201,-7.055 -1.532,-34.949 12.858,-29.721 14.39003,5.228 4.615,17.894 17.02003,8.219 7.212,-5.625 10.426,-25.826 13.781,-43.406 -11.687,-4.672 -24.01903,-7.609 -31.37603,-6.969 -13.807,1.2 -3.21,6.074 -8.712,16.564 z" />
  <path
     style="fill:#2290de"
     id="path176"
     d="m 1092.8,726.66 c -11.73,1.65 -18.874,-27.491 -5.148,-32.179 13.726,-4.688 18.92,14.053 22.043,-2.285 1.349,-7.057 -3.201,-17.039 -8.559,-27.113 -16.224,-1.709 -33.953,-4.246 -41.381,1.099 -13.43,9.664 2.566,2.813 5.133,18.114 2.567,15.301 -23.963,19.438 -28.529,6.863 -4.566,-12.575 5.717,-11.943 -7.672,-16.17 -6.349,-2.005 -18.642,-2.078 -31.27303,-0.597 -1.586,14.053 -5.772,31.238 -0.214,40.156 8.77803,14.085 5.07603,-1.771 19.96603,-3.319 14.89,-1.548 23.922,27.99 11.807,32.28 -12.116,4.29 -19.091,-7.048 -23.219,6.201 -1.781,5.716 -1.547,15.259 0.06,25.35 17.71,-0.365 37.844,1.124 44.211,-3.655 10.313,-7.74 -3.43,-2.168 -4.234,-15.382 -0.803,-13.214 27.493,-21.631 31.641,-6.893 4.148,14.738 -11.843,14.187 3.252,18.619 8.776,2.577 27.059,-6.597 43.295,-14.126 -3.022,-12.218 -7.83,-23.948 -12.642,-29.55 -9.03,-10.513 -6.807,0.937 -18.537,2.587 z" />
  <path
     style="fill:#667abc"
     id="path178"
     d="m 943.97997,1052.1 c 11.438,-6.656 -2.107,-8.741 -1.745,-20.704 0.363,-11.962 32.663,-13.367 34.444,1.883 1.781,15.25 -16.523,11.246 -0.855,16.827 9.93,3.537 29.11203,6.318 45.03703,5.859 0.441,-16.035 -2.023,-34.185 -6.579,-41.535 -7.262,-11.719 -12.571,-0.329 -24.23803,0.11 -11.667,0.439 -17.239,-27.155 -2.603,-29.53 14.63603,-2.375 14.41903,11.357 20.77703,-3.654 3.938,-9.297 -2.078,-25.017 -5.67,-38.765 -11.69503,1.756 -23.13203,4.754 -29.96103,7.878 -15.134,6.923 -0.231,8.606 -1.481,22.449 -1.25,13.842 -30.494,13.432 -32.03,1.595 -1.537,-11.837 9.46,-16.534 -4.31,-23.238 -8.017,-3.903 -23.638,3.82 -38.234,9.69 1.205,10.344 3.555,20.288 6.611,26.634 7.213,14.979 4.713,1.39 20.116,1.496 15.402,0.106 9.597,32.378 -2.056,33.182 -11.653,0.803 -14.106,-10.834 -19.871,1.382 -2.801,5.935 -3.827,16.095 -3.286,26.665 18.046,1.789 38.766,5.947 45.934,1.776 z" />
  <path
     style="fill:#de6c18"
     id="path180"
     d="m 870.55997,526.18 c 8.765,-9.914 -4.749,-7.636 -8.165,-19.106 -3.416,-11.47 26.804,-22.958 33.29,-9.04 6.485,13.917 -12.15,15.87 4.478,16.243 10.538,0.236 29.623,-3.154 44.596,-8.596 -4.623,-15.36 -12.667,-31.816 -19.303,-37.361 -10.578,-8.842 -12.037,3.64 -22.975,7.724 -10.938,4.084 -24.902,-20.359 -11.754,-27.214 13.148,-6.855 17.258,6.248 18.575,-10 0.816,-10.063 -9.837,-23.095 -17.569,-35.017 -10.55,5.343 -20.465,11.785 -25.966,16.897 -12.19,11.33 2.486,8.243 5.652,21.776 3.166,13.533 -24.725,22.338 -29.905,11.584 -5.18,-10.754 3.783,-18.67 -11.397,-20.705 -8.837,-1.185 -21.238,11.058 -33.25,21.218 4.395,9.441 9.753,18.141 14.649,23.205 11.556,11.952 4.911,-0.162 19.566,-4.904 14.654,-4.742 19.289,27.72 8.48,32.146 -10.809,4.426 -16.796,-5.85 -18.429,7.559 -0.793,6.515 1.427,16.482 5.263,26.346 17.694,-3.976 38.671,-6.543 44.164,-12.755 z" />
  <path
     style="fill:#0e5696"
     id="path182"
     d="m 1291.5,303.51 c -12.936,2.787 -0.703,8.965 -4.751,20.226 -4.048,11.262 -35.196,2.598 -32.168,-12.455 3.028,-15.053 19.193,-5.578 6.023,-15.736 -8.347,-6.438 -25.726,-15.021 -41.01,-19.515 -5.383,15.111 -8.66,33.132 -6.604,41.531 3.277,13.392 11.852,4.205 23.081,7.4 11.23,3.195 7.985,31.158 -6.667,28.885 -14.652,-2.273 -10.194,-15.263 -20.887,-2.959 -6.623,7.621 -5.77,24.431 -6.611,38.616 11.664,1.952 23.467,2.642 30.928,1.786 16.534,-1.897 2.884,-8.112 8.358,-20.887 5.474,-12.775 33.154,-3.331 30.95,8.4 -2.204,11.731 -14.115,12.793 -3.096,23.431 6.415,6.193 23.659,3.686 39.356,2.624 2.057,-10.208 2.901,-20.391 1.96,-27.372 -2.221,-16.477 -4.051,-2.781 -18.664,-7.65 -14.613,-4.869 0.9,-33.759 12.228,-30.915 11.329,2.844 10.058,14.669 19.322,4.838 4.501,-4.776 8.622,-14.12 11.38,-24.337 -16.607,-7.289 -35.021,-17.658 -43.128,-15.911 z" />
  <path
     style="fill:#6cc804"
     id="path184"
     d="m 321.54,1225.7 c 12.617,-3.99 -0.142,-8.991 2.831,-20.583 2.973,-11.593 34.797,-5.891 33.196,9.38 -1.601,15.271 -18.585,7.355 -4.519,16.232 8.914,5.625 27.022,12.539 42.661,15.579 3.941,-15.549 5.511,-33.798 2.676,-41.968 -4.52,-13.025 -12.194,-3.074 -23.674,-5.201 -11.48,-2.127 -10.875,-30.271 3.926,-29.383 14.801,0.888 11.582,14.238 21.073,0.985 5.878,-8.209 3.451,-24.865 2.956,-39.066 -11.796,-0.848 -23.612,-0.427 -30.959,1.126 -16.283,3.441 -2.11,8.347 -6.36,21.58 -4.25,13.233 -32.695,6.429 -31.602,-5.457 1.093,-11.886 12.851,-14.062 0.883,-23.618 -6.968,-5.564 -23.9,-1.448 -39.428,1.082 -1.09,10.356 -0.973,20.574 0.619,27.435 3.758,16.195 4.294,2.388 19.3,5.864 15.005,3.476 2.274,33.694 -9.271,31.926 -11.546,-1.768 -11.391,-13.659 -19.691,-3.003 -4.033,5.178 -7.258,14.867 -9.045,25.298 17.214,5.698 36.521,14.292 44.428,11.792 z" />
  <path
     style="fill:#70ca2c"
     id="path186"
     d="m 733.43997,988.03 c -11.559,-1.675 -24.047,28.645 -9.014,32 15.033,3.355 15.458,-10.456 19.346,5.708 1.647,6.848 1.846,17.064 0.84,27.429 11.13,-1.906 21.542,-2.99 27.066,0.948 13.22,9.426 -2.485,11.11 -2.898,25.398 -0.413,14.288 32.784,14.005 34.78,2.505 1.996,-11.5 -11.981,-17.389 1.72,-22.441 6.123,-2.258 17.149,2.86 28.9,8.834 -1.405,-11.323 -2.088,-22.272 1.693,-28.381 8.754,-14.143 6.91,5.216 21.405,5.742 14.495,0.526 18.234,-29.244 6.689,-31.894 -11.546,-2.65 -13.56,8.838 -18.237,-4.207 -2.492,-6.951 -2.792,-19.625 -1.249,-32.116 -12.856,0.887 -24.418,1.356 -28.867,-1.72 -10.627,-7.349 3.925,-4.028 4.152,-17.459 0.228,-13.431 -25.722,-24.4 -29.23,-9.491 -3.508,14.908 13.008,16.097 -2.818,20.558 -5.908,1.666 -15.441,-0.625 -25.723,-3.937 -1.703,10.446 -4.85,20.16 -8.841,25.37 -8.214,10.722 -8.155,-1.171 -19.714,-2.846 z" />
  <path
     style="fill:#b4ce06"
     id="path188"
     d="m 251.82,1076.4 c 2.255,11.46 35,13.182 33.178,-2.112 -1.822,-15.295 -14.992,-11.114 -1.033,-20.145 5.914,-3.826 15.486,-7.402 25.597,-9.891 -5.49,-9.867 -9.967,-19.33 -8.084,-25.848 4.506,-15.598 11.305,-1.341 24.921,-5.691 13.616,-4.35 2.336,-35.573 -9.175,-33.641 -11.511,1.932 -12.43,17.071 -21.741,5.822 -4.161,-5.027 -2.991,-17.127 -1.253,-30.194 -10.216,5.082 -20.318,9.359 -27.336,7.818 -16.246,-3.567 2.629,-8.249 -1.684,-22.098 -4.312,-13.849 -33.637,-7.5 -32.307,4.27 1.33,11.771 12.836,9.86 2.081,18.6 -5.731,4.657 -17.587,9.144 -29.883,11.832 5.101,11.834 9.38,22.585 7.953,27.803 -3.407,12.463 -5.102,-2.366 -17.848,1.875 -12.746,4.241 -14.485,32.36 0.743,30.723 15.228,-1.637 10.87,-17.612 20.329,-4.162 3.531,5.021 4.533,14.774 4.82,25.572 10.419,-1.859 20.628,-2.112 26.867,-0.076 12.838,4.193 1.6,8.083 3.855,19.543 z" />
  <path
     style="fill:#0848fc"
     id="path190"
     d="m 817.75997,1480.7 c 10.019,6.003 33.233,-17.156 20.657,-26.049 -12.577,-8.892 -18.295,3.686 -15.649,-12.727 1.121,-6.954 4.878,-16.456 9.803,-25.631 -11.004,-2.533 -21.029,-5.549 -24.607,-11.313 -8.563,-13.795 6.578,-9.292 12.469,-22.315 5.891,-13.023 -24.847,-25.564 -31.124,-15.723 -6.276,9.841 4.348,20.665 -10.241,20.042 -6.52,-0.278 -14.719,-9.252 -23.257,-19.296 -3.07,10.989 -6.662,21.355 -12.507,25.533 -13.531,9.673 -4.364,-7.478 -17.535,-13.552 -13.171,-6.075 -28.102,19.951 -18.471,26.848 9.631,6.897 15.92,-2.925 15.204,10.915 -0.381,7.375 -4.992,19.183 -11.233,30.114 12.204,4.14 23.052,8.165 25.97,12.719 6.971,10.879 -5.175,2.203 -10.564,14.508 -5.389,12.304 14.323,32.432 23.309,20.029 8.985,-12.403 -5.794,-19.868 10.528,-17.882 6.093,0.741 14.005,6.531 22.215,13.552 5.599,-8.981 12.25,-16.73 17.941,-19.999 11.713,-6.726 7.073,4.224 17.092,10.227 z" />
  <path
     style="fill:#6cf28a"
     id="path192"
     d="m 1281.9,1247.7 c 11.503,2.026 24.908,-27.899 9.985,-31.71 -14.924,-3.811 -15.77,9.98 -19.164,-6.295 -1.438,-6.895 -1.325,-17.113 -0,-27.442 -11.182,1.566 -21.623,2.332 -27.025,-1.772 -12.927,-9.824 2.823,-11.029 3.671,-25.297 0.848,-14.269 -32.342,-14.997 -34.687,-3.563 -2.345,11.434 11.445,17.746 -2.404,22.378 -6.189,2.07 -17.054,-3.382 -28.617,-9.711 1.06,11.361 1.409,22.325 -2.557,28.316 -9.181,13.87 -6.748,-5.424 -21.22,-6.392 -14.472,-0.967 -19.117,28.675 -7.658,31.676 11.459,3.001 13.823,-8.421 18.1,4.761 2.279,7.024 2.192,19.7 0.27,32.139 12.877,-0.494 24.448,-0.612 28.801,2.599 10.398,7.669 -4.046,3.907 -4.682,17.325 -0.637,13.418 24.967,25.172 28.927,10.378 3.96,-14.795 -12.512,-16.486 3.443,-20.463 5.956,-1.485 15.414,1.095 25.591,4.719 2.02,-10.389 5.462,-20.003 9.61,-25.089 8.537,-10.468 8.116,1.417 19.619,3.443 z" />
</svg>
