<?xml version="1.0" encoding="UTF-8" standalone="no"?>
<svg
   xmlns:dc="http://purl.org/dc/elements/1.1/"
   xmlns:cc="http://creativecommons.org/ns#"
   xmlns:rdf="http://www.w3.org/1999/02/22-rdf-syntax-ns#"
   xmlns:svg="http://www.w3.org/2000/svg"
   xmlns="http://www.w3.org/2000/svg"
   id="svg602"
   xml:space="preserve"
   viewBox="0 0 1277.766 1848.907"
   version="1.1"
   enable-background="new 0 0 1277.766 1848.907"><metadata
   id="metadata608"><rdf:RDF><cc:Work
       rdf:about=""><dc:format>image/svg+xml</dc:format><dc:type
         rdf:resource="http://purl.org/dc/dcmitype/StillImage" /><dc:title></dc:title></cc:Work></rdf:RDF></metadata><defs
   id="defs606" />
		<path
   id="path2"
   d="m 880.62,1506.9 c -7.407,0 -14.252,-3.952 -17.955,-10.366 -3.704,-6.415 -3.704,-14.318 0,-20.733 3.704,-6.415 17.955,-28.901 17.955,-28.901 0,16.791 14.252,22.486 17.955,28.901 3.703,6.415 3.704,14.318 0,20.733 -3.703,6.415 -10.547,10.366 -17.955,10.366 z" />
		<path
   id="path4"
   d="m 1014.8,1410.8 c -7.407,0 -14.252,-3.952 -17.955,-10.366 -3.704,-6.415 -3.704,-14.318 0,-20.733 3.704,-6.415 17.955,-28.901 17.955,-28.901 0,16.791 14.252,22.486 17.955,28.901 3.703,6.415 3.703,14.318 0,20.733 -3.704,6.415 -10.548,10.366 -17.955,10.366 z" />
		<path
   id="path6"
   d="m 451.4,910.73 c -7.407,0 -14.252,-3.952 -17.955,-10.366 -3.704,-6.415 -3.704,-14.318 0,-20.733 3.704,-6.415 17.955,-28.901 17.955,-28.901 0,16.791 14.252,22.486 17.955,28.901 3.703,6.415 3.704,14.318 0,20.733 -3.703,6.414 -10.548,10.366 -17.955,10.366 z" />
		<path
   id="path8"
   d="m 281.84,779.49 c -7.407,0 -14.252,-3.952 -17.955,-10.366 -3.704,-6.415 -3.704,-14.318 0,-20.733 3.704,-6.415 17.955,-28.901 17.955,-28.901 0,16.791 14.252,22.486 17.955,28.901 3.703,6.415 3.704,14.318 0,20.733 -3.703,6.415 -10.548,10.366 -17.955,10.366 z" />
		<path
   id="path10"
   d="m 662.05,625.89 c -7.407,0 -14.252,-3.952 -17.955,-10.366 -3.703,-6.414 -3.704,-14.318 0,-20.733 3.704,-6.415 17.955,-28.901 17.955,-28.901 0,16.791 14.252,22.486 17.955,28.901 3.703,6.415 3.704,14.318 0,20.733 -3.704,6.415 -10.548,10.366 -17.955,10.366 z" />
		<path
   id="path12"
   d="m 1074.7,1196.9 c -7.407,0 -14.252,-3.952 -17.955,-10.366 -3.704,-6.415 -3.704,-14.318 0,-20.733 3.703,-6.415 17.955,-28.901 17.955,-28.901 0,16.791 14.252,22.486 17.955,28.901 3.704,6.415 3.704,14.318 0,20.733 -3.704,6.415 -10.548,10.366 -17.955,10.366 z" />
		<path
   id="path14"
   d="m 755,784.54 c -7.407,0 -14.252,-3.952 -17.955,-10.366 -3.703,-6.414 -3.704,-14.318 0,-20.733 C 740.749,747.026 755,724.54 755,724.54 c 0,16.791 14.252,22.486 17.955,28.901 3.704,6.415 3.704,14.318 0,20.733 -3.704,6.415 -10.548,10.366 -17.955,10.366 z" />
		<path
   id="path16"
   d="m 340.61,1168.2 c -7.407,0 -14.252,-3.952 -17.955,-10.366 -3.704,-6.415 -3.704,-14.318 0,-20.733 3.704,-6.415 17.955,-28.901 17.955,-28.901 0,16.791 14.252,22.486 17.955,28.901 3.703,6.415 3.704,14.318 0,20.733 -3.703,6.415 -10.548,10.366 -17.955,10.366 z" />
		<path
   id="path18"
   d="m 319.9,1040.6 c -7.407,0 -14.252,-3.952 -17.955,-10.366 -3.704,-6.415 -3.704,-14.318 0,-20.733 3.704,-6.415 17.955,-28.901 17.955,-28.901 0,16.791 14.252,22.486 17.955,28.901 3.704,6.415 3.704,14.318 0,20.733 -3.703,6.415 -10.548,10.366 -17.955,10.366 z" />
		<path
   id="path20"
   d="m 581.96,1519.1 c -7.407,0 -14.252,-3.952 -17.955,-10.366 -3.704,-6.415 -3.704,-14.318 0,-20.733 3.704,-6.415 17.955,-28.901 17.955,-28.901 0,16.791 14.252,22.486 17.955,28.901 3.704,6.415 3.704,14.318 0,20.733 -3.704,6.414 -10.548,10.366 -17.955,10.366 z" />
		<path
   id="path22"
   d="m 539.72,1332.5 c -7.407,0 -14.252,-3.952 -17.955,-10.366 -3.704,-6.415 -3.704,-14.318 0,-20.733 3.704,-6.415 17.955,-28.901 17.955,-28.901 0,16.791 14.252,22.486 17.955,28.901 3.703,6.415 3.704,14.318 0,20.733 -3.704,6.415 -10.548,10.366 -17.955,10.366 z" />
		<path
   id="path24"
   d="m 657.88,1476 c -7.407,0 -14.252,-3.952 -17.955,-10.366 -3.703,-6.414 -3.704,-14.318 0,-20.733 3.704,-6.415 17.955,-28.901 17.955,-28.901 0,16.791 14.252,22.486 17.955,28.901 3.704,6.415 3.704,14.318 0,20.733 -3.704,6.415 -10.548,10.366 -17.955,10.366 z" />
		<path
   id="path26"
   d="m 634.28,803.84 c -7.407,0 -14.252,-3.952 -17.955,-10.366 -3.704,-6.415 -3.704,-14.318 0,-20.733 3.704,-6.415 17.955,-28.901 17.955,-28.901 0,16.791 14.252,22.486 17.955,28.901 3.703,6.415 3.704,14.318 0,20.733 -3.704,6.414 -10.548,10.366 -17.955,10.366 z" />
		<path
   id="path28"
   d="m 318.28,1320.9 c -7.407,0 -14.252,-3.952 -17.955,-10.366 -3.704,-6.415 -3.704,-14.318 0,-20.733 3.704,-6.415 17.955,-28.901 17.955,-28.901 0,16.791 14.252,22.486 17.955,28.901 3.704,6.415 3.704,14.318 0,20.733 -3.703,6.415 -10.548,10.366 -17.955,10.366 z" />
		<path
   id="path30"
   d="m 296.77,1207.7 c -7.407,0 -14.252,-3.952 -17.955,-10.366 -3.704,-6.415 -3.704,-14.318 0,-20.733 3.704,-6.415 17.955,-28.901 17.955,-28.901 0,16.791 14.252,22.486 17.955,28.901 3.704,6.415 3.704,14.318 0,20.733 -3.704,6.414 -10.548,10.366 -17.955,10.366 z" />
		<path
   id="path32"
   d="m 937.39,1618.7 c -7.407,0 -14.252,-3.952 -17.955,-10.366 -3.704,-6.415 -3.704,-14.318 0,-20.733 3.704,-6.415 17.955,-28.901 17.955,-28.901 0,16.791 14.252,22.486 17.955,28.901 3.704,6.415 3.704,14.318 0,20.733 -3.704,6.415 -10.548,10.366 -17.955,10.366 z" />
		<path
   id="path34"
   d="m 849.7,1159.3 c -7.407,0 -14.252,-3.952 -17.955,-10.366 -3.704,-6.415 -3.704,-14.318 0,-20.733 3.704,-6.415 17.955,-28.901 17.955,-28.901 0,16.791 14.252,22.486 17.955,28.901 3.703,6.415 3.704,14.318 0,20.733 -3.704,6.415 -10.548,10.366 -17.955,10.366 z" />
		<path
   id="path36"
   d="m 532.82,1264.5 c -7.407,0 -14.252,-3.952 -17.955,-10.366 -3.704,-6.415 -3.704,-14.318 0,-20.733 3.704,-6.415 17.955,-28.901 17.955,-28.901 0,16.791 14.252,22.486 17.955,28.901 3.704,6.415 3.704,14.318 0,20.733 -3.703,6.414 -10.548,10.366 -17.955,10.366 z" />
		<path
   id="path38"
   d="m 693.84,1262 c -7.407,0 -14.252,-3.952 -17.955,-10.366 -3.703,-6.414 -3.704,-14.318 0,-20.733 3.704,-6.415 17.955,-28.901 17.955,-28.901 0,16.791 14.252,22.486 17.955,28.901 3.704,6.415 3.704,14.318 0,20.733 -3.704,6.415 -10.548,10.366 -17.955,10.366 z" />
		<path
   id="path40"
   d="m 310.11,900.55 c -7.407,0 -14.252,-3.952 -17.955,-10.366 -3.704,-6.415 -3.704,-14.318 0,-20.733 3.704,-6.415 17.955,-28.901 17.955,-28.901 0,16.791 14.252,22.486 17.955,28.901 3.703,6.415 3.704,14.318 0,20.733 -3.704,6.414 -10.548,10.366 -17.955,10.366 z" />
		<path
   id="path42"
   d="m 351.32,651.53 c -7.407,0 -14.252,-3.952 -17.955,-10.366 -3.703,-6.414 -3.704,-14.318 0,-20.733 3.704,-6.415 17.955,-28.901 17.955,-28.901 0,16.791 14.252,22.486 17.955,28.901 3.703,6.415 3.704,14.318 0,20.733 -3.704,6.415 -10.548,10.366 -17.955,10.366 z" />
		<path
   id="path44"
   d="m 627.65,435.7 c -7.407,0 -14.252,-3.952 -17.955,-10.366 -3.704,-6.415 -3.704,-14.318 0,-20.733 3.704,-6.415 17.955,-28.901 17.955,-28.901 0,16.791 14.252,22.486 17.955,28.901 3.703,6.415 3.704,14.318 0,20.733 -3.704,6.415 -10.548,10.366 -17.955,10.366 z" />
		<path
   id="path46"
   d="m 438.07,1669.2 c -7.407,0 -14.252,-3.952 -17.955,-10.366 -3.704,-6.415 -3.704,-14.318 0,-20.733 3.704,-6.415 17.955,-28.901 17.955,-28.901 0,16.791 14.252,22.486 17.955,28.901 3.704,6.415 3.704,14.318 0,20.733 -3.703,6.415 -10.548,10.366 -17.955,10.366 z" />
		<path
   id="path48"
   d="m 400.29,925.62 c -7.407,0 -14.252,-3.952 -17.955,-10.366 -3.703,-6.414 -3.704,-14.318 0,-20.733 3.704,-6.415 17.955,-28.901 17.955,-28.901 0,16.791 14.252,22.486 17.955,28.901 3.704,6.415 3.704,14.318 0,20.733 -3.704,6.415 -10.548,10.366 -17.955,10.366 z" />
		<path
   id="path50"
   d="m 827.79,1091.8 c -7.407,0 -14.252,-3.952 -17.955,-10.366 -3.703,-6.414 -3.704,-14.318 0,-20.733 3.704,-6.415 17.955,-28.901 17.955,-28.901 0,16.791 14.252,22.486 17.955,28.901 3.704,6.415 3.704,14.318 0,20.733 -3.704,6.415 -10.548,10.366 -17.955,10.366 z" />
		<path
   id="path52"
   d="m 728.47,1587.5 c -7.407,0 -14.252,-3.952 -17.955,-10.366 -3.704,-6.415 -3.704,-14.318 0,-20.733 3.704,-6.415 17.955,-28.901 17.955,-28.901 0,16.791 14.252,22.486 17.955,28.901 3.704,6.415 3.704,14.318 0,20.733 -3.703,6.415 -10.547,10.366 -17.955,10.366 z" />
		<path
   id="path54"
   d="m 1110.2,977.06 c -7.407,0 -14.252,-3.952 -17.955,-10.366 -3.703,-6.415 -3.703,-14.318 0,-20.733 3.704,-6.415 17.955,-28.901 17.955,-28.901 0,16.791 14.251,22.486 17.955,28.901 3.703,6.415 3.703,14.318 0,20.733 -3.704,6.414 -10.548,10.366 -17.955,10.366 z" />
		<path
   id="path56"
   d="m 981.03,1162.7 c -7.407,0 -14.252,-3.952 -17.955,-10.366 -3.703,-6.414 -3.704,-14.318 0,-20.733 3.704,-6.415 17.955,-28.901 17.955,-28.901 0,16.791 14.252,22.486 17.955,28.901 3.704,6.415 3.704,14.318 0,20.733 -3.704,6.415 -10.548,10.366 -17.955,10.366 z" />
		<path
   id="path58"
   d="m 208.63,1325.8 c -7.407,0 -14.252,-3.952 -17.955,-10.366 -3.704,-6.415 -3.704,-14.318 0,-20.733 3.704,-6.415 17.955,-28.901 17.955,-28.901 0,16.791 14.252,22.486 17.955,28.901 3.704,6.415 3.704,14.318 0,20.733 -3.703,6.415 -10.548,10.366 -17.955,10.366 z" />
		<path
   id="path60"
   d="m 321.12,1258.5 c -7.407,0 -14.252,-3.952 -17.955,-10.366 -3.704,-6.415 -3.704,-14.318 0,-20.733 3.704,-6.415 17.955,-28.901 17.955,-28.901 0,16.791 14.252,22.486 17.955,28.901 3.704,6.415 3.704,14.318 0,20.733 -3.703,6.415 -10.548,10.366 -17.955,10.366 z" />
		<path
   id="path62"
   d="m 1041.2,1152 c -7.407,0 -14.251,-3.952 -17.955,-10.366 -3.704,-6.415 -3.704,-14.318 0,-20.733 3.704,-6.415 17.955,-28.901 17.955,-28.901 0,16.791 14.252,22.486 17.955,28.901 3.703,6.415 3.703,14.318 0,20.733 -3.704,6.414 -10.548,10.366 -17.955,10.366 z" />
		<path
   id="path64"
   d="m 448.42,608.35 c -7.407,0 -14.252,-3.952 -17.955,-10.366 -3.703,-6.414 -3.704,-14.318 0,-20.733 3.704,-6.415 17.955,-28.901 17.955,-28.901 0,16.791 14.252,22.486 17.955,28.901 3.704,6.415 3.704,14.318 0,20.733 -3.704,6.415 -10.548,10.366 -17.955,10.366 z" />
		<path
   id="path66"
   d="m 876.06,917.79 c -7.407,0 -14.252,-3.952 -17.955,-10.366 -3.703,-6.414 -3.704,-14.318 0,-20.733 3.704,-6.415 17.955,-28.901 17.955,-28.901 0,16.791 14.252,22.486 17.955,28.901 3.704,6.415 3.704,14.318 0,20.733 -3.704,6.415 -10.548,10.366 -17.955,10.366 z" />
		<path
   id="path68"
   d="m 638.7,1533.8 c -7.407,0 -14.252,-3.952 -17.955,-10.366 -3.704,-6.415 -3.704,-14.318 0,-20.733 3.704,-6.415 17.955,-28.901 17.955,-28.901 0,16.791 14.252,22.486 17.955,28.901 3.703,6.415 3.704,14.318 0,20.733 -3.703,6.415 -10.548,10.366 -17.955,10.366 z" />
		<path
   id="path70"
   d="m 824.75,1605.4 c -7.407,0 -14.252,-3.952 -17.955,-10.366 -3.704,-6.415 -3.704,-14.318 0,-20.733 3.704,-6.415 17.955,-28.901 17.955,-28.901 0,16.791 14.252,22.486 17.955,28.901 3.704,6.415 3.704,14.318 0,20.733 -3.703,6.415 -10.548,10.366 -17.955,10.366 z" />
		<path
   id="path72"
   d="m 626.6,298.19 c -7.407,0 -14.252,-3.952 -17.955,-10.366 -3.704,-6.415 -3.704,-14.318 0,-20.733 3.704,-6.415 17.955,-28.901 17.955,-28.901 0,16.791 14.252,22.486 17.955,28.901 3.704,6.415 3.704,14.318 0,20.733 -3.704,6.414 -10.548,10.366 -17.955,10.366 z" />
		<path
   id="path74"
   d="m 169.47,1274.5 c -7.407,0 -14.252,-3.952 -17.955,-10.366 -3.703,-6.414 -3.704,-14.318 0,-20.733 3.704,-6.415 17.955,-28.901 17.955,-28.901 0,16.791 14.252,22.486 17.955,28.901 3.704,6.415 3.704,14.318 0,20.733 -3.704,6.415 -10.547,10.366 -17.955,10.366 z" />
		<path
   id="path76"
   d="m 483.65,777.08 c -7.407,0 -14.252,-3.952 -17.955,-10.366 -3.703,-6.414 -3.704,-14.318 0,-20.733 3.704,-6.415 17.955,-28.901 17.955,-28.901 0,16.791 14.252,22.486 17.955,28.901 3.703,6.415 3.704,14.318 0,20.733 -3.704,6.415 -10.548,10.366 -17.955,10.366 z" />
		<path
   id="path78"
   d="m 431.62,783.6 c -7.407,0 -14.252,-3.952 -17.955,-10.366 -3.703,-6.414 -3.704,-14.318 0,-20.733 3.704,-6.415 17.955,-28.901 17.955,-28.901 0,16.791 14.252,22.486 17.955,28.901 3.703,6.415 3.704,14.318 0,20.733 -3.704,6.415 -10.548,10.366 -17.955,10.366 z" />
		<path
   id="path80"
   d="m 623.75,889.55 c -7.407,0 -14.252,-3.952 -17.955,-10.366 -3.704,-6.415 -3.704,-14.318 0,-20.733 3.704,-6.415 17.955,-28.901 17.955,-28.901 0,16.791 14.252,22.486 17.955,28.901 3.703,6.415 3.704,14.318 0,20.733 -3.703,6.414 -10.548,10.366 -17.955,10.366 z" />
		<path
   id="path82"
   d="m 432.3,1047.7 c -7.407,0 -14.252,-3.952 -17.955,-10.366 -3.704,-6.415 -3.704,-14.318 0,-20.733 3.704,-6.415 17.955,-28.901 17.955,-28.901 0,16.791 14.252,22.486 17.955,28.901 3.703,6.415 3.704,14.318 0,20.733 -3.703,6.415 -10.548,10.366 -17.955,10.366 z" />
		<path
   id="path84"
   d="m 501.9,898.5 c -7.407,0 -14.252,-3.952 -17.955,-10.366 -3.703,-6.414 -3.704,-14.318 0,-20.733 3.704,-6.415 17.955,-28.901 17.955,-28.901 0,16.791 14.252,22.486 17.955,28.901 3.703,6.415 3.704,14.318 0,20.733 -3.704,6.415 -10.548,10.366 -17.955,10.366 z" />
		<path
   id="path86"
   d="m 1099.7,1440.3 c -7.407,0 -14.252,-3.952 -17.955,-10.366 -3.704,-6.415 -3.704,-14.318 0,-20.733 3.703,-6.415 17.955,-28.901 17.955,-28.901 0,16.791 14.252,22.486 17.955,28.901 3.704,6.415 3.704,14.318 0,20.733 -3.704,6.414 -10.548,10.366 -17.955,10.366 z" />
		<path
   id="path88"
   d="m 800.16,1146.3 c -7.407,0 -14.252,-3.952 -17.955,-10.366 -3.704,-6.415 -3.704,-14.318 0,-20.733 3.704,-6.415 17.955,-28.901 17.955,-28.901 0,16.791 14.252,22.486 17.955,28.901 3.704,6.415 3.704,14.318 0,20.733 -3.703,6.414 -10.548,10.366 -17.955,10.366 z" />
		<path
   id="path90"
   d="m 774.61,1279.4 c -7.407,0 -14.252,-3.952 -17.955,-10.366 -3.704,-6.415 -3.704,-14.318 0,-20.733 3.704,-6.415 17.955,-28.901 17.955,-28.901 0,16.791 14.252,22.486 17.955,28.901 3.704,6.415 3.704,14.318 0,20.733 -3.704,6.414 -10.548,10.366 -17.955,10.366 z" />
		<path
   id="path92"
   d="m 115.58,1220.9 c -7.407,0 -14.252,-3.952 -17.955,-10.366 -3.704,-6.415 -3.704,-14.318 0,-20.733 3.704,-6.415 17.955,-28.901 17.955,-28.901 0,16.791 14.252,22.486 17.955,28.901 3.704,6.415 3.704,14.318 0,20.733 -3.703,6.415 -10.548,10.366 -17.955,10.366 z" />
		<path
   id="path94"
   d="m 477.89,1245.6 c -7.407,0 -14.252,-3.952 -17.955,-10.366 -3.704,-6.415 -3.704,-14.318 0,-20.733 3.704,-6.415 17.955,-28.901 17.955,-28.901 0,16.791 14.252,22.486 17.955,28.901 3.704,6.415 3.704,14.318 0,20.733 -3.704,6.414 -10.548,10.366 -17.955,10.366 z" />
		<path
   id="path96"
   d="m 805.26,1022.4 c -7.407,0 -14.252,-3.952 -17.955,-10.366 -3.703,-6.414 -3.704,-14.318 0,-20.733 3.704,-6.415 17.955,-28.901 17.955,-28.901 0,16.791 14.252,22.486 17.955,28.901 3.704,6.415 3.704,14.318 0,20.733 -3.704,6.415 -10.548,10.366 -17.955,10.366 z" />
		<path
   id="path98"
   d="m 654.52,505.71 c -7.407,0 -14.252,-3.952 -17.955,-10.366 -3.704,-6.415 -3.704,-14.318 0,-20.733 3.704,-6.415 17.955,-28.901 17.955,-28.901 0,16.791 14.252,22.486 17.955,28.901 3.703,6.415 3.704,14.318 0,20.733 -3.704,6.414 -10.548,10.366 -17.955,10.366 z" />
		<path
   id="path100"
   d="m 832.15,889.98 c -7.407,0 -14.252,-3.952 -17.955,-10.366 -3.704,-6.415 -3.704,-14.318 0,-20.733 3.704,-6.415 17.955,-28.901 17.955,-28.901 0,16.791 14.252,22.486 17.955,28.901 3.703,6.415 3.704,14.318 0,20.733 -3.704,6.414 -10.548,10.366 -17.955,10.366 z" />
		<path
   id="path102"
   d="m 909.27,1252.2 c -7.407,0 -14.252,-3.952 -17.955,-10.366 -3.704,-6.415 -3.704,-14.318 0,-20.733 3.704,-6.415 17.955,-28.901 17.955,-28.901 0,16.791 14.252,22.486 17.955,28.901 3.704,6.415 3.704,14.318 0,20.733 -3.703,6.414 -10.548,10.366 -17.955,10.366 z" />
		<path
   id="path104"
   d="m 539.36,474.5 c -7.407,0 -14.252,-3.952 -17.955,-10.366 -3.703,-6.414 -3.704,-14.318 0,-20.733 3.704,-6.415 17.955,-28.901 17.955,-28.901 0,16.791 14.252,22.486 17.955,28.901 3.704,6.415 3.704,14.318 0,20.733 -3.704,6.415 -10.548,10.366 -17.955,10.366 z" />
		<path
   id="path106"
   d="m 1014,843.92 c -7.407,0 -14.252,-3.952 -17.955,-10.366 -3.704,-6.415 -3.704,-14.318 0,-20.733 3.704,-6.415 17.955,-28.901 17.955,-28.901 0,16.791 14.252,22.486 17.955,28.901 3.703,6.415 3.703,14.318 0,20.733 -3.704,6.415 -10.548,10.366 -17.955,10.366 z" />
		<path
   id="path108"
   d="m 612.77,634.07 c -7.407,0 -14.252,-3.952 -17.955,-10.366 -3.703,-6.414 -3.704,-14.318 0,-20.733 3.704,-6.415 17.955,-28.901 17.955,-28.901 0,16.791 14.252,22.486 17.955,28.901 3.703,6.415 3.704,14.318 0,20.733 -3.704,6.415 -10.548,10.366 -17.955,10.366 z" />
		<path
   id="path110"
   d="m 601.1,360.7 c -7.407,0 -14.252,-3.952 -17.955,-10.366 -3.704,-6.415 -3.704,-14.318 0,-20.733 3.704,-6.415 17.955,-28.901 17.955,-28.901 0,16.791 14.252,22.486 17.955,28.901 3.703,6.415 3.704,14.318 0,20.733 -3.703,6.415 -10.548,10.366 -17.955,10.366 z" />
		<path
   id="path112"
   d="m 603.01,960.69 c -7.407,0 -14.252,-3.952 -17.955,-10.366 -3.703,-6.414 -3.704,-14.318 0,-20.733 3.704,-6.415 17.955,-28.901 17.955,-28.901 0,16.791 14.252,22.486 17.955,28.901 3.703,6.415 3.704,14.318 0,20.733 -3.704,6.415 -10.548,10.366 -17.955,10.366 z" />
		<path
   id="path114"
   d="m 553.1,993.37 c -7.407,0 -14.252,-3.952 -17.955,-10.366 -3.703,-6.414 -3.704,-14.318 0,-20.733 3.704,-6.415 17.955,-28.901 17.955,-28.901 0,16.791 14.252,22.486 17.955,28.901 3.703,6.415 3.704,14.318 0,20.733 -3.704,6.415 -10.548,10.366 -17.955,10.366 z" />
		<path
   id="path116"
   d="m 191.29,1456.3 c -7.407,0 -14.252,-3.952 -17.955,-10.366 -3.704,-6.415 -3.704,-14.318 0,-20.733 3.704,-6.415 17.955,-28.901 17.955,-28.901 0,16.791 14.252,22.486 17.955,28.901 3.704,6.415 3.704,14.318 0,20.733 -3.703,6.415 -10.548,10.366 -17.955,10.366 z" />
		<path
   id="path118"
   d="m 555.54,1464.4 c -7.407,0 -14.252,-3.952 -17.955,-10.366 -3.704,-6.415 -3.704,-14.318 0,-20.733 3.704,-6.415 17.955,-28.901 17.955,-28.901 0,16.791 14.252,22.486 17.955,28.901 3.704,6.415 3.704,14.318 0,20.733 -3.704,6.414 -10.548,10.366 -17.955,10.366 z" />
		<path
   id="path120"
   d="m 492.9,1080.6 c -7.407,0 -14.252,-3.952 -17.955,-10.366 -3.704,-6.415 -3.704,-14.318 0,-20.733 3.704,-6.415 17.955,-28.901 17.955,-28.901 0,16.791 14.252,22.486 17.955,28.901 3.704,6.415 3.704,14.318 0,20.733 -3.703,6.414 -10.547,10.366 -17.955,10.366 z" />
		<path
   id="path122"
   d="m 491.92,1164.9 c -7.407,0 -14.252,-3.952 -17.955,-10.366 -3.703,-6.414 -3.704,-14.318 0,-20.733 3.704,-6.415 17.955,-28.901 17.955,-28.901 0,16.791 14.252,22.486 17.955,28.901 3.704,6.415 3.704,14.318 0,20.733 -3.704,6.415 -10.548,10.366 -17.955,10.366 z" />
		<path
   id="path124"
   d="m 960.97,1432.8 c -7.407,0 -14.252,-3.952 -17.955,-10.366 -3.704,-6.415 -3.704,-14.318 0,-20.733 3.704,-6.415 17.955,-28.901 17.955,-28.901 0,16.791 14.252,22.486 17.955,28.901 3.703,6.415 3.704,14.318 0,20.733 -3.703,6.414 -10.548,10.366 -17.955,10.366 z" />
		<path
   id="path126"
   d="m 859.98,1049.8 c -7.407,0 -14.252,-3.952 -17.955,-10.366 -3.704,-6.415 -3.704,-14.318 0,-20.733 3.704,-6.415 17.955,-28.901 17.955,-28.901 0,16.791 14.252,22.486 17.955,28.901 3.704,6.415 3.704,14.318 0,20.733 -3.703,6.414 -10.547,10.366 -17.955,10.366 z" />
		<path
   id="path128"
   d="m 1105.4,1057.8 c -7.407,0 -14.251,-3.952 -17.955,-10.366 -3.703,-6.415 -3.703,-14.318 0,-20.733 3.704,-6.415 17.955,-28.901 17.955,-28.901 0,16.791 14.252,22.486 17.955,28.901 3.703,6.415 3.703,14.318 0,20.733 -3.704,6.414 -10.548,10.366 -17.955,10.366 z" />
		<path
   id="path130"
   d="m 275.72,1434.8 c -7.407,0 -14.252,-3.952 -17.955,-10.366 -3.704,-6.415 -3.704,-14.318 0,-20.733 3.704,-6.415 17.955,-28.901 17.955,-28.901 0,16.791 14.252,22.486 17.955,28.901 3.704,6.415 3.704,14.318 0,20.733 -3.704,6.414 -10.548,10.366 -17.955,10.366 z" />
		<path
   id="path132"
   d="m 1130.8,1157.2 c -7.407,0 -14.252,-3.952 -17.955,-10.366 -3.704,-6.415 -3.704,-14.318 0,-20.733 3.703,-6.415 17.955,-28.901 17.955,-28.901 0,16.791 14.252,22.486 17.955,28.901 3.704,6.415 3.704,14.318 0,20.733 -3.704,6.414 -10.548,10.366 -17.955,10.366 z" />
		<path
   id="path134"
   d="m 834.04,693.38 c -7.407,0 -14.252,-3.952 -17.955,-10.366 -3.704,-6.415 -3.704,-14.318 0,-20.733 3.704,-6.415 17.955,-28.901 17.955,-28.901 0,16.791 14.252,22.486 17.955,28.901 3.703,6.415 3.704,14.318 0,20.733 -3.704,6.414 -10.548,10.366 -17.955,10.366 z" />
		<path
   id="path136"
   d="m 583.57,1293.8 c -7.407,0 -14.252,-3.952 -17.955,-10.366 -3.704,-6.415 -3.704,-14.318 0,-20.733 3.704,-6.415 17.955,-28.901 17.955,-28.901 0,16.791 14.252,22.486 17.955,28.901 3.704,6.415 3.704,14.318 0,20.733 -3.703,6.415 -10.548,10.366 -17.955,10.366 z" />
		<path
   id="path138"
   d="m 891.01,810.88 c -7.407,0 -14.252,-3.952 -17.955,-10.366 -3.703,-6.414 -3.704,-14.318 0,-20.733 3.704,-6.415 17.955,-28.901 17.955,-28.901 0,16.791 14.252,22.486 17.955,28.901 3.703,6.415 3.704,14.318 0,20.733 -3.704,6.415 -10.548,10.366 -17.955,10.366 z" />
		<path
   id="path140"
   d="m 577.02,683.89 c -7.407,0 -14.252,-3.952 -17.955,-10.366 -3.703,-6.414 -3.704,-14.318 0,-20.733 3.704,-6.415 17.955,-28.901 17.955,-28.901 0,16.791 14.252,22.486 17.955,28.901 3.703,6.415 3.704,14.318 0,20.733 -3.704,6.415 -10.547,10.366 -17.955,10.366 z" />
		<path
   id="path142"
   d="m 226.09,1398.2 c -7.407,0 -14.252,-3.952 -17.955,-10.366 -3.704,-6.415 -3.704,-14.318 0,-20.733 3.704,-6.415 17.955,-28.901 17.955,-28.901 0,16.791 14.252,22.486 17.955,28.901 3.704,6.415 3.704,14.318 0,20.733 -3.704,6.415 -10.548,10.366 -17.955,10.366 z" />
		<path
   id="path144"
   d="m 442,1378.1 c -7.407,0 -14.252,-3.952 -17.955,-10.366 -3.704,-6.415 -3.704,-14.318 0,-20.733 3.704,-6.415 17.955,-28.901 17.955,-28.901 0,16.791 14.252,22.486 17.955,28.901 3.704,6.415 3.704,14.318 0,20.733 -3.703,6.415 -10.548,10.366 -17.955,10.366 z" />
		<path
   id="path146"
   d="m 924.04,1555.8 c -7.407,0 -14.252,-3.952 -17.955,-10.366 -3.704,-6.415 -3.704,-14.318 0,-20.733 3.704,-6.415 17.955,-28.901 17.955,-28.901 0,16.791 14.252,22.486 17.955,28.901 3.704,6.415 3.704,14.318 0,20.733 -3.703,6.414 -10.548,10.366 -17.955,10.366 z" />
		<path
   id="path148"
   d="m 509.72,416.4 c -7.407,0 -14.252,-3.952 -17.955,-10.366 -3.704,-6.415 -3.704,-14.318 0,-20.733 3.704,-6.415 17.955,-28.901 17.955,-28.901 0,16.791 14.252,22.486 17.955,28.901 3.703,6.415 3.704,14.318 0,20.733 -3.703,6.415 -10.548,10.366 -17.955,10.366 z" />
		<path
   id="path150"
   d="m 619.27,563.81 c -7.407,0 -14.252,-3.952 -17.955,-10.366 -3.703,-6.414 -3.704,-14.318 0,-20.733 3.704,-6.415 17.955,-28.901 17.955,-28.901 0,16.791 14.252,22.486 17.955,28.901 3.703,6.415 3.704,14.318 0,20.733 -3.704,6.415 -10.547,10.366 -17.955,10.366 z" />
		<path
   id="path152"
   d="m 406.65,1485 c -7.407,0 -14.252,-3.952 -17.955,-10.366 -3.704,-6.415 -3.704,-14.318 0,-20.733 3.704,-6.415 17.955,-28.901 17.955,-28.901 0,16.791 14.252,22.486 17.955,28.901 3.704,6.415 3.704,14.318 0,20.733 -3.703,6.414 -10.548,10.366 -17.955,10.366 z" />
		<path
   id="path154"
   d="m 966.69,1069.8 c -7.407,0 -14.252,-3.952 -17.955,-10.366 -3.704,-6.415 -3.704,-14.318 0,-20.733 3.704,-6.415 17.955,-28.901 17.955,-28.901 0,16.791 14.252,22.486 17.955,28.901 3.703,6.415 3.704,14.318 0,20.733 -3.703,6.415 -10.548,10.366 -17.955,10.366 z" />
		<path
   id="path156"
   d="m 1118.3,1223.7 c -7.407,0 -14.252,-3.952 -17.955,-10.366 -3.703,-6.415 -3.703,-14.318 0,-20.733 3.704,-6.415 17.955,-28.901 17.955,-28.901 0,16.791 14.251,22.486 17.955,28.901 3.703,6.415 3.703,14.318 0,20.733 -3.704,6.415 -10.548,10.366 -17.955,10.366 z" />
		<path
   id="path158"
   d="m 578.33,1147.2 c -7.407,0 -14.252,-3.952 -17.955,-10.366 -3.704,-6.415 -3.704,-14.318 0,-20.733 3.704,-6.415 17.955,-28.901 17.955,-28.901 0,16.791 14.252,22.486 17.955,28.901 3.704,6.415 3.704,14.318 0,20.733 -3.704,6.415 -10.548,10.366 -17.955,10.366 z" />
		<path
   id="path160"
   d="m 888.2,1440.6 c -7.407,0 -14.252,-3.952 -17.955,-10.366 -3.704,-6.415 -3.704,-14.318 0,-20.733 3.704,-6.415 17.955,-28.901 17.955,-28.901 0,16.791 14.252,22.486 17.955,28.901 3.704,6.415 3.704,14.318 0,20.733 -3.703,6.414 -10.548,10.366 -17.955,10.366 z" />
		<path
   id="path162"
   d="m 556.99,544.02 c -7.407,0 -14.252,-3.952 -17.955,-10.366 -3.703,-6.414 -3.704,-14.318 0,-20.733 3.704,-6.415 17.955,-28.901 17.955,-28.901 0,16.791 14.252,22.486 17.955,28.901 3.703,6.415 3.704,14.318 0,20.733 -3.704,6.415 -10.548,10.366 -17.955,10.366 z" />
		<path
   id="path164"
   d="m 870.01,991.62 c -7.407,0 -14.252,-3.952 -17.955,-10.366 -3.704,-6.415 -3.704,-14.318 0,-20.733 3.704,-6.415 17.955,-28.901 17.955,-28.901 0,16.791 14.252,22.486 17.955,28.901 3.703,6.415 3.704,14.318 0,20.733 -3.703,6.414 -10.548,10.366 -17.955,10.366 z" />
		<path
   id="path166"
   d="m 693.6,1162.3 c -7.407,0 -14.252,-3.952 -17.955,-10.366 -3.704,-6.415 -3.704,-14.318 0,-20.733 3.704,-6.415 17.955,-28.901 17.955,-28.901 0,16.791 14.252,22.486 17.955,28.901 3.704,6.415 3.704,14.318 0,20.733 -3.704,6.414 -10.548,10.366 -17.955,10.366 z" />
		<path
   id="path168"
   d="m 922.29,1391.7 c -7.407,0 -14.252,-3.952 -17.955,-10.366 -3.704,-6.415 -3.704,-14.318 0,-20.733 3.704,-6.415 17.955,-28.901 17.955,-28.901 0,16.791 14.252,22.486 17.955,28.901 3.704,6.415 3.704,14.318 0,20.733 -3.704,6.415 -10.548,10.366 -17.955,10.366 z" />
		<path
   id="path170"
   d="m 732.33,1221.7 c -7.407,0 -14.252,-3.952 -17.955,-10.366 -3.704,-6.415 -3.704,-14.318 0,-20.733 3.704,-6.415 17.955,-28.901 17.955,-28.901 0,16.791 14.252,22.486 17.955,28.901 3.704,6.415 3.704,14.318 0,20.733 -3.703,6.415 -10.548,10.366 -17.955,10.366 z" />
		<path
   id="path172"
   d="m 607.98,1091.7 c -7.407,0 -14.252,-3.952 -17.955,-10.366 -3.704,-6.415 -3.704,-14.318 0,-20.733 3.704,-6.415 17.955,-28.901 17.955,-28.901 0,16.791 14.252,22.486 17.955,28.901 3.703,6.415 3.704,14.318 0,20.733 -3.704,6.415 -10.548,10.366 -17.955,10.366 z" />
		<path
   id="path174"
   d="m 602.64,1585.6 c -7.407,0 -14.252,-3.952 -17.955,-10.366 -3.704,-6.415 -3.704,-14.318 0,-20.733 3.704,-6.415 17.955,-28.901 17.955,-28.901 0,16.791 14.252,22.486 17.955,28.901 3.704,6.415 3.704,14.318 0,20.733 -3.704,6.414 -10.548,10.366 -17.955,10.366 z" />
		<path
   id="path176"
   d="m 201.94,1173.8 c -7.407,0 -14.252,-3.952 -17.955,-10.366 -3.704,-6.415 -3.704,-14.318 0,-20.733 3.704,-6.415 17.955,-28.901 17.955,-28.901 0,16.791 14.252,22.486 17.955,28.901 3.703,6.415 3.704,14.318 0,20.733 -3.704,6.414 -10.548,10.366 -17.955,10.366 z" />
		<path
   id="path178"
   d="m 794.14,838.01 c -7.407,0 -14.252,-3.952 -17.955,-10.366 -3.703,-6.414 -3.704,-14.318 0,-20.733 3.704,-6.415 17.955,-28.901 17.955,-28.901 0,16.791 14.252,22.486 17.955,28.901 3.703,6.415 3.704,14.318 0,20.733 -3.704,6.415 -10.548,10.366 -17.955,10.366 z" />
		<path
   id="path180"
   d="m 1093.7,1123.6 c -7.407,0 -14.251,-3.952 -17.955,-10.366 -3.703,-6.415 -3.703,-14.318 0,-20.733 3.704,-6.415 17.955,-28.901 17.955,-28.901 0,16.791 14.252,22.486 17.955,28.901 3.703,6.415 3.703,14.318 0,20.733 -3.703,6.414 -10.548,10.366 -17.955,10.366 z" />
		<path
   id="path182"
   d="m 283.39,1143.2 c -7.407,0 -14.252,-3.952 -17.955,-10.366 -3.704,-6.415 -3.704,-14.318 0,-20.733 3.704,-6.415 17.955,-28.901 17.955,-28.901 0,16.791 14.252,22.486 17.955,28.901 3.704,6.415 3.704,14.318 0,20.733 -3.703,6.414 -10.548,10.366 -17.955,10.366 z" />
		<path
   id="path184"
   d="m 713.45,1453.4 c -7.407,0 -14.252,-3.952 -17.955,-10.366 -3.704,-6.415 -3.704,-14.318 0,-20.733 3.704,-6.415 17.955,-28.901 17.955,-28.901 0,16.791 14.252,22.486 17.955,28.901 3.703,6.415 3.704,14.318 0,20.733 -3.703,6.414 -10.547,10.366 -17.955,10.366 z" />
		<path
   id="path186"
   d="m 532.29,1119.5 c -7.407,0 -14.252,-3.952 -17.955,-10.366 -3.704,-6.415 -3.704,-14.318 0,-20.733 3.704,-6.415 17.955,-28.901 17.955,-28.901 0,16.791 14.252,22.486 17.955,28.901 3.704,6.415 3.704,14.318 0,20.733 -3.704,6.414 -10.548,10.366 -17.955,10.366 z" />
		<path
   id="path188"
   d="m 1014.3,1216.6 c -7.407,0 -14.252,-3.952 -17.955,-10.366 -3.704,-6.415 -3.704,-14.318 0,-20.733 3.704,-6.415 17.955,-28.901 17.955,-28.901 0,16.791 14.252,22.486 17.955,28.901 3.704,6.415 3.704,14.318 0,20.733 -3.703,6.414 -10.548,10.366 -17.955,10.366 z" />
		<path
   id="path190"
   d="m 1076.2,1333.5 c -7.407,0 -14.252,-3.952 -17.955,-10.366 -3.703,-6.415 -3.703,-14.318 0,-20.733 3.704,-6.415 17.955,-28.901 17.955,-28.901 0,16.791 14.251,22.486 17.955,28.901 3.703,6.415 3.703,14.318 0,20.733 -3.704,6.414 -10.548,10.366 -17.955,10.366 z" />
		<path
   id="path192"
   d="m 300.65,1500 c -7.407,0 -14.252,-3.952 -17.955,-10.366 -3.703,-6.414 -3.704,-14.318 0,-20.733 3.704,-6.415 17.955,-28.901 17.955,-28.901 0,16.791 14.252,22.486 17.955,28.901 3.704,6.415 3.704,14.318 0,20.733 -3.704,6.415 -10.548,10.366 -17.955,10.366 z" />
		<path
   id="path194"
   d="m 378.07,806.27 c -7.407,0 -14.252,-3.952 -17.955,-10.366 -3.704,-6.415 -3.704,-14.318 0,-20.733 3.704,-6.415 17.955,-28.901 17.955,-28.901 0,16.791 14.252,22.486 17.955,28.901 3.703,6.415 3.704,14.318 0,20.733 -3.703,6.414 -10.548,10.366 -17.955,10.366 z" />
		<path
   id="path196"
   d="m 908.35,1175.8 c -7.407,0 -14.252,-3.952 -17.955,-10.366 -3.704,-6.415 -3.704,-14.318 0,-20.733 3.704,-6.415 17.955,-28.901 17.955,-28.901 0,16.791 14.252,22.486 17.955,28.901 3.704,6.415 3.704,14.318 0,20.733 -3.703,6.414 -10.548,10.366 -17.955,10.366 z" />
		<path
   id="path198"
   d="m 675.43,1334.2 c -7.407,0 -14.252,-3.952 -17.955,-10.366 -3.704,-6.415 -3.704,-14.318 0,-20.733 3.704,-6.415 17.955,-28.901 17.955,-28.901 0,16.791 14.252,22.486 17.955,28.901 3.704,6.415 3.704,14.318 0,20.733 -3.703,6.414 -10.548,10.366 -17.955,10.366 z" />
		<path
   id="path200"
   d="m 766.1,967.63 c -7.407,0 -14.252,-3.952 -17.955,-10.366 -3.703,-6.414 -3.704,-14.318 0,-20.733 3.704,-6.415 17.955,-28.901 17.955,-28.901 0,16.791 14.252,22.486 17.955,28.901 3.703,6.415 3.704,14.318 0,20.733 -3.704,6.415 -10.547,10.366 -17.955,10.366 z" />
		<path
   id="path202"
   d="m 529.04,1556.7 c -7.407,0 -14.252,-3.952 -17.955,-10.366 -3.703,-6.414 -3.704,-14.318 0,-20.733 3.704,-6.415 17.955,-28.901 17.955,-28.901 0,16.791 14.252,22.486 17.955,28.901 3.703,6.415 3.704,14.318 0,20.733 -3.704,6.415 -10.548,10.366 -17.955,10.366 z" />
		<path
   id="path204"
   d="m 862.09,1290 c -7.407,0 -14.252,-3.952 -17.955,-10.366 -3.704,-6.415 -3.704,-14.318 0,-20.733 3.704,-6.415 17.955,-28.901 17.955,-28.901 0,16.791 14.252,22.486 17.955,28.901 3.704,6.415 3.704,14.318 0,20.733 -3.703,6.415 -10.548,10.366 -17.955,10.366 z" />
		<path
   id="path206"
   d="m 717.24,524.13 c -7.407,0 -14.252,-3.952 -17.955,-10.366 -3.704,-6.415 -3.704,-14.318 0,-20.733 3.704,-6.415 17.955,-28.901 17.955,-28.901 0,16.791 14.252,22.486 17.955,28.901 3.703,6.415 3.704,14.318 0,20.733 -3.704,6.414 -10.548,10.366 -17.955,10.366 z" />
		<path
   id="path208"
   d="m 501.18,588.14 c -7.407,0 -14.252,-3.952 -17.955,-10.366 -3.703,-6.414 -3.704,-14.318 0,-20.733 3.704,-6.415 17.955,-28.901 17.955,-28.901 0,16.791 14.252,22.486 17.955,28.901 3.704,6.415 3.704,14.318 0,20.733 -3.704,6.415 -10.548,10.366 -17.955,10.366 z" />
		<path
   id="path210"
   d="m 399.51,583.82 c -7.407,0 -14.252,-3.952 -17.955,-10.366 -3.704,-6.415 -3.704,-14.318 0,-20.733 3.704,-6.415 17.955,-28.901 17.955,-28.901 0,16.791 14.252,22.486 17.955,28.901 3.703,6.415 3.704,14.318 0,20.733 -3.703,6.414 -10.548,10.366 -17.955,10.366 z" />
		<path
   id="path212"
   d="m 916.17,962.14 c -7.407,0 -14.252,-3.952 -17.955,-10.366 -3.703,-6.414 -3.704,-14.318 0,-20.733 3.704,-6.415 17.955,-28.901 17.955,-28.901 0,16.791 14.252,22.486 17.955,28.901 3.703,6.415 3.704,14.318 0,20.733 -3.704,6.415 -10.548,10.366 -17.955,10.366 z" />
		<path
   id="path214"
   d="m 777.99,905.56 c -7.407,0 -14.252,-3.952 -17.955,-10.366 -3.703,-6.414 -3.704,-14.318 0,-20.733 3.704,-6.415 17.955,-28.901 17.955,-28.901 0,16.791 14.252,22.486 17.955,28.901 3.703,6.415 3.704,14.318 0,20.733 -3.704,6.415 -10.548,10.366 -17.955,10.366 z" />
		<path
   id="path216"
   d="m 985.25,1569.5 c -7.407,0 -14.252,-3.952 -17.955,-10.366 -3.704,-6.415 -3.704,-14.318 0,-20.733 3.704,-6.415 17.955,-28.901 17.955,-28.901 0,16.791 14.252,22.486 17.955,28.901 3.704,6.415 3.704,14.318 0,20.733 -3.703,6.414 -10.548,10.366 -17.955,10.366 z" />
		<path
   id="path218"
   d="m 1053.8,883.26 c -7.407,0 -14.251,-3.952 -17.955,-10.366 -3.703,-6.415 -3.703,-14.318 0,-20.733 3.704,-6.415 17.955,-28.901 17.955,-28.901 0,16.791 14.252,22.486 17.955,28.901 3.703,6.415 3.703,14.318 0,20.733 -3.704,6.414 -10.548,10.366 -17.955,10.366 z" />
		<path
   id="path220"
   d="m 1033,1535.1 c -7.407,0 -14.252,-3.952 -17.955,-10.366 -3.704,-6.415 -3.704,-14.318 0,-20.733 3.704,-6.415 17.955,-28.901 17.955,-28.901 0,16.791 14.252,22.486 17.955,28.901 3.704,6.415 3.704,14.318 0,20.733 -3.703,6.414 -10.548,10.366 -17.955,10.366 z" />
		<path
   id="path222"
   d="m 1122.5,1383.3 c -7.407,0 -14.252,-3.952 -17.955,-10.366 -3.703,-6.415 -3.703,-14.318 0,-20.733 3.704,-6.415 17.955,-28.901 17.955,-28.901 0,16.791 14.251,22.486 17.955,28.901 3.703,6.415 3.703,14.318 0,20.733 -3.704,6.414 -10.548,10.366 -17.955,10.366 z" />
		<path
   id="path224"
   d="m 999.65,1482.5 c -7.407,0 -14.252,-3.952 -17.955,-10.366 -3.704,-6.415 -3.704,-14.318 0,-20.733 3.704,-6.415 17.955,-28.901 17.955,-28.901 0,16.791 14.252,22.486 17.955,28.901 3.703,6.415 3.704,14.318 0,20.733 -3.703,6.415 -10.547,10.366 -17.955,10.366 z" />
		<path
   id="path226"
   d="m 618.38,1025.3 c -7.407,0 -14.252,-3.952 -17.955,-10.366 -3.703,-6.414 -3.704,-14.318 0,-20.733 3.704,-6.415 17.955,-28.901 17.955,-28.901 0,16.791 14.252,22.486 17.955,28.901 3.703,6.415 3.704,14.318 0,20.733 -3.704,6.415 -10.548,10.366 -17.955,10.366 z" />
		<path
   id="path228"
   d="m 267.99,1349.5 c -7.407,0 -14.252,-3.952 -17.955,-10.366 -3.704,-6.415 -3.704,-14.318 0,-20.733 3.704,-6.415 17.955,-28.901 17.955,-28.901 0,16.791 14.252,22.486 17.955,28.901 3.703,6.415 3.704,14.318 0,20.733 -3.704,6.415 -10.548,10.366 -17.955,10.366 z" />
		<path
   id="path230"
   d="m 859.56,760.14 c -7.407,0 -14.252,-3.952 -17.955,-10.366 -3.703,-6.414 -3.704,-14.318 0,-20.733 3.704,-6.415 17.955,-28.901 17.955,-28.901 0,16.791 14.252,22.486 17.955,28.901 3.703,6.415 3.704,14.318 0,20.733 -3.704,6.415 -10.548,10.366 -17.955,10.366 z" />
		<path
   id="path232"
   d="m 502.32,959.13 c -7.407,0 -14.252,-3.952 -17.955,-10.366 -3.704,-6.415 -3.704,-14.318 0,-20.733 3.704,-6.415 17.955,-28.901 17.955,-28.901 0,16.791 14.252,22.486 17.955,28.901 3.703,6.415 3.704,14.318 0,20.733 -3.704,6.415 -10.548,10.366 -17.955,10.366 z" />
		<path
   id="path234"
   d="m 1062.3,1478.2 c -7.407,0 -14.252,-3.952 -17.955,-10.366 -3.703,-6.415 -3.703,-14.318 0,-20.733 3.704,-6.415 17.955,-28.901 17.955,-28.901 0,16.791 14.251,22.486 17.955,28.901 3.703,6.415 3.703,14.318 0,20.733 -3.704,6.415 -10.548,10.366 -17.955,10.366 z" />
		<path
   id="path236"
   d="m 321.14,1597.4 c -7.407,0 -14.252,-3.952 -17.955,-10.366 -3.704,-6.415 -3.704,-14.318 0,-20.733 3.704,-6.415 17.955,-28.901 17.955,-28.901 0,16.791 14.252,22.486 17.955,28.901 3.704,6.415 3.704,14.318 0,20.733 -3.703,6.414 -10.548,10.366 -17.955,10.366 z" />
		<path
   id="path238"
   d="m 668.9,1596.4 c -7.407,0 -14.252,-3.952 -17.955,-10.366 -3.704,-6.415 -3.704,-14.318 0,-20.733 3.704,-6.415 17.955,-28.901 17.955,-28.901 0,16.791 14.252,22.486 17.955,28.901 3.704,6.415 3.704,14.318 0,20.733 -3.703,6.414 -10.548,10.366 -17.955,10.366 z" />
		<path
   id="path240"
   d="m 279.74,1081.4 c -7.407,0 -14.252,-3.952 -17.955,-10.366 -3.704,-6.415 -3.704,-14.318 0,-20.733 3.704,-6.415 17.955,-28.901 17.955,-28.901 0,16.791 14.252,22.486 17.955,28.901 3.704,6.415 3.704,14.318 0,20.733 -3.704,6.414 -10.548,10.366 -17.955,10.366 z" />
		<path
   id="path242"
   d="m 616.37,1354.8 c -7.407,0 -14.252,-3.952 -17.955,-10.366 -3.704,-6.415 -3.704,-14.318 0,-20.733 3.704,-6.415 17.955,-28.901 17.955,-28.901 0,16.791 14.252,22.486 17.955,28.901 3.704,6.415 3.704,14.318 0,20.733 -3.704,6.414 -10.548,10.366 -17.955,10.366 z" />
		<path
   id="path244"
   d="m 471.99,841.43 c -7.407,0 -14.252,-3.952 -17.955,-10.366 -3.703,-6.414 -3.704,-14.318 0,-20.733 3.704,-6.415 17.955,-28.901 17.955,-28.901 0,16.791 14.252,22.486 17.955,28.901 3.703,6.415 3.704,14.318 0,20.733 -3.704,6.415 -10.548,10.366 -17.955,10.366 z" />
		<path
   id="path246"
   d="m 399.42,1170.2 c -7.407,0 -14.252,-3.952 -17.955,-10.366 -3.704,-6.415 -3.704,-14.318 0,-20.733 3.704,-6.415 17.955,-28.901 17.955,-28.901 0,16.791 14.252,22.486 17.955,28.901 3.704,6.415 3.704,14.318 0,20.733 -3.703,6.414 -10.548,10.366 -17.955,10.366 z" />
		<path
   id="path248"
   d="m 230.28,1061.3 c -7.407,0 -14.252,-3.952 -17.955,-10.366 -3.703,-6.414 -3.704,-14.318 0,-20.733 3.704,-6.415 17.955,-28.901 17.955,-28.901 0,16.791 14.252,22.486 17.955,28.901 3.704,6.415 3.704,14.318 0,20.733 -3.704,6.415 -10.548,10.366 -17.955,10.366 z" />
		<path
   id="path250"
   d="m 775.76,1363.1 c -7.407,0 -14.252,-3.952 -17.955,-10.366 -3.704,-6.415 -3.704,-14.318 0,-20.733 3.704,-6.415 17.955,-28.901 17.955,-28.901 0,16.791 14.252,22.486 17.955,28.901 3.704,6.415 3.704,14.318 0,20.733 -3.704,6.414 -10.548,10.366 -17.955,10.366 z" />
		<path
   id="path252"
   d="m 1012.1,1037.1 c -7.407,0 -14.252,-3.952 -17.955,-10.366 -3.704,-6.415 -3.704,-14.318 0,-20.733 3.704,-6.415 17.955,-28.901 17.955,-28.901 0,16.791 14.252,22.486 17.955,28.901 3.704,6.415 3.704,14.318 0,20.733 -3.704,6.414 -10.548,10.366 -17.955,10.366 z" />
		<path
   id="path254"
   d="m 912.66,879.82 c -7.407,0 -14.252,-3.952 -17.955,-10.366 -3.704,-6.415 -3.704,-14.318 0,-20.733 3.704,-6.415 17.955,-28.901 17.955,-28.901 0,16.791 14.252,22.486 17.955,28.901 3.703,6.415 3.704,14.318 0,20.733 -3.704,6.415 -10.548,10.366 -17.955,10.366 z" />
		<path
   id="path256"
   d="m 820.63,1529.3 c -7.407,0 -14.252,-3.952 -17.955,-10.366 -3.704,-6.415 -3.704,-14.318 0,-20.733 3.704,-6.415 17.955,-28.901 17.955,-28.901 0,16.791 14.252,22.486 17.955,28.901 3.704,6.415 3.704,14.318 0,20.733 -3.703,6.414 -10.547,10.366 -17.955,10.366 z" />
		<path
   id="path258"
   d="m 500.8,1380.1 c -7.407,0 -14.252,-3.952 -17.955,-10.366 -3.704,-6.415 -3.704,-14.318 0,-20.733 3.704,-6.415 17.955,-28.901 17.955,-28.901 0,16.791 14.252,22.486 17.955,28.901 3.703,6.415 3.704,14.318 0,20.733 -3.704,6.414 -10.548,10.366 -17.955,10.366 z" />
		<path
   id="path260"
   d="m 818.51,1240.4 c -7.407,0 -14.252,-3.952 -17.955,-10.366 -3.704,-6.415 -3.704,-14.318 0,-20.733 3.704,-6.415 17.955,-28.901 17.955,-28.901 0,16.791 14.252,22.486 17.955,28.901 3.704,6.415 3.704,14.318 0,20.733 -3.703,6.414 -10.548,10.366 -17.955,10.366 z" />
		<path
   id="path262"
   d="m 1140.2,1027.3 c -7.407,0 -14.251,-3.952 -17.955,-10.366 -3.703,-6.415 -3.703,-14.318 0,-20.733 3.704,-6.415 17.955,-28.901 17.955,-28.901 0,16.791 14.252,22.486 17.955,28.901 3.703,6.415 3.703,14.318 0,20.733 -3.704,6.414 -10.548,10.366 -17.955,10.366 z" />
		<path
   id="path264"
   d="m 1154.8,1098.4 c -7.407,0 -14.252,-3.952 -17.955,-10.366 -3.704,-6.415 -3.704,-14.318 0,-20.733 3.703,-6.415 17.955,-28.901 17.955,-28.901 0,16.791 14.252,22.486 17.955,28.901 3.704,6.415 3.704,14.318 0,20.733 -3.703,6.414 -10.548,10.366 -17.955,10.366 z" />
		<path
   id="path266"
   d="m 484.43,664.68 c -7.407,0 -14.252,-3.952 -17.955,-10.366 -3.703,-6.414 -3.704,-14.318 0,-20.733 3.704,-6.415 17.955,-28.901 17.955,-28.901 0,16.791 14.252,22.486 17.955,28.901 3.703,6.415 3.704,14.318 0,20.733 -3.704,6.415 -10.548,10.366 -17.955,10.366 z" />
		<path
   id="path268"
   d="m 127.1,1077.9 c -7.407,0 -14.252,-3.952 -17.955,-10.366 -3.704,-6.415 -3.704,-14.318 0,-20.733 3.704,-6.415 17.955,-28.901 17.955,-28.901 0,16.791 14.252,22.486 17.955,28.901 3.704,6.415 3.704,14.318 0,20.733 -3.703,6.415 -10.548,10.366 -17.955,10.366 z" />
		<path
   id="path270"
   d="m 710.22,975.18 c -7.407,0 -14.252,-3.952 -17.955,-10.366 -3.704,-6.415 -3.704,-14.318 0,-20.733 3.704,-6.415 17.955,-28.901 17.955,-28.901 0,16.791 14.252,22.486 17.955,28.901 3.703,6.415 3.704,14.318 0,20.733 -3.704,6.415 -10.548,10.366 -17.955,10.366 z" />
		<path
   id="path272"
   d="m 939.47,1121.4 c -7.407,0 -14.252,-3.952 -17.955,-10.366 -3.703,-6.414 -3.704,-14.318 0,-20.733 3.704,-6.415 17.955,-28.901 17.955,-28.901 0,16.791 14.252,22.486 17.955,28.901 3.703,6.415 3.704,14.318 0,20.733 -3.704,6.415 -10.548,10.366 -17.955,10.366 z" />
		<path
   id="path274"
   d="m 226.63,955.64 c -7.407,0 -14.252,-3.952 -17.955,-10.366 -3.703,-6.414 -3.704,-14.318 0,-20.733 3.704,-6.415 17.955,-28.901 17.955,-28.901 0,16.791 14.252,22.486 17.955,28.901 3.703,6.415 3.704,14.318 0,20.733 -3.704,6.415 -10.548,10.366 -17.955,10.366 z" />
		<path
   id="path276"
   d="m 730.72,1313 c -7.407,0 -14.252,-3.952 -17.955,-10.366 -3.703,-6.414 -3.704,-14.318 0,-20.733 3.704,-6.415 17.955,-28.901 17.955,-28.901 0,16.791 14.252,22.486 17.955,28.901 3.704,6.415 3.704,14.318 0,20.733 -3.704,6.415 -10.548,10.366 -17.955,10.366 z" />
		<path
   id="path278"
   d="m 1089.6,924.46 c -7.407,0 -14.252,-3.952 -17.955,-10.366 -3.703,-6.415 -3.703,-14.318 0,-20.733 3.704,-6.415 17.955,-28.901 17.955,-28.901 0,16.791 14.251,22.486 17.955,28.901 3.703,6.415 3.703,14.318 0,20.733 -3.703,6.415 -10.548,10.366 -17.955,10.366 z" />
		<path
   id="path280"
   d="m 162.07,1202.4 c -7.407,0 -14.252,-3.952 -17.955,-10.366 -3.704,-6.415 -3.704,-14.318 0,-20.733 3.704,-6.415 17.955,-28.901 17.955,-28.901 0,16.791 14.252,22.486 17.955,28.901 3.704,6.415 3.704,14.318 0,20.733 -3.703,6.415 -10.548,10.366 -17.955,10.366 z" />
		<path
   id="path282"
   d="m 473.29,471.46 c -7.407,0 -14.252,-3.952 -17.955,-10.366 -3.704,-6.415 -3.704,-14.318 0,-20.733 3.704,-6.415 17.955,-28.901 17.955,-28.901 0,16.791 14.252,22.486 17.955,28.901 3.703,6.415 3.704,14.318 0,20.733 -3.703,6.414 -10.548,10.366 -17.955,10.366 z" />
		<path
   id="path284"
   d="m 636.13,1280.3 c -7.407,0 -14.252,-3.952 -17.955,-10.366 -3.704,-6.415 -3.704,-14.318 0,-20.733 3.704,-6.415 17.955,-28.901 17.955,-28.901 0,16.791 14.252,22.486 17.955,28.901 3.704,6.415 3.704,14.318 0,20.733 -3.703,6.414 -10.548,10.366 -17.955,10.366 z" />
		<path
   id="path286"
   d="m 357,708.88 c -7.407,0 -14.252,-3.952 -17.955,-10.366 -3.703,-6.414 -3.704,-14.318 0,-20.733 C 342.749,671.366 357,648.88 357,648.88 c 0,16.791 14.252,22.486 17.955,28.901 3.703,6.415 3.704,14.318 0,20.733 -3.704,6.415 -10.548,10.366 -17.955,10.366 z" />
		<path
   id="path288"
   d="m 923.33,760.18 c -7.407,0 -14.252,-3.952 -17.955,-10.366 -3.704,-6.415 -3.704,-14.318 0,-20.733 3.704,-6.415 17.955,-28.901 17.955,-28.901 0,16.791 14.252,22.486 17.955,28.901 3.703,6.415 3.704,14.318 0,20.733 -3.703,6.415 -10.547,10.366 -17.955,10.366 z" />
		<path
   id="path290"
   d="m 779.94,1201 c -7.407,0 -14.252,-3.952 -17.955,-10.366 -3.704,-6.415 -3.704,-14.318 0,-20.733 3.704,-6.415 17.955,-28.901 17.955,-28.901 0,16.791 14.252,22.486 17.955,28.901 3.704,6.415 3.704,14.318 0,20.733 -3.703,6.414 -10.548,10.366 -17.955,10.366 z" />
		<path
   id="path292"
   d="m 120.47,1286 c -7.407,0 -14.252,-3.952 -17.955,-10.366 -3.704,-6.415 -3.704,-14.318 0,-20.733 3.704,-6.415 17.955,-28.901 17.955,-28.901 0,16.791 14.252,22.486 17.955,28.901 3.704,6.415 3.704,14.318 0,20.733 -3.704,6.414 -10.548,10.366 -17.955,10.366 z" />
		<path
   id="path294"
   d="m 672.72,861.51 c -7.407,0 -14.252,-3.952 -17.955,-10.366 -3.703,-6.414 -3.704,-14.318 0,-20.733 3.704,-6.415 17.955,-28.901 17.955,-28.901 0,16.791 14.252,22.486 17.955,28.901 3.703,6.415 3.704,14.318 0,20.733 -3.704,6.415 -10.548,10.366 -17.955,10.366 z" />
		<path
   id="path296"
   d="m 721.3,1386.3 c -7.407,0 -14.252,-3.952 -17.955,-10.366 -3.704,-6.415 -3.704,-14.318 0,-20.733 3.704,-6.415 17.955,-28.901 17.955,-28.901 0,16.791 14.252,22.486 17.955,28.901 3.704,6.415 3.704,14.318 0,20.733 -3.704,6.415 -10.548,10.366 -17.955,10.366 z" />
		<path
   id="path298"
   d="m 680.44,452.46 c -7.407,0 -14.252,-3.952 -17.955,-10.366 -3.704,-6.415 -3.704,-14.318 0,-20.733 3.704,-6.415 17.955,-28.901 17.955,-28.901 0,16.791 14.252,22.486 17.955,28.901 3.703,6.415 3.704,14.318 0,20.733 -3.703,6.415 -10.548,10.366 -17.955,10.366 z" />
		<path
   id="path300"
   d="m 656.21,1216.2 c -7.407,0 -14.252,-3.952 -17.955,-10.366 -3.704,-6.415 -3.704,-14.318 0,-20.733 3.704,-6.415 17.955,-28.901 17.955,-28.901 0,16.791 14.252,22.486 17.955,28.901 3.704,6.415 3.704,14.318 0,20.733 -3.704,6.414 -10.548,10.366 -17.955,10.366 z" />
		<path
   id="path302"
   d="m 531.31,647.37 c -7.407,0 -14.252,-3.952 -17.955,-10.366 -3.704,-6.415 -3.704,-14.318 0,-20.733 3.704,-6.415 17.955,-28.901 17.955,-28.901 0,16.791 14.252,22.486 17.955,28.901 3.703,6.415 3.704,14.318 0,20.733 -3.704,6.414 -10.548,10.366 -17.955,10.366 z" />
		<path
   id="path304"
   d="m 833.38,1398.2 c -7.407,0 -14.252,-3.952 -17.955,-10.366 -3.704,-6.415 -3.704,-14.318 0,-20.733 3.704,-6.415 17.955,-28.901 17.955,-28.901 0,16.791 14.252,22.486 17.955,28.901 3.703,6.415 3.704,14.318 0,20.733 -3.704,6.414 -10.548,10.366 -17.955,10.366 z" />
		<path
   id="path306"
   d="m 819.48,1325.5 c -7.407,0 -14.252,-3.952 -17.955,-10.366 -3.704,-6.415 -3.704,-14.318 0,-20.733 3.704,-6.415 17.955,-28.901 17.955,-28.901 0,16.791 14.252,22.486 17.955,28.901 3.704,6.415 3.704,14.318 0,20.733 -3.704,6.414 -10.548,10.366 -17.955,10.366 z" />
		<path
   id="path308"
   d="m 870.37,1574.3 c -7.407,0 -14.252,-3.952 -17.955,-10.366 -3.704,-6.415 -3.704,-14.318 0,-20.733 3.704,-6.415 17.955,-28.901 17.955,-28.901 0,16.791 14.252,22.486 17.955,28.901 3.704,6.415 3.704,14.318 0,20.733 -3.703,6.414 -10.547,10.366 -17.955,10.366 z" />
		<path
   id="path310"
   d="m 717.48,604.22 c -7.407,0 -14.252,-3.952 -17.955,-10.366 -3.703,-6.414 -3.704,-14.318 0,-20.733 3.704,-6.415 17.955,-28.901 17.955,-28.901 0,16.791 14.252,22.486 17.955,28.901 3.703,6.415 3.704,14.318 0,20.733 -3.704,6.415 -10.548,10.366 -17.955,10.366 z" />
		<path
   id="path312"
   d="m 675.09,1018.6 c -7.407,0 -14.252,-3.952 -17.955,-10.366 -3.704,-6.415 -3.704,-14.318 0,-20.733 3.704,-6.415 17.955,-28.901 17.955,-28.901 0,16.791 14.252,22.486 17.955,28.901 3.703,6.415 3.704,14.318 0,20.733 -3.703,6.415 -10.548,10.366 -17.955,10.366 z" />
		<path
   id="path314"
   d="m 268.51,1556.2 c -7.407,0 -14.252,-3.952 -17.955,-10.366 -3.704,-6.415 -3.704,-14.318 0,-20.733 3.704,-6.415 17.955,-28.901 17.955,-28.901 0,16.791 14.252,22.486 17.955,28.901 3.704,6.415 3.704,14.318 0,20.733 -3.704,6.414 -10.548,10.366 -17.955,10.366 z" />
		<path
   id="path316"
   d="m 361.78,870.93 c -7.407,0 -14.252,-3.952 -17.955,-10.366 -3.703,-6.414 -3.704,-14.318 0,-20.733 3.704,-6.415 17.955,-28.901 17.955,-28.901 0,16.791 14.252,22.486 17.955,28.901 3.703,6.415 3.704,14.318 0,20.733 -3.704,6.415 -10.547,10.366 -17.955,10.366 z" />
		<path
   id="path318"
   d="m 1049.9,1265.9 c -7.407,0 -14.252,-3.952 -17.955,-10.366 -3.704,-6.415 -3.704,-14.318 0,-20.733 3.703,-6.415 17.955,-28.901 17.955,-28.901 0,16.791 14.252,22.486 17.955,28.901 3.704,6.415 3.704,14.318 0,20.733 -3.703,6.414 -10.548,10.366 -17.955,10.366 z" />
		<path
   id="path320"
   d="m 397.04,735.4 c -7.407,0 -14.252,-3.952 -17.955,-10.366 -3.703,-6.414 -3.704,-14.318 0,-20.733 3.704,-6.415 17.955,-28.901 17.955,-28.901 0,16.791 14.252,22.486 17.955,28.901 3.703,6.415 3.704,14.318 0,20.733 -3.704,6.415 -10.548,10.366 -17.955,10.366 z" />
		<path
   id="path322"
   d="m 176.46,949.14 c -7.407,0 -14.252,-3.952 -17.955,-10.366 -3.704,-6.415 -3.704,-14.318 0,-20.733 3.704,-6.415 17.955,-28.901 17.955,-28.901 0,16.791 14.252,22.486 17.955,28.901 3.703,6.415 3.704,14.318 0,20.733 -3.704,6.415 -10.548,10.366 -17.955,10.366 z" />
		<path
   id="path324"
   d="m 1017.9,1328.1 c -7.407,0 -14.252,-3.952 -17.955,-10.366 -3.704,-6.415 -3.704,-14.318 0,-20.733 3.704,-6.415 17.955,-28.901 17.955,-28.901 0,16.791 14.252,22.486 17.955,28.901 3.704,6.415 3.704,14.318 0,20.733 -3.703,6.415 -10.548,10.366 -17.955,10.366 z" />
		<path
   id="path326"
   d="m 1063.1,1012.4 c -7.407,0 -14.251,-3.952 -17.955,-10.366 -3.704,-6.414 -3.704,-14.318 0,-20.733 3.704,-6.415 17.955,-28.901 17.955,-28.901 0,16.791 14.252,22.486 17.955,28.901 3.703,6.415 3.703,14.318 0,20.733 -3.704,6.415 -10.548,10.366 -17.955,10.366 z" />
		<path
   id="path328"
   d="m 683.64,1708.8 c -7.407,0 -14.252,-3.952 -17.955,-10.366 -3.704,-6.415 -3.704,-14.318 0,-20.733 3.704,-6.415 17.955,-28.901 17.955,-28.901 0,16.791 14.252,22.486 17.955,28.901 3.704,6.415 3.704,14.318 0,20.733 -3.704,6.414 -10.548,10.366 -17.955,10.366 z" />
		<path
   id="path330"
   d="m 311.83,835.41 c -7.407,0 -14.252,-3.952 -17.955,-10.366 -3.704,-6.415 -3.704,-14.318 0,-20.733 3.704,-6.415 17.955,-28.901 17.955,-28.901 0,16.791 14.252,22.486 17.955,28.901 3.703,6.415 3.704,14.318 0,20.733 -3.703,6.414 -10.548,10.366 -17.955,10.366 z" />
		<path
   id="path332"
   d="m 566.6,1389.8 c -7.407,0 -14.252,-3.952 -17.955,-10.366 -3.704,-6.415 -3.704,-14.318 0,-20.733 3.704,-6.415 17.955,-28.901 17.955,-28.901 0,16.791 14.252,22.486 17.955,28.901 3.704,6.415 3.704,14.318 0,20.733 -3.703,6.415 -10.548,10.366 -17.955,10.366 z" />
		<path
   id="path334"
   d="m 634.38,1156.3 c -7.407,0 -14.252,-3.952 -17.955,-10.366 -3.704,-6.415 -3.704,-14.318 0,-20.733 3.704,-6.415 17.955,-28.901 17.955,-28.901 0,16.791 14.252,22.486 17.955,28.901 3.703,6.415 3.704,14.318 0,20.733 -3.703,6.415 -10.548,10.366 -17.955,10.366 z" />
		<path
   id="path336"
   d="m 828.8,1467.1 c -7.407,0 -14.252,-3.952 -17.955,-10.366 -3.704,-6.415 -3.704,-14.318 0,-20.733 3.704,-6.415 17.955,-28.901 17.955,-28.901 0,16.791 14.252,22.486 17.955,28.901 3.704,6.415 3.704,14.318 0,20.733 -3.704,6.415 -10.548,10.366 -17.955,10.366 z" />
		<path
   id="path338"
   d="m 456.35,1447.5 c -7.407,0 -14.252,-3.952 -17.955,-10.366 -3.704,-6.415 -3.704,-14.318 0,-20.733 3.704,-6.415 17.955,-28.901 17.955,-28.901 0,16.791 14.252,22.486 17.955,28.901 3.704,6.415 3.704,14.318 0,20.733 -3.703,6.415 -10.548,10.366 -17.955,10.366 z" />
		<path
   id="path340"
   d="m 481.11,1315.3 c -7.407,0 -14.252,-3.952 -17.955,-10.366 -3.704,-6.415 -3.704,-14.318 0,-20.733 3.704,-6.415 17.955,-28.901 17.955,-28.901 0,16.791 14.252,22.486 17.955,28.901 3.704,6.415 3.704,14.318 0,20.733 -3.703,6.414 -10.547,10.366 -17.955,10.366 z" />
		<path
   id="path342"
   d="m 248.76,831.23 c -7.407,0 -14.252,-3.952 -17.955,-10.366 -3.704,-6.415 -3.704,-14.318 0,-20.733 3.704,-6.415 17.955,-28.901 17.955,-28.901 0,16.791 14.252,22.486 17.955,28.901 3.704,6.415 3.704,14.318 0,20.733 -3.703,6.414 -10.548,10.366 -17.955,10.366 z" />
		<path
   id="path344"
   d="m 316.07,981.18 c -7.407,0 -14.252,-3.952 -17.955,-10.366 -3.704,-6.415 -3.704,-14.318 0,-20.733 3.704,-6.415 17.955,-28.901 17.955,-28.901 0,16.791 14.252,22.486 17.955,28.901 3.704,6.415 3.704,14.318 0,20.733 -3.703,6.415 -10.548,10.366 -17.955,10.366 z" />
		<path
   id="path346"
   d="m 263.8,1011.9 c -7.407,0 -14.252,-3.952 -17.955,-10.366 -3.704,-6.415 -3.704,-14.318 0,-20.733 3.704,-6.415 17.955,-28.901 17.955,-28.901 0,16.791 14.252,22.486 17.955,28.901 3.703,6.415 3.704,14.318 0,20.733 -3.703,6.415 -10.548,10.366 -17.955,10.366 z" />
		<path
   id="path348"
   d="m 914.99,1042.9 c -7.407,0 -14.252,-3.952 -17.955,-10.366 -3.703,-6.414 -3.704,-14.318 0,-20.733 3.704,-6.415 17.955,-28.901 17.955,-28.901 0,16.791 14.252,22.486 17.955,28.901 3.703,6.415 3.704,14.318 0,20.733 -3.704,6.415 -10.548,10.366 -17.955,10.366 z" />
		<path
   id="path350"
   d="m 863.42,1218.6 c -7.407,0 -14.252,-3.952 -17.955,-10.366 -3.704,-6.415 -3.704,-14.318 0,-20.733 3.704,-6.415 17.955,-28.901 17.955,-28.901 0,16.791 14.252,22.486 17.955,28.901 3.704,6.415 3.704,14.318 0,20.733 -3.703,6.414 -10.548,10.366 -17.955,10.366 z" />
		<path
   id="path352"
   d="m 959.3,1002.9 c -7.407,0 -14.252,-3.952 -17.955,-10.366 -3.703,-6.414 -3.704,-14.318 0,-20.733 3.704,-6.415 17.955,-28.901 17.955,-28.901 0,16.791 14.252,22.486 17.955,28.901 3.704,6.415 3.704,14.318 0,20.733 -3.704,6.415 -10.548,10.366 -17.955,10.366 z" />
		<path
   id="path354"
   d="m 513.19,1434.6 c -7.407,0 -14.252,-3.952 -17.955,-10.366 -3.704,-6.415 -3.704,-14.318 0,-20.733 3.704,-6.415 17.955,-28.901 17.955,-28.901 0,16.791 14.252,22.486 17.955,28.901 3.704,6.415 3.704,14.318 0,20.733 -3.703,6.414 -10.548,10.366 -17.955,10.366 z" />
		<path
   id="path356"
   d="m 530.92,724.63 c -7.407,0 -14.252,-3.952 -17.955,-10.366 -3.703,-6.414 -3.704,-14.318 0,-20.733 3.704,-6.415 17.955,-28.901 17.955,-28.901 0,16.791 14.252,22.486 17.955,28.901 3.704,6.415 3.704,14.318 0,20.733 -3.704,6.415 -10.548,10.366 -17.955,10.366 z" />
		<path
   id="path358"
   d="m 393.18,1417 c -7.407,0 -14.252,-3.952 -17.955,-10.366 -3.704,-6.415 -3.704,-14.318 0,-20.733 3.704,-6.415 17.955,-28.901 17.955,-28.901 0,16.791 14.252,22.486 17.955,28.901 3.704,6.415 3.704,14.318 0,20.733 -3.703,6.414 -10.548,10.366 -17.955,10.366 z" />
		<path
   id="path360"
   d="m 701.48,1527 c -7.407,0 -14.252,-3.952 -17.955,-10.366 -3.704,-6.415 -3.704,-14.318 0,-20.733 3.704,-6.415 17.955,-28.901 17.955,-28.901 0,16.791 14.252,22.486 17.955,28.901 3.704,6.415 3.704,14.318 0,20.733 -3.703,6.414 -10.548,10.366 -17.955,10.366 z" />
		<path
   id="path362"
   d="m 594.52,1219.8 c -7.407,0 -14.252,-3.952 -17.955,-10.366 -3.703,-6.414 -3.704,-14.318 0,-20.733 3.704,-6.415 17.955,-28.901 17.955,-28.901 0,16.791 14.252,22.486 17.955,28.901 3.703,6.415 3.704,14.318 0,20.733 -3.704,6.415 -10.548,10.366 -17.955,10.366 z" />
		<path
   id="path364"
   d="m 737.21,852.98 c -7.407,0 -14.252,-3.952 -17.955,-10.366 -3.703,-6.414 -3.704,-14.318 0,-20.733 3.704,-6.415 17.955,-28.901 17.955,-28.901 0,16.791 14.252,22.486 17.955,28.901 3.704,6.415 3.704,14.318 0,20.733 -3.704,6.415 -10.547,10.366 -17.955,10.366 z" />
		<path
   id="path366"
   d="m 877.81,1356.2 c -7.407,0 -14.252,-3.952 -17.955,-10.366 -3.704,-6.415 -3.704,-14.318 0,-20.733 3.704,-6.415 17.955,-28.901 17.955,-28.901 0,16.791 14.252,22.486 17.955,28.901 3.704,6.415 3.704,14.318 0,20.733 -3.703,6.415 -10.548,10.366 -17.955,10.366 z" />
		<path
   id="path368"
   d="m 1059.8,1392.1 c -7.407,0 -14.252,-3.952 -17.955,-10.366 -3.703,-6.415 -3.703,-14.318 0,-20.733 3.704,-6.415 17.955,-28.901 17.955,-28.901 0,16.791 14.251,22.486 17.955,28.901 3.703,6.415 3.703,14.318 0,20.733 -3.704,6.414 -10.548,10.366 -17.955,10.366 z" />
		<path
   id="path370"
   d="m 501.38,526.22 c -7.407,0 -14.252,-3.952 -17.955,-10.366 -3.703,-6.414 -3.704,-14.318 0,-20.733 3.704,-6.415 17.955,-28.901 17.955,-28.901 0,16.791 14.252,22.486 17.955,28.901 3.703,6.415 3.704,14.318 0,20.733 -3.704,6.415 -10.548,10.366 -17.955,10.366 z" />
		<path
   id="path372"
   d="m 882.6,714.98 c -7.407,0 -14.252,-3.952 -17.955,-10.366 -3.703,-6.414 -3.704,-14.318 0,-20.733 3.704,-6.415 17.955,-28.901 17.955,-28.901 0,16.791 14.252,22.486 17.955,28.901 3.703,6.415 3.704,14.318 0,20.733 -3.704,6.415 -10.548,10.366 -17.955,10.366 z" />
		<path
   id="path374"
   d="m 660.66,1404.6 c -7.407,0 -14.252,-3.952 -17.955,-10.366 -3.704,-6.415 -3.704,-14.318 0,-20.733 3.704,-6.415 17.955,-28.901 17.955,-28.901 0,16.791 14.252,22.486 17.955,28.901 3.704,6.415 3.704,14.318 0,20.733 -3.703,6.414 -10.548,10.366 -17.955,10.366 z" />
		<path
   id="path376"
   d="m 725.18,728.24 c -7.407,0 -14.252,-3.952 -17.955,-10.366 -3.703,-6.414 -3.704,-14.318 0,-20.733 3.704,-6.415 17.955,-28.901 17.955,-28.901 0,16.791 14.252,22.486 17.955,28.901 3.703,6.415 3.704,14.318 0,20.733 -3.704,6.415 -10.547,10.366 -17.955,10.366 z" />
		<path
   id="path378"
   d="m 425.52,1313.7 c -7.407,0 -14.252,-3.952 -17.955,-10.366 -3.704,-6.415 -3.704,-14.318 0,-20.733 3.704,-6.415 17.955,-28.901 17.955,-28.901 0,16.791 14.252,22.486 17.955,28.901 3.703,6.415 3.704,14.318 0,20.733 -3.703,6.415 -10.548,10.366 -17.955,10.366 z" />
		<path
   id="path380"
   d="m 374.91,1355.8 c -7.407,0 -14.252,-3.952 -17.955,-10.366 -3.704,-6.415 -3.704,-14.318 0,-20.733 3.704,-6.415 17.955,-28.901 17.955,-28.901 0,16.791 14.252,22.486 17.955,28.901 3.704,6.415 3.704,14.318 0,20.733 -3.704,6.414 -10.548,10.366 -17.955,10.366 z" />
		<path
   id="path382"
   d="m 661.65,1091.2 c -7.407,0 -14.252,-3.952 -17.955,-10.366 -3.704,-6.415 -3.704,-14.318 0,-20.733 3.704,-6.415 17.955,-28.901 17.955,-28.901 0,16.791 14.252,22.486 17.955,28.901 3.703,6.415 3.704,14.318 0,20.733 -3.704,6.414 -10.548,10.366 -17.955,10.366 z" />
		<path
   id="path384"
   d="m 210.32,890.84 c -7.407,0 -14.252,-3.952 -17.955,-10.366 -3.703,-6.414 -3.704,-14.318 0,-20.733 3.704,-6.415 17.955,-28.901 17.955,-28.901 0,16.791 14.252,22.486 17.955,28.901 3.704,6.415 3.704,14.318 0,20.733 -3.704,6.415 -10.548,10.366 -17.955,10.366 z" />
		<path
   id="path386"
   d="m 494.66,1021.9 c -7.407,0 -14.252,-3.952 -17.955,-10.366 -3.703,-6.414 -3.704,-14.318 0,-20.733 3.704,-6.415 17.955,-28.901 17.955,-28.901 0,16.791 14.252,22.486 17.955,28.901 3.703,6.415 3.704,14.318 0,20.733 -3.704,6.415 -10.548,10.366 -17.955,10.366 z" />
		<path
   id="path388"
   d="m 1010.3,909.84 c -7.407,0 -14.252,-3.952 -17.955,-10.366 -3.704,-6.415 -3.704,-14.318 0,-20.733 3.704,-6.415 17.955,-28.901 17.955,-28.901 0,16.791 14.252,22.486 17.955,28.901 3.703,6.415 3.703,14.318 0,20.733 -3.703,6.415 -10.548,10.366 -17.955,10.366 z" />
		<path
   id="path390"
   d="m 437.7,1597.3 c -7.407,0 -14.252,-3.952 -17.955,-10.366 -3.703,-6.414 -3.704,-14.318 0,-20.733 3.704,-6.415 17.955,-28.901 17.955,-28.901 0,16.791 14.252,22.486 17.955,28.901 3.704,6.415 3.704,14.318 0,20.733 -3.704,6.415 -10.548,10.366 -17.955,10.366 z" />
		<path
   id="path392"
   d="m 450.09,1118.7 c -7.407,0 -14.252,-3.952 -17.955,-10.366 -3.704,-6.415 -3.704,-14.318 0,-20.733 3.704,-6.415 17.955,-28.901 17.955,-28.901 0,16.791 14.252,22.486 17.955,28.901 3.703,6.415 3.704,14.318 0,20.733 -3.704,6.414 -10.548,10.366 -17.955,10.366 z" />
		<path
   id="path394"
   d="m 537.46,1199.1 c -7.407,0 -14.252,-3.952 -17.955,-10.366 -3.704,-6.415 -3.704,-14.318 0,-20.733 3.704,-6.415 17.955,-28.901 17.955,-28.901 0,16.791 14.252,22.486 17.955,28.901 3.704,6.415 3.704,14.318 0,20.733 -3.704,6.415 -10.548,10.366 -17.955,10.366 z" />
		<path
   id="path396"
   d="m 969.25,1357.1 c -7.407,0 -14.252,-3.952 -17.955,-10.366 -3.704,-6.415 -3.704,-14.318 0,-20.733 3.704,-6.415 17.955,-28.901 17.955,-28.901 0,16.791 14.252,22.486 17.955,28.901 3.703,6.415 3.704,14.318 0,20.733 -3.704,6.415 -10.548,10.366 -17.955,10.366 z" />
		<path
   id="path398"
   d="m 926.19,1313.2 c -7.407,0 -14.252,-3.952 -17.955,-10.366 -3.704,-6.415 -3.704,-14.318 0,-20.733 3.704,-6.415 17.955,-28.901 17.955,-28.901 0,16.791 14.252,22.486 17.955,28.901 3.704,6.415 3.704,14.318 0,20.733 -3.703,6.415 -10.548,10.366 -17.955,10.366 z" />
		<path
   id="path400"
   d="m 164.47,1129.9 c -7.407,0 -14.252,-3.952 -17.955,-10.366 -3.704,-6.415 -3.704,-14.318 0,-20.733 3.704,-6.415 17.955,-28.901 17.955,-28.901 0,16.791 14.252,22.486 17.955,28.901 3.704,6.415 3.704,14.318 0,20.733 -3.703,6.414 -10.548,10.366 -17.955,10.366 z" />
		<path
   id="path402"
   d="m 396.48,1109.5 c -7.407,0 -14.252,-3.952 -17.955,-10.366 -3.703,-6.414 -3.704,-14.318 0,-20.733 3.704,-6.415 17.955,-28.901 17.955,-28.901 0,16.791 14.252,22.486 17.955,28.901 3.704,6.415 3.704,14.318 0,20.733 -3.704,6.415 -10.548,10.366 -17.955,10.366 z" />
		<path
   id="path404"
   d="m 147.9,1010.4 c -7.407,0 -14.252,-3.952 -17.955,-10.366 -3.703,-6.414 -3.704,-14.318 0,-20.733 3.704,-6.415 17.955,-28.901 17.955,-28.901 0,16.791 14.252,22.486 17.955,28.901 3.703,6.415 3.704,14.318 0,20.733 -3.704,6.415 -10.548,10.366 -17.955,10.366 z" />
		<path
   id="path406"
   d="m 979.34,1275.6 c -7.407,0 -14.252,-3.952 -17.955,-10.366 -3.704,-6.415 -3.704,-14.318 0,-20.733 3.704,-6.415 17.955,-28.901 17.955,-28.901 0,16.791 14.252,22.486 17.955,28.901 3.703,6.415 3.704,14.318 0,20.733 -3.703,6.414 -10.548,10.366 -17.955,10.366 z" />
		<path
   id="path408"
   d="m 588.09,848.76 c -7.407,0 -14.252,-3.952 -17.955,-10.366 -3.703,-6.414 -3.704,-14.318 0,-20.733 3.704,-6.415 17.955,-28.901 17.955,-28.901 0,16.791 14.252,22.486 17.955,28.901 3.703,6.415 3.704,14.318 0,20.733 -3.704,6.415 -10.548,10.366 -17.955,10.366 z" />
		<path
   id="path410"
   d="m 974.25,800.98 c -7.407,0 -14.252,-3.952 -17.955,-10.366 -3.703,-6.414 -3.704,-14.318 0,-20.733 3.704,-6.415 17.955,-28.901 17.955,-28.901 0,16.791 14.252,22.486 17.955,28.901 3.703,6.415 3.704,14.318 0,20.733 -3.704,6.415 -10.548,10.366 -17.955,10.366 z" />
		<path
   id="path412"
   d="m 566.84,605.01 c -7.407,0 -14.252,-3.952 -17.955,-10.366 -3.703,-6.414 -3.704,-14.318 0,-20.733 3.704,-6.415 17.955,-28.901 17.955,-28.901 0,16.791 14.252,22.486 17.955,28.901 3.703,6.415 3.704,14.318 0,20.733 -3.704,6.415 -10.548,10.366 -17.955,10.366 z" />
		<path
   id="path414"
   d="m 226.48,1122 c -7.407,0 -14.252,-3.952 -17.955,-10.366 -3.704,-6.415 -3.704,-14.318 0,-20.733 3.704,-6.415 17.955,-28.901 17.955,-28.901 0,16.791 14.252,22.486 17.955,28.901 3.704,6.415 3.704,14.318 0,20.733 -3.704,6.415 -10.548,10.366 -17.955,10.366 z" />
		<path
   id="path416"
   d="m 178.34,1070.3 c -7.407,0 -14.252,-3.952 -17.955,-10.366 -3.704,-6.415 -3.704,-14.318 0,-20.733 3.704,-6.415 17.955,-28.901 17.955,-28.901 0,16.791 14.252,22.486 17.955,28.901 3.704,6.415 3.704,14.318 0,20.733 -3.704,6.415 -10.548,10.366 -17.955,10.366 z" />
		<path
   id="path418"
   d="m 596.18,493.56 c -7.407,0 -14.252,-3.952 -17.955,-10.366 -3.703,-6.414 -3.704,-14.318 0,-20.733 3.704,-6.415 17.955,-28.901 17.955,-28.901 0,16.791 14.252,22.486 17.955,28.901 3.704,6.415 3.704,14.318 0,20.733 -3.704,6.415 -10.548,10.366 -17.955,10.366 z" />
		<path
   id="path420"
   d="m 115.82,1150.8 c -7.407,0 -14.252,-3.952 -17.955,-10.366 -3.703,-6.414 -3.704,-14.318 0,-20.733 3.704,-6.415 17.955,-28.901 17.955,-28.901 0,16.791 14.252,22.486 17.955,28.901 3.704,6.415 3.704,14.318 0,20.733 -3.704,6.415 -10.548,10.366 -17.955,10.366 z" />
		<path
   id="path422"
   d="m 741.8,1028.1 c -7.407,0 -14.252,-3.952 -17.955,-10.366 -3.704,-6.415 -3.704,-14.318 0,-20.733 3.704,-6.415 17.955,-28.901 17.955,-28.901 0,16.791 14.252,22.486 17.955,28.901 3.703,6.415 3.704,14.318 0,20.733 -3.704,6.414 -10.548,10.366 -17.955,10.366 z" />
		<path
   id="path424"
   d="m 1160.4,1259.8 c -7.407,0 -14.251,-3.952 -17.955,-10.366 -3.703,-6.415 -3.703,-14.318 0,-20.733 3.704,-6.415 17.955,-28.901 17.955,-28.901 0,16.791 14.252,22.486 17.955,28.901 3.703,6.415 3.703,14.318 0,20.733 -3.704,6.414 -10.548,10.366 -17.955,10.366 z" />
		<path
   id="path426"
   d="m 958.29,931.1 c -7.407,0 -14.252,-3.952 -17.955,-10.366 -3.704,-6.415 -3.704,-14.318 0,-20.733 3.704,-6.415 17.955,-28.901 17.955,-28.901 0,16.791 14.252,22.486 17.955,28.901 3.703,6.415 3.704,14.318 0,20.733 -3.704,6.414 -10.548,10.366 -17.955,10.366 z" />
		<path
   id="path428"
   d="m 572.61,420.05 c -7.407,0 -14.252,-3.952 -17.955,-10.366 -3.704,-6.415 -3.704,-14.318 0,-20.733 3.704,-6.415 17.955,-28.901 17.955,-28.901 0,16.791 14.252,22.486 17.955,28.901 3.703,6.415 3.704,14.318 0,20.733 -3.703,6.414 -10.548,10.366 -17.955,10.366 z" />
		<path
   id="path430"
   d="m 400.82,1552.8 c -7.407,0 -14.252,-3.952 -17.955,-10.366 -3.704,-6.415 -3.704,-14.318 0,-20.733 3.704,-6.415 17.955,-28.901 17.955,-28.901 0,16.791 14.252,22.486 17.955,28.901 3.704,6.415 3.704,14.318 0,20.733 -3.703,6.415 -10.548,10.366 -17.955,10.366 z" />
		<path
   id="path432"
   d="m 629.53,1651.4 c -7.407,0 -14.252,-3.952 -17.955,-10.366 -3.704,-6.415 -3.704,-14.318 0,-20.733 3.704,-6.415 17.955,-28.901 17.955,-28.901 0,16.791 14.252,22.486 17.955,28.901 3.704,6.415 3.704,14.318 0,20.733 -3.704,6.414 -10.548,10.366 -17.955,10.366 z" />
		<path
   id="path434"
   d="m 608.79,1442.4 c -7.407,0 -14.252,-3.952 -17.955,-10.366 -3.704,-6.415 -3.704,-14.318 0,-20.733 3.704,-6.415 17.955,-28.901 17.955,-28.901 0,16.791 14.252,22.486 17.955,28.901 3.704,6.415 3.704,14.318 0,20.733 -3.703,6.415 -10.548,10.366 -17.955,10.366 z" />
		<path
   id="path436"
   d="m 759.92,1498.9 c -7.407,0 -14.252,-3.952 -17.955,-10.366 -3.704,-6.415 -3.704,-14.318 0,-20.733 3.704,-6.415 17.955,-28.901 17.955,-28.901 0,16.791 14.252,22.486 17.955,28.901 3.704,6.415 3.704,14.318 0,20.733 -3.703,6.414 -10.548,10.366 -17.955,10.366 z" />
		<path
   id="path438"
   d="m 467.52,725.75 c -7.407,0 -14.252,-3.952 -17.955,-10.366 -3.703,-6.414 -3.704,-14.318 0,-20.733 3.704,-6.415 17.955,-28.901 17.955,-28.901 0,16.791 14.252,22.486 17.955,28.901 3.704,6.415 3.704,14.318 0,20.733 -3.704,6.415 -10.548,10.366 -17.955,10.366 z" />
		<path
   id="path440"
   d="m 578.07,296.48 c -7.407,0 -14.252,-3.952 -17.955,-10.366 -3.704,-6.415 -3.704,-14.318 0,-20.733 3.704,-6.415 17.955,-28.901 17.955,-28.901 0,16.791 14.252,22.486 17.955,28.901 3.703,6.415 3.704,14.318 0,20.733 -3.703,6.414 -10.548,10.366 -17.955,10.366 z" />
		<path
   id="path442"
   d="m 164.8,1398.9 c -7.407,0 -14.252,-3.952 -17.955,-10.366 -3.704,-6.415 -3.704,-14.318 0,-20.733 3.704,-6.415 17.955,-28.901 17.955,-28.901 0,16.791 14.252,22.486 17.955,28.901 3.704,6.415 3.704,14.318 0,20.733 -3.704,6.414 -10.548,10.366 -17.955,10.366 z" />
		<path
   id="path444"
   d="m 417.8,1248.1 c -7.407,0 -14.252,-3.952 -17.955,-10.366 -3.703,-6.414 -3.704,-14.318 0,-20.733 3.704,-6.415 17.955,-28.901 17.955,-28.901 0,16.791 14.252,22.486 17.955,28.901 3.704,6.415 3.704,14.318 0,20.733 -3.704,6.415 -10.548,10.366 -17.955,10.366 z" />
		<path
   id="path446"
   d="m 536.16,858.45 c -7.407,0 -14.252,-3.952 -17.955,-10.366 -3.703,-6.414 -3.704,-14.318 0,-20.733 3.704,-6.415 17.955,-28.901 17.955,-28.901 0,16.791 14.252,22.486 17.955,28.901 3.704,6.415 3.704,14.318 0,20.733 -3.704,6.415 -10.548,10.366 -17.955,10.366 z" />
		<path
   id="path448"
   d="m 678.42,564.27 c -7.407,0 -14.252,-3.952 -17.955,-10.366 -3.703,-6.414 -3.704,-14.318 0,-20.733 3.704,-6.415 17.955,-28.901 17.955,-28.901 0,16.791 14.252,22.486 17.955,28.901 3.703,6.415 3.704,14.318 0,20.733 -3.704,6.415 -10.548,10.366 -17.955,10.366 z" />
		<path
   id="path450"
   d="m 754.26,1701 c -7.407,0 -14.252,-3.952 -17.955,-10.366 -3.704,-6.415 -3.704,-14.318 0,-20.733 3.704,-6.415 17.955,-28.901 17.955,-28.901 0,16.791 14.252,22.486 17.955,28.901 3.704,6.415 3.704,14.318 0,20.733 -3.703,6.415 -10.548,10.366 -17.955,10.366 z" />
		<path
   id="path452"
   d="m 441.32,532.15 c -7.407,0 -14.252,-3.952 -17.955,-10.366 -3.703,-6.414 -3.704,-14.318 0,-20.733 3.704,-6.415 17.955,-28.901 17.955,-28.901 0,16.791 14.252,22.486 17.955,28.901 3.704,6.415 3.704,14.318 0,20.733 -3.704,6.415 -10.548,10.366 -17.955,10.366 z" />
		<path
   id="path454"
   d="m 261.29,886.15 c -7.407,0 -14.252,-3.952 -17.955,-10.366 -3.704,-6.415 -3.704,-14.318 0,-20.733 3.704,-6.415 17.955,-28.901 17.955,-28.901 0,16.791 14.252,22.486 17.955,28.901 3.703,6.415 3.704,14.318 0,20.733 -3.703,6.414 -10.548,10.366 -17.955,10.366 z" />
		<path
   id="path456"
   d="m 811.66,772.62 c -7.407,0 -14.252,-3.952 -17.955,-10.366 -3.704,-6.415 -3.704,-14.318 0,-20.733 3.704,-6.415 17.955,-28.901 17.955,-28.901 0,16.791 14.252,22.486 17.955,28.901 3.704,6.415 3.704,14.318 0,20.733 -3.703,6.414 -10.548,10.366 -17.955,10.366 z" />
		<path
   id="path458"
   d="m 743.58,1142.6 c -7.407,0 -14.252,-3.952 -17.955,-10.366 -3.704,-6.415 -3.704,-14.318 0,-20.733 3.704,-6.415 17.955,-28.901 17.955,-28.901 0,16.791 14.252,22.486 17.955,28.901 3.704,6.415 3.704,14.318 0,20.733 -3.704,6.415 -10.548,10.366 -17.955,10.366 z" />
		<path
   id="path460"
   d="m 371.26,1289.3 c -7.407,0 -14.252,-3.952 -17.955,-10.366 -3.704,-6.415 -3.704,-14.318 0,-20.733 3.704,-6.415 17.955,-28.901 17.955,-28.901 0,16.791 14.252,22.486 17.955,28.901 3.704,6.415 3.704,14.318 0,20.733 -3.704,6.414 -10.548,10.366 -17.955,10.366 z" />
		<path
   id="path462"
   d="m 381.35,996.15 c -7.407,0 -14.252,-3.952 -17.955,-10.366 -3.703,-6.414 -3.704,-14.318 0,-20.733 3.704,-6.415 17.955,-28.901 17.955,-28.901 0,16.791 14.252,22.486 17.955,28.901 3.703,6.415 3.704,14.318 0,20.733 -3.704,6.415 -10.548,10.366 -17.955,10.366 z" />
		<path
   id="path464"
   d="m 1105.3,1284 c -7.407,0 -14.252,-3.952 -17.955,-10.366 -3.704,-6.415 -3.704,-14.318 0,-20.733 3.703,-6.415 17.955,-28.901 17.955,-28.901 0,16.791 14.252,22.486 17.955,28.901 3.704,6.415 3.704,14.318 0,20.733 -3.703,6.415 -10.548,10.366 -17.955,10.366 z" />
		<path
   id="path466"
   d="m 460.92,1531 c -7.407,0 -14.252,-3.952 -17.955,-10.366 -3.704,-6.415 -3.704,-14.318 0,-20.733 3.704,-6.415 17.955,-28.901 17.955,-28.901 0,16.791 14.252,22.486 17.955,28.901 3.704,6.415 3.704,14.318 0,20.733 -3.703,6.415 -10.547,10.366 -17.955,10.366 z" />
		<path
   id="path468"
   d="m 708.51,1651.5 c -7.407,0 -14.252,-3.952 -17.955,-10.366 -3.704,-6.415 -3.704,-14.318 0,-20.733 3.704,-6.415 17.955,-28.901 17.955,-28.901 0,16.791 14.252,22.486 17.955,28.901 3.704,6.415 3.704,14.318 0,20.733 -3.703,6.415 -10.548,10.366 -17.955,10.366 z" />
		<path
   id="path470"
   d="m 442.15,980.08 c -7.407,0 -14.252,-3.952 -17.955,-10.366 -3.703,-6.414 -3.704,-14.318 0,-20.733 3.704,-6.415 17.955,-28.901 17.955,-28.901 0,16.791 14.252,22.486 17.955,28.901 3.704,6.415 3.704,14.318 0,20.733 -3.704,6.415 -10.548,10.366 -17.955,10.366 z" />
		<path
   id="path472"
   d="m 1054.5,1079.9 c -7.407,0 -14.252,-3.952 -17.955,-10.366 -3.703,-6.415 -3.703,-14.318 0,-20.733 3.704,-6.415 17.955,-28.901 17.955,-28.901 0,16.791 14.251,22.486 17.955,28.901 3.703,6.415 3.703,14.318 0,20.733 -3.704,6.415 -10.548,10.366 -17.955,10.366 z" />
		<path
   id="path474"
   d="m 335.77,1108.2 c -7.407,0 -14.252,-3.952 -17.955,-10.366 -3.704,-6.415 -3.704,-14.318 0,-20.733 3.704,-6.415 17.955,-28.901 17.955,-28.901 0,16.791 14.252,22.486 17.955,28.901 3.704,6.415 3.704,14.318 0,20.733 -3.704,6.415 -10.548,10.366 -17.955,10.366 z" />
		<path
   id="path476"
   d="m 557.53,1624.6 c -7.407,0 -14.252,-3.952 -17.955,-10.366 -3.704,-6.415 -3.704,-14.318 0,-20.733 3.704,-6.415 17.955,-28.901 17.955,-28.901 0,16.791 14.252,22.486 17.955,28.901 3.704,6.415 3.704,14.318 0,20.733 -3.703,6.415 -10.548,10.366 -17.955,10.366 z" />
		<path
   id="path478"
   d="m 952.84,1216.1 c -7.407,0 -14.252,-3.952 -17.955,-10.366 -3.704,-6.415 -3.704,-14.318 0,-20.733 3.704,-6.415 17.955,-28.901 17.955,-28.901 0,16.791 14.252,22.486 17.955,28.901 3.704,6.415 3.704,14.318 0,20.733 -3.703,6.415 -10.548,10.366 -17.955,10.366 z" />
		<path
   id="path480"
   d="m 773.26,1636.1 c -7.407,0 -14.252,-3.952 -17.955,-10.366 -3.704,-6.415 -3.704,-14.318 0,-20.733 3.704,-6.415 17.955,-28.901 17.955,-28.901 0,16.791 14.252,22.486 17.955,28.901 3.704,6.415 3.704,14.318 0,20.733 -3.703,6.414 -10.548,10.366 -17.955,10.366 z" />
		<path
   id="path482"
   d="m 1169.1,1184.4 c -7.407,0 -14.252,-3.952 -17.955,-10.366 -3.704,-6.415 -3.704,-14.318 0,-20.733 3.703,-6.415 17.955,-28.901 17.955,-28.901 0,16.791 14.252,22.486 17.955,28.901 3.704,6.415 3.704,14.318 0,20.733 -3.703,6.414 -10.548,10.366 -17.955,10.366 z" />
		<path
   id="path484"
   d="m 262.75,1274.6 c -7.407,0 -14.252,-3.952 -17.955,-10.366 -3.704,-6.415 -3.704,-14.318 0,-20.733 3.704,-6.415 17.955,-28.901 17.955,-28.901 0,16.791 14.252,22.486 17.955,28.901 3.704,6.415 3.704,14.318 0,20.733 -3.703,6.415 -10.547,10.366 -17.955,10.366 z" />
		<path
   id="path486"
   d="m 650.34,375.39 c -7.407,0 -14.252,-3.952 -17.955,-10.366 -3.703,-6.414 -3.704,-14.318 0,-20.733 3.704,-6.415 17.955,-28.901 17.955,-28.901 0,16.791 14.252,22.486 17.955,28.901 3.704,6.415 3.704,14.318 0,20.733 -3.704,6.415 -10.548,10.366 -17.955,10.366 z" />
		<path
   id="path488"
   d="m 776.14,1433.6 c -7.407,0 -14.252,-3.952 -17.955,-10.366 -3.704,-6.415 -3.704,-14.318 0,-20.733 3.704,-6.415 17.955,-28.901 17.955,-28.901 0,16.791 14.252,22.486 17.955,28.901 3.704,6.415 3.704,14.318 0,20.733 -3.703,6.415 -10.548,10.366 -17.955,10.366 z" />
		<path
   id="path490"
   d="m 311.08,721.41 c -7.407,0 -14.252,-3.952 -17.955,-10.366 -3.703,-6.414 -3.704,-14.318 0,-20.733 3.704,-6.415 17.955,-28.901 17.955,-28.901 0,16.791 14.252,22.486 17.955,28.901 3.704,6.415 3.704,14.318 0,20.733 -3.704,6.415 -10.548,10.366 -17.955,10.366 z" />
		<path
   id="path492"
   d="m 752.38,657.73 c -7.407,0 -14.252,-3.952 -17.955,-10.366 -3.703,-6.414 -3.704,-14.318 0,-20.733 3.704,-6.415 17.955,-28.901 17.955,-28.901 0,16.791 14.252,22.486 17.955,28.901 3.704,6.415 3.704,14.318 0,20.733 -3.704,6.415 -10.548,10.366 -17.955,10.366 z" />
		<path
   id="path494"
   d="m 602.56,743.76 c -7.407,0 -14.252,-3.952 -17.955,-10.366 -3.703,-6.414 -3.704,-14.318 0,-20.733 3.704,-6.415 17.955,-28.901 17.955,-28.901 0,16.791 14.252,22.486 17.955,28.901 3.703,6.415 3.704,14.318 0,20.733 -3.704,6.415 -10.548,10.366 -17.955,10.366 z" />
		<path
   id="path496"
   d="m 557.7,1058.6 c -7.407,0 -14.252,-3.952 -17.955,-10.366 -3.704,-6.415 -3.704,-14.318 0,-20.733 3.704,-6.415 17.955,-28.901 17.955,-28.901 0,16.791 14.252,22.486 17.955,28.901 3.704,6.415 3.704,14.318 0,20.733 -3.703,6.414 -10.548,10.366 -17.955,10.366 z" />
		<path
   id="path498"
   d="m 231.26,1498.8 c -7.407,0 -14.252,-3.952 -17.955,-10.366 -3.704,-6.415 -3.704,-14.318 0,-20.733 3.704,-6.415 17.955,-28.901 17.955,-28.901 0,16.791 14.252,22.486 17.955,28.901 3.704,6.415 3.704,14.318 0,20.733 -3.703,6.414 -10.548,10.366 -17.955,10.366 z" />
		<path
   id="path500"
   d="m 445.99,1192.6 c -7.407,0 -14.252,-3.952 -17.955,-10.366 -3.704,-6.415 -3.704,-14.318 0,-20.733 3.704,-6.415 17.955,-28.901 17.955,-28.901 0,16.791 14.252,22.486 17.955,28.901 3.704,6.415 3.704,14.318 0,20.733 -3.703,6.414 -10.548,10.366 -17.955,10.366 z" />
		<path
   id="path502"
   d="m 637.94,694.73 c -7.407,0 -14.252,-3.952 -17.955,-10.366 -3.703,-6.414 -3.704,-14.318 0,-20.733 3.704,-6.415 17.955,-28.901 17.955,-28.901 0,16.791 14.252,22.486 17.955,28.901 3.704,6.415 3.704,14.318 0,20.733 -3.704,6.415 -10.547,10.366 -17.955,10.366 z" />
		<path
   id="path504"
   d="m 1051.9,951.26 c -7.407,0 -14.252,-3.952 -17.955,-10.366 -3.704,-6.415 -3.704,-14.318 0,-20.733 3.703,-6.415 17.955,-28.901 17.955,-28.901 0,16.791 14.252,22.486 17.955,28.901 3.704,6.415 3.704,14.318 0,20.733 -3.704,6.414 -10.548,10.366 -17.955,10.366 z" />
		<path
   id="path506"
   d="m 395.34,647.04 c -7.407,0 -14.252,-3.952 -17.955,-10.366 -3.704,-6.415 -3.704,-14.318 0,-20.733 3.704,-6.415 17.955,-28.901 17.955,-28.901 0,16.791 14.252,22.486 17.955,28.901 3.704,6.415 3.704,14.318 0,20.733 -3.703,6.415 -10.548,10.366 -17.955,10.366 z" />
		<path
   id="path508"
   d="m 501.88,1688.6 c -7.407,0 -14.252,-3.952 -17.955,-10.366 -3.704,-6.415 -3.704,-14.318 0,-20.733 3.704,-6.415 17.955,-28.901 17.955,-28.901 0,16.791 14.252,22.486 17.955,28.901 3.704,6.415 3.704,14.318 0,20.733 -3.703,6.414 -10.548,10.366 -17.955,10.366 z" />
		<path
   id="path510"
   d="m 772.47,1083.1 c -7.407,0 -14.252,-3.952 -17.955,-10.366 -3.704,-6.415 -3.704,-14.318 0,-20.733 3.704,-6.415 17.955,-28.901 17.955,-28.901 0,16.791 14.252,22.486 17.955,28.901 3.704,6.415 3.704,14.318 0,20.733 -3.704,6.414 -10.548,10.366 -17.955,10.366 z" />
		<path
   id="path512"
   d="m 935.56,824.04 c -7.407,0 -14.252,-3.952 -17.955,-10.366 -3.703,-6.414 -3.704,-14.318 0,-20.733 3.704,-6.415 17.955,-28.901 17.955,-28.901 0,16.791 14.252,22.486 17.955,28.901 3.703,6.415 3.704,14.318 0,20.733 -3.704,6.415 -10.548,10.366 -17.955,10.366 z" />
		<path
   id="path514"
   d="m 713.97,912.81 c -7.407,0 -14.252,-3.952 -17.955,-10.366 -3.703,-6.414 -3.704,-14.318 0,-20.733 3.704,-6.415 17.955,-28.901 17.955,-28.901 0,16.791 14.252,22.486 17.955,28.901 3.704,6.415 3.704,14.318 0,20.733 -3.704,6.415 -10.548,10.366 -17.955,10.366 z" />
		<path
   id="path516"
   d="m 886.55,1107.6 c -7.407,0 -14.252,-3.952 -17.955,-10.366 -3.704,-6.415 -3.704,-14.318 0,-20.733 3.704,-6.415 17.955,-28.901 17.955,-28.901 0,16.791 14.252,22.486 17.955,28.901 3.704,6.415 3.704,14.318 0,20.733 -3.703,6.414 -10.548,10.366 -17.955,10.366 z" />
		<path
   id="path518"
   d="m 322.74,1390.7 c -7.407,0 -14.252,-3.952 -17.955,-10.366 -3.704,-6.415 -3.704,-14.318 0,-20.733 3.704,-6.415 17.955,-28.901 17.955,-28.901 0,16.791 14.252,22.486 17.955,28.901 3.704,6.415 3.704,14.318 0,20.733 -3.704,6.414 -10.548,10.366 -17.955,10.366 z" />
		<path
   id="path520"
   d="m 416.66,853.21 c -7.407,0 -14.252,-3.952 -17.955,-10.366 -3.704,-6.415 -3.704,-14.318 0,-20.733 3.704,-6.415 17.955,-28.901 17.955,-28.901 0,16.791 14.252,22.486 17.955,28.901 3.704,6.415 3.704,14.318 0,20.733 -3.703,6.415 -10.548,10.366 -17.955,10.366 z" />
		<path
   id="path522"
   d="m 824.16,956.11 c -7.407,0 -14.252,-3.952 -17.955,-10.366 -3.703,-6.414 -3.704,-14.318 0,-20.733 3.704,-6.415 17.955,-28.901 17.955,-28.901 0,16.791 14.252,22.486 17.955,28.901 3.703,6.415 3.704,14.318 0,20.733 -3.704,6.415 -10.548,10.366 -17.955,10.366 z" />
		<path
   id="path524"
   d="m 493.51,1613.1 c -7.407,0 -14.252,-3.952 -17.955,-10.366 -3.704,-6.415 -3.704,-14.318 0,-20.733 3.704,-6.415 17.955,-28.901 17.955,-28.901 0,16.791 14.252,22.486 17.955,28.901 3.704,6.415 3.704,14.318 0,20.733 -3.704,6.414 -10.548,10.366 -17.955,10.366 z" />
		<path
   id="path526"
   d="m 543.74,358.66 c -7.407,0 -14.252,-3.952 -17.955,-10.366 -3.704,-6.415 -3.704,-14.318 0,-20.733 3.704,-6.415 17.955,-28.901 17.955,-28.901 0,16.791 14.252,22.486 17.955,28.901 3.703,6.415 3.704,14.318 0,20.733 -3.703,6.414 -10.548,10.366 -17.955,10.366 z" />
		<path
   id="path528"
   d="m 144.05,1343.4 c -7.407,0 -14.252,-3.952 -17.955,-10.366 -3.704,-6.415 -3.704,-14.318 0,-20.733 3.704,-6.415 17.955,-28.901 17.955,-28.901 0,16.791 14.252,22.486 17.955,28.901 3.704,6.415 3.704,14.318 0,20.733 -3.704,6.414 -10.548,10.366 -17.955,10.366 z" />
		<path
   id="path530"
   d="m 248.79,1193.2 c -7.407,0 -14.252,-3.952 -17.955,-10.366 -3.704,-6.415 -3.704,-14.318 0,-20.733 3.704,-6.415 17.955,-28.901 17.955,-28.901 0,16.791 14.252,22.486 17.955,28.901 3.704,6.415 3.704,14.318 0,20.733 -3.703,6.414 -10.548,10.366 -17.955,10.366 z" />
		<path
   id="path532"
   d="m 1144.8,1327.1 c -7.407,0 -14.251,-3.952 -17.955,-10.366 -3.703,-6.415 -3.703,-14.318 0,-20.733 3.704,-6.415 17.955,-28.901 17.955,-28.901 0,16.791 14.252,22.486 17.955,28.901 3.703,6.415 3.703,14.318 0,20.733 -3.703,6.414 -10.548,10.366 -17.955,10.366 z" />
		<path
   id="path534"
   d="m 881.5,1647.8 c -7.407,0 -14.252,-3.952 -17.955,-10.366 -3.704,-6.415 -3.704,-14.318 0,-20.733 3.704,-6.415 17.955,-28.901 17.955,-28.901 0,16.791 14.252,22.486 17.955,28.901 3.704,6.415 3.704,14.318 0,20.733 -3.703,6.414 -10.548,10.366 -17.955,10.366 z" />
		<path
   id="path536"
   d="m 214.6,1243.6 c -7.407,0 -14.252,-3.952 -17.955,-10.366 -3.704,-6.415 -3.704,-14.318 0,-20.733 3.704,-6.415 17.955,-28.901 17.955,-28.901 0,16.791 14.252,22.486 17.955,28.901 3.703,6.415 3.704,14.318 0,20.733 -3.704,6.414 -10.548,10.366 -17.955,10.366 z" />
		<path
   id="path538"
   d="m 376.78,1631.7 c -7.407,0 -14.252,-3.952 -17.955,-10.366 -3.704,-6.415 -3.704,-14.318 0,-20.733 3.704,-6.415 17.955,-28.901 17.955,-28.901 0,16.791 14.252,22.486 17.955,28.901 3.703,6.415 3.704,14.318 0,20.733 -3.703,6.415 -10.547,10.366 -17.955,10.366 z" />
		<path
   id="path540"
   d="m 618.33,228.33 c -7.407,0 -14.252,-3.952 -17.955,-10.366 -3.704,-6.415 -3.704,-14.318 0,-20.733 3.704,-6.415 17.955,-28.901 17.955,-28.901 0,16.791 14.252,22.486 17.955,28.901 3.704,6.415 3.704,14.318 0,20.733 -3.704,6.415 -10.548,10.366 -17.955,10.366 z" />
		<path
   id="path542"
   d="m 657.62,944.27 c -7.407,0 -14.252,-3.952 -17.955,-10.366 -3.704,-6.415 -3.704,-14.318 0,-20.733 3.704,-6.415 17.955,-28.901 17.955,-28.901 0,16.791 14.252,22.486 17.955,28.901 3.703,6.415 3.704,14.318 0,20.733 -3.704,6.415 -10.548,10.366 -17.955,10.366 z" />
		<path
   id="path544"
   d="m 365.88,1221.3 c -7.407,0 -14.252,-3.952 -17.955,-10.366 -3.704,-6.415 -3.704,-14.318 0,-20.733 3.704,-6.415 17.955,-28.901 17.955,-28.901 0,16.791 14.252,22.486 17.955,28.901 3.704,6.415 3.704,14.318 0,20.733 -3.703,6.414 -10.548,10.366 -17.955,10.366 z" />
		<path
   id="path546"
   d="m 1006.9,1106.9 c -7.407,0 -14.252,-3.952 -17.955,-10.366 -3.704,-6.415 -3.704,-14.318 0,-20.733 3.704,-6.415 17.955,-28.901 17.955,-28.901 0,16.791 14.252,22.486 17.955,28.901 3.703,6.415 3.703,14.318 0,20.733 -3.703,6.414 -10.548,10.366 -17.955,10.366 z" />
		<path
   id="path548"
   d="m 804.42,643.45 c -7.407,0 -14.252,-3.952 -17.955,-10.366 -3.703,-6.414 -3.704,-14.318 0,-20.733 3.704,-6.415 17.955,-28.901 17.955,-28.901 0,16.791 14.252,22.486 17.955,28.901 3.703,6.415 3.704,14.318 0,20.733 -3.704,6.415 -10.547,10.366 -17.955,10.366 z" />
		<path
   id="path550"
   d="m 569.55,787.36 c -7.407,0 -14.252,-3.952 -17.955,-10.366 -3.704,-6.415 -3.704,-14.318 0,-20.733 3.704,-6.415 17.955,-28.901 17.955,-28.901 0,16.791 14.252,22.486 17.955,28.901 3.703,6.415 3.704,14.318 0,20.733 -3.704,6.415 -10.548,10.366 -17.955,10.366 z" />
		<path
   id="path552"
   d="m 201.02,1010 c -7.407,0 -14.252,-3.952 -17.955,-10.366 -3.704,-6.415 -3.704,-14.318 0,-20.733 C 186.769,972.486 201.02,950 201.02,950 c 0,16.791 14.252,22.486 17.955,28.901 3.703,6.415 3.704,14.318 0,20.733 -3.704,6.414 -10.548,10.366 -17.955,10.366 z" />
		<path
   id="path554"
   d="m 620.85,1714.9 c -7.407,0 -14.252,-3.952 -17.955,-10.366 -3.704,-6.415 -3.704,-14.318 0,-20.733 3.704,-6.415 17.955,-28.901 17.955,-28.901 0,16.791 14.252,22.486 17.955,28.901 3.704,6.415 3.704,14.318 0,20.733 -3.704,6.414 -10.548,10.366 -17.955,10.366 z" />
		<path
   id="path556"
   d="m 669.6,745.22 c -7.407,0 -14.252,-3.952 -17.955,-10.366 -3.703,-6.414 -3.704,-14.318 0,-20.733 3.704,-6.415 17.955,-28.901 17.955,-28.901 0,16.791 14.252,22.486 17.955,28.901 3.703,6.415 3.704,14.318 0,20.733 -3.704,6.415 -10.548,10.366 -17.955,10.366 z" />
		<path
   id="path558"
   d="m 851.5,834.32 c -7.407,0 -14.252,-3.952 -17.955,-10.366 -3.704,-6.415 -3.704,-14.318 0,-20.733 3.704,-6.415 17.955,-28.901 17.955,-28.901 0,16.791 14.252,22.486 17.955,28.901 3.704,6.415 3.704,14.318 0,20.733 -3.703,6.414 -10.548,10.366 -17.955,10.366 z" />
		<path
   id="path560"
   d="m 763.25,587.53 c -7.407,0 -14.252,-3.952 -17.955,-10.366 -3.703,-6.414 -3.704,-14.318 0,-20.733 3.704,-6.415 17.955,-28.901 17.955,-28.901 0,16.791 14.252,22.486 17.955,28.901 3.703,6.415 3.704,14.318 0,20.733 -3.704,6.415 -10.548,10.366 -17.955,10.366 z" />
		<path
   id="path562"
   d="m 504,1497.6 c -7.407,0 -14.252,-3.952 -17.955,-10.366 -3.704,-6.415 -3.704,-14.318 0,-20.733 3.704,-6.415 17.955,-28.901 17.955,-28.901 0,16.791 14.252,22.486 17.955,28.901 3.704,6.415 3.704,14.318 0,20.733 -3.703,6.414 -10.548,10.366 -17.955,10.366 z" />
		<path
   id="path564"
   d="m 1006,974.27 c -7.407,0 -14.252,-3.952 -17.955,-10.366 -3.703,-6.414 -3.704,-14.318 0,-20.733 3.704,-6.415 17.955,-28.901 17.955,-28.901 0,16.791 14.252,22.486 17.955,28.901 3.703,6.415 3.703,14.318 0,20.733 -3.703,6.414 -10.547,10.366 -17.955,10.366 z" />
		<path
   id="path566"
   d="m 346.12,1455.8 c -7.407,0 -14.252,-3.952 -17.955,-10.366 -3.704,-6.415 -3.704,-14.318 0,-20.733 3.704,-6.415 17.955,-28.901 17.955,-28.901 0,16.791 14.252,22.486 17.955,28.901 3.703,6.415 3.704,14.318 0,20.733 -3.704,6.414 -10.548,10.366 -17.955,10.366 z" />
		<path
   id="path568"
   d="m 942.27,1494.9 c -7.407,0 -14.252,-3.952 -17.955,-10.366 -3.704,-6.415 -3.704,-14.318 0,-20.733 3.704,-6.415 17.955,-28.901 17.955,-28.901 0,16.791 14.252,22.486 17.955,28.901 3.704,6.415 3.704,14.318 0,20.733 -3.703,6.414 -10.548,10.366 -17.955,10.366 z" />
		<path
   id="path570"
   d="m 695.75,674.59 c -7.407,0 -14.252,-3.952 -17.955,-10.366 -3.703,-6.414 -3.704,-14.318 0,-20.733 3.704,-6.415 17.955,-28.901 17.955,-28.901 0,16.791 14.252,22.486 17.955,28.901 3.704,6.415 3.704,14.318 0,20.733 -3.704,6.415 -10.548,10.366 -17.955,10.366 z" />
		<path
   id="path572"
   d="m 969.48,869.63 c -7.407,0 -14.252,-3.952 -17.955,-10.366 -3.703,-6.414 -3.704,-14.318 0,-20.733 3.704,-6.415 17.955,-28.901 17.955,-28.901 0,16.791 14.252,22.486 17.955,28.901 3.703,6.415 3.704,14.318 0,20.733 -3.704,6.415 -10.548,10.366 -17.955,10.366 z" />
		<path
   id="path574"
   d="m 775.02,1562.4 c -7.407,0 -14.252,-3.952 -17.955,-10.366 -3.704,-6.415 -3.704,-14.318 0,-20.733 3.704,-6.415 17.955,-28.901 17.955,-28.901 0,16.791 14.252,22.486 17.955,28.901 3.704,6.415 3.704,14.318 0,20.733 -3.704,6.414 -10.548,10.366 -17.955,10.366 z" />
		<path
   id="path576"
   d="m 371.01,1057.3 c -7.407,0 -14.252,-3.952 -17.955,-10.366 -3.704,-6.415 -3.704,-14.318 0,-20.733 3.704,-6.415 17.955,-28.901 17.955,-28.901 0,16.791 14.252,22.486 17.955,28.901 3.704,6.415 3.704,14.318 0,20.733 -3.703,6.414 -10.548,10.366 -17.955,10.366 z" />
		<path
   id="path578"
   d="m 822.02,1679.4 c -7.407,0 -14.252,-3.952 -17.955,-10.366 -3.704,-6.415 -3.704,-14.318 0,-20.733 3.704,-6.415 17.955,-28.901 17.955,-28.901 0,16.791 14.252,22.486 17.955,28.901 3.704,6.415 3.704,14.318 0,20.733 -3.704,6.415 -10.548,10.366 -17.955,10.366 z" />
		<path
   id="path580"
   d="m 698.88,800.92 c -7.407,0 -14.252,-3.952 -17.955,-10.366 -3.704,-6.415 -3.704,-14.318 0,-20.733 3.704,-6.415 17.955,-28.901 17.955,-28.901 0,16.791 14.252,22.486 17.955,28.901 3.703,6.415 3.704,14.318 0,20.733 -3.703,6.414 -10.548,10.366 -17.955,10.366 z" />
		<path
   id="path582"
   d="m 779.81,716.15 c -7.407,0 -14.252,-3.952 -17.955,-10.366 -3.703,-6.414 -3.704,-14.318 0,-20.733 3.704,-6.415 17.955,-28.901 17.955,-28.901 0,16.791 14.252,22.486 17.955,28.901 3.703,6.415 3.704,14.318 0,20.733 -3.704,6.415 -10.548,10.366 -17.955,10.366 z" />
		<path
   id="path584"
   d="m 272.73,945.14 c -7.407,0 -14.252,-3.952 -17.955,-10.366 -3.704,-6.415 -3.704,-14.318 0,-20.733 3.704,-6.415 17.955,-28.901 17.955,-28.901 0,16.791 14.252,22.486 17.955,28.901 3.703,6.415 3.704,14.318 0,20.733 -3.703,6.414 -10.548,10.366 -17.955,10.366 z" />
		<path
   id="path586"
   d="m 712,1082.4 c -7.407,0 -14.252,-3.952 -17.955,-10.366 -3.704,-6.415 -3.704,-14.318 0,-20.733 3.704,-6.415 17.955,-28.901 17.955,-28.901 0,16.791 14.252,22.486 17.955,28.901 3.704,6.415 3.704,14.318 0,20.733 -3.704,6.415 -10.548,10.366 -17.955,10.366 z" />
		<path
   id="path588"
   d="m 349.9,938.65 c -7.407,0 -14.252,-3.952 -17.955,-10.366 -3.703,-6.414 -3.704,-14.318 0,-20.733 3.704,-6.415 17.955,-28.901 17.955,-28.901 0,16.791 14.252,22.486 17.955,28.901 3.703,6.415 3.704,14.318 0,20.733 -3.704,6.415 -10.548,10.366 -17.955,10.366 z" />
		<path
   id="path590"
   d="m 351.13,1533.5 c -7.407,0 -14.252,-3.952 -17.955,-10.366 -3.704,-6.415 -3.704,-14.318 0,-20.733 3.704,-6.415 17.955,-28.901 17.955,-28.901 0,16.791 14.252,22.486 17.955,28.901 3.704,6.415 3.704,14.318 0,20.733 -3.703,6.414 -10.548,10.366 -17.955,10.366 z" />
		<path
   id="path592"
   d="m 521.46,799.41 c -7.407,0 -14.252,-3.952 -17.955,-10.366 -3.703,-6.414 -3.704,-14.318 0,-20.733 3.704,-6.415 17.955,-28.901 17.955,-28.901 0,16.791 14.252,22.486 17.955,28.901 3.703,6.415 3.704,14.318 0,20.733 -3.704,6.415 -10.548,10.366 -17.955,10.366 z" />
		<path
   id="path594"
   d="m 560.94,918.93 c -7.407,0 -14.252,-3.952 -17.955,-10.366 -3.703,-6.414 -3.704,-14.318 0,-20.733 3.704,-6.415 17.955,-28.901 17.955,-28.901 0,16.791 14.252,22.486 17.955,28.901 3.703,6.415 3.704,14.318 0,20.733 -3.704,6.415 -10.548,10.366 -17.955,10.366 z" />
		<path
   id="path596"
   d="m 338.73,774.94 c -7.407,0 -14.252,-3.952 -17.955,-10.366 -3.703,-6.414 -3.704,-14.318 0,-20.733 3.704,-6.415 17.955,-28.901 17.955,-28.901 0,16.791 14.252,22.486 17.955,28.901 3.703,6.415 3.704,14.318 0,20.733 -3.704,6.415 -10.548,10.366 -17.955,10.366 z" />
		<path
   id="path598"
   d="m 562.89,1697.7 c -7.407,0 -14.252,-3.952 -17.955,-10.366 -3.704,-6.415 -3.704,-14.318 0,-20.733 3.704,-6.415 17.955,-28.901 17.955,-28.901 0,16.791 14.252,22.486 17.955,28.901 3.704,6.415 3.704,14.318 0,20.733 -3.704,6.414 -10.548,10.366 -17.955,10.366 z" />
		<path
   id="path600"
   d="m 430.84,683.61 c -7.407,0 -14.252,-3.952 -17.955,-10.366 -3.704,-6.415 -3.704,-14.318 0,-20.733 3.704,-6.415 17.955,-28.901 17.955,-28.901 0,16.791 14.252,22.486 17.955,28.901 3.703,6.415 3.704,14.318 0,20.733 -3.704,6.414 -10.548,10.366 -17.955,10.366 z" />
</svg>